<?xml version="1.0" encoding="UTF-8" standalone="no"?>
<!DOCTYPE svg PUBLIC "-//W3C//DTD SVG 1.1//EN" "http://www.w3.org/Graphics/SVG/1.1/DTD/svg11.dtd">
<svg xmlns="http://www.w3.org/2000/svg" xmlns:xlink="http://www.w3.org/1999/xlink" version="1.1" width="612pt" height="792pt" viewBox="0 0 612 792">
<g enable-background="new">
<text xml:space="preserve" transform="matrix(.75 0 0 .75 0 0)" font-size="14.6921" font-family="F2"><tspan y="109.92" x="96 103.44649 107.15538 110.47688 117.2275 124.86739 131.90497 137.02712 144.3373 147.6588 154.85793 162.49782 165.73009 173.04027 179.4035 187.0434 194.35358 199.47573 202.70798 210.01816 217.73725 224.05486 231.36504 234.5973 245.09986 252.59282 259.903 267.6221 270.9436 277.5938 285.34159 292.98149 296.30299 304.02207 311.33226 314.70399 318.0757 325.7156 333.0258 338.14796 345.05323 349.97453 357.4675 360.83924 367.30378 370.62528 378.34437 385.98426 391.86109 399.50099 406.81117 414.30415 417.62565 424.384 432.31776 439.95765 445.0798 450.66279 457.97297 461.3447 465.75233 469.07383 476.7929 483.99205 490.7504 498.49818 506.21726 513.93637 517.16867 523.6331 531.56686 539.2067 544.32888 547.6504 553.67416 561.60787 573.3443 577.7519 585.4997 590.6218 595.5431 598.8646 604.59457 612.34237 620.06149 627.37167 631.0805 634.40206 638.10379 645.74368 648.97598 659.4785 667.19766 674.2352 679.1565">2. Share an experience when you deliberately pushed yourself beyond your comfort zone. In what </tspan></text>
<path transform="matrix(.75,0,0,.75,0,0)" d="M 86.88 96 L 88.8 96 L 88.8 115.36 L 86.88 115.36 Z M 727.2 96 L 729.12 96 L 729.12 115.36 L 727.2 115.36 Z " fill-rule="evenodd"/>
<text xml:space="preserve" transform="matrix(.75 0 0 .75 0 0)" font-size="14.6921" font-family="F2"><tspan y="129.28" x="96 106.502559 113.54013 120.2985 124.75348 130.33649 134.89104 138.21254 145.85243 149.22415 156.86405 160.18555 165.10683 172.82592 176.19763 181.94391 185.17618 192.48636 198.95088 206.59078 213.90096 219.0231 222.25536 229.56554 237.28462 243.49721 250.80739 254.03966 261.34986 269.06895 276.1065 283.7464 287.11814 294.4283 297.74983 304.40003 312.1478 319.86689 323.1884 328.03678 335.78456 339.10606 344.98289 352.62278 358.64656 364.96415 372.27433 379.5845 387.2244 394.03239 397.26463 410.19367 417.83357 424.87113 429.79243 433.11393 443.6165 450.8156 456.5619 459.79414 464.64253 472.3616 479.67179 482.9933 487.98863 495.2988 501.17564 508.81553 512.1872 517.10848 520.34078 528.08859 532.5722 535.8045 543.5523 550.1882 557.49838 562.6205 568.6442 576.57797 588.3144 591.6861 599.4052 606.3208 609.4062 616.05636 623.80416 631.44406 636.56619 639.8877 644.37136 651.8643 658.76968 663.76498 670.6702">way(s) did this experience enable you to succeed? What was the result of overcoming your fear? </tspan></text>
<path transform="matrix(.75,0,0,.75,0,0)" d="M 86.88 115.36 L 88.8 115.36 L 88.8 134.72 L 86.88 134.72 Z M 727.2 115.36 L 729.12 115.36 L 729.12 134.72 L 727.2 134.72 Z " fill-rule="evenodd"/>
<text xml:space="preserve" transform="matrix(.75 0 0 .75 0 0)" font-size="14.6921" font-family="F2"><tspan y="148.64" x="96 105.039089 112.53205 118.27833 124.490909 129.61305 132.8453 140.4852 147.79538 151.11688 156.03816 163.75725 170.95638 174.27788 181.91777 185.28949 189.77317 194.25684 201.56702 206.68917 213.99935 221.71843 227.93102 235.13014 238.45165 246.17073 253.36986 258.21824 268.7208 276.03099 283.34117 291.06025 294.29249 299.21379 306.85368 310.2254 316.10224 319.33448 326.5336 332.99815 340.63804 347.9482 353.07038 356.4421 363.7523 371.47138 377.68397 384.8831 388.2046 395.24217 402.96125 410.60115 413.92265 420.57286 428.32063 436.0397 441.16188 444.48338 451.79356 458.2581 465.75108 473.06126 478.1834 481.55516 488.86534 496.5844 502.6082 510.10118 513.33346 517.8171 522.8124 530.5602 542.29666 545.61819 550.5394 558.25857 565.5687 568.89028 576.6094 581.6047 588.91488 595.6732 598.9055 606.6533 614.37246 620.1187 623.44027 631.08016 638.79928 646.10946 651.8557 656.777 660.0093 667.943 675.5829 679.29177 682.6133 695.6841 703.17709 709.9354">Describe the difference between this experience and your experience from the previous question. Why </tspan></text>
<path transform="matrix(.75,0,0,.75,0,0)" d="M 86.88 134.72 L 88.8 134.72 L 88.8 153.92 L 86.88 153.92 Z M 727.2 134.72 L 729.12 134.72 L 729.12 153.92 L 727.2 153.92 Z " fill-rule="evenodd"/>
<text xml:space="preserve" transform="matrix(.75 0 0 .75 0 0)" font-size="14.6921" font-family="F2"><tspan y="167.84" x="96 99.37173 105.118007 108.43951 113.36079 121.07988 128.39006 131.71157 139.43065 142.80237 148.54865 153.46993 156.84165 164.48154 170.69412 175.54253 178.91425 186.66204 194.38112 197.70262 205.34252 212.6527 217.57398 228.00537 235.31555 242.62574 250.34482 253.57709 258.27857 265.99766 273.30784 279.0541 286.3643 289.6858 294.53419 305.03675 312.78453 316.10603 323.4162 329.88075 337.37373 344.6839 349.80607 353.1778 360.48799 368.20707 374.52467 381.7238 387.47007 390.79158 394.02384 405.7603 413.4002 421.14799 426.27015 431.19145 438.229 445.8689 450.7902 454.1117 458.96009 466.89384 470.21534 477.2529 484.8928 488.12504 495.4352 503.0751 507.9964 513.1185 520.6115 528.2514 533.37356 540.6837 548.1767 555.4869 563.206 568.3281 571.6998 578.7374 581.9697 585.202 597.10269 600.47439 608.11428 615.8334 621.57968 628.7788 633.7001 640.50808">is the distinction between these two experiences important to an entrepreneurial mindset? </tspan></text>
<path transform="matrix(.75,0,0,.75,0,0)" d="M 86.88 174.72 L 727.2 174.72 L 727.2 176.64 L 86.88 176.64 Z " fill-rule="evenodd"/>
<path transform="matrix(.75,0,0,.75,0,0)" d="M 727.2 174.72 L 729.12 174.72 L 729.12 176.64 L 727.2 176.64 Z M 86.88 153.92 L 88.8 153.92 L 88.8 174.72 L 86.88 174.72 Z " fill-rule="evenodd"/>
<path transform="matrix(.75,0,0,.75,0,0)" d="M 727.2 153.92 L 729.12 153.92 L 729.12 174.72 L 727.2 174.72 Z "/>
<text xml:space="preserve" transform="matrix(.75 0 0 .75 0 0)" font-size="14.6921" font-family="F2"><tspan y="201.28" x="96 105.72778 113.367679 120.67786 123.99936 131.49233 137.66301 144.70059 156.60118 164.24108 167.47333 174.78351 178.10501 186.03874 190.29946 193.62096 201.34004 208.97994 219.48249 222.80399 227.28766 234.78063 241.68592 246.68123 250.00273 257.75053 262.87269 266.19419 273.23176 276.55326 279.925 286.96257 293.28016 299.7447 303.0662 310.99995 315.26066 318.58216 324.89976 332.64753 340.3666 344.85029 348.22203 355.8619 363.1721 370.81199 377.02458 384.33476 387.65626 395.37535 400.4975 407.69664 414.16114 421.6541 429.294 434.2153 441.52549 449.24458 452.4768 464.2133 471.52348 474.84498 479.2526 484.37477 492.01466 503.91526 507.23677 514.1421 520.3547 525.27597 528.64767 536.28756 543.2031 546.52468 549.89639 557.53628 560.8578 565.77908 573.41897 580.7291 584.05068 591.7698 598.8074 604.55368 609.4749 612.7072 623.2098 630.2474 635.99368 639.22598 650.9624 657.61257 660.9341 668.574 673.6961 677.0678 683.9834 687.3551 694.995 702.0326 705.4043">One example of how fear or a lack of confidence prevented me from acting in the past was my original </tspan></text>
<text xml:space="preserve" transform="matrix(.75 0 0 .75 0 0)" font-size="14.6921" font-family="F2"><tspan y="236.96" x="96 101.122158 108.432338 115.46991 121.21619 128.96398 136.68306 140.00457 144.4122 152.15999 157.28214 160.60364 168.24353 175.99132 180.9126 184.2341 190.99246 198.9262 202.29792 209.9378 216.85343 220.0857 224.9341 232.86783 236.1001 243.81919 251.45908 254.69133 261.4497 268.7599 273.88206 279.62834 283.00007 287.84846 294.49867 297.7309 308.23347 315.87336 323.18354 330.90263 334.22413 337.92585 341.15809 351.66065 358.6982 364.4445 367.67674 374.4351 382.18287 389.82276 397.54185 404.45747 411.76765 416.76298 420.4719 423.70414 427.02565 435.52668 440.44798 443.76948 448.9117 456.5516 463.75074 467.07225 471.99354 475.2258 487.1264 494.43659 497.96269 501.28419 512.8909 519.6493 522.9708 527.45449 534.6536 541.6912 546.81338 550.04568 557.79348 562.2771 565.59866 571.91629 575.28799 580.28329 586.49588 594.13577 606.0364 611.78268 616.7039 623.7415 631.3814 637.594 644.79318 650.5394">reason for not going to university when I was younger.  At the time, my fear of circumstances </tspan></text>
<text xml:space="preserve" transform="matrix(.75 0 0 .75 0 0)" font-size="14.6921" font-family="F2"><tspan y="272.8" x="96 103.63989 110.95007 122.68654 130.43433 135.3556 138.8817 145.34624 152.38382 157.3051 164.61528 172.33437 175.56664 187.30309 194.61327 197.93477 202.3424 207.33773 215.27146 226.8782 230.1997 237.9188 245.55869 250.68083 256.42713 264.06703 267.43876 275.15785 282.07347 285.3057 292.34327 295.66477 303.38386 311.02375 314.39549 321.15385 328.46403 333.58619 339.33247 342.7042 347.55259 354.31095 357.54319 365.03617 372.67607 380.31596 386.63356 393.3919 398.3132 401.68495 409.61869 417.11167 420.43318 430.93574 438.65483 442.02656 448.23915 455.87904 459.20054 462.57228 470.29136 473.61286 481.33195 484.70368 492.34358 499.98347 505.8603 509.09257 516.0082 523.6481 528.56936 531.89089 542.6161 549.6537 555.2367 558.5582 565.5958 568.91738 576.41036 584.12948 595.8659 603.585 606.90658 614.6257 621.93588 628.2535 631.6252 637.37149 640.4568 648.3905 656.0304 659.73928 663.0608 666.2931 672.4698 680.1097 688.0434 694.65487 698.02658 705.74569 712.66128">demotivated me from pursuing a university education which in hindsight was a dumb decision.  Looking </tspan></text>
<text xml:space="preserve" transform="matrix(.75 0 0 .75 0 0)" font-size="14.6921" font-family="F2"><tspan y="308.64" x="96 103.63989 110.67747 116.99507 123.606517 127.27236 130.59386 134.4138 137.7353 145.3752 150.37052 158.1183 165.83739 172.87497 180.51486 183.88658 190.64495 193.96645 200.17903 207.92682 215.56671 218.93843 226.57833 229.89983 237.61891 244.6565 251.29235 258.34458 261.66609 268.5817 276.51545 281.36384 286.21223 293.5224 301.2415 304.563 311.60057 314.8328 326.56929 334.28837 340.50096 348.14085 351.46235 359.18144 366.38056 371.30186 376.22315 383.71614 388.5645 391.88603 397.17518 404.48536 410.23164 417.87153 421.1038 426.0251 429.3466 437.06568 444.10325 451.74314 455.06465 458.76637 462.08787 469.00349 476.75126 484.39115 491.70133 495.02284 500.7691 505.6904 510.81257 517.85018 521.22189 528.13748 535.77737 540.62576 543.94729 547.319 554.95889 559.8801 567.6279 570.94949 580.4993 585.62149 592.93167 599.8472 607.78097 615.42086 618.7424 625.493 630.3414 637.2467 642.16799 649.66098 652.89328 662.4431 670.083 673.3153 680.07369 687.38388 692.506 698.25228 701.3376 706.25888 713.0172">back, I probably could have gotten a much better result had I gone straight into Oregon State University </tspan></text>
<text xml:space="preserve" transform="matrix(.75 0 0 .75 0 0)" font-size="14.6921" font-family="F2"><tspan y="344.48" x="96 101.74628 106.667568 111.78972 118.82729 122.19902 129.11464 136.75453 141.67581 144.99732 152.93105 160.42401 165.34529 168.6668 176.41458 180.82222 184.14373 191.86281 195.23453 202.15015 209.79004 213.11154 218.85782 225.17543 232.81533 240.45522 248.203 251.7291 254.96137 258.19364 265.83354 269.15504 276.8741 284.5932 289.71537 295.46165 303.10154 306.47328 311.39457 314.71607 322.6498 327.05744 330.37895 337.2842 340.6057 346.8183 354.56608 366.46669 374.10658 381.74647 386.59486 393.90504 399.0272 402.3487 408.09498 414.41258 417.64485 424.95503 432.5949 438.9125 446.2227 449.5442 457.18409 464.49427 471.40989 476.4052 483.7154 491.02558 494.2578 501.568 508.60557 513.72769 517.09939 523.7495 526.9818 534.9155 542.5554 546.2643 549.5858 552.8181 565.7472 573.3871 581.1062 584.4779 592.1178 595.43936 600.3606 608.0797 615.1173 620.0386 623.3601 631.0792 638.1168 643.0381 650.678 653.9995 661.7186 668.62399 675.3823 682.6925">straight out of high school in pursuit of a computer science degree early on.  Would that path have </tspan></text>
<text xml:space="preserve" transform="matrix(.75 0 0 .75 0 0)" font-size="14.6921" font-family="F2"><tspan y="380.32" x="96 103.63989 108.76205 116.69578 124.33567 131.25128 138.89118 143.81246 147.13396 158.8704 166.18059 169.50209 172.87381 180.5137 185.3621 193.1099 196.4314 202.64398 210.39177 218.03166 222.95294 230.15207 236.17584 241.09712 244.41863 254.92118 258.15345 263.07475 270.79383 274.11534 280.8737 287.91127 293.03343 296.2657 304.01347 311.73255 317.47883 320.80033 328.5194 336.1593 341.90559 345.2773 352.9172 360.2274 366.10423 371.6872 375.0087 379.49238 387.13227 394.85136 402.49125 409.5288 421.2653 428.57548 436.21537 441.13667 448.17424 451.54597 457.29225 460.95808 464.27958 471.91947 479.66725 483.37617 486.69767 490.01918 503.08998 510.83775 518.4776 521.8493 529.4892 532.8107 536.18246 541.0308 544.35238 552.0715 559.1091 565.86746 573.0666 576.3881 583.8811 589.00326 596.75106 604.47018 611.38577 619.02566 623.9469 627.1792 639.07986 646.39 649.71157 653.08328 660.72317 665.57156 673.31936 676.64089 683.5462 686.86776 694.58688 697.95858 704.99618 711.3138 718.62399">brought me into contact with various business fundamentals, no.  Would it have brought me into a place </tspan></text>
<text xml:space="preserve" transform="matrix(.75 0 0 .75 0 0)" font-size="14.6921" font-family="F2"><tspan y="416" x="96 103.74779 108.23147 111.55297 117.42982 120.801548 124.17327 130.93163 138.65071 143.57199 146.94371 153.59389 156.82616 164.54524 171.85543 176.70383 181.6251 188.93529 194.05744 197.37894 201.86261 205.23433 212.95342 219.991 227.63089 233.9485 237.18076 244.21834 247.45059 250.7721 256.35508 264.07417 270.39176 276.60435 283.91453 289.6608 295.40708 299.0729 302.3944 309.8874 317.82115 323.5674 329.3137 332.68544 340.32533 343.69706 350.4554 353.98155 357.21379 360.53529 373.60609 381.35386 389.07295 392.44468 400.08457 403.40608 407.1078 410.4293 417.92228 424.95985 431.7182 439.02839 442.34989 448.09617 452.94456 458.0667 465.7066 472.62223 479.53785 482.90959 490.21977 497.85966 501.18116 504.5529 507.92463 514.6035 521.8027 525.1242 531.44186 536.56399 543.60159 549.3315 555.9816 559.2139 564.1352 571.8543 576.8496 584.5974 592.3165 599.2321 606.872 610.19357 617.23117 620.60287 623.97457 627.2961 635.0439 639.4515 642.773 646.1447 651.066 654.7318 657.9641 669.70059 677.44839 683.19467 688.1159">of slightly better financial success, possibly.  Would I have struggled like crazy through all of it, most </tspan></text>
<text xml:space="preserve" transform="matrix(.75 0 0 .75 0 0)" font-size="14.6921" font-family="F2"><tspan y="451.84" x="96 99.37173 102.743457 109.3549 116.84786 120.080127 126.83849 130.5474 133.77967 137.10117 140.80289 144.12439 151.76428 159.69802 167.3379 171.00377 175.85218 179.08444 186.80353 194.11371 200.3263 207.52542 213.40227 219.14855 226.18613 231.18144 234.55316 237.92488 244.57506 247.80733 252.65573 260.29563 263.66737 271.30726 277.98616 281.51225 285.21397 288.4462 296.0861 302.84446 310.15464 315.2768 321.5944 328.49967 340.10646 347.41664 350.73814 355.65943 363.3785 366.75025 372.62709 375.8593 379.23106 386.13633 392.45393 399.06538 402.2976 410.04539 414.453 417.7745 424.0921 431.83988 439.55897 443.96659 447.33833 455.0574 462.36759 470.00749 476.22007 483.53025 486.85176 493.8893 499.6356 502.86784 507.71623 515.4353 522.4729 527.39419 530.7157 534.0874 540.99276 547.31039 553.9218 557.1541 564.9019 569.38558 572.61788 578.9355 586.6833 594.4024 598.81 602.1817 609.9008 617.211 624.8509 631.1685 638.3677 641.6892 645.0609 650.8072 654.1287 657.5004 665.1403 668.46188 673.3831 681.023 688.3332 691.6547 699.37387 706.41146 712.1577 717.0061">likely.  I don&#x2019;t necessarily think I overcame this lack of confidence as that lack of confidence is in the past </tspan></text>
<text xml:space="preserve" transform="matrix(.75 0 0 .75 0 0)" font-size="14.6921" font-family="F2"><tspan y="487.68" x="96 103.037578 110.67747 118.31736 121.63886 125.45881 129.12467 135.88304 143.19322 146.51473 152.261 155.63272 163.27262 169.4852 176.68433 180.00583 187.72492 195.3648 198.73653 202.10825 207.02953 210.2618 218.00959 225.72867 230.64995 233.97145 241.00904 244.2413 250.11815 256.58268 259.9544 263.32615 266.69789 270.01939 275.76567 283.07585 287.99714 291.22938 296.15068 303.86976 310.90733 315.8286 319.15013 326.79 334.53779 341.84797 347.7248 355.3647 359.03053 363.8789 367.2004 374.11604 377.3483 384.10667 391.3058 394.6273 406.36378 413.67396 416.9062 421.82749 429.46739 436.77757 440.09907 447.59205 453.76274 460.08033 467.7202 473.4665 480.77668 484.0089 488.9302 496.67799 499.99949 507.63938 514.67697 521.4353 528.63449 531.956 537.7023 545.4214 551.634 559.27389 562.5954 569.633 572.9545 576.1868 583.2244 589.54208 596.22097 599.45327 607.20108 611.6847 615.0062 621.2188 628.9666 636.6065 641.09017 644.46188 652.10177 659.4119 667.13107 673.44869 680.75888 684.2849">and I&#x2019;ve since built out a skill set that doesn&#x2019;t give me the excuse to have such a lack of confidence. </tspan></text>
<text xml:space="preserve" transform="matrix(.75 0 0 .75 0 0)" font-size="14.6921" font-family="F2"><tspan y="534.08" x="96 109.07081 117.00454 124.64443 128.01616 135.65605 138.97756 142.67928 146.00078 151.58379 156.50507 159.87679 163.2485 166.62023 169.94173 175.81858 182.57695 189.33531 192.65682 197.5781 205.29718 212.33477 217.18317 220.50467 223.87639 228.79767 232.46353 238.20981 241.53131 244.76357 256.50004 264.13993 271.8877 277.00987 281.93116 288.96873 296.6878 301.6091 304.84135 309.76264 317.5104 320.8319 327.86949 334.08207 340.76097 348.25395 356.18769 366.69026 370.06199 377.37217 385.01206 391.77043 399.0806 402.4021 406.88578 414.0849 421.12248 426.24464 432.12147 435.3537 440.47587 447.51344 452.43473 460.1538 467.464 472.45933 475.78083 480.70213 488.4212 495.45878 503.09867 506.3309 518.2315 525.2691 531.88058 539.0797 542.40127 549.8942 556.06497 562.38259 570.02249 575.60549 582.91567 588.6619 592.32778 595.6493 603.3684 610.6786 618.3977 625.7079 633.427 641.0669 646.8132 650.0455 657.7933 665.5124 668.7447 673.66598 681.30587 688.7988">Would I still say that it&#x2019;s important to acknowledge fears rather than make excuses, depends on the </tspan></text>
<text xml:space="preserve" transform="matrix(.75 0 0 .75 0 0)" font-size="14.6921" font-family="F2"><tspan y="569.92" x="96 102.21258 109.960369 117.67946 122.600749 129.79988 136.2644 141.18569 144.50719 151.54477 159.26386 166.90375 170.22525 175.22057 182.53075 189.56833 195.3146 203.0624 210.70229 214.41118 217.73268 221.05419 228.21372 235.9328 243.13193 246.45343 251.57558 258.77473 265.8123 271.55857 279.4923 287.1322 290.4537 294.86134 302.6091 307.73127 311.05278 315.97407 323.69316 327.06489 332.64787 335.96937 339.3411 345.08738 348.40888 354.2857 357.37107 369.27168 376.91157 380.2833 387.59349 391.2593 394.5808 400.3271 407.96699 419.57377 426.88395 430.20545 434.68913 442.1821 449.21968 454.34184 459.9248 463.2463 470.28388 475.40605 482.71623 485.94847 496.45103 503.4886 508.61076 513.73287 520.77047 528.41036 533.2587 540.5689 548.2088 551.91769 555.2392 558.5607 565.31137 573.05917 578.05447 581.28677 588.5969 595.06149 601.9668 613.70327 621.42239 624.79409 632.10427 635.7701 639.0916 642.4633 646.94699 650.17929 655.1005 662.7404 670.2334 675.2287 682.42788 685.7494 689.1211 694.9979 698.31948 705.35708">context and reason.  The reason for this is simple, some fears are warranted.  For example, if there is a </tspan></text>
<text xml:space="preserve" transform="matrix(.75 0 0 .75 0 0)" font-size="14.6921" font-family="F2"><tspan y="605.76" x="96 100.40763 107.9006 114.93817 119.93349 123.25499 128.17627 135.89536 142.93294 147.78134 151.10285 156.84912 164.59691 176.20366 183.51384 188.43512 196.1542 199.52593 207.16582 214.08144 217.40294 227.90549 231.2772 234.64893 238.02065 241.34215 248.10051 256.03425 259.11958 269.62214 274.7443 282.67805 290.31794 297.23356 300.55506 303.9268 307.29853 313.76307 321.07325 324.59934 331.5046 334.73686 341.05445 346.1766 349.40888 354.33018 357.8563 364.06889 371.10646 374.3387 377.66023 382.06785 389.1054 392.47715 395.84889 403.48878 408.61094 415.9211 419.2426 422.47489 430.11479 433.43629 439.75389 447.50166 455.22074 462.5309 466.057 469.3785 474.2998 482.0189 489.51188 497.15177 500.47328 503.70555 508.62684 512.29269 518.03897 521.3605 529.0796 534.0749 541.8227 549.5418 556.5794 564.2193 567.591 574.34939 577.6709 580.9032 592.63967 600.35879 608.10659 613.10189 618.02316 625.0607 632.77987 637.7011 641.02267 645.87106 653.61886 656.94039 662.0625 669.3727 676.13107 679.2164 686.70938 697.14077 700.37307 707.41067 710.78237 714.15408">fear that something will go wrong like a critical failure in code, then it&#x2019;s probably important to review all </tspan></text>
<text xml:space="preserve" transform="matrix(.75 0 0 .75 0 0)" font-size="14.6921" font-family="F2"><tspan y="641.6" x="96 103.63989 111.57362 117.3199 123.06618 126.437908 134.0778 137.44953 144.7597 147.99198 155.73976 163.45885 168.38013 174.4039 182.15169 193.88814 201.3811 207.12738 210.21273 218.14646 222.5541 225.8756 232.91318 240.55307 247.20325 250.52475 256.73735 264.23033 271.26789 278.98698 285.9026 293.21278 298.95906 302.28056 307.20185 314.94963 318.27113 325.5813 333.30039 339.04667 346.68656 351.80873 359.00785 362.32936 367.25065 374.96974 382.0073 386.9286 390.2501 397.15538 403.0322 406.26445 410.7481 417.94725 428.4498 431.7713 437.06047 440.4322 446.17848 452.78993 458.3729 461.6944 469.62815 473.88887 477.21037 484.70335 489.8255 494.6739 502.60765 507.7298 513.4761 516.7976 523.8352 528.8305 536.1407 539.4622 542.8339 550.0331 554.95437 558.2759 563.19717 570.91629 575.91159 583.65939 591.3785 598.29409 605.93399 609.2555 616.2931 622.03939 625.3609 633.08 640.7199 646.59677 652.343 655.5753 663.29446 666.66616 673.9763 677.6852 681.0067 684.32827 693.73117 701.47897 711.91036">possible outcomes of any changes to ensure that as few risks of errors are let through as possible.  Now </tspan></text>
<text xml:space="preserve" transform="matrix(.75 0 0 .75 0 0)" font-size="14.6921" font-family="F2"><tspan y="677.44" x="96 106.502559 114.43629 122.07618 125.44791 133.0878 136.4093 143.44689 146.76839 151.17603 158.4862 165.52379 170.64594 173.8782 181.62599 186.10967 189.43117 194.35245 201.99234 209.30252 212.62403 218.3703 226.0102 233.72928 237.05078 244.24991 250.71443 258.20744 261.57917 269.32695 277.04603 280.41777 288.05766 294.97328 298.29478 305.93467 313.42765 316.65989 327.16246 334.36158 339.20997 344.33213 351.3697 359.00959 363.93089 371.42387 379.06376 382.72959 386.0511 393.54408 401.4778 405.14366 408.46516 415.95814 423.89189 428.74028 432.06178 439.78086 446.81843 451.94059 456.86189 460.09416 466.41175 474.05165 477.42338 484.46095 489.45628 492.828 499.58638 503.2953 506.6168 509.84904 522.7781 530.5259 538.245 541.6167 549.2566 552.5781 559.7773 563.0096 567.4932 574.6924 581.73 586.8521 590.17367 598.10739 602.51498 605.74728 610.6685 618.3084 625.8014 628.8868 636.19699 642.5146 650.2624 657.9023 665.5422 677.4428 680.6751 686.99276">would a fear of the sun exploding be warranted, no, not particularly.  Would a fear of the economic </tspan></text>
<text xml:space="preserve" transform="matrix(.75 0 0 .75 0 0)" font-size="14.6921" font-family="F2"><tspan y="713.12" x="96 101.74628 105.118007 110.03928 117.67918 124.71675 129.63803 133.00975 140.94348 148.58338 151.90488 158.94246 166.58235 174.30144 177.62294 181.00212 188.93585 196.57575 199.89725 205.64353 208.87578 213.79706 221.43695 228.47454 233.39582 236.76753 244.70127 252.19423 255.4265 262.46409 268.21037 273.95664 281.7044 288.022 291.25428 298.15956 303.08085 310.57383 318.2137 321.44596 331.87736 335.24909 340.17039 347.88948 351.21098 358.24855 361.57005 369.20994 376.5201 383.43574 388.5579 395.86808 403.17826 406.49977 413.99275 421.48573 424.71797 435.22053 442.41966 447.41499 452.53715 459.5747 467.0677 471.98899 479.48197 487.12187 490.7877 494.01994 500.7783 508.08848 513.8347 517.36087 520.6824 528.4302 536.1493 539.3816 546.13998 549.4615 552.8332 557.2408 560.4731 567.23147 574.87136 582.5112 586.17709 591.2992 598.6094 601.9309 606.41458 614.16238 620.48 628.1199 633.86618 641.17636 648.8162 652.0485 659.98226 667.62216 670.94369 676.68997 681.6112 688.51657 695.2749 698.6466 706.2865 713.2021">situation and job situation associated with a degree be warranted, yes, only if you&#x2019;re focused on staying </tspan></text>
<text xml:space="preserve" transform="matrix(.75 0 0 .75 0 0)" font-size="14.6921" font-family="F2"><tspan y="748.96" x="96 99.37173 107.01162 110.33312 115.2544 122.973499 130.01108 134.93236 138.25386 143.376 150.86898 157.62734 160.85959 168.79332 176.43321 180.09908 183.33135 191.07913 196.00041 203.7195 211.02968 216.025 226.52754 229.89926 235.64554 242.95572 246.27722 253.91712 261.6649 265.3738 268.6953 271.92756">in that region, otherwise no.   </tspan></text>
<text xml:space="preserve" transform="matrix(.75 0 0 .75 0 0)" font-size="14.6921" font-family="F2"><tspan y="795.52" x="96 104.501049 112.14094 115.46244 122.77262 129.23715 136.87705 144.18723 149.30937 152.68109 159.99127 167.71036 173.92295 181.12207 184.35434 194.85689 202.57598 209.88616 215.0083 222.31848 225.63999 229.3417 232.57398 240.29306 247.60324 250.97496 254.20722 261.8471 269.1573 274.27946 281.31703 286.2383 293.5485 296.92024 303.57044 306.89195 314.53184 322.25093 327.9972 335.6371 342.94728 350.66636 353.8986 365.63508 372.39344 377.9764 385.2866 388.65834 393.142 396.37425 404.122 411.8411 416.68949 422.43577 425.8075 433.4474 440.75758 444.07908 452.01283 456.27354 459.59504 471.3315 478.08988 481.41139 487.43516 495.18293 506.9194 511.40309 519.3368 524.1852 529.10647 532.428 538.2317 546.1654 553.6584 560.96859 564.2901 567.6618 573.4081 576.6404 583.678 591.3179 598.07626 601.39779 607.14407 610.51577 615.437 623.1561 630.1937 635.115 638.3473 646.0951 653.8142 657.0465 667.5491 675.18899 682.49917 687.6213 695.11428 698.34658 701.8727">An experience where I deliberately pushed myself outside of my comfort zone is any situation where I </tspan></text>
<text xml:space="preserve" transform="matrix(.75 0 0 .75 0 0)" font-size="14.6921" font-family="F2"><tspan y="831.2" x="96 100.92129 108.56118 116.49491 123.17379 126.49529 131.41657 139.05646 146.36664 149.68814 153.05986 160.69976 164.07147 168.99275 172.36447 179.40206 184.32334 187.55559 194.31397 201.51309 204.8346 209.683 217.43079 220.75229 228.47138 235.78156 239.01383 243.9351 251.65419 258.85334 262.17485 270.10859 277.74848 285.05867 288.2909 293.2122 300.85209 307.88966 312.81095 316.13246 319.65858 327.29847 330.6702 335.5186 338.89033 345.7956 350.7169 358.02708 363.9039 367.13615 371.98454 379.7036 387.0138 390.3353 398.05439 405.2535 410.1748 420.6062 428.35398 433.47615 440.15504 443.68116 451.32106 458.23667 461.4689 466.3902 474.10929 481.14686 485.99525 489.31675 493.01847 496.6843 503.32014 510.51927 513.84078 521.48068 529.22848 536.9476 544.25778 547.5793 552.7014 559.739 564.6603 572.3002 579.4993 584.62149 587.85379 592.775 600.49417 607.53176 615.17166 618.49319 623.4144 630.6136 637.2925 640.6642 648.3041 655.21969 658.5412 665.44656 668.76809 676.40798 683.44558 689.19186 695.06869 698.30099 704.9368 712.247">took the initiative to be the one that initiates the networking that I&#x2019;ve done rather than taking a passive </tspan></text>
<text xml:space="preserve" transform="matrix(.75 0 0 .75 0 0)" font-size="14.6921" font-family="F2"><tspan y="867.04" x="96 101.74628 106.667568 113.70514 121.34503 127.662639 134.97283 138.2051 145.95288 153.67197 156.99347 164.71256 171.91168 176.83296 187.26436 195.01215 200.1343 206.81317 210.18489 217.90398 224.8196 228.52849 231.76076 235.08226 242.42832 249.92128 257.12043 260.44194 268.08183 271.45356 278.36918 285.2848 292.59498 298.34126 303.26255 306.58406 311.50535 319.22444 322.59617 330.23606 337.15168 340.47319 345.39448 353.11357 360.15113 364.8526 368.1741 371.99406 375.65989 382.1244 389.61738 392.8496 399.76524 406.8028 410.17454 417.6675 424.9777 432.69679 436.01829 440.50196 445.6241 453.264 465.1646 468.39686 473.24525 480.96434 488.0019 492.9232 496.2447 503.44383 509.90837 517.5482 524.8584 529.9805 533.35226 540.6624 548.38156 554.5941 561.7933 565.1148 568.4865 574.36337 577.4487 582.37 590.0891 597.3993 600.7208 607.92 615.5599 618.9316 622.3033 625.5356 630.45687 637.107 640.4285 645.2769 653.0247 656.34628 662.2231 665.4554 677.19186 684.8317 688.2034 694.9618">stance on networking.  The biggest thing that I&#x2019;ve gained from that experience is the ability to simply </tspan></text>
<text xml:space="preserve" transform="matrix(.75 0 0 .75 0 0)" font-size="14.6921" font-family="F2"><tspan y="902.88" x="96 102.21258 109.85247 121.753078 133.65367 136.73902 141.6603 144.9818 149.8302 157.76393 161.08544 164.45716 172.09705 175.46877 180.39005 183.76177 190.66706 195.58834 202.89852 206.22002 212.4326 220.18039 227.67336 234.43173 241.74192 246.86406 252.61034 259.51564 264.43693 267.80867 275.7424 283.3823 286.7038 297.20637 304.92546 308.1577 314.3703 322.0102 325.3317 333.05079 340.08836 345.83464 349.15614 356.79603 363.99516 371.30534 379.0244 382.34593 386.8296 394.76335 402.40324 410.04313 417.7622 420.99446 425.84284 433.77659 437.09809 444.73799 451.9371 455.2586 462.29618 470.01527 473.33677 476.7085 484.3484 492.06748 495.4392 501.1855 508.82539 516.13558 523.8547 529.60098 536.63858 544.27847 547.65017 554.9603 558.1926 563.1139 570.8617 578.6095 581.8418 585.1633 589.647 597.5807 602.7028 605.9351 613.65426 621.2941 624.66586 628.03756 635.6774 639.04916 646.76828 653.68386">commit to initiate conversation which has been found to be an indispensable tool for building </tspan></text>
<text xml:space="preserve" transform="matrix(.75 0 0 .75 0 0)" font-size="14.6921" font-family="F2"><tspan y="938.72" x="96 102.21258 109.960369 117.67946 125.39855 132.70874 139.02635 143.87476 147.10701 155.04074 162.68064 168.42691 171.65918 182.09058 185.4623 190.38358 198.10266 201.42417 209.14325 216.34238 224.09017 231.80925 235.18097 242.3801 245.7016 256.133 263.7729 271.70664 275.02815 278.72987 281.9621 293.69859 297.0703 303.98594 311.62583 316.54713 319.86863 327.5877 335.33549 340.3308 352.2314 359.26899 362.64073 365.72608 372.48445 375.80595 383.52503 390.4303 397.18867 404.49885 407.82035 415.31333 422.6235 429.38188 436.69206 441.68739 445.00889 451.22148 458.96925 466.60914 474.32823 481.6384 487.956 492.65748 499.96766 507.68675 511.00825 515.8566 523.60446 527.4244 530.6567 533.9782 541.3242 548.8172 556.1274 559.4489 567.168 570.53976 575.53506 582.8452 589.0578 593.97909 597.3006 600.5329 612.43356 620.0734 623.4451 626.81686 633.0294 640.067 644.9883 648.2206 655.9684 663.6875 666.9198 674.6676 679.15127 682.4728 687.39407 695.11318 698.48489 704.23117">connections with people who I might normally have never connected to.  The direct implication of this </tspan></text>
</g>
</svg>
