<?xml version="1.0" encoding="UTF-8" standalone="no"?>
<!DOCTYPE svg PUBLIC "-//W3C//DTD SVG 1.1//EN" "http://www.w3.org/Graphics/SVG/1.1/DTD/svg11.dtd">
<svg xmlns="http://www.w3.org/2000/svg" xmlns:xlink="http://www.w3.org/1999/xlink" version="1.1" width="612pt" height="792pt" viewBox="0 0 612 792">
<g enable-background="new">
<text xml:space="preserve" transform="matrix(.75 0 0 .75 0 0)" font-size="14.6921" font-family="F2"><tspan y="109.92" x="96 106.502559 114.43629 122.07618 125.74203 130.59043 133.8227 137.19441 144.5046 151.70372 159.34362 162.66512 167.51352 175.2613 178.49358 190.10033 196.85869 200.18019 206.05704 213.69693 219.90952 225.93329 233.42626 239.17253 244.91881 248.15108 255.87017 259.10243 264.22459 271.53477 277.74736 282.66865 286.04039 292.69059 295.92283 301.79966 305.03193 312.751 319.0686 326.26774 329.49998 332.8717 337.793 341.02525 348.95899 356.59889 359.9706 366.72898 369.8143 377.74806 385.38795 392.69813 400.338 406.21485 409.30018 414.22148 421.86137 429.17155 432.49305 440.21214 447.85203 455.78578 460.7811 464.1026 468.51023 476.258 481.38017 484.6124 496.513 503.71214 507.03364 511.95494 519.7027 523.02426 526.39596 534.0358 538.9571 546.2673 551.3894 558.29476 564.61239 569.46078 572.69308 583.12448 586.49618 591.4174 599.0573 602.37887 614.1153 621.8631 626.9852 634.4782 637.7105 645.3504 652.6606 660.4084 668.1275 671.3598 678.67">won&#x2019;t lead to my success directly since it only opens the door for me to interact with more people </tspan></text>
<text xml:space="preserve" transform="matrix(.75 0 0 .75 0 0)" font-size="14.6921" font-family="F2"><tspan y="145.76" x="96 106.502559 109.87428 114.79557 122.51466 125.88639 133.52629 136.8478 148.58425 155.3426 158.42795 165.73813 173.45722 180.21559 183.58731 188.58263 196.33042 203.9703 215.70676 223.01694 230.65683 235.57811 241.45496 245.16385 248.39612 251.62839 258.6806 266.3205 273.63069 276.95219 280.4783 288.1182 295.7581 299.12983 304.25199 311.56217 317.87977 322.80107 326.12257 329.35484 341.25544 348.89533 352.26707 355.6388 361.85139 368.88896 373.73735 376.9696 384.71739 392.43647 398.18275 401.41499 409.16276 413.64643 416.87867 421.72706 429.36695 432.73869 438.48497 441.80647 453.70707 460.61235 467.3707 470.60295 477.6405 481.01225 484.2445 491.99229 502.49485 506.02095 510.28166 518.0295 523.1516 526.3839 538.28457 545.4837 548.80526 553.6536 561.4014 564.72299 572.4421 580.082 583.3143 586.686 594.32589 597.6474 605.5811 613.221 618.1423 621.4638 628.66299 631.89529 639.53518 646.84536 651.7666 662.198 669.9458 675.06796 681.6794 685.0009 692.7487 697.1563">within my environments.  The indirect implications of this may allow for me to build out a network of </tspan></text>
<text xml:space="preserve" transform="matrix(.75 0 0 .75 0 0)" font-size="14.6921" font-family="F2"><tspan y="181.6" x="96 103.63989 110.95007 118.883808 126.5237 129.89542 137.2056 140.43787 145.35915 153.07823 160.11582 165.0371 168.3586 172.06032 175.29259 181.50518 188.54276 196.18265 199.50415 204.42543 212.14452 219.4547 227.17378 230.40605 242.1425 245.51422 251.87746 255.10973 258.34199 265.98188 270.90318 278.8369 282.06916 288.705 295.74256 300.86473 304.23646 311.98423 319.7033 325.2863 328.6078 334.82038 342.56816 354.30464 362.0237 365.39546 373.03535 380.0729 384.9942 388.22648 395.97425 403.69334 409.4396 412.7611 417.6095 425.2494 432.28697 437.20826 440.52976 447.72889 459.46537 467.18446 470.55619 473.92793 478.18864 484.947 488.2685 493.1898 500.82969 508.0288 511.3503 518.10867 525.14627 530.2684 533.5007 541.2485 548.9676 554.71389 558.0354 563.7817 570.3931 573.76486 577.13656 580.36886 586.1151 589.43667 596.7468 603.7844 610.10208 617.74197 621.0635 628.70339 635.9025 641.02468 646.77096 654.70468 662.34457 665.6661 673.30599 680.34359 685.9266 689.2481 694.1694 701.8885 708.9261 713.7745">people that I can then mix into various combinations that amplify the various skills each person has that </tspan></text>
<text xml:space="preserve" transform="matrix(.75 0 0 .75 0 0)" font-size="14.6921" font-family="F2"><tspan y="217.28" x="96 100.92129 108.56118 116.054149 122.70433 125.93659 132.14917 139.18675 146.82665 150.14815 157.86724 162.98938 166.3611 174.00099 180.91661 184.6255 187.85778 191.17928 198.3388 206.05789 213.36808 216.60034 222.47719 229.78737 235.81114 243.74488 251.38477 258.87776 265.9153 271.03749 277.79585 281.02809 284.3998 292.1189 299.7588 303.13053 308.2527 315.56288 321.88047 326.58195 329.90345 337.62254 344.9327 352.6518 359.96199 364.44566 367.81739 372.66578 375.98728 383.73506 388.14268 391.46418 396.38548 404.10456 407.4763 413.22257 416.54408 419.77635 425.5226 428.84413 433.7654 441.4845 448.52207 453.44337 456.76487 461.68617 469.32606 476.63624 479.95774 487.59764 495.3454 503.09318 506.4649 509.69715 517.44497 521.9286 525.1609 531.8398 539.5589 547.1988 557.70138 561.2275 568.53768 576.17758 582.9359 590.2461 593.5676 598.4889 606.208 613.2456 618.1669 621.4884 625.0145 628.33609 634.6537 641.6913 649.3312 652.6527 660.2926 668.0404 672.9617 680.45468 688.09457 693.0158 696.3875 703.4251 706.7968 709.88217 716.6405">they can bring.  The secondary indirect benefit of this is that the pool of knowledge that I can potentially </tspan></text>
<text xml:space="preserve" transform="matrix(.75 0 0 .75 0 0)" font-size="14.6921" font-family="F2"><tspan y="253.12" x="96 103.31018 109.774707 115.98728 123.627178 130.66475 138.30464 145.22026 152.53044 155.76271 166.26526 169.63698 174.55826 182.27735 185.59885 193.31793 200.62812 206.8407 214.33367 226.23426 233.54444 239.12744 242.44895 247.37023 255.01012 262.0477 266.969 270.2905 282.1911 289.831 296.1486 303.64158 306.96308 317.46565 320.83738 328.47727 335.97026 340.81864 344.14015 355.87663 363.1868 370.22438 377.86427 381.236 388.95509 395.8707 399.10295 404.02424 411.66413 418.7017 423.623 426.9445 431.86579 439.58488 446.89506 450.21656 457.85646 465.60423 470.4526 477.7628 485.40269 490.32398 493.6957 500.73329 504.105 507.4265 512.3478 520.0669 526.9722 531.8935 535.215 539.035 542.3565 548.5691 555.6067 563.2466 566.4789 573.11477 580.0201 583.3918 586.7635 594.4034 601.441 606.36227 613.8552 616.9406 624.8743 629.99649 633.22879 636.60049 644.3196 651.07797 658.11557 661.34786 664.71957 672.43869 679.47628 684.32467 691.6348 694.95639 701.99398 709.63388">exchange with becomes that much wider meaning that the potential that I can validate or invalidate an </tspan></text>
<text xml:space="preserve" transform="matrix(.75 0 0 .75 0 0)" font-size="14.6921" font-family="F2"><tspan y="288.96" x="96 99.37173 107.01162 114.3218 121.359378 124.68088 132.39997 139.71015 145.92273 153.67052 165.27727 172.77024 178.51651 181.60186 186.52313 194.24222 201.2798 206.20108 209.43335 221.33394 228.97383 235.18642 242.82631 246.14781 253.7877 261.0979 266.0192 270.9405 278.25068 283.37284 287.08177 290.314 293.6355 302.78938 310.42927 320.93183 324.25334 329.17463 336.8937 340.26545 346.01173 349.24397 356.88386 360.25559 364.73927 369.22294 376.5331 381.65528 387.5321 390.76435 398.40425 405.71443 410.5628 420.9942 428.48719 435.79737 443.43727 446.6695 451.5908 459.23069 466.54087 469.86238 477.58146 482.7036 489.90275 496.6611 499.89338 507.64115 515.3602 521.1065 524.42807 530.1743 533.546 538.4673 546.1864 553.224 558.14529 561.37759 569.01748 576.65737 579.9789 587.9126 592.3202 595.5525 607.4531 613.9176 617.23916 624.7321 632.372 640.0119 646.3295 653.3671 658.2884 661.5207 669.2685 676.9876 680.30917 686.6268 694.11978 701.86758 705.23928 711.5569 718.75607">idea becomes that much better.  How this differs between the previous situation of my education choice </tspan></text>
<text xml:space="preserve" transform="matrix(.75 0 0 .75 0 0)" font-size="14.6921" font-family="F2"><tspan y="324.8" x="96 102.75837 108.50465 111.73691 123.47337 130.12355 133.35582 139.67343 147.31333 159.04978 170.78623 174.15795 179.00635 190.7428 198.05298 205.69287 210.54128 213.86278 218.71118 226.64492 229.87718 237.59627 244.7954 249.6438 260.14637 267.89414 273.0163 279.62776 282.94926 286.32099 292.06727 295.38877 300.31007 308.02915 314.93443 319.8557 323.17723 328.0985 335.8176 343.01673 346.33824 352.5508 360.29859 372.03507 383.77156 387.14329 391.99168 403.59846 410.79759 418.43748 423.35877 426.88487 431.73326 439.48103 442.80253 450.4424 457.7526 462.60099 473.10356 481.0373 486.03263 492.64408 495.96559 499.3373 505.21415 508.29948 520.2001 527.83999 534.1576 541.7975 545.0298 556.63656 564.57028 569.41867 576.7288 580.05038 583.5765 591.2164 601.71896 605.04049 610.9173 615.6188 622.6564 629.33529 636.82827 642.41128 645.64358 649.01528 656.7344 659.9667 671.7031 678.4615 681.6938 689.4416 699.94418 707.58407">vs my commitment to network is that the commitment to network is much more low stakes in my own </tspan></text>
<text xml:space="preserve" transform="matrix(.75 0 0 .75 0 0)" font-size="14.6921" font-family="F2"><tspan y="360.64" x="96 107.900608 115.210788 122.85068 127.771968 134.80954 138.0418 141.3633 148.40088 154.71849 160.74227 168.49005 176.20914 183.84903 188.77031 192.2964 199.9363 206.85192 210.08419 220.58673 228.30582 231.67754 235.04926 242.24839 245.56989 250.49117 258.13108 265.44126 268.76277 275.08036 282.72026 290.46803 293.7003 300.01789 307.32807 310.5603 318.30809 322.79176 326.024 333.33418 340.97407 348.69316 354.90574 361.9433 366.8646 370.23634 377.9841 385.624 388.9455 392.31724 398.0635 401.29576 409.04353 416.6834 424.1764 427.40864 432.32994 440.049 447.08659 452.00788 455.32939 459.0311 462.26335 468.0096 472.9309 476.30265 479.67439 483.0461 486.3676 493.8606 501.79435 505.16609 512.80599 516.1275 523.1651 528.9114 532.2329 539.13827 542.4598 549.09567 556.4058 561.52798 568.2863 571.60787 579.1008 582.47256 589.3881 597.028 601.43569 607.7533 615.5011 621.3779 626.2263 629.54788 637.26699 644.4661 650.78378 654.15548 659.90176 663.13406 671.06777 678.70767 682.4165 685.6488">mental accounting while the choice of education is one that I still hold as a very high-cost decision.  </tspan></text>
<text xml:space="preserve" transform="matrix(.75 0 0 .75 0 0)" font-size="14.6921" font-family="F2"><tspan y="396.32" x="96 103.633 111.272899 119.20663 129.70919 133.0809 140.7208 147.63642 150.86869 155.71709 163.43618 170.74636 174.06786 180.28044 188.02823 193.7745 198.62291 204.36919 208.03505 211.35655 218.39414 226.03403 233.75312 237.07462 240.30687 251.91362 259.63273 263.00447 266.3762 272.58879 279.62635 284.54765 287.91938 295.66716 303.38624 309.1325 312.36476 320.11253 324.5962 327.82844 335.1386 342.17619 348.49378 356.13368 359.45518 367.17427 374.48445 380.80204 383.8874 389.76423 392.9965 400.93025 408.57014 411.80238 419.44227 426.75245 430.12419 437.84327 444.75889 447.99113 459.89173 466.9293 474.56919 481.87937 485.20088 488.43315 494.30998 497.63148 500.86375 512.60018 520.24008 528.17379 533.2959 537.9974 545.035 552.7541 557.67538 560.9969 565.4045 573.0444 578.1665 581.48806 588.52566 596.1655 599.48709 606.98007 614.61996 619.5412 624.6633 631.9735 639.6926 644.6879 651.9981 659.638 666.9482 674.6673 679.7894 683.16116 690.1987 693.57046">Knowing the costs, and implications of each decision being made is important for an entrepreneurial </tspan></text>
<text xml:space="preserve" transform="matrix(.75 0 0 .75 0 0)" font-size="14.6921" font-family="F2"><tspan y="432.16" x="96 107.900608 111.132869 118.85196 126.49185 130.20075 133.52225 136.84375 150.06664 157.70653 165.01671 172.6566 175.88887 182.92646 186.24796 193.96704 197.33876 204.25438 211.17 218.48018 223.60233 226.8346 234.55368 241.7528 248.07042 251.30268 257.04896 260.28123 268.21498 275.85487 279.17637 282.5481 288.29438 291.61589 299.25578 306.97486 311.45854 318.4961 325.13194 332.8797 338.00187 345.03944 352.67933 356.05107 363.25019 366.91603 370.23753 373.60926 378.53056 381.7628 387.50907 390.8808 402.61729 410.33638 413.56864 420.21885 423.45109 435.35169 442.5508 449.58839 457.22828 462.97456 466.29606 471.21736 478.93644 485.974 490.67549 493.99699 501.71607 506.83824 514.1484 521.8675 525.189 535.6204 543.55416 548.54946 555.1609 558.4824 566.20156 573.5117 580.7109 588.35079 594.2276 597.4599 602.38119 610.3149 613.6364 621.1294 628.6224 631.8547 639.5738 647.3216 654.9615 662.27169 665.5932 670.4416 678.1894 681.5109 687.82858 692.82388 700.13406 707.17166 712.02 719.3302">mind.  When a bigger decision is unfavorable, it simply means that prep work needs to be done to create </tspan></text>
<text xml:space="preserve" transform="matrix(.75 0 0 .75 0 0)" font-size="14.6921" font-family="F2"><tspan y="468" x="96 103.037578 106.35908 110.84275 118.48264 123.40392 131.12302 136.24517 143.55535 146.87685 151.36052 158.26581 165.02419 172.77198 177.76729 184.80487 192.52396 195.89568 203.20586 206.52736 212.27364 215.64536 220.56664 228.28572 235.19101 240.11229 243.48401 251.2318 258.8717 262.10395 267.02525 274.74433 281.7819 286.7032 289.93544 300.438 308.37174 316.01164 319.38337 327.02326 330.34477 335.3401 342.65028 353.15284 360.35197 365.3473 373.06639 376.38789 382.2647 389.16999 392.54173 400.0347 403.3562 406.88233 413.9199 418.76829 425.6839 432.99409 438.11625 441.43775 449.15684 456.467 462.7846 466.15635 471.90263 474.98799 482.92173 490.5616 494.27055 497.59205 500.82429 513.38577 521.02566 527.34329 534.98318 538.3047 541.6764 545.0481 551.727 558.92617 562.2477 569.9668 575.0889 582.2881 589.928 596.9656 602.0877 605.4594 613.0993 620.0149 623.3364 628.2577 635.9768 643.287 646.6085 654.32766 661.6378 666.4862 676.9888 684.9225 689.7709 696.44979 702.3266">a future favorable situation that would reward said larger decision.  Much like preparing the networks </tspan></text>
<text xml:space="preserve" transform="matrix(.75 0 0 .75 0 0)" font-size="14.6921" font-family="F2"><tspan y="503.84" x="96 103.037578 110.67747 118.31736 121.63886 126.928028 134.2382 139.98448 147.73227 155.45136 160.5735 166.59728 173.90746 179.7843 183.1058 190.7457 197.94483 204.26244 211.57262 217.3189 223.06517 230.10276 235.09807 241.74825 245.06975 249.47739 257.11729 262.23945 265.56095 270.48225 278.20133 285.5115 288.833 296.5521 303.75123 310.21577 315.06416 318.2964 330.197 337.23457 340.46684 348.40058 353.52275 356.75498 364.50276 372.14265 379.45283 384.57499 391.61256 396.53385 399.7661 407.69987 415.33976 418.86589">and resources necessary for the next major operation. </tspan></text>
<text fill="#2f5496" xml:space="preserve" transform="matrix(.75 0 0 .75 0 0)" font-size="21.2397" font-family="F1"><tspan y="565.28" x="96 110.145969 121.18066 131.67606 139.88983 146.86949 151.55716 162.81421 173.84889 178.52162 189.28667 195.0214 199.82314 208.7214 219.21681 227.4306 235.64438 246.90143 257.93614 262.73789 273.50294">Question 4: Lesson 4 </tspan></text>
<path transform="matrix(.75,0,0,.75,0,0)" d="M 86.88 541.76 L 727.2 541.76 L 727.2 543.68 L 86.88 543.68 Z " fill-rule="evenodd"/>
<path transform="matrix(.75,0,0,.75,0,0)" d="M 727.2 541.76 L 729.12 541.76 L 729.12 543.68 L 727.2 543.68 Z M 86.88 543.68 L 88.8 543.68 L 88.8 573.12 L 86.88 573.12 Z " fill-rule="evenodd"/>
<path transform="matrix(.75,0,0,.75,0,0)" d="M 727.2 543.68 L 729.12 543.68 L 729.12 573.12 L 727.2 573.12 Z "/>
<text xml:space="preserve" transform="matrix(.75 0 0 .75 0 0)" font-size="14.6921" font-family="F2"><tspan y="587.04" x="96 102.75062 110.498409 122.23487 129.54506 134.46634 137.6986 149.59918 156.90937 162.49237 165.81388 170.73516 178.45424 185.76442 188.99669 195.67557 203.31546 211.06325 221.5658 224.93752 232.2477 239.96678 246.8824 254.19258 257.42485 267.85624 275.3492 278.58146 286.30055 293.49967 300.80986 308.52894 311.85044 316.69883 324.4466 327.7681 334.80567 341.12327 348.76316 356.40306 359.77479 364.89695 372.09608 375.41758 380.26597 388.1997 391.43196 398.34757 405.65776 410.50614 413.73838 424.24095 431.88084 439.191 444.31318 451.80616 454.89149 465.39405 472.70423 476.02574 486.5283 493.56587 501.20576 506.12705 509.35929 514.2805 522.0283 525.34988 532.26547 540.01327 543.24557 549.5632 556.60079 564.24069 567.5622 573.1452 580.4554 587.65457 599.5552 602.8767 607.7251 615.4729 623.2207 626.54226 634.1821 637.55386 644.4694 647.79098 655.7247 660.57308">Sometimes the knowledge we need to acquire to get where we want to go can seem too big or </tspan></text>
<path transform="matrix(.75,0,0,.75,0,0)" d="M 86.88 573.12 L 88.8 573.12 L 88.8 592.48 L 86.88 592.48 Z M 727.2 573.12 L 729.12 573.12 L 729.12 592.48 L 727.2 592.48 Z " fill-rule="evenodd"/>
<text xml:space="preserve" transform="matrix(.75 0 0 .75 0 0)" font-size="14.6921" font-family="F2"><tspan y="606.4" x="96 103.63989 110.67747 118.31736 126.03645 130.95774 134.32946 141.96935 148.88497 152.59386 155.91536 162.66597 170.41376 176.73137 184.37126 190.11754 193.48926 201.12915 208.04477 211.36627 219.11406 226.83315 230.15465 233.66985 241.38893 247.13521 251.98361 255.21588 260.06428 267.10185 273.78074 277.15248 284.87156 291.78718 295.10868 302.85646 310.49635 317.80653 321.12803 326.8743 331.7227 339.03288 346.67277 349.99427 357.03184 361.95314 365.27464 372.3122 375.6337 380.555 383.78727 395.52375 403.01673 406.24897 409.48124 415.2275 418.45976 426.20753 430.6912 435.6125 443.10548 450.74537 453.9776 458.8989 466.5388 473.84898 477.17048 484.88957 492.08869 497.9655 502.8139 506.1354 511.88169 516.73007 521.8522 528.8898 533.81106 541.1212 547.8796 554.63796 558.3468 561.5791 570.61819 577.8173 583.5636 589.7762 594.8983 598.27 605.9099 613.2201 616.5416 623.7408 626.9731 630.2054 638.1391 645.779 652.6946 657.10226 662.0235 669.3337 674.329 686.2296 689.4619 697.2097 702.33187">daunting. Focusing on just taking one step at a time is often the best strategy. Describe a long-term or </tspan></text>
<path transform="matrix(.75,0,0,.75,0,0)" d="M 86.88 592.48 L 88.8 592.48 L 88.8 611.84 L 86.88 611.84 Z M 727.2 592.48 L 729.12 592.48 L 729.12 611.84 L 727.2 611.84 Z " fill-rule="evenodd"/>
<text xml:space="preserve" transform="matrix(.75 0 0 .75 0 0)" font-size="14.6921" font-family="F2"><tspan y="625.76" x="96 103.63989 107.01162 111.49529 115.978969 119.35069 125.56327 133.20317 136.57489 141.49617 144.81768 151.73329 159.66703 166.57231 169.94403 173.1763 179.93466 187.68245 195.32234 198.55461 205.5922 210.71434 218.02452 221.25679 226.17807 231.30022 238.05858 241.4303 249.07019 255.98581 259.21806 264.13935 271.88713 275.20863 282.2462 288.45878 296.09867 299.4704 306.78059 313.4164 320.7266 323.81193 331.74568 336.86784 340.10008 347.84785 355.48774 362.7979 366.03016 372.7885 380.5363 388.25538 391.57688 399.29597 406.20124 412.9596 420.15873 423.48023 430.5178 433.88954 439.0117 446.32188 453.35945 460.99934 467.7577 470.98994 478.0275 484.24009 490.26387 498.01164 509.91224 517.5521 520.9238 524.29556 530.0418 537.5348 544.845 552.5641 556.27297 559.5945 568.74838 576.38827 586.8908 590.21237 597.93148 601.30319 608.94308 612.2646 618.91476 626.66256 634.38168 637.7032 644.6188 652.25869 655.5802 662.6178 670.3369 678.0847 685.80386 690.6522">difficult goal you are trying to achieve or one you have already accomplished. How did you go about </tspan></text>
<path transform="matrix(.75,0,0,.75,0,0)" d="M 86.88 611.84 L 88.8 611.84 L 88.8 631.04 L 86.88 631.04 Z M 727.2 611.84 L 729.12 611.84 L 729.12 631.04 L 727.2 631.04 Z " fill-rule="evenodd"/>
<text xml:space="preserve" transform="matrix(.75 0 0 .75 0 0)" font-size="14.6921" font-family="F2"><tspan y="644.96" x="96 103.63989 111.358989 116.48114 122.22742 129.86731 133.23903 140.87892 147.79454 151.11605 157.79492 165.514 173.2618 183.76435 187.29044 194.60062 202.24051 209.15613 216.35526 219.67676 224.52516 232.27295 235.59445 241.4713 249.11119 255.13497 261.45256 268.76274 276.0729 283.792 290.59999 293.8322 302.98609 310.62599 321.12855 324.45005 330.66264 338.4104 346.0503 349.42204 357.06193 360.38343 367.03364 374.7814 382.5005 385.822 392.85957 400.57865 408.21855 411.59028 418.24049 421.47273 426.394 434.1131 437.48484 443.2311 446.5526 452.7652 460.51298 468.15287 474.36546 481.67564 489.3947 494.2431 497.5646 502.4859 510.1258 513.4473 521.1951 526.1164 533.7563 541.24929 546.24459 549.5661 555.8837 563.5236 570.5612 573.9329 577.1652 584.4754 592.1153 599.0309 602.4026 610.0425 616.95809 620.2796 625.20089 632.23849 638.1153 644.72677 650.473 653.79458 660.6999 665.62118 668.9427 674.8195 681.0321 688.5251 696.4588 704.2066 707.4389 711.10476">pursuing knowledge to succeed? How could you apply this concept to other challenging tasks at school, </tspan></text>
<path transform="matrix(.75,0,0,.75,0,0)" d="M 86.88 631.04 L 88.8 631.04 L 88.8 650.4 L 86.88 650.4 Z M 727.2 631.04 L 729.12 631.04 L 729.12 650.4 L 727.2 650.4 Z " fill-rule="evenodd"/>
<text xml:space="preserve" transform="matrix(.75 0 0 .75 0 0)" font-size="14.6921" font-family="F2"><tspan y="664.32" x="96 103.037578 107.958858 111.28036 121.71175 129.45954 134.74869 141.36014 144.5924 152.3402 157.46234 160.78385 164.30994 171.94983 175.1821 181.64662 189.58036 197.22025 202.34239 205.6639 213.30379 220.61397 225.73612 231.48239 239.23018 246.87007 253.90766 257.13993 260.46144 263.83317 267.2049 271.61253 278.9227 285.73069">at work or in your personal life? </tspan></text>
<path transform="matrix(.75,0,0,.75,0,0)" d="M 86.88 671.04 L 727.2 671.04 L 727.2 672.96 L 86.88 672.96 Z " fill-rule="evenodd"/>
<path transform="matrix(.75,0,0,.75,0,0)" d="M 727.2 671.04 L 729.12 671.04 L 729.12 672.96 L 727.2 672.96 Z M 86.88 650.4 L 88.8 650.4 L 88.8 671.04 L 86.88 671.04 Z " fill-rule="evenodd"/>
<path transform="matrix(.75,0,0,.75,0,0)" d="M 727.2 650.4 L 729.12 650.4 L 729.12 671.04 L 727.2 671.04 Z "/>
<text xml:space="preserve" transform="matrix(.75 0 0 .75 0 0)" font-size="14.6921" font-family="F2"><tspan y="697.6" x="96 104.501049 107.82255 114.58092 121.61849 128.37685 136.09593 143.40612 146.72762 153.48598 161.41971 168.45729 171.68955 175.01105 179.93233 187.65142 194.5567 199.47798 202.79949 206.61943 209.94094 217.58083 224.48612 231.24449 238.55467 241.78694 252.21834 259.85826 263.22999 269.44258 277.08247 280.40397 288.12306 295.1606 300.9069 304.2284 311.8683 319.36128 326.67146 334.31135 337.63285 342.55415 350.19404 357.5042 360.8257 368.4656 373.58778 376.9595 383.71788 387.0896 394.7295 401.6451 404.9666 409.22734 417.16108 422.28324 428.49583 435.69496 439.01646 446.65635 453.96653 461.6856 465.05735 472.69725 480.41633 483.73783 490.7754 494.14714 497.51887 500.7511 512.48757 519.2459 522.4782 534.21469 541.25228 547.5699 555.2098 558.5815 566.07449 573.11209 578.0333 581.405 589.15286 596.87197 602.6182 606.28408 609.6056 617.3247 624.3623 629.9453 633.26687 640.98599 648.29617 655.6063 663.32546 666.55776 671.479 679.1189 686.4291 689.7506 696.6662 704.414 711.4516 714.8233">A vague goal that I have which has been the driving force behind all my machinations, has been the goal </tspan></text>
<text xml:space="preserve" transform="matrix(.75 0 0 .75 0 0)" font-size="14.6921" font-family="F2"><tspan y="733.44" x="96 100.92129 108.85502 111.94035 123.84096 130.87854 137.48999 144.80017 148.03244 159.76889 166.52725 172.11026 179.42044 182.79216 187.27584 190.59734 197.63492 203.21793 206.53943 211.66158 218.97176 224.8486 228.22032 233.80333 238.72461 245.76219 253.40209 258.25047 261.57197 268.60954 274.3558 277.6773 285.3964 293.14418 298.89045 304.63673 307.869 315.58808 318.9598 326.27 329.5915 334.43989 342.18766 345.4199 355.92247 363.64155 370.6791 375.6004 382.79954 389.5579 396.86808 401.8634 405.1849 412.8248 419.86238 427.58146 435.22135 442.53153 450.2506 455.9969 459.3184 462.69013 470.4092 473.7307 485.4672 492.1174 495.4389 502.74909 510.38899 517.02487 520.39657 525.5187 533.2665 540.9064 552.6428 559.953 567.5929 572.4413 579.4789 582.7112 586.0327 592.35037 600.09817 607.81729 615.45718 618.82888 623.7501 626.9824 634.7302 642.44937 648.1956 651.51718 662.0197 665.252 670.1733 677.8924 681.2139 688.2515">to make myself as resistant as possible to whatever happens in my environmental conditions with a </tspan></text>
<text xml:space="preserve" transform="matrix(.75 0 0 .75 0 0)" font-size="14.6921" font-family="F2"><tspan y="769.28" x="96 103.63989 108.76205 112.13377 124.03438 131.07196 136.06728 142.71746 146.03896 150.4466 158.38033 164.59291 172.2328 177.81581 181.13732 189.07105 196.71094 199.9432 204.86449 212.50438 219.99735 223.08269 230.39287 236.60546 244.35324 251.99314 259.92689 271.53367 278.29203 282.00096 285.32246 288.5547 297.98118 305.62107 310.0287 317.96244 323.0846 327.93299 335.65208 343.29197 350.32954 355.17793 362.4881 365.85984 372.6182 376.1443 379.4658 384.3871 392.02699 399.06455 403.98585 407.21809 412.96437 420.71214 425.8343 430.75559 433.98783 441.7356 446.21928 449.54078 456.29914 464.23289 471.13816 474.5099 477.8314 481.20314 487.07997 490.16529 495.08659 502.83436 510.58213 513.9036 521.62277 526.61807 534.55178 541.4571 549.1762 552.84207 556.1636 561.7466 569.6803 572.9126 576.6143 580.14047 586.8988 594.209 597.5305 605.24966 610.24496 617.99276 624.6042 631.91439 639.6335 642.955 646.3267 651.248 654.5695 662.2094 669.9572 680.4598 688.1789 691.5004 694.87216 702.59127 707.43966 715.18746">primary focus on the economy.  Unfortunately, that sort of goal is too broad, so I&#x2019;ve broken it down into </tspan></text>
<text xml:space="preserve" transform="matrix(.75 0 0 .75 0 0)" font-size="14.6921" font-family="F2"><tspan y="805.12" x="96 101.74628 109.05646 115.69229 123.00247 128.12462 135.1622 138.53392 141.76619 148.80377 153.92592 161.2361 168.14139 174.01824 177.72713 180.9594 184.2809 192.11478 199.86257 204.98471 212.6246 219.93479 225.05693 230.63994 235.56122 243.49495 251.13484 258.33399 261.6555 269.58924 277.22914 284.5393 287.8608 291.09309 296.83937 300.16087 305.08216 312.80125 320.00038 323.32188 330.35945 338.07853 341.45027 344.822 348.19374 353.0421 359.80049 363.0327 367.954 375.5939 378.9154 383.39909 386.7708 394.4899 402.1298 405.4513 413.38505 418.38038 421.6126 427.8252 432.82054 440.3135 447.21879 452.14009 459.45027 462.77177 467.69306 475.41215 482.72233 485.95457 496.38597 504.13374 509.2559 515.93478 519.16708 524.0883 531.80746 538.84506 543.7663 547.0878 550.78958 554.1111 557.4828 560.8545 567.46597 574.7761 578.09768 582.94607 590.69387 594.0154 601.7345 609.4823 612.80386 617.92599 625.23617 632.15176 639.18936 644.31149 651.95138 655.32308 662.63327 668.21627 673.9625 677.1948 684.9426 689.4263 692.7478 697.66909 705.3882 712.58737">several areas.  Cornerstone one is the ability to find or create the work that I like to do regardless of the </tspan></text>
<text xml:space="preserve" transform="matrix(.75 0 0 .75 0 0)" font-size="14.6921" font-family="F2"><tspan y="840.8" x="96 103.31018 109.627788 117.37557 124.868549 132.61634 144.35279 147.7245 154.04212 157.36362 163.1099 166.48162 171.4029 179.04279 185.94808 190.86936 194.24108 202.1748 209.8147 213.52359 216.8451 220.1666 229.12879 236.87657 247.30797 250.62947 254.44942 257.97554 269.712 273.0335 279.3511 286.991 292.11317 297.1085 304.41868 312.05857 316.97987 320.3516 327.10997 330.43147 337.18983 344.9376 348.30934 356.0284 362.94404 366.26554 373.3031 380.943 388.87675 396.36973 401.29103 404.61253 411.6501 416.49848 421.19996 428.69294 440.4294 448.0693 452.9906 456.36235 464.08143 470.99705 474.31855 479.16694 486.9147 490.14695 502.04756 508.8059 515.4848 522.9778 526.2993 532.0456 539.6855 546.0031 553.4961 556.8176 563.8552 567.17678 574.09237 581.73226 588.76986 592.14157 595.4631 602.5007 605.8222 610.94436 618.2545 625.2921 628.6638 632.0355 636.8839 643.6423 646.8746 654.5937 661.6313 667.2143 670.5358 678.25497 685.5651 692.8753 700.5944 703.8267 708.748 716.4958">economic situation.  How I&#x2019;m currently going about attempting to make such a goal a reality has been to </tspan></text>
<text xml:space="preserve" transform="matrix(.75 0 0 .75 0 0)" font-size="14.6921" font-family="F2"><tspan y="876.64" x="96 100.92129 107.95886 114.63774 121.94792 125.269428 132.307 135.53928 147.43987 155.07976 158.31201 163.23329 166.60501 171.10305 175.58672 182.6243 188.83689 196.03601 200.95729 208.26747 215.98656 219.30806 226.34564 233.98554 241.70462 246.82677 254.46666 261.50425 267.82185 275.46174 278.78324 283.70454 291.4523 294.7738 299.6951 307.41419 314.72438 318.04588 325.76496 330.76029 338.50807 346.22715 349.59889 356.798 368.5345 372.2434 375.5649 378.79716 385.9567 392.99427 399.67317 403.0449 410.76399 417.52235 420.84385 426.59013 438.3266 445.36418 448.7359 452.10765 455.33988 461.08616 466.00746 473.31764 481.0367 486.6197 489.9412 494.78959 502.53736 513.0399 520.2391 525.3612 533.0011 538.7474 542.0689 549.7088 557.4279 560.7996 564.1713 571.8112 575.0435 582.6834 589.599 592.92056 599.9581 603.27969 610.91958 618.41256 623.2609 633.6923 641.4401 646.56228 653.1737 656.49526 664.42898 668.68966 672.01119 679.7303 687.04049 694.9742 702.6141 705.8464 713.15658">take a multi-faceted approach to the problem.  Taking small steps towards building a network of people </tspan></text>
<text xml:space="preserve" transform="matrix(.75 0 0 .75 0 0)" font-size="14.6921" font-family="F2"><tspan y="912.48" x="96 106.502559 114.22165 121.96944 125.2017 132.51189 140.23097 145.35312 148.72484 154.93743 162.57732 165.89882 170.8201 178.53919 185.73831 189.05982 196.7789 204.71263 209.41411 216.72429 224.44338 229.36466 232.73638 239.77396 243.14568 246.46718 251.31558 258.95549 262.27699 265.6487 273.2886 281.0077 288.75547 295.51383 302.4191 307.3404 314.83338 317.9187 328.42127 331.793 336.7143 344.43339 347.8051 355.445 358.67726 370.57786 377.3362 380.42155 386.73915 394.37904 406.1155 417.7223 425.36219 433.08128 436.453 441.3743 448.13267 451.45417 459.09407 466.13163 471.8779 475.1994 482.9185 490.1176 497.4278 505.14689 508.46839 515.506 518.8275 525.43899 532.74917 539.3993 542.6316 554.36807 562.00796 568.7663 576.0765 579.3088 582.6805 590.3204 593.6419 605.54257 612.007 615.32858 623.04769 626.4194 633.457 640.21536 647.7083 655.4561 663.38986 670.0013 673.2336 676.6053 684.3244">who enrich the potential to innovate within my community has been a key move in my playbook in </tspan></text>
<text xml:space="preserve" transform="matrix(.75 0 0 .75 0 0)" font-size="14.6921" font-family="F2"><tspan y="948.32" x="96 102.75837 109.795948 114.9181 118.15036 126.08409 133.72399 139.30699 142.6285 153.13105 160.16863 166.8188 172.56508 175.88658 181.63286 185.00458 192.64447 198.85706 206.05619 209.37769 217.09677 224.84456 228.16606 233.91234 237.28406 244.92395 251.83957 255.21129 262.52149 265.843 273.15318 277.63685 282.04447 289.79225 294.9144 299.8357 303.06794 307.98924 315.7083 322.74589 327.66719 330.98869 338.70777 345.74534 351.4916 354.8131 362.3061 369.61628 377.10926 384.74916 388.07066 393.81694 401.45683 407.6694 413.69319 421.00337 426.74964 432.4959 436.97959 444.61949 447.9912 451.3127 459.0318 466.06938 471.81565 475.13716 482.77705 489.97618 497.46916 505.10905 508.43055 515.46817 518.7897 524.3727 532.3064 535.6781 538.9104 543.83169 551.0308 555.8792 562.6376 565.8699 573.06906 577.4766 581.96029 589.894 594.8893 599.81057 603.6305 606.952 610.1843 618.0182 625.6581 633.298 640.93789 647.61679 650.98849 658.7076 665.62319 668.9447 676.5846 679.9563 686.8719">various ways since no single effort that has been successful has been a solitary effort.  Chunking big </tspan></text>
</g>
</svg>
