<?xml version="1.0" encoding="UTF-8" standalone="no"?>
<!DOCTYPE svg PUBLIC "-//W3C//DTD SVG 1.1//EN" "http://www.w3.org/Graphics/SVG/1.1/DTD/svg11.dtd">
<svg xmlns="http://www.w3.org/2000/svg" xmlns:xlink="http://www.w3.org/1999/xlink" version="1.1" width="612pt" height="792pt" viewBox="0 0 612 792">
<g enable-background="new">
<text fill="#2f5496" xml:space="preserve" transform="matrix(.75 0 0 .75 0 0)" font-size="21.2397" font-family="F1"><tspan y="135.68" x="96 110.145969 121.18066 131.67606 139.88983 146.86949 151.55716 162.81421 173.84889 178.52162 189.28667 195.0214 199.82314 208.7214 219.21681 227.4306 235.64438 246.90143 257.93614 262.73789 273.50294">Question 1: Lesson 1 </tspan></text>
<path transform="matrix(.75,0,0,.75,0,0)" d="M 86.88 112.16 L 727.2 112.16 L 727.2 114.08 L 86.88 114.08 Z " fill-rule="evenodd"/>
<path transform="matrix(.75,0,0,.75,0,0)" d="M 727.2 112.16 L 729.12 112.16 L 729.12 114.08 L 727.2 114.08 Z M 86.88 114.08 L 88.8 114.08 L 88.8 143.36 L 86.88 143.36 Z " fill-rule="evenodd"/>
<path transform="matrix(.75,0,0,.75,0,0)" d="M 727.2 114.08 L 729.12 114.08 L 729.12 143.36 L 727.2 143.36 Z "/>
<text xml:space="preserve" transform="matrix(.75 0 0 .75 0 0)" font-size="14.6921" font-family="F2"><tspan y="157.28" x="96 103.83387 107.2056 110.577327 114.98495 119.90623 127.83996 135.47986 138.80136 145.85358 152.89116 160.53105 163.90277 171.62186 178.93204 184.05419 188.97547 192.29697 198.17382 204.93219 211.69055 217.43683 221.10269 224.33496 230.65256 237.81209 245.30506 252.61524 255.8475 262.88508 270.52497 273.8967 277.26844 280.64018 285.56147 292.31983 295.64134 300.48973 308.2375 311.559 317.8766 325.36958 333.11735 340.8651 346.6114 353.92158 357.1538 362.0751 369.715 377.20799 380.2933 390.79588 397.995 404.6452 407.87745 418.16194 425.6549 428.88716 434.0093 441.3195 447.19633 454.6893 462.43708 470.15617 477.79606 481.11756 485.96595 493.8997 496.98503 504.91877 512.55868 517.6808 521.0023 527.31997 530.69168 535.68698 542.0046 549.49758 561.3982 567.1445 571.99288 578.8982 586.6173 592.8299 600.1401 605.88638 609.2079 612.5796 618.4564 621.6887 629.40786 636.607 641.7291 649.369 656.4066 664.0465 669.92337 673.2449 678.16616 685.806 693.1162">Clifton Taulbert says, &#x201c;The ability to choose the way we respond to our circumstances is perhaps the </tspan></text>
<path transform="matrix(.75,0,0,.75,0,0)" d="M 86.88 143.36 L 88.8 143.36 L 88.8 162.72 L 86.88 162.72 Z M 727.2 143.36 L 729.12 143.36 L 729.12 162.72 L 727.2 162.72 Z " fill-rule="evenodd"/>
<text xml:space="preserve" transform="matrix(.75 0 0 .75 0 0)" font-size="14.6921" font-family="F2"><tspan y="176.64" x="96 102.91562 108.03777 115.34795 122.38553 127.306819 134.617 140.36328 145.21169 148.53319 156.17308 163.92087 174.42342 181.7336 186.85575 190.08802 200.59056 207.78969 211.11119 218.83028 225.86786 232.62624 239.93642 243.46253 249.61054 252.8428 260.92344 268.6712 276.3903 284.03019 291.34037 297.99058 301.31208 314.38288 321.42045 324.6527 331.3316 338.64179 343.76396 347.08546 352.96229 359.72065 366.479 372.22529 375.75138 379.07289 385.39048 392.4427 400.19047 407.90956 411.14179 416.88807 424.52796 432.27574 439.9948 443.36656 451.00645 454.32795 462.04704 469.98078 474.68226 478.00376 481.3755 488.68568 493.53407 496.85557 503.50578 511.25355 518.97268 524.0948 527.4163 533.73397 536.96627 542.0884 548.406 555.899 567.7996 573.3826 578.231 585.2686 592.98776 599.2003 606.5105 612.3873 615.6196 623.33877 630.5379 635.02157 638.39328 646.03317 653.3433 656.66488 663.315 671.0628 678.7819 683.90408">greatest power we have.&#x201d; Rodney Walker says, &#x201c;You should not let your circumstances define your </tspan></text>
<path transform="matrix(.75,0,0,.75,0,0)" d="M 86.88 162.72 L 88.8 162.72 L 88.8 182.08 L 86.88 182.08 Z M 727.2 162.72 L 729.12 162.72 L 729.12 182.08 L 727.2 182.08 Z " fill-rule="evenodd"/>
<text xml:space="preserve" transform="matrix(.75 0 0 .75 0 0)" font-size="14.6921" font-family="F2"><tspan y="196" x="96 102.21258 109.85247 117.7862 121.15793 127.37051 134.6807 140.42697 143.95308 147.27458 153.5922 160.79132 165.63973 168.872 175.63036 183.37815 191.09723 196.21938 199.45165 205.66423 213.30413 221.23786 224.47011 230.6827 237.99288 243.73915 247.06066 254.55362 261.8638 266.34748 269.7192 277.3591 284.66929 288.19538 294.6599 302.59367 310.23356 315.3557 318.67723 324.8898 328.26155 333.25688 339.46946 347.10935 359.00996 364.59294 369.51423 376.5518 384.19169 390.50929 397.81947 403.56575 407.09187 413.23988 416.4721 420.17384 423.54557 426.9173 434.5572 440.30348 445.22477 450.34693 457.3845 462.3058 469.61598 472.93748 480.57737 488.32514 498.8277 502.05995 508.37754 516.0174 523.6573 531.591 537.3373 540.709 548.3489 555.26449 558.586 565.6236 568.9451 573.9404 581.2506 586.9969 594.6368 602.5705 610.2104 615.95669 623.1558 626.47738 629.84909 637.48898 640.8105 647.46066 655.20846 662.92758 668.0497 671.282 679.0298 689.53237 697.25149 700.573 703.9447 707.3164 711.724 719.0342">choices. Let your choices define your circumstances.&#x201d; Illustrate how choosing a response in your own life </tspan></text>
<path transform="matrix(.75,0,0,.75,0,0)" d="M 86.88 182.08 L 88.8 182.08 L 88.8 201.44 L 86.88 201.44 Z M 727.2 182.08 L 729.12 182.08 L 729.12 201.44 L 727.2 201.44 Z " fill-rule="evenodd"/>
<text xml:space="preserve" transform="matrix(.75 0 0 .75 0 0)" font-size="14.6921" font-family="F2"><tspan y="215.36" x="96 102.21258 109.85247 116.890048 124.60914 131.52475 138.83493 146.47483 149.79633 156.4465 164.19429 171.83419 176.95633 180.27783 186.59545 189.96717 195.08931 201.3019 208.79486 220.69545 226.44173 231.363 238.40059 246.04048 252.25307 259.3053 265.05158 268.37309 276.30683 281.429 284.7505 287.98277 295.29295 302.93284 306.25434 311.10273 318.8505 322.08274 328.8411 336.77485 344.41474 349.5369 352.8584 360.35139 367.66157 372.78373 378.53 386.46376 394.10365 401.1412 404.37348 407.6057 414.52134 419.6435 427.39128 437.89384 443.03608 450.67597 454.2021">changed your circumstances or led to your personal growth. </tspan></text>
<path transform="matrix(.75,0,0,.75,0,0)" d="M 86.88 222.08 L 727.2 222.08 L 727.2 224 L 86.88 224 Z " fill-rule="evenodd"/>
<path transform="matrix(.75,0,0,.75,0,0)" d="M 727.2 222.08 L 729.12 222.08 L 729.12 224 L 727.2 224 Z M 86.88 201.44 L 88.8 201.44 L 88.8 222.08 L 86.88 222.08 Z " fill-rule="evenodd"/>
<path transform="matrix(.75,0,0,.75,0,0)" d="M 727.2 201.44 L 729.12 201.44 L 729.12 222.08 L 727.2 222.08 Z "/>
<text xml:space="preserve" transform="matrix(.75 0 0 .75 0 0)" font-size="14.6921" font-family="F2"><tspan y="248.64" x="96 103.83387 111.47376 123.37437 126.74609 134.38599 141.3016 144.53388 147.9056 155.62468 160.54596 168.47969 171.56504 176.48632 184.2054 191.51558 194.74785 201.06546 208.70536 220.60594 228.24584 235.88573 240.807 248.11719 253.1125 256.34477 262.09104 268.40864 271.6409 279.13389 286.77378 292.98637 300.29655 303.61805 311.33714 316.33247 324.08024 330.99586 336.118 343.0233 354.75978 358.4256 361.7471 365.56706 369.23289 376.87278 380.19429 387.83418 394.73945 401.4978 408.80799 412.04023 416.8886 424.63639 427.9579 434.99546 442.48844 454.38905 457.76078 462.68208 466.00358 470.92488 478.64396 485.54924 490.47053 493.79203 497.61198 500.6973 511.19987 518.2374 524.11428 527.4358 535.0757 540.071 547.8188 555.5379 562.8481 566.1696 571.018 578.6579 581.97946 585.50558 592.81576 597.737 602.65829 606.02999 613.66989 620.58547 623.81777 635.5542 642.20437">Coming into the computer science program, I&#x2019;d have to admit that I was prone to letting my </tspan></text>
<text xml:space="preserve" transform="matrix(.75 0 0 .75 0 0)" font-size="14.6921" font-family="F2"><tspan y="284.48" x="96 102.21258 105.584308 110.70646 116.91904 124.55893 136.45952 142.04253 146.9638 154.00139 161.64128 167.9589 175.26908 181.01535 184.33686 191.97675 199.28693 203.69457 207.06629 214.70618 222.19915 225.28449 235.78704 243.50612 250.5437 255.46498 258.69725 264.4435 272.19129 277.31346 282.23475 285.55625 293.30403 297.7877 301.01994 307.33753 314.97743 322.7252 326.09693 332.3095 339.50865 345.38548 348.6177 352.31944 355.55168 367.45228 374.48985 382.12974 389.4399 393.14884 396.38108 399.6133 406.77287 414.49195 421.69108 425.01258 436.91319 444.22337 449.2187 456.52888 459.85038 464.33406 471.3716 477.5842 482.4326 485.7541 490.67539 498.39448 505.29975 510.22105 513.54257 517.3625 521.0283 527.49288 534.80307 538.1246 544.4422 551.9352 559.8689 565.6152 572.92538 580.56527 583.79757 590.01016 597.65 609.55068 617.19058 624.90969 629.83096 637.1411 642.26327 645.5848 651.33108 657.54367 660.77597 668.0861 675.80526 682.0178 689.217 692.5385 699.7377 705.48397">circumstances define what sort of choices I made.  The mere fact that I&#x2019;ve chosen computer science as </tspan></text>
<text xml:space="preserve" transform="matrix(.75 0 0 .75 0 0)" font-size="14.6921" font-family="F2"><tspan y="320.32" x="96 107.900608 114.36513 117.68663 129.58722 136.6248 140.00399 147.75177 152.87392 156.10619 166.60874 173.64632 179.3926 182.62487 187.54615 195.26523 202.57541 205.89691 210.89223 218.20241 224.07926 231.71915 235.09087 239.93927 243.17154 251.10527 255.51291 258.74516 263.8673 271.1775 278.0931 281.46485 289.21263 296.8525 303.89009 307.2618 310.5833 316.9009 320.27265 325.26799 331.48057 339.12046 350.85694 356.6032 361.4516 368.48918 376.12907 382.44667 389.75685 395.3398 398.66133 409.16389 412.69 417.39149 425.03138 428.35289 433.27418 440.99327 448.48625 451.71849 458.9176 470.8182 478.4581 481.69038 489.43815 496.08836 507.98896 515.29916 522.939 527.7874 531.10897 543.0096 549.9149 554.9102 561.5891 568.8993 573.7477 576.98 584.0176 591.6575 599.3766 602.6981 613.2007 620.9198 627.9574 632.87869 636.2002 643.9193 651.11849 658.8663 666.5854 669.9571 677.2673">my major was the result of regional circumstances with the employment market and what people </tspan></text>
<text xml:space="preserve" transform="matrix(.75 0 0 .75 0 0)" font-size="14.6921" font-family="F2"><tspan y="356" x="96 101.74628 109.494068 117.21316 124.12878 131.76868 136.68996 140.39885 143.72035 147.04186 154.09406 160.85243 168.16262 175.8817 179.11397 189.61652 192.98824 197.90952 205.54941 208.87091 213.79219 221.51128 228.41657 233.33785 236.65935 244.37844 251.68862 258.5939 265.35227 272.11064 275.43214 278.80387 286.44377 290.92744 294.29917 301.93907 309.24925 316.96833 323.1809 330.38005 333.61228 341.36006 345.84373 349.16523 355.48283 358.85456 363.84989 370.06248 377.70237 389.60298 395.18595 400.10725 407.1448 414.7847 420.99729 428.1964 434.07325 437.73908 441.06059 444.7623 448.0838 455.7237 459.09544 466.73533 470.05683 477.5498 485.0428 489.96409 497.27427 502.39643 505.62867 510.54997 518.26907 525.5792 528.90078 535.11337 542.75326 554.4897 562.1296 569.8487 574.76998 581.9691 587.09127 590.4128 596.2896 602.5022 605.8739 613.1841 620.824 627.03659 634.2357 637.55728 645.27639 650.3985 658.1463 665.0619 670.184 677.08938 688.99 692.0754 702.57797 705.94967 710.8709 718.59">sought.  Even with that heavy influence of circumstances, I did enter the computer science program with </tspan></text>
<text xml:space="preserve" transform="matrix(.75 0 0 .75 0 0)" font-size="14.6921" font-family="F2"><tspan y="391.84" x="96 103.037578 106.35908 113.99897 121.491939 125.89956 130.82083 137.47101 140.70328 148.42237 151.79409 156.71537 164.02555 169.14769 172.37995 180.12773 185.24988 188.48215 200.2186 207.96639 212.88767 216.25939 222.89524 230.20542 233.43769 241.18547 245.66915 248.99065 256.63056 263.94075 267.31248 274.95237 281.86799 285.18949 292.22706 299.86695 303.23869 310.54887 313.87037 318.71876 326.46653 329.78804 337.0982 343.85658 351.16676 358.65974 363.58103 371.3001 378.33769 381.7094 385.08116 391.73136 395.05287 402.77195 410.41184 413.78358 417.01585 424.65574 427.97724 435.0148 438.3363 443.2576 450.75059 457.65586 469.39234 473.10127 476.42277 479.655 489.38279 496.01863 503.21775 508.3399 511.6614 516.58267 524.30178 527.67349 533.2565 536.578 544.2971 551.3347 557.081 562.00228 565.23458 571.9929 579.1921 586.2297 591.3518 595.01766 598.3392 602.0409 605.7067 612.3426 619.54177 622.8633 630.5824 637.8926 645.38558 652.87857 656.2001 662.5177 670.1576 677.7975 685.5453 691.4221 694.7938 702.4337 709.3493">a hefty ulterior motive of being able to eventually build a team.  Over this past year, I&#x2019;ve been choosing </tspan></text>
<text xml:space="preserve" transform="matrix(.75 0 0 .75 0 0)" font-size="14.6921" font-family="F2"><tspan y="427.68" x="96 100.92129 108.85502 112.08728 117.83356 122.68195 130.32186 138.04094 144.7993 148.1208 151.49253 159.13242 162.36469 173.97144 181.90517 187.02732 194.3375 197.659 205.29889 213.01798 220.65787 224.02959 227.4013 233.71892 236.95119 242.82804 250.46793 257.3732 263.5858 270.89598 276.64225 279.96376 283.33549 290.97538 296.8522 301.55369 308.86387 316.063 323.70289 326.93513 334.6829 339.16658 342.48808 348.23435 355.43348 362.74366 366.1154 373.83448 380.7501 384.0716 395.67839 402.43675 405.66899 413.30888 423.81144 431.53053 434.85203 441.16963 444.54136 449.53669 455.85429 463.34727 475.24787 480.99415 485.91545 492.953 500.5929 506.80549 514.00466 519.7509 523.07247 530.11007 535.8563 539.0886 544.21078 551.52096 558.55856 564.14157 571.88937 579.52926 582.85079 587.3344 595.2681 600.2634 603.4957 615.39639 622.0465 625.2788 628.6505 635.6881 641.9007 648.51217 651.74447 659.67819 664.08578">to study in more public spaces instead of seeing my own circumstances as reason for my lack of </tspan></text>
<text xml:space="preserve" transform="matrix(.75 0 0 .75 0 0)" font-size="14.6921" font-family="F2"><tspan y="463.52" x="96 101.74628 109.494068 115.81167 119.183399 126.22097 129.5927 132.96442 138.69434 145.73192 150.58032 153.81258 161.7463 169.3862 172.7077 179.74529 184.59369 187.91519 194.6658 201.70339 207.91597 212.91129 219.81658 231.71717 239.02735 246.66724 251.51564 259.15553 262.47703 269.22767 274.14897 281.18653 286.10783 293.6008 296.68614 306.236 313.8759 317.24763 324.00599 331.31617 336.3115 342.05778 345.4295 350.2779 357.03627 360.56239">socialization at Sacramento State University. </tspan></text>
<text xml:space="preserve" transform="matrix(.75 0 0 .75 0 0)" font-size="14.6921" font-family="F2"><tspan y="509.92" x="96 103.15953 110.79942 114.17115 120.048 123.28026 129.59787 137.23777 145.1715 148.40375 154.61634 161.81546 165.13697 169.98537 177.9191 181.2406 186.82361 191.74489 199.46398 207.10387 213.86223 217.18373 220.55545 228.19535 231.42761 243.16407 250.91185 255.90715 263.21736 266.53886 274.25794 281.89784 289.53773 292.90946 296.2812 302.5988 305.9203 311.66658 319.30647 326.34403 332.66163 339.9718 345.55479 348.87629 352.24803 359.8879 365.76475 370.61314 377.9233 384.96089 392.60078 395.92228 403.67005 408.15373 411.47523 419.1151 426.4253 430.83293 438.3259 443.32124 448.4434 451.81513 459.45503 466.37065 469.69215 474.54054 482.2883 485.52055 493.45429 501.09419 508.40437 511.6366 519.3844 523.86807 527.10037 539.001 545.46548 548.787 556.27999 562.6432 566.0149 571.5979 576.51919 579.75149 587.39138 594.30697 597.6285 603.9461 607.1784 612.30056 618.61819 626.25808 638.1587 643.90499 648.60647 655.64407 663.36318 669.57577 676.8859 682.6322 685.8645 693.6123 698.09597">This choice to study in more public spaces instead of deferring to one of my existing circumstances of </tspan></text>
<text xml:space="preserve" transform="matrix(.75 0 0 .75 0 0)" font-size="14.6921" font-family="F2"><tspan y="545.76" x="96 102.91562 110.66341 114.03513 121.675029 128.59064 131.91214 139.63123 147.27112 159.1717 166.48189 169.80339 176.84098 184.48087 192.19995 195.52146 202.42675 207.34803 212.2693 219.46843 231.36902 239.00891 243.93019 247.30191 254.9418 261.70018 265.02168 269.94297 277.8767 281.1982 288.11384 293.236 300.27357 307.91346 315.55335 318.92509 326.1242 329.4457 339.94828 343.4744 348.32279 356.04188 359.2741 365.0204 369.94169 377.58158 385.30067 392.05903 395.43077 403.07066 409.98628 413.0716 420.10917 425.03047 428.35197 436.07106 443.81883 455.5553 462.75444 466.07594 473.5689 481.2088 488.8487 496.15888 503.87797 507.19947 514.9186 522.5585 525.88 532.19766 539.8375 546.8751 554.515 561.4306 564.8023 572.2953 579.2109 582.5324 594.43307 600.8975 604.21908 610.5367 613.9084 619.0305 625.2431 632.7361 644.6367 650.383 655.2314 662.269 669.9881 676.01187 683.322 689.19888 692.5204 695.8921 703.532">going home and attempting to grapple with studying at home ended up changing my circumstances in </tspan></text>
<text xml:space="preserve" transform="matrix(.75 0 0 .75 0 0)" font-size="14.6921" font-family="F2"><tspan y="581.6" x="96 100.92129 108.56118 116.054149 119.28641 126.32398 131.44612 138.7563 145.66159 151.53844 154.7707 162.70444 166.96515 170.28665 177.48578 189.38637 197.02626 200.39798 208.03787 214.68805 226.4245 233.73468 241.45377 246.37505 249.90116 253.13343 260.77333 268.0835 273.0048 283.50736 291.25514 296.3773 303.05619 306.42793 314.147 321.06263 324.72846 328.04997 335.08753 340.6705 343.992 354.49458 361.98756 365.35929 368.44465 371.76615 378.8037 384.68055 388.00205 391.37379 398.5729 405.61048 410.45887 418.17796 421.54969 429.18959 436.1052 439.4267 447.36045 455.00035 462.64024 470.388 475.51017 480.43147 488.15055 495.86964 499.24137 504.16267 507.5344 514.84457 520.5908 524.1169 527.4384 530.75997 534.5799 542.2198 545.5413 550.4626 558.1817 565.38088 568.61318 575.65078 580.7729 588.08309 595.12069 598.35299 606.10079 610.5844 613.90597 621.1051 633.00576 640.6456 644.01736 651.6572 658.3074 670.0438 677.354 685.0731 689.9944 693.5205">the areas of employment, networking, as well as learning opportunities.  In the area of employment, </tspan></text>
<text xml:space="preserve" transform="matrix(.75 0 0 .75 0 0)" font-size="14.6921" font-family="F2"><tspan y="617.44" x="96 101.74628 106.667568 114.30746 122.02655 128.78491 132.15663 139.79653 146.71215 150.03365 153.40537 161.04526 164.36676 172.08585 179.72574 187.36563 190.73735 194.10907 200.42668 203.74819 209.49446 217.13436 224.17194 230.48955 237.79973 243.38274 246.70424 254.34413 261.3817 269.1008 272.4223 279.45988 282.8316 286.20335 293.9511 304.3825 311.6927 319.41178 322.73329 327.1409 334.88868 340.01084 343.24308 355.14369 362.45387 365.6861 370.5345 378.46824 381.78974 385.16148 392.65446 397.57575 404.88594 410.0081 416.91337 423.23097 428.07936 431.40086 441.9034 445.27516 450.12355 457.84263 461.16413 468.8832 476.08235 483.8301 491.5492 494.92094 502.2311 505.5526 516.0552 523.69509 531.4429 534.7644 538.58438 541.66976 552.10116 560.03488 567.67477 571.04647 578.68637 582.0079 589.64779 597.5815 602.5768 614.31326 621.3508 624.72256 628.09426 634.8526 638.0849 645.7248 653.035 659.67086 666.87 671.9921 675.31369 683.0328 690.0704 696.70626 704.0164">studying in public spaces had allowed for me to interact with people who I would normally never have </tspan></text>
<text xml:space="preserve" transform="matrix(.75 0 0 .75 0 0)" font-size="14.6921" font-family="F2"><tspan y="653.12" x="96 99.37173 107.01162 111.9329 119.24308 124.365238 131.40282 137.72043 142.56884 149.87902 157.5189 160.84041 171.34296 174.71468 179.63596 187.35504 190.58731 197.6249 205.26479 212.98387 216.30538 219.6771 227.31699 230.63849 238.35758 246.10536 249.63146 257.12446 264.04008 267.2723 273.0186 280.95234 284.03767 291.34785 297.98368 305.29386 313.01295 317.93424 325.57414 332.6117 335.98344 339.35517 346.11354 349.43504 352.80677 359.84434 367.48423 375.1241 382.4343 390.0742 393.3957 400.43327 408.07316 411.39466 414.92076 422.0803 425.4018 433.12089 441.05464 446.8009 450.17265 455.02104 458.2533 466.18705 473.82695 477.05918 487.56175 490.93348 495.85478 503.49467 506.81617 514.5353 521.5729 527.1559 534.46609 542.1852 545.5067 553.4404 557.848 562.2556 565.4879 570.4092 578.0491 585.35928 588.73098 593.8531 597.1746 602.29678 609.60696 615.8195 623.3125 635.04898 646.9496 654.25979 661.89968 669.53958 676.57717 681.4984 684.7307 692.6644 700.3043 706.0506 709.75949 712.99179">interacted with and in doing so eventually landed an IT position with based off their recommendations.  </tspan></text>
<text xml:space="preserve" transform="matrix(.75 0 0 .75 0 0)" font-size="14.6921" font-family="F2"><tspan y="688.96" x="96 103.15953 110.79942 114.17115 120.048 123.28026 130.47939 137.23777 144.54795 152.26703 157.18831 164.9074 171.94498 175.3167 178.68842 185.15294 188.47444 193.59659 200.90677 206.78362 214.42351 217.79523 222.64363 229.95381 237.5937 240.9152 244.28693 251.92682 255.15909 260.08039 267.79948 275.10966 278.43116 284.74876 292.38865 299.4262 307.1453 314.0609 321.3711 324.60334 332.3511 336.83479 340.15629 344.63996 348.0117 355.65159 362.68916 370.32905 376.64665 380.01838 387.05595 390.2882 393.52046 399.83805 403.20979 408.33195 414.3557 421.9956 433.8962 439.6425 444.56379 451.60136 459.24125 465.45384 472.65296 478.5298 481.8513 486.2589 491.25425 499.002 510.7385 514.06 521.9937 529.4867 536.7969 540.1184 550.621 558.26089 565.57107 570.6932 577.89236 581.21389 584.9156 588.2371 598.7397 605.7773 611.6541 614.7395 621.0571 628.80496 636.52407 642.10708 647.0283 654.0659 661.78506 666.7063 670.078 676.72817">This eventually resulted in the change of financial circumstances from one where I was constantly </tspan></text>
<text xml:space="preserve" transform="matrix(.75 0 0 .75 0 0)" font-size="14.6921" font-family="F2"><tspan y="724.8" x="96 106.502559 114.43629 119.4316 124.55376 127.78602 135.0962 142.81529 146.1368 153.17438 160.81427 168.748 176.3879 181.2363 184.5578 188.96544 196.68453 204.32442 212.0435 217.78978 221.11128 224.483 232.1229 237.04418 244.79196 248.11347 255.86125 263.50117 270.81135 274.13285 284.6354 292.3545 299.66468 304.66 311.97019 315.2917 319.11164 322.43315 329.92613 337.85987 345.49977 349.1656 354.08689 357.4084 365.12748 372.3266 378.53919 385.84938 391.7262 397.47248 404.37776 409.4999 412.87165 416.1039 422.86228 426.18379 433.82368 441.13386 448.62684 456.26673 459.49897 464.34736 472.09513 475.41664 485.84803 493.5958 498.71797 503.84013 510.49034 513.7226 520.7602 528.4793 536.2271 543.9462 548.7946 552.11618 559.75607 567.50387 577.93527 581.16757 588.88668 595.92428 599.29598 602.66769 609.3178 612.63937 619.8385 626.30307 633.94296 641.2531 648.9722 654.7185 662.0287 667.6117 670.9332 681.65847 684.89077 688.26248 691.63418 694.9557 702.6748 709.87399">worried about funds into one where I don&#x2019;t necessarily need to worry about how daily expenses will be </tspan></text>
<text xml:space="preserve" transform="matrix(.75 0 0 .75 0 0)" font-size="14.6921" font-family="F2"><tspan y="760.64" x="96 106.502559 114.43629 119.4316 126.043048 133.35323 141.07231 144.30458 152.05237 159.77146 164.69274 168.40163 171.72313 175.04463 178.74636 186.38625 189.70775 194.62903 202.26892 209.5791 212.9006 219.93819 225.06034 232.25946 239.29705 242.52931 250.2771 254.76078 257.993 265.7121 273.02229 277.94358 288.37498 296.12275 301.2449 307.9238 311.44993 319.0898 326.00544 329.67127 332.9035 336.72346 339.9557 347.67478 354.71235 362.35224 365.67375 372.4321 380.36585 388.00575 395.31593 398.63743 403.1211 408.11643 415.75633 427.65693 430.97843 436.5614 444.2013 456.1019 463.30104 471.0488 478.76789 486.07807 489.3103 499.81288 507.53196 515.2797 518.80587 526.44577 533.48336 538.3317 545.8247 549.057 555.81539 559.04769 565.72659 573.21957 580.5297 591.0323 594.3538 602.1016 606.58529 609.9068 617.10598 620.33828 624.74588 632.056 642.4874 645.80899 653.44888 661.38259 667.1125 674.42269 682.06259">worked out.  In the area of networking, I had gone from someone who barely knew of a few dozen </tspan></text>
<text xml:space="preserve" transform="matrix(.75 0 0 .75 0 0)" font-size="14.6921" font-family="F2"><tspan y="796.48" x="96 103.63989 110.95007 118.883808 126.5237 129.89542 137.2056 140.43787 145.35915 153.10694 156.42844 162.17472 169.8146 181.55106 188.86124 196.60903 204.32811 211.52724 214.84874 225.35129 232.99118 240.73897 244.06047 250.37808 257.28337 264.92326 268.24476 274.56236 279.6845 286.9947 294.03227 298.88066 306.19084 309.51234 317.2601 324.9792 332.47218 340.4059 345.52809 350.37648 358.09556 365.73545 369.10719 374.02848 377.4002 384.59934 390.3456 393.6671 398.07475 405.8225 410.94468 414.26618 419.11457 426.75447 434.24745 445.98393 451.5669 458.87709 462.2488 469.00718 476.2063 481.95259 485.27409 492.99317 499.64338 502.8756 508.6219 511.99363 523.8942 531.5341 534.7664 541.41659 544.7381 549.5865 556.34487 559.71658 567.35647 574.27206 577.50436 582.3527 590.1005 597.0161 604.3263 609.24758 616.9667 624.27688 629.27218 632.5937 639.35208 646.38967 651.5118 654.7441 662.4919 670.211 675.9573 679.2788 686.3164 691.3117 698.6219 705.6595 711.40579">people to someone who can create opportunities for themselves by simply tying together various areas </tspan></text>
<text xml:space="preserve" transform="matrix(.75 0 0 .75 0 0)" font-size="14.6921" font-family="F2"><tspan y="832.16" x="96 103.74779 108.23147 111.55297 116.47425 124.193347 131.68631 134.91857 139.91388 143.23538 150.98317 161.48572 169.12561 172.44712 180.1662 187.47638 192.32479 202.75618 210.50397 215.62612 222.305 226.12494 229.44644 232.76795 239.37938 247.01927 258.75575 266.06593 269.38743 277.1352 281.54283 284.86433 289.7856 297.5047 305.1446 310.89088 318.20106 321.52256 327.84016 335.33314 343.26689 346.6386 352.66239 359.97257 365.71885 369.04035 373.88874 381.6365 385.1626 390.74559 395.59397 403.31306 410.95295 417.7113 420.94355 424.31529 431.95518 435.27668 442.91658 450.63566 458.27555 461.64729 465.019 471.3366 474.56886 480.44569 488.08558 495.12315 501.33573 508.6459 514.39218 517.62448 528.127 535.4372 540.5593 547.7585 551.08 562.81649 570.5643 575.5596 582.7587 586.08029 591.9571 596.87838 602.0005 609.0381 613.8865 621.19668 628.11227 631.34457 637.6622 640.9837 644.3554 647.7271 654.406 661.60519 664.83749 676.5739 683.3323">of their own network.  Some of those choices to study in public spaces were more strategic like my </tspan></text>
<text xml:space="preserve" transform="matrix(.75 0 0 .75 0 0)" font-size="14.6921" font-family="F2"><tspan y="868" x="96 102.21258 109.85247 117.7862 121.15793 127.37051 134.56964 137.89115 141.26287 148.30045 153.22173 160.42086 163.74236 167.11408 174.75397 178.07547 183.95232 191.59221 196.71436 200.08608 207.72597 214.64159 217.96309 222.8115 230.55928 233.88079 239.75763 246.95676 254.15589 260.76734 264.08885 272.02259 279.66249 284.51087 287.83238 292.31605 299.62623 302.99797 306.23023 313.978 324.48057 327.7128 334.0304 341.6703 353.5709 361.2108 368.85069 373.77198 381.26496 386.11335 389.43486 395.31169 401.52427 404.896 412.09513 419.73503 426.0526 433.3628 436.6843 442.43058 447.35188 455.07096 462.71086 470.02104 477.7401 482.5885 488.33479 491.65629 496.50468 504.25245 507.57395 515.293 522.9329 526.3046 529.67636 537.3162 540.63778 548.5715 556.21139 561.05978 564.29208 576.0285 582.67868 585.91098 593.63009 600.94027 605.78866 616.2912 624.039 629.0343 635.7132 639.0347 646.78256 651.2662 654.5877 662.3068 669.617 676.9272 681.9225 687.66879 690.9903 695.3979 703.1457 708.2678">choice late in spring to seek out fellow computer science students to build out my network of peers for </tspan></text>
<text xml:space="preserve" transform="matrix(.75 0 0 .75 0 0)" font-size="14.6921" font-family="F2"><tspan y="903.84" x="96 102.75837 109.795948 114.9181 118.15036 126.08409 133.72399 139.30699 142.6285 150.34758 157.65776 162.7799 168.36292 176.29665 183.93654 190.97412 194.34584 198.0117 201.3332 208.9731 214.09525 222.02898 226.28969 233.59987 239.34615 245.09243 248.32468 255.96457 263.68367 270.72123 274.09297 277.7588 281.0803 288.11787 295.75776 303.47685 306.79835 314.10853 321.8276 329.4675 335.7851 342.82267 347.67106 350.90333 358.83708 366.47697 373.51454 376.88627 380.1185 387.8376 392.95976 400.70753 404.0867 411.57969 417.60346 422.52476 428.27104 431.97996 435.30146 438.62297 447.58515 455.5189 458.89064 466.53053 473.44615 476.67839 482.26136 490.1951 493.5166 501.1565 508.19407 515.91317 519.2347 525.5523 530.4007 537.7109 544.91006 549.6115 556.9217 564.6408 567.96237 572.8836 580.5235 587.8337 591.1552 598.903 606.62216 614.1151 622.0488 627.17098 632.0922 639.7321 647.372 650.7437 655.665 662.3151 665.63668 670.1203 677.8681 682.8634 686.18496 697.9214 705.23159">various personal, professional, and educational projects.  Doing so had created the opportunity for me </tspan></text>
</g>
</svg>
