<?xml version="1.0" encoding="UTF-8" standalone="no"?>
<!DOCTYPE svg PUBLIC "-//W3C//DTD SVG 1.1//EN" "http://www.w3.org/Graphics/SVG/1.1/DTD/svg11.dtd">
<svg xmlns="http://www.w3.org/2000/svg" xmlns:xlink="http://www.w3.org/1999/xlink" version="1.1" width="612pt" height="792pt" viewBox="0 0 612 792">
<g enable-background="new">
<text xml:space="preserve" transform="matrix(.75 0 0 .75 0 0)" font-size="14.6921" font-family="F2"><tspan y="109.92" x="96 103.037578 109.25015 116.890048 120.26177 127.57195 134.33032 141.52945 144.85095 152.78469 160.27765 167.58783 170.8201 178.56789 183.05156 186.28383 198.18442 204.94278 208.17505 214.93341 222.6812 229.88033 233.11258 238.98943 242.31093 246.57164 254.50537 259.35377 262.67527 274.41175 281.1701 284.4916 291.69075 298.15528 305.79518 313.10536 318.2275 321.59925 328.90943 336.54933 342.7619 350.07209 353.3936 361.03349 368.34367 373.46583 380.66496 383.98646 391.02403 395.9453 399.4714 406.08287 412.98814 419.2007 424.19606 431.2336 443.13423 450.4444 458.0843 462.93269 470.68046 474.00196 480.6134 485.5347 492.57228 497.49357 504.6927 508.0142 517.564 525.2039 528.5756 535.2115 542.52169 547.6438 553.3901 556.6224 561.54367 568.1938 571.5153 581.9467 589.5866 592.9583 599.27597 606.91586 610.23739 620.7399 627.7775 633.5238 636.84536 641.6937 649.62747 652.7128 660.023 666.6589 673.96908 681.6882 686.60946 694.2493 701.2869 704.6586 708.03036 714.7887">achieve one of my goals for my experience here at Sacramento State University which was to eventually </tspan></text>
<text xml:space="preserve" transform="matrix(.75 0 0 .75 0 0)" font-size="14.6921" font-family="F2"><tspan y="145.76" x="96 102.21258 107.33473 114.37231 118.77993 123.70121 127.22731 134.1326 137.4541 145.17319 148.5449 155.46053 163.10042 166.47214 173.12232 176.35459 182.6722 189.70978 197.34967 204.38726 212.02715 215.39887 222.70905 225.94132 230.8626 238.17278 245.07807 256.81455 260.52348 263.7557 267.0772">craft a highly capable team.   </tspan></text>
<text fill="#2f5496" xml:space="preserve" transform="matrix(.75 0 0 .75 0 0)" font-size="21.2397" font-family="F1"><tspan y="207.2" x="96 110.145969 121.18066 131.67606 139.88983 146.86949 151.55716 162.81421 173.84889 178.52162 189.28667 195.0214 199.82314 208.7214 219.21681 227.4306 235.64438 246.90143 257.93614 262.73789 273.50294">Question 2: Lesson 2 </tspan></text>
<path transform="matrix(.75,0,0,.75,0,0)" d="M 86.88 183.68 L 727.2 183.68 L 727.2 185.6 L 86.88 185.6 Z " fill-rule="evenodd"/>
<path transform="matrix(.75,0,0,.75,0,0)" d="M 727.2 183.68 L 729.12 183.68 L 729.12 185.6 L 727.2 185.6 Z M 86.88 185.6 L 88.8 185.6 L 88.8 215.04 L 86.88 215.04 Z " fill-rule="evenodd"/>
<path transform="matrix(.75,0,0,.75,0,0)" d="M 727.2 185.6 L 729.12 185.6 L 729.12 215.04 L 727.2 215.04 Z "/>
<text xml:space="preserve" transform="matrix(.75 0 0 .75 0 0)" font-size="14.6921" font-family="F2"><tspan y="228.96" x="96 109.07081 116.7107 124.20367 131.84357 135.16507 142.80496 149.84255 156.4784 163.78858 167.11008 173.76026 181.50804 189.14794 192.3802 199.69039 207.33028 213.64789 221.39568 229.11476 236.75466 241.60306 248.91324 253.90856 261.21876 268.93785 272.25935 279.2969 286.9368 290.2583 298.19206 305.83195 313.32493 321.25868 326.38084 331.22923 338.9483 346.5882 349.95994 354.88124 361.53144 364.85295 375.3555 382.9954 386.36714 389.73887 396.938 400.2595 407.29707 412.21836 415.4506 425.95317 433.8869 439.00907 445.6205 448.85276 453.40733 459.1536 465.36619 472.85917 480.7929 488.54069 491.77296 495.43879 498.67103 506.4188 511.54096 514.8625 521.49838 529.24618 532.61788 540.25778 547.97689 552.89816 560.0973 567.4075 572.5296 575.7619 583.481 590.3966 594.8516 598.17318 603.0944 610.7343 617.7719 622.6932 626.0147 632.66488 640.41268 648.1318 651.3641 661.86666 669.1768 674.29898 681.4981 684.81967 691.85726 699.57638 702.94808 710.25827">When have you encountered an opportunity while at work (school, or volunteering) that you were able </tspan></text>
<path transform="matrix(.75,0,0,.75,0,0)" d="M 86.88 215.04 L 88.8 215.04 L 88.8 234.4 L 86.88 234.4 Z M 727.2 215.04 L 729.12 215.04 L 729.12 234.4 L 727.2 234.4 Z " fill-rule="evenodd"/>
<text xml:space="preserve" transform="matrix(.75 0 0 .75 0 0)" font-size="14.6921" font-family="F2"><tspan y="248.32" x="96 100.92129 108.85502 112.08728 117.83356 125.581348 128.8136 135.44945 142.75963 149.56764 152.88915 160.47911 165.47443 173.11432 179.8727 183.24442 190.88431 198.19449 201.51599 208.55358 211.87508 217.62136 225.26125 232.57143 238.88904 242.26076 246.6684 250.04012 256.2527 259.338 266.6482 273.11274 280.018 291.7545 299.39439 302.7661 310.0763 313.30854 321.24229 325.6499 328.9714 336.00898 339.33049 347.04957 352.0449 359.79267 367.51176 370.88349 378.0826 389.98323 393.21546 400.25303 405.836 409.1575 419.5889 427.08189 430.31416 433.68589 437.0074 444.04496 449.92179 453.2433 458.16459 465.65757 472.96775 476.28926 482.03553 489.7833 493.15504 500.79493 505.71623 509.08796 517.02169 524.66159 528.3704 531.6027 544.6735 551.9837 556.979 564.2892 567.6107 574.26089 581.90078 589.54067 592.8622 600.17239 607.8915 614.2091 621.9569 629.5968 634.71896 641.75656 648.6721 655.9823 663.4753 666.7968 671.7181 679.4659">to solve? Provide a specific example of a problem as well as the solution. Were you encouraged to </tspan></text>
<path transform="matrix(.75,0,0,.75,0,0)" d="M 86.88 234.4 L 88.8 234.4 L 88.8 253.76 L 86.88 253.76 Z M 727.2 234.4 L 729.12 234.4 L 729.12 253.76 L 727.2 253.76 Z " fill-rule="evenodd"/>
<text xml:space="preserve" transform="matrix(.75 0 0 .75 0 0)" font-size="14.6921" font-family="F2"><tspan y="267.68" x="96 103.63989 111.358989 116.48114 122.22742 129.86731 137.17749 140.499 147.53658 150.85808 156.60436 164.35214 167.72386 175.36376 180.28504 183.65676 191.59049 199.08345 205.98874 209.31024 218.34934 221.72106 229.21402 232.53553 239.1857 246.93349 254.65258 257.88484 264.6432 268.01493 275.3251 285.7565 288.98875 293.91004 301.62913 308.9393 312.2608 319.9799 324.97523 332.90898 340.54887 343.9206 351.11973 362.8562 366.1777 373.21528 378.79826 382.11976 389.31889 396.95878 400.191 407.93879 415.57868 423.29777 431.04554 436.1677 441.089 448.80809 456.52717 459.8989 464.8202 471.4704 478.27839 481.59989 490.56205 498.3098 508.81239 512.1339 518.3465 525.3841 533.024 536.3455 541.2668 548.9859 552.3576 558.1039 561.3362 568.64639 575.0096 582.6495 589.95968 595.0818 598.4535 605.7637 613.40359 619.7212 627.0314 630.3529 637.8459 645.15609 648.5278 656.2469 659.5684 666.21859 673.9664 681.60629">pursue a solution? Did you view the problem as an opportunity? How can this experience help you </tspan></text>
<path transform="matrix(.75,0,0,.75,0,0)" d="M 86.88 253.76 L 88.8 253.76 L 88.8 272.96 L 86.88 272.96 Z M 727.2 253.76 L 729.12 253.76 L 729.12 272.96 L 727.2 272.96 Z " fill-rule="evenodd"/>
<text xml:space="preserve" transform="matrix(.75 0 0 .75 0 0)" font-size="14.6921" font-family="F2"><tspan y="286.88" x="96 99.37173 107.01162 114.3218 122.04089 126.96218 130.33391 134.81758 141.57595 144.89745 149.30509 157.02417 161.94545 169.66454 174.78668 181.98581 185.30731 193.0551 200.77419 208.26715 216.20088 221.32303 226.17144 233.89052 241.53041 244.90213 249.82341 253.05567 260.36585 266.24269 272.8541">identify future opportunities? </tspan></text>
<path transform="matrix(.75,0,0,.75,0,0)" d="M 86.88 293.76 L 727.2 293.76 L 727.2 295.68 L 86.88 295.68 Z " fill-rule="evenodd"/>
<path transform="matrix(.75,0,0,.75,0,0)" d="M 727.2 293.76 L 729.12 293.76 L 729.12 295.68 L 727.2 295.68 Z M 86.88 272.96 L 88.8 272.96 L 88.8 293.76 L 86.88 293.76 Z " fill-rule="evenodd"/>
<path transform="matrix(.75,0,0,.75,0,0)" d="M 727.2 272.96 L 729.12 272.96 L 729.12 293.76 L 727.2 293.76 Z "/>
<text xml:space="preserve" transform="matrix(.75 0 0 .75 0 0)" font-size="14.6921" font-family="F2"><tspan y="320.32" x="96 99.70171 103.36756 110.12593 117.43611 120.66837 127.97855 135.61846 141.93607 149.68386 157.32375 165.04283 169.89124 177.20142 182.32357 189.63375 197.27364 200.5059 212.4065 219.44408 227.08397 233.73415 236.96642 244.7142 252.3541 259.994 267.74177 272.86393 277.78523 285.5043 293.2234 296.59513 301.51643 304.88816 312.19834 317.7813 321.1028 331.60539 339.32447 346.81745 351.66584 358.976 362.29753 366.11747 369.3497 379.7811 386.81867 392.6955 395.92774 402.9653 410.6844 413.91667 421.22685 424.54835 429.39674 437.1445 440.466 446.21229 453.96006 457.3318 463.96763 471.2778 474.5993 481.63688 484.95838 492.59828 497.5936 505.34138 513.0605 516.4322 523.63137 535.532 538.8535 543.7748 551.4147 558.32 563.2413 566.5628 569.7951 581.69577 589.33566 596.3732 602.69088 607.53927 613.2855 616.5178 628.41848 635.45608 642.94906 649.7074 653.02896 660.6688 667.868 675.8017 683.4416 686.8133 694.1235 697.83236 700.9177">I&#x2019;ve encountered many opportunities where I was able to solve a problem that impacts many people.  </tspan></text>
<text xml:space="preserve" transform="matrix(.75 0 0 .75 0 0)" font-size="14.6921" font-family="F2"><tspan y="356" x="96 109.07081 116.7107 124.20367 129.05207 136.77115 144.08133 149.20348 152.43575 160.18354 165.30568 168.62718 176.26708 184.01486 188.86327 192.18477 195.88649 199.208 209.71054 216.74813 222.33113 225.65264 233.1456 240.78549 246.80927 254.55706 262.19697 267.31913 274.3567 281.2723 288.5825 296.22239 299.54389 304.46519 312.21296 315.53446 323.25355 330.89344 336.0156 341.76188 349.40177 356.71195 360.03346 365.1757 372.81559 380.0147 383.3362 389.0825 396.83027 400.35639 407.84938 412.69776 415.93003 423.86378 431.50367 434.82518 441.58354 448.6211 453.74327 456.8286 464.3216 470.06788 473.1532 481.08695 488.72685 492.04835 496.96965 504.60954 511.9197 515.2412 522.5514 530.0444 536.80276 540.17446 545.2966 553.0444 560.68429 572.291 579.6012 587.3203 592.2416 595.5631 603.4968 607.7575 611.07907 616.0003 623.7194 630.9186 634.2401 641.9592 647.08139 654.82919 662.5483 665.92 673.11917 685.0198 688.72866 691.96096 695.2825 701.8939 709.82766 714.82296">Whether or not I was encouraged to pursue the solution varies on the environment of the problem.  For </tspan></text>
<text xml:space="preserve" transform="matrix(.75 0 0 .75 0 0)" font-size="14.6921" font-family="F2"><tspan y="391.84" x="96 103.31018 109.774707 116.679988 128.41645 136.05634 139.42806 146.73824 150.55818 153.64353 165.54412 172.19429 175.42656 179.91024 186.94782 193.58367 201.33145 206.4536 209.82532 214.5268 221.83698 225.06925 233.00298 240.64287 248.28276 256.03056 261.1527 266.0011 273.72019 281.36009 284.7318 289.6531 296.41148 299.73298 304.1406 311.88838 319.60746 327.24736 334.96644 338.28794 345.3255 350.2468 353.47904 363.9816 371.91535 376.76374 383.44264 386.76414 397.48939 404.24775 410.12458 413.2099 421.14366 428.78355 436.09373 439.32597 449.82853 457.5476 464.8578 469.97996 477.17909 480.50059 484.2023 487.5238 498.02638 505.2255 510.80848 514.13 521.1676 528.8075 532.1792 539.4894 542.7217 547.64297 555.57669 558.66207 564.5389 572.2867 575.519 582.27737 589.5875 592.8198 597.6682 605.3873 612.6975 616.01907 620.9403 624.1726 636.07327 643.2724 646.59396 653.63156 661.35067 668.99057 672.3121 679.62228 687.3414 694.65158 699.7737 706.53207 713.2904">example, my favorite opportunity found at work was one where I was able to solve the time and energy </tspan></text>
<text xml:space="preserve" transform="matrix(.75 0 0 .75 0 0)" font-size="14.6921" font-family="F2"><tspan y="427.68" x="96 99.37173 105.118007 110.86428 118.50417 125.814357 129.13585 137.06958 141.33029 144.6518 155.08319 163.01692 168.13907 174.75052 179.23419 182.46645 190.40018 200.68465 204.00615 208.48983 216.42356 221.41887 224.65114 229.57242 237.2915 244.60169 247.83396 258.26536 266.01313 271.13529 277.81419 281.34028 288.24555 293.24089 300.55107 307.58863 310.91014 315.83143 323.5505 330.45579 335.37709 338.69859 342.51853 345.75077 356.18217 363.21974 369.09657 372.3288 377.2501 384.15538 390.0322 396.64366 403.95384 411.6729 414.90516 425.4077 428.77946 433.70075 441.41984 445.12876 448.45027 451.77177 458.9313 466.5712 473.88139 477.20289 484.1185 487.49024 493.2365 498.0849 501.31715 509.2509 513.6585 516.8908 521.8121 529.45199 536.76217 540.0837 547.8028 552.7981 560.5459 568.265 571.6367 578.9469 590.84756 594.07986 604.5824 611.62 617.3663 620.5986 625.44699 633.1661 640.2037 645.12496 648.4465 652.2664 655.3518 665.8544 672.89199 678.7688">issue of workflow for the work area that I was tasked with.  The gist of the problem was that I was </tspan></text>
<text xml:space="preserve" transform="matrix(.75 0 0 .75 0 0)" font-size="14.6921" font-family="F2"><tspan y="463.52" x="96 102.91562 110.2258 115.14709 120.06837 123.440097 131.07999 137.9956 141.31711 149.0362 156.78398 163.6996 170.61522 177.9254 185.56529 188.8868 196.52669 204.27448 214.77703 222.49611 225.72838 236.23093 239.60265 244.52393 252.24301 255.47528 263.11518 270.42536 280.92793 284.24943 291.9685 297.09068 305.0244 312.6643 320.3042 326.51679 331.36518 334.68669 338.0584 345.6983 350.6196 355.61494 363.54869 371.18858 378.82847 385.14607 389.99446 393.2267 401.16047 408.80036 414.54664 417.77888 428.21028 435.92936 439.3011 445.51368 453.15357 456.47508 466.97764 474.17677 479.75975 483.08125 486.45298 498.35359 505.99348 513.03109 519.0548 523.9761 527.3478 535.0669 541.9825 545.2148 552.9626 557.88388 565.52377 572.8339 577.95608 581.18838 588.22598 593.3481 600.65829 607.69589 613.44216 616.67446 624.42227 628.9059 632.2274 637.3696 645.0095 652.2087 655.5302 663.1701 670.8892 676.6355 680.0072 687.6471 694.9573 700.8341 706.5804">getting bogged down with new product introductions which was impacting other areas of the business </tspan></text>
<text xml:space="preserve" transform="matrix(.75 0 0 .75 0 0)" font-size="14.6921" font-family="F2"><tspan y="499.36" x="96 101.122158 108.15973 113.08102 120.72091 128.0311 133.15325 136.47475 144.19384 147.56555 153.31183 158.23311 161.60483 169.32392 175.34769 180.26897 183.64069 190.39905 194.10794 197.42945 200.75095 209.252 212.48426 217.40554 225.04543 232.97916 240.61905 247.53467 255.17456 258.4068 266.0467 273.79447 281.51356 289.26133 296.9804 303.6306 306.86286 312.7397 319.77726 330.06175 333.38325 338.30455 346.02363 353.5166 356.74885 364.46794 369.46327 377.21104 384.9301 388.30186 395.50099 407.23747 410.55897 417.46424 423.34107 426.66258 433.70014 437.02165 444.66154 449.7837 457.71745 465.35734 468.72908 475.9282 487.53498 490.85649 498.57557 506.21546 511.13676 514.45828 519.74746 526.78506 531.6334 539.35256 546.6627 551.658 554.97958 562.01718 565.3387 571.5513 579.19119 586.83108 591.9532 597.69949 605.00967 608.3312 616.2649 620.5256 623.8471 631.5662 639.314 644.3093 656.20999 659.5315 663.2332 666.4655 672.2118 679.1171 689.6197 693.1458 696.23117 701.1524 704.47396 711.6731 717.4194">rather distinctly.  Although nobody saw the problem as a problem but rather a course of norm I saw it as </tspan></text>
<text xml:space="preserve" transform="matrix(.75 0 0 .75 0 0)" font-size="14.6921" font-family="F2"><tspan y="535.04" x="96 103.037578 110.67747 113.99897 121.9327 129.5726 137.2125 145.14623 149.99462 154.9159 162.63498 170.35407 173.72579 178.64707 185.40543 188.6377 193.4861 201.41983 204.50518 209.42646 214.5486 221.19878 224.52028 232.26807 239.98715 244.83556 248.15706 255.79695 263.10716 273.6097 277.1358 282.0571 287.17927 290.41154 296.6241 303.23558 309.1124 312.19773 317.11903 324.8381 331.87568 336.79698 340.0292 351.9298 355.30155 362.21717 369.85707 374.70545 378.02696 383.90379 391.39677 398.70695 406.01713 413.7362 416.96846 424.60835 432.24824 435.56974 447.47035 454.2287 457.46095 467.89234 475.6401 480.76228 487.44117 491.92485 495.1571 502.90489 513.4074 519.28427 522.9931 526.0785 529.4 536.7461 543.21066 550.5208 558.2399 563.1612 570.8803 577.78567 581.15737 584.52908 591.1792 594.50076 599.422 607.1411 610.5128 616.2591 619.5806 627.2205 632.2158 640.14956 647.7894 651.16116 658.3603 670.09677 673.4183 676.79 681.71127 687.4575 694.7677 698.1394 702.547">an opportunity to try out new tricks that might speed up my workflows.  Eventually this problem itself </tspan></text>
<text xml:space="preserve" transform="matrix(.75 0 0 .75 0 0)" font-size="14.6921" font-family="F2"><tspan y="570.88" x="96 103.63989 110.95007 117.26768 124.30525 135.912 143.40497 146.49031 158.3909 165.04108 168.27335 176.02114 183.74022 191.23319 199.16692 204.28907 209.13747 216.85655 224.49645 227.86817 232.78945 239.43962 242.76113 247.6824 255.3223 258.55455 261.92628 269.23646 276.27403 281.39619 289.03608 292.35758 300.07667 307.38685 313.70445 320.742 328.3819 334.12818 341.3273 344.55955 356.46015 363.4977 371.1376 377.89598 380.9813 388.91505 393.32267 396.64418 401.56547 409.20536 416.51554 419.74778 425.49406 437.23054 444.2681 447.63984 451.01158 458.32176 463.31709 466.63859 474.35768 479.47984 487.2276 494.9467 498.31843 505.51756 517.25399 523.00027 526.23257 531.1538 538.8729 545.9105 550.8318 554.1533 557.85507 561.08737 571.5899 578.49526 584.2415 587.56307 593.4399 601.1877 604.42 611.17837 614.41067 622.12979 629.04537 632.3669 642.7983 650.10848 655.2306 662.5408 665.8623 672.0749 679.27407 686.99319 691.9144 699.2246 704.2199 711.5301 719.2492">became my opportunity to learn because many of the smaller problems that I was solving were centered </tspan></text>
<text xml:space="preserve" transform="matrix(.75 0 0 .75 0 0)" font-size="14.6921" font-family="F2"><tspan y="606.72" x="96 103.037578 108.15973 115.90752 123.62661 131.26651 138.9856 142.3071 146.79077 150.16249 157.80239 165.44228 168.814 176.53308 183.4487 186.7702 197.27275 204.31034 211.0687 216.6517 219.9732 224.82161 232.5694 235.8909 242.92848 250.64757 255.49597 263.24375 274.98023 282.0178 286.86619 294.35917 297.4445 309.18098 315.93934 319.17158 329.60298 337.5367 342.3851 349.064 353.54768 356.9194 364.66719 375.16975 378.49125 386.13114 392.00798 395.3797 403.0196 409.9352 413.16746 418.01585 425.65574 432.9659 436.2874 441.42967 449.06956 456.81733 460.18907 465.93534 469.16758 474.08888 481.72877 488.76634 493.68763 496.91987 507.42243 514.9154 519.9107 527.2209 530.5424 537.44778 544.2061 551.11148 554.48318 557.85488 564.89248 572.53237 575.90408 583.21426 587.0342 590.11959 602.0202 609.768 615.5143 620.3627 623.6842 626.9165 638.81716 646.45706 654.20486 659.32699 664.17538 671.21298 678.85287 683.7741 687.0064 694.9401 699.3477">around finding ways to automate my workflow using the tools that were available, most important of </tspan></text>
<text xml:space="preserve" transform="matrix(.75 0 0 .75 0 0)" font-size="14.6921" font-family="F2"><tspan y="642.56" x="96 106.502559 114.22165 117.593379 123.805957 131.44585 134.76735 145.2699 152.46903 158.05204 161.37354 166.29482 173.93471 181.24489 184.56639 189.05007 194.04538 201.53835 208.84853 216.34149 224.08928 235.82573 239.14723 243.99564 251.74343 254.9757 262.6156 270.54936 273.87086 280.90843 286.6547 289.9762 293.67793 296.91017 302.65644 309.694 320.19657 323.51808 328.00175 331.234 336.1553 339.4768 349.97938 353.21165 358.13294 365.85203 369.17353 375.3861 383.13389 395.0345 402.67439 409.71195 417.20494 423.9633 427.2848 434.92469 441.96226 447.0844 454.7243 465.22688 472.26445 477.25978 484.56996 487.89146 495.09059 502.73048 510.37037 513.6919 517.2071 524.9262 532.5661 539.245 542.5665 550.28567 557.32327 562.4454 570.08529 580.51669 587.55429 592.6764 599.9866 603.69546 607.01699 610.3385 619.8223 627.4622 637.9648 641.2863 649.00546 652.37716 660.09628 663.4178 667.1195 670.44107 676.02407 683.3342 690.8272 693.9126 698.83389 706.553 709.9247 715.67098">which was the freedom to do as I saw fit with company hardware and junk hardware.  Now did I see this </tspan></text>
<text xml:space="preserve" transform="matrix(.75 0 0 .75 0 0)" font-size="14.6921" font-family="F2"><tspan y="678.4" x="96 103.63989 108.76205 116.69578 124.33567 127.7074 135.01758 146.62433 149.94583 157.14496 162.89124 166.1235 173.16109 180.88018 184.11244 191.86023 199.57932 207.21921 215.15294 220.00133 224.9226 232.6417 240.28159 243.6533 248.57459 255.33295 258.5652 265.60276 270.52406 273.84556 278.76686 286.48594 293.7961 297.02836 301.94966 305.32139 317.05787 324.36805 328.03388 331.35539 338.99528 346.74305 351.66435 354.98585 362.70494 369.7425 374.73783 379.65913 383.03086 389.24345 396.88334 400.25508 407.29264 412.4148 415.64707 422.29728 425.9631 429.2846 435.16145 438.3937 446.1128 452.4304 459.62953 462.86177 466.56349 469.88499 480.38755 487.4251 493.1714 496.2567 508.15733 515.9051 520.9004 528.2106 531.5321 535.9397 543.6875 550.0051 557.645 563.52188 570.83206 578.325 581.64657 589.58029 597.22018 600.45248 612.1889 619.2265 625.69107 628.77639 640.677 644.0487 649.7786 653.1503 660.7902 667.7058 671.02737 682.7638 689.41397">problem as an opportunity at the time, not particularly, since I was more focused on maximizing my </tspan></text>
<text xml:space="preserve" transform="matrix(.75 0 0 .75 0 0)" font-size="14.6921" font-family="F2"><tspan y="714.08" x="96 103.74779 111.46688 116.38816 124.107257 131.74715 136.66843 139.98993 150.71517 158.35506 161.72678 164.81212 172.30509 175.39043 187.29102 190.66274 198.30263 201.67435 213.57494 216.80719 222.61086 225.98258 233.62247 240.53809 243.77036 255.3771 262.13548 265.45698 268.8287 276.4686 284.18769 291.82759 296.74888 300.4578 303.7793 307.1008 316.3568 323.9967 334.49928 337.7315 342.6528 350.2927 353.66444 359.54127 362.7735 370.08369 376.54823 384.0412 391.35139 396.47355 399.84529 407.33827 414.83125 421.04383 428.354 431.6755 439.3946 446.70478 450.0765 457.7164 465.02659 472.74568 475.9779 487.5847 495.07768 498.3099 503.1583 510.90608 514.2276 517.7537 525.3936 532.7038 540.3437 545.26498 548.7911 553.05178 559.8101 563.13168 567.53927 575.17916 580.0275 587.74667 592.8688 600.17898 603.5005 611.4342 619.0741 626.5671 634.5008 639.4961 644.41738 652.1365 659.8556 663.2273 668.14859 671.52029 678.7194 684.4657 687.78726 698.2898 705.1951 710.9414">output while minimizing my input.  How this experience helped me to identify future opportunities was </tspan></text>
<text xml:space="preserve" transform="matrix(.75 0 0 .75 0 0)" font-size="14.6921" font-family="F2"><tspan y="749.92" x="96 100.92129 108.56118 115.598758 120.52004 123.841548 127.36765 132.21605 135.53755 143.17745 150.48763 153.85935 161.49924 168.80942 176.5285 179.85 184.69841 192.4462 195.7677 203.48679 208.60894 215.91912 223.6382 230.67578 235.6711 242.98128 246.21355 257.8203 265.1305 268.6566 279.08799 282.45973 287.381 295.1001 298.33235 305.3699 313.0098 316.3313 324.05039 331.69029 339.33018 346.82316 351.81849 357.6953 362.5437 369.58128 377.30036 384.94026 388.31199 395.95188 402.8675 406.189 414.12275 418.38346 421.70497 428.46333 435.5009 440.62306 443.85533 451.6031 459.24299 465.1198 468.35206 476.07115 481.1933 488.94108 495.8567 500.97886 507.88414 519.49087 531.3915 534.7632 542.4031 549.31869 552.6402 556.0119 563.0495 570.6894 577.44778 585.08767 592.12527 599.04086 606.351 612.0973 615.4188 620.3401 628.0592 635.0968 640.01809 643.25039 653.7529 661.68667 669.32656 672.69827 680.33816 683.65969 691.3788 696.3741 704.014 710.77236 718.0825">that it helped to prepare me with an understanding of various programming languages that would prove </tspan></text>
<text xml:space="preserve" transform="matrix(.75 0 0 .75 0 0)" font-size="14.6921" font-family="F2"><tspan y="785.76" x="96 103.63989 110.95007 118.66917 125.97935 130.46302 133.83473 140.15235 143.52407 150.42935 153.80107 157.12258 160.4943 168.21338 171.53488 176.45616 184.09606 191.40624 194.72774 199.21141 206.8513 211.77259 219.49167 224.61382 231.81295 235.13445 245.637 253.27689 260.58708 268.22697 271.54847 275.3684 279.03425 290.64103 293.96253 304.39393 312.1417 317.26387 323.94276 327.46888 335.10877 342.02439 345.1097 353.04347 360.68336 364.00486 371.64476 376.56605 384.28514 391.5953 396.71748 400.03898 407.75807 412.7534 420.50117 424.1742 431.48439 437.50816 442.42945 448.30628 451.5385 458.57609 463.42448 466.74598 474.49375 479.34214 487.06123 494.3714 499.49357 502.7258 510.47358 515.5957 522.5113 529.5489 537.1888 540.5605 546.2904 553.328 558.24929 561.621 569.3688 577.00869 582.75497 586.4638">beneficial in the future when I&#x2019;m working on other projects at other organizations. </tspan></text>
<text fill="#2f5496" xml:space="preserve" transform="matrix(.75 0 0 .75 0 0)" font-size="21.2397" font-family="F1"><tspan y="847.2" x="96 110.145969 121.18066 131.67606 139.88983 146.86949 151.55716 162.81421 173.84889 178.52162 189.28667 195.0214 199.82314 208.7214 219.21681 227.4306 235.64438 246.90143 257.93614 262.73789 273.50294">Question 3: Lesson 3 </tspan></text>
<path transform="matrix(.75,0,0,.75,0,0)" d="M 86.88 823.68 L 727.2 823.68 L 727.2 825.6 L 86.88 825.6 Z " fill-rule="evenodd"/>
<path transform="matrix(.75,0,0,.75,0,0)" d="M 727.2 823.68 L 729.12 823.68 L 729.12 825.6 L 727.2 825.6 Z M 86.88 825.6 L 88.8 825.6 L 88.8 855.04 L 86.88 855.04 Z " fill-rule="evenodd"/>
<path transform="matrix(.75,0,0,.75,0,0)" d="M 727.2 825.6 L 729.12 825.6 L 729.12 855.04 L 727.2 855.04 Z "/>
<text xml:space="preserve" transform="matrix(.75 0 0 .75 0 0)" font-size="14.6921" font-family="F2"><tspan y="868.96" x="96 103.44649 107.15538 110.47688 117.2275 124.86739 131.90497 137.02712 144.3373 147.6588 154.85793 162.49782 165.73009 173.04027 179.4035 186.30879 198.04524 205.76433 209.13605 216.44623 219.6785 227.42629 231.90996 235.23146 242.87136 250.51125 261.0138 264.3353 268.81898 276.31196 283.21723 288.21257 291.53407 299.4678 304.46315 307.69538 314.73295 318.05445 321.42619 328.46376 334.78135 341.3928 344.62504 352.55879 356.8195 360.141 366.35359 374.10136 381.74125 386.2249 389.59666 397.23655 404.54673 412.2658 418.5834 425.8936 429.12583 440.8623 447.89988 454.55009 457.78233 465.5014 472.53898 479.29734 486.49647 489.7287 497.44779 502.56996 509.76908 516.5274 523.8376 531.4775 536.39877 543.8917 551.3847 554.70626 561.3564 568.9963 576.63619 579.9577 584.44137 589.5635 597.20339 609.104 612.42556 617.3468 624.25216 630.931 634.30276 641.9426 648.8582 652.17977 659.21737 665.535 670.38339 673.61569 681.5494 689.1893 692.5108 695.8825 703.5224">1. Share an example of how fear or a lack of confidence may have prevented you from taking action in </tspan></text>
<path transform="matrix(.75,0,0,.75,0,0)" d="M 86.88 855.04 L 88.8 855.04 L 88.8 874.4 L 86.88 874.4 Z M 727.2 855.04 L 729.12 855.04 L 729.12 874.4 L 727.2 874.4 Z " fill-rule="evenodd"/>
<text xml:space="preserve" transform="matrix(.75 0 0 .75 0 0)" font-size="14.6921" font-family="F2"><tspan y="888.32" x="96 100.92129 108.56118 116.054149 119.28641 127.0055 134.04308 139.78936 144.71063 148.41953 151.6518 160.69089 164.0626 171.7025 175.024 181.67418 189.42197 197.14105 200.37332 212.10977 219.14736 225.7588 233.06899 236.39049 243.58962 250.05414 256.0779 263.797 269.54328 276.85346 282.59974 286.26557 289.4978 297.24559 302.36775 305.68925 313.40834 316.78007 324.49916 327.82066 334.47087 342.21864 349.85853 353.18003 360.2176 366.43019 373.04164 380.68153 388.4293 398.93186 402.3036 409.61378 417.10676 424.02238 431.33256 434.65406 441.30427 449.05204 456.77113 461.89329 465.21479 469.69847 477.00865 484.0462 489.04154 495.9468 499.17906 508.21815 511.58988 519.22976 522.5513 529.2014 536.9492 544.5891 547.8214 555.7551 562.21969 569.52987 574.52517 580.8428 588.48269 600.3833 607.6935 610.9258 617.5759 625.3237 633.04287 638.03817 641.3597 644.7314 651.769 657.98159 664.593 667.91458 675.66238 680.146">the past. Did you make excuses, or did you acknowledge your fear? Did you overcome your lack of </tspan></text>
<path transform="matrix(.75,0,0,.75,0,0)" d="M 86.88 874.4 L 88.8 874.4 L 88.8 893.76 L 86.88 893.76 Z M 727.2 874.4 L 729.12 874.4 L 729.12 893.76 L 727.2 893.76 Z " fill-rule="evenodd"/>
<text xml:space="preserve" transform="matrix(.75 0 0 .75 0 0)" font-size="14.6921" font-family="F2"><tspan y="907.68" x="96 102.21258 109.960369 117.67946 122.16314 125.53487 133.17476 140.48494 148.20403 154.52164 161.72077 168.62606 171.85832 175.56005 180.04372 183.27599 189.02227 196.77005 200.29616 203.61766 211.33675 219.08454 229.58708 236.49237 239.72464 252.65369 260.29359 267.05195 270.37345 273.74519 279.49147 282.81297 286.1847 291.03309 294.35459 297.72633 309.4628 316.95579 324.88954 330.0117 334.93299 341.97056 349.61045 354.45884 357.78034 362.62873 370.3765 373.698 380.73558 387.05317 393.73207 401.22505 408.9728 419.47538 422.8471 430.1573 437.79719 444.7128 452.02299 455.25523 462.01359 469.76136 477.48045 482.6026 485.9241 490.1848 497.6778 504.58308 509.70524 512.9375 517.85879 525.5779 532.6155 540.2554 543.5769 548.69906 555.73666 560.6579 568.2978 575.608 580.7301 584.05166 595.7881 602.6934 609.3723 616.6825 620.004 627.3142 633.77877 639.99136 647.6312 653.21426 660.5244 666.40127 673.0127">confidence? If so, how? Why is it important to acknowledge your fear than rather make excuses? </tspan></text>
<path transform="matrix(.75,0,0,.75,0,0)" d="M 86.88 893.76 L 88.8 893.76 L 88.8 923.68 L 86.88 923.68 Z M 727.2 893.76 L 729.12 893.76 L 729.12 923.68 L 727.2 923.68 Z " fill-rule="evenodd"/>
</g>
</svg>
