<?xml version="1.0" encoding="UTF-8" standalone="no"?>
<!DOCTYPE svg PUBLIC "-//W3C//DTD SVG 1.1//EN" "http://www.w3.org/Graphics/SVG/1.1/DTD/svg11.dtd">
<svg xmlns="http://www.w3.org/2000/svg" xmlns:xlink="http://www.w3.org/1999/xlink" version="1.1" width="612pt" height="792pt" viewBox="0 0 612 792">
<g enable-background="new">
<text xml:space="preserve" transform="matrix(.75 0 0 .75 0 0)" font-size="15.9697" font-family="F1"><tspan y="110.88" x="96 107.53281 113.747577 119.96234 124.39924 132.3841 140.36894 152.7907 159.8788 167.86365 172.30055 176.73744 180.72988 191.58927 198.67739 203.78769 208.2246 215.41095 222.49907 226.81089 230.80332 238.78816 246.77301 250.76544 255.20235 263.3469 270.43504 274.26777 279.5858 287.57066 292.00755 296.44444 304.4293 315.9621 320.399 328.38386 336.3687 340.36116 348.346 356.33088 363.419 369.6338 374.07069 378.50758 386.65214 394.637 400.85179 405.28868">Assignment: Reflect on the following questions: </tspan></text>
<text xml:space="preserve" transform="matrix(.75 0 0 .75 0 0)" font-size="15.9697" font-family="F1"><tspan y="148" x="120 127.98485">1.</tspan></text>
<text xml:space="preserve" transform="matrix(.75 0 0 .75 0 0)" font-size="15.9697" font-family="F2"><tspan y="148" x="132"> </tspan></text>
<text xml:space="preserve" transform="matrix(.75 0 0 .75 0 0)" font-size="15.9697" font-family="F1"><tspan y="148" x="144 155.5328 163.51766 175.05046 179.0429 187.02774 195.01259 199.00502 203.44191 211.42676 218.51488 222.34761 230.49216 237.58028 245.40543 253.39028 257.82716 265.01353 269.16566 276.25379 281.36408 289.34895 297.3338 305.47837 313.46324 317.45567 325.44053 333.42539 341.41026 345.40269 349.83958 357.98414 363.30216 367.61399 375.75856 382.84669 390.67185 397.75999 404.8481 408.84056 416.8254 424.81028 432.79515 438.11317 441.9459 450.09046 457.1786 465.32316 472.4113 480.39616 484.83305 492.8179 498.13594 505.3223">How do the people around you influence your behavior? </tspan></text>
<text xml:space="preserve" transform="matrix(.75 0 0 .75 0 0)" font-size="15.9697" font-family="F1"><tspan y="184.96" x="144 155.5328 163.51766 170.60576 175.71607 179.8682 184.3051 192.28995 199.37807 203.2108 207.64769 214.83405 221.04883 225.48574 229.47817 237.46302 245.44786 249.44029 257.42515 264.6115 271.69966 277.01768 283.08616 287.23829 291.3904 296.70845 302.02647 310.01133 317.09947 321.0919 329.07676 337.0616 341.4985 345.9354 353.02354 360.11167 367.93684 371.92927 376.36616 384.5107 391.59886 395.91069 400.0628 405.1731 409.16554 413.60243 420.7888 428.77366 436.7585 440.75096 445.18785 453.1727 457.16514 464.3515 472.33638 480.32124 488.3061 492.74299 496.7354 504.72029 509.15718 514.5869 519.90499 526.772 532.09 539.17819 547.163 551.5999 555.59237 560.02926 568.0141 572.451 580.43588 588.4207 594.6355 598.6279 603.946 609.26406 617.40859 629.8303 633.82278 641.8076 646.2445 651.56259 656.8806 663.96878 669.0791 676.16726 684.1521 688.589">Over the last 14 years, I&#x2019;ve noticed that I tend to adopt different things from different </tspan></text>
<text xml:space="preserve" transform="matrix(.75 0 0 .75 0 0)" font-size="15.9697" font-family="F1"><tspan y="203.36" x="144 151.98485 159.07295 167.0578 175.04265 179.47954 186.56764 190.40038 194.5525 202.53736 210.5222 214.95909 222.94394 226.93637 234.92122 242.90607 249.12085 253.55776 257.99464 262.43153 270.57609 277.6642 281.97605 289.9609 293.95335 301.04148 309.02635 317.0112 321.00364 328.9885 336.07664 344.0615 351.14964 355.46147 359.89836 367.8832 374.97135 379.40824 387.3931 391.38554 395.37797 399.3704 408.25199 416.39656 428.81828 435.9064 439.89884 444.33573 452.3206 456.75749 464.74235 472.7272 478.942 482.93443 490.02256 495.34059 502.20756 506.19999 513.38638 521.3712 529.3561 537.34097 541.9721 549.06027 556.88546 560.87789 568.86276 576.8476 583.9357 587.92819 592.36508 600.3499 604.34237 611.4305 615.5826 623.56747 628.00436 635.9892 643.97409 647.9665 652.4034 659.4915 667.4764 674.5645 678.8763 683.0284 691.01327 696.3313">people, both positively and negatively.  Some things are adopted due to a high level of </tspan></text>
<text xml:space="preserve" transform="matrix(.75 0 0 .75 0 0)" font-size="15.9697" font-family="F1"><tspan y="221.76" x="144 151.98485 157.30289 165.28774 173.27259 181.25743 185.24987 192.33797 200.16312 208.30767 215.39577 221.46427 225.90117 234.04572 242.03057 246.023 250.45989 254.89678 262.88163 269.96977 273.9622 281.94706 286.38395 291.70198 297.13166 304.31803 309.63606 316.50303 324.48789 328.92478 333.0769 345.49864 352.58677 360.57164 368.5565 375.64463 380.7549 385.1918 391.4066 404.02265 410.23744 414.22987 419.54789 424.65818 432.80274 445.22447 449.2169 454.64659 459.9646 464.59584 471.68397 479.50914 487.494 491.48643 499.47129 504.7893 512.7742 520.75906 528.7439 534.9587 538.9511 542.94357 546.936 558.4688 562.9057 570.89059 577.9787 583.29678 587.1295 591.7607 599.74557 604.18246 612.1673 620.15219 626.54006 630.5325 637.6206 642.73098 649.91738 653.9098 660.9979 668.8231 676.808 684.79287 689.424 696.51217 704.497">group cohesion like different mannerisms from friend groups.  Other things are adopted </tspan></text>
<text xml:space="preserve" transform="matrix(.75 0 0 .75 0 0)" font-size="15.9697" font-family="F1"><tspan y="240.16" x="144 151.98485 159.9697 167.05782 171.05025 175.48714 183.47199 187.46442 194.55254 202.53739 214.95914 219.39604 224.71408 231.8022 236.11402 240.55092 248.69547 256.68034 260.67277 267.7609 275.58607 283.57093 287.56336 294.6515 301.03938 309.02424 313.46113 318.77915 325.86729 330.30418 334.74107 342.72593 350.7108 354.70323 359.1401 367.12498 371.1174 379.10227 386.1904 390.18284 397.27098 405.09614 413.2407 420.32884 424.64067 428.6331 432.62553 437.0624 441.4993 449.64387 456.732 460.72444 467.81257 475.79743 483.7823 491.76716 496.20405 500.64094 508.7855 516.7703 520.76278 528.7476 536.7325 543.8206 551.6458 559.6307 566.7188 572.9336 579.1484 583.1408 590.22897 598.2138 606.19869 610.1911 617.3775 625.36239 629.79928 634.23617 641.3243 649.30917 657.294 662.61209 669.7002 674.01199 678.44888 686.4337 693.52188">due to admiration and aspiration to be equal, like adopting openness and collaborative </tspan></text>
<text xml:space="preserve" transform="matrix(.75 0 0 .75 0 0)" font-size="15.9697" font-family="F1"><tspan y="258.56" x="144 150.21479 158.19963 162.63652 167.95456 172.39147 176.82836 180.82079 186.13883 191.45687 199.44171 211.86347 215.8559 223.84075 230.92885 238.9137 246.89855 251.33544 258.42356 262.416 266.85289 274.83775 281.92588 286.2377 290.38984 295.50013 301.0895 309.07438 316.1625 319.99525 332.41697 339.60334 344.04023 348.03266 352.46955 360.4544 364.44685 368.88374 376.8686 383.95674 387.94917 398.60084 405.68898 411.007 415.31883 421.7067 428.79484 436.62 440.61244 451.2641 458.61018 466.59504 471.03193 478.12007 483.43809 487.2708 491.26325 499.2481 504.56614 508.55857 520.0914 528.07626 533.3943 541.2195 545.5313 552.61947 560.44467 568.4295 572.42196 577.74 584.8281 591.0429 595.4798 599.4722 607.61679 614.80319 622.788 627.2249 631.6618 638.0497 642.0421 647.36019 652.4705 660.4554 672.87716 677.02926 681.4661 689.451 697.43588 703.65066 710.7388">spirit from people that I&#x2019;ve met in the Carlsen Center, or work and rest habits from those </tspan></text>
<text xml:space="preserve" transform="matrix(.75 0 0 .75 0 0)" font-size="15.9697" font-family="F1"><tspan y="276.96" x="144 155.5328 163.51766 171.5025 183.92426 187.91669 193.23473 198.55277 206.37792 213.56427 217.5567 222.9864 230.07451 236.94147 244.92632 248.91875 256.1051 264.24967 272.23454 276.22697 280.66386 287.75199 294.61897 300.04866 308.1932 315.28135 323.1065 327.09895 334.18708 342.17195 350.1568 358.14167 362.57856 366.73069">whom I&#x2019;ve read and learned about. </tspan></text>
<text xml:space="preserve" transform="matrix(.75 0 0 .75 0 0)" font-size="15.9697" font-family="F1"><tspan y="314.08" x="120 127.98485">2.</tspan></text>
<text xml:space="preserve" transform="matrix(.75 0 0 .75 0 0)" font-size="15.9697" font-family="F2"><tspan y="314.08" x="132"> </tspan></text>
<text xml:space="preserve" transform="matrix(.75 0 0 .75 0 0)" font-size="15.9697" font-family="F1"><tspan y="314.08" x="144 159.01152 166.99637 174.98122 178.97365 183.41054 189.62532 193.77745 198.21434 202.65123 206.64366 211.08055 223.5023 231.48715 239.472 244.79004 249.22695 256.31507 264.29994 268.73683 272.72926 277.16615 285.151 289.14344 297.1283 304.21644 312.2013 319.28944 323.72633 331.71119 339.69606 343.68849 350.7766 354.60935 360.99723 368.9821 376.07023 383.15837 390.2465 396.31498 402.70286 406.69529 414.68016 421.76829 426.0801 437.6129 445.59779 450.9158 459.06037 466.24674">Why is it important to develop a success network? </tspan></text>
<text xml:space="preserve" transform="matrix(.75 0 0 .75 0 0)" font-size="15.9697" font-family="F1"><tspan y="332.48" x="144"> </tspan></text>
<text xml:space="preserve" transform="matrix(.75 0 0 .75 0 0)" font-size="15.9697" font-family="F1"><tspan y="350.88" x="144 149.1103 153.5472 158.86524 165.08002 169.07245 173.50936 185.9311 194.07566 202.0605 207.37854 211.69037 218.77849 226.76334 231.20024 235.19268 239.62957 247.61441 251.60684 259.5917 266.67985 274.8244 281.91255 286.34944 294.3343 302.31916 306.47129 313.55943 317.55186 323.76664 331.7515 338.83964 345.7066 352.79475 359.00953 365.2243 369.21675 377.3613 384.44944 388.88633 400.41914 408.404 413.72203 421.70689 425.6993 433.68418 440.87055 447.95869 454.82566 462.81053 469.1984 476.38478 480.3772 484.8141 492.79896 500.7838 506.9986 514.08676 517.9195 526.064 533.15219 540.97738 548.9622 553.3991 560.5855 564.57797 569.01486 576.9997 584.0878 588.3996 592.5517 600.53659 608.5214 616.5063 620.4987 624.9356 630.36538 638.3502 644.565 649.0019 652.9943 665.4161 673.40097 679.6157 684.0526 688.2047 695.29287 700.4032 707.49136">It&#x2019;s important to develop a success network because those people that you trust most are </tspan></text>
<text xml:space="preserve" transform="matrix(.75 0 0 .75 0 0)" font-size="15.9697" font-family="F1"><tspan y="369.28" x="144 151.08812 155.52501 161.73979 169.72464 173.71707 186.13883 194.12368 200.33846 204.77535 208.76778 213.20467 217.83588 225.82073 232.90883 237.22064 245.20549 249.19792 253.63481 261.77937 265.7718 270.20869 278.19355 283.51158 287.94847 295.93333 302.8003 310.78517 317.8733 324.96144 328.79417 335.8823 344.02687 351.115 359.09986 367.08473 374.17286 378.00559 382.44248 390.42735 394.41978 402.40464 410.3895 418.37437 423.69239 429.90718 436.9953 441.4322 446.7502 450.74266 455.17955 463.3241 467.31654 474.40467 478.3971 486.38197 493.4701 498.58039 504.79518 512.78 520.7649 524.7573 528.74978 532.7422 544.4001 552.38497 560.3698 564.8067 569.2436 573.6805 581.66537 589.6502 596.73837 601.17526 605.6121 613.597 617.5894 621.7415 628.82968 635.04446 639.03689 650.5697 655.0066 659.4435 667.42837 671.4208 678.5089 686.4938 694.47866">also most likely to influence change in yourself in a person.  Additionally, as with any </tspan></text>
<text xml:space="preserve" transform="matrix(.75 0 0 .75 0 0)" font-size="15.9697" font-family="F1"><tspan y="387.68" x="144 151.98485 159.07295 163.50984 175.04265 183.0275 188.34554 196.17069 200.16312 204.15555 208.59246 216.737 223.82512 227.65785 232.97589 237.4128 244.5009 252.64545 259.73359 265.0516 268.88435 276.8692 284.85408 292.83894 298.15696 302.30909 308.52388 316.50874 323.59687 330.685 337.77314 343.8416 350.0564 354.04884 362.0337 369.12184 373.55873 385.09153 393.23609 398.5541 406.53898 410.5314 414.9683 421.18309 425.1755 429.6124 437.59727 441.5897 449.57456 457.55943 465.54429 477.0771 481.51399 488.6021 496.58699 504.57185 511.65998 515.49276 519.48519 525.69998 533.8445 538.2814 542.71829 547.15518 553.36996 557.36239 561.3548 568.44296 576.4278 584.41268 588.4051 596.38998 604.3748 611.46298 615.89987 620.33676 624.7736 629.2105 636.3969 642.6117 646.6041 650.59658 655.03347 663.0183 670.10647 673.9392 679.36898 683.80587 690.894 698.7192 705.9056 711.22366">network, the richer your success network is in knowledge, skills, and qualities, the richer </tspan></text>
<text xml:space="preserve" transform="matrix(.75 0 0 .75 0 0)" font-size="15.9697" font-family="F1"><tspan y="406.08" x="144 148.4369 156.42176 163.50988 167.5023 174.59041 182.57526 186.88709 191.51831 196.83635 203.70331 207.69574 215.68059 222.76869 227.20558 238.73839 246.88294 252.20098 260.18583 264.17826 272.16313 279.25126 286.11824 294.2628 306.87886 313.96699 320.03547 324.0279 328.46479 336.60935 344.5942 349.0311 357.01597 361.45286 369.4377 377.42259 384.5107 388.9476 393.3845 401.36936 405.3618 409.79869 417.78355 421.77598 429.76084 437.7457 445.73057 457.38844 461.82533 468.91346 476.73863 484.88319 491.9713 495.80406 499.79649 506.01127 513.9961 518.433 523.06417 527.50106 533.7158 537.70828 541.7007 548.7888 556.7737 564.75857 568.751 576.73587 584.7207 591.80886 596.1206 600.5575 604.9944 609.62557 616.7137 622.78219 626.7746 630.767 637.85519 644.06997 648.0624 652.49929 660.48416 667.57229 671.5647 676.88278 681.31967 689.3045 700.83737 704.8298 712.81466 718.1327">the entire network becomes individually in knowledge, skills, and qualities, as the flow of </tspan></text>
<text xml:space="preserve" transform="matrix(.75 0 0 .75 0 0)" font-size="15.9697" font-family="F1"><tspan y="424.48" x="144 151.98485 159.07295 167.0578 174.14592 181.97107 186.40798 194.55252 199.87056 205.93906 209.93149 213.92392 220.1387 228.28325 232.72014 237.15703 241.59392 247.8087 251.80113 255.79357 263.7784 271.76329 279.74815 291.28096 295.71784 302.80598 310.79084 318.7757 325.86384 329.85627 333.8487 340.93684 348.762 356.74687 360.7393 368.72416 376.709 383.79716 388.23405 392.67094 397.10783 401.73905 408.82719 414.89567 418.8881 431.3098 438.4962 446.48106 453.56919 459.63768 463.7898 468.22669 472.8579 479.0727 483.06513 494.59794 501.68608 509.51124 513.50369 520.5918 525.90988 533.8947 541.8796 549.86447 557.8493 561.84176 566.2786 574.2635 581.3516 585.1844 593.16928 600.2574 604.6943 616.2271 624.37167 629.6897 637.67459 641.667 645.6594 649.65188 659.4068 667.39169 674.4798 679.59017 686.6783 690.6707 695.1076 701.3224">behaviors, skills, knowledge, and qualities makes its way around the network.  There is </tspan></text>
<text xml:space="preserve" transform="matrix(.75 0 0 .75 0 0)" font-size="15.9697" font-family="F1"><tspan y="442.88" x="144 151.08812 155.52501 161.73979 169.72464 173.71707 178.15398 186.13883 193.22695 197.21938 204.30748 209.41779 217.56233 225.54718 237.96894 245.05706 252.8822 257.3191 261.47123 265.9081 273.89299 280.9811 285.418 289.41044 296.5968 303.78318 310.8713 318.85618 322.8486 330.83348 337.9216 343.0319 349.24668 357.23155 365.2164 369.20884 377.1937 384.28184 390.4966 394.48905 398.92594 407.0705 414.15864 418.59553 423.91355 427.90599 435.89085 443.8757 451.86058 456.29747 460.2899 468.27476 473.59278 477.5852 484.67335 492.4985 500.64308 505.07997 512.1681 519.0351 523.66629 529.88107 533.8735 546.2952 553.4816 560.56979 568.5546 572.9915 580.9764 588.96127 592.9537 597.39059 605.3754 612.46359 616.90048 620.8929 625.3298 633.31466 641.2995 647.5143 654.6024 658.59487 670.1277 678.11257 686.0974">also the argument that each person has their pool of contacts meaning that those who </tspan></text>
<text xml:space="preserve" transform="matrix(.75 0 0 .75 0 0)" font-size="15.9697" font-family="F1"><tspan y="461.28" x="144 151.98485 159.07295 167.0578 174.14592 177.97866 185.9635 193.94835 198.38524 202.53737 206.97426 214.06237 220.13086 226.51874 230.51117 238.49602 245.58412 253.40927 260.4974 264.9343 272.91917 280.90403 293.32575 300.51213 308.49699 312.93388 317.086 321.5229 329.50776 333.94465 341.9295 345.92195 350.35884 358.3437 365.43183 369.8687 375.18675 379.17918 385.39396 393.3788 400.46696 407.55509 414.42207 420.63685 426.85163 430.84407 438.82893 445.91706 450.35395 462.0118 469.99668 475.3147 483.29957 487.292 498.8248 503.2617 507.69859 512.1355 516.2876 522.5024 529.5905 536.4575 540.44998 547.5381 555.52297 563.5078 571.4927 579.47756 586.5657 594.55056 598.9874 603.4243 610.51248 614.94937 619.5805 627.56539 631.5578 636.87588 643.964 655.3025 662.4889 667.80697 671.7994 677.11746 684.20559 690.27407 698.4186 702.85549 707.29238 713.50717">have put less development into their success network will see exponentially fewer results </tspan></text>
<text xml:space="preserve" transform="matrix(.75 0 0 .75 0 0)" font-size="15.9697" font-family="F1"><tspan y="479.68" x="144 151.98485 159.9697 167.05782 172.37586 179.24283 183.67974 188.31095 192.46308">overall. </tspan></text>
<text xml:space="preserve" transform="matrix(.75 0 0 .75 0 0)" font-size="15.9697" font-family="F1"><tspan y="498.08" x="144"> </tspan></text>
<text xml:space="preserve" transform="matrix(.75 0 0 .75 0 0)" font-size="15.9697" font-family="F1"><tspan y="516.48" x="120 127.98485">3.</tspan></text>
<text xml:space="preserve" transform="matrix(.75 0 0 .75 0 0)" font-size="15.9697" font-family="F2"><tspan y="516.48" x="132"> </tspan></text>
<text xml:space="preserve" transform="matrix(.75 0 0 .75 0 0)" font-size="15.9697" font-family="F1"><tspan y="516.48" x="144 159.01152 166.99637 174.98122 178.97365 183.41054 189.62532 193.77745 200.86556 208.6907 214.00875 219.32678 226.4149 234.24005 238.67696 243.30817 251.29302 255.28545 259.72233 267.70719 271.69963 279.68449 287.66935 295.6542 300.97224 305.12437 311.33915 319.324 326.41215 333.2791 340.36726 346.58204 352.7968 356.78926 364.7741 371.86225 376.29914 387.83195 395.9765 401.29454 409.2794 416.36753 420.20027 435.21177 443.35633 450.5427 454.97959 458.97203 463.4089 471.39378 479.37864 486.46678 490.4592 498.44407 503.7621 507.59483 515.57968 522.6678 530.65267 538.6375 543.0744 550.16256 554.15499 562.13986 570.1247 574.1171 582.102 590.08688 598.0717 602.06417 608.27896 612.7158 617.1527 621.5896 626.22079 630.2132 638.19808 645.2862 652.1532 660.13809 664.1305 668.5674 676.7119">Who is currently in your success network? What type of people do you still need to </tspan></text>
<text xml:space="preserve" transform="matrix(.75 0 0 .75 0 0)" font-size="15.9697" font-family="F1"><tspan y="534.88" x="144 148.4369 156.42176 163.50988 167.94676 175.93161 183.91646 191.00457 194.997 199.43389 207.41873 211.41117 219.39601 227.38086 235.3657 240.68375 244.67618 250.89096 258.87583 265.96397 273.0521 280.14024 286.355 292.5698 296.56224 304.5471 311.63523 315.94706 327.47987 335.46473 340.78276 348.7676 355.95399">include in your success network? </tspan></text>
<text xml:space="preserve" transform="matrix(.75 0 0 .75 0 0)" font-size="15.9697" font-family="F1"><tspan y="553.28" x="144"> </tspan></text>
<text xml:space="preserve" transform="matrix(.75 0 0 .75 0 0)" font-size="15.9697" font-family="F1"><tspan y="571.68" x="144 154.65166 162.6365 167.95455 173.27259 180.3607 188.18585 192.62276 197.25397 205.23882 209.23125 213.66814 221.65299 225.64542 238.06717 246.05202 250.04445 258.0293 265.11744 269.55433 281.08714 289.072 294.39 302.37489 306.3673 310.8042 317.19209 321.1845 331.83619 338.92433 351.34605 358.43418 363.7522 371.57737 379.56224 383.55467 393.30958 400.3977 411.9305 415.92295 419.91539 429.6703 434.10719 438.54408 445.6322 451.847 455.83943 467.49729 472.8153 480.80018 487.01496 494.1031 497.93583 501.92826 513.46109 520.64749 525.9655 532.1803 540.16519 547.2533 555.23818 559.2306 568.1122 576.09707 583.1852 588.50326 600.79989 607.888 611.88046 615.87289 622.08767 630.2322 636.44699 640.88388 645.32077 653.4653 660.5534 664.38619 674.28738 681.3755 693.6721 701.657 705.6494">Currently in my network is Cameron Law, Elias Kruse, Kershav Sharma, Justine Lamb, </tspan></text>
<text xml:space="preserve" transform="matrix(.75 0 0 .75 0 0)" font-size="15.9697" font-family="F1"><tspan y="590.08" x="144 150.21479 157.3029 165.28775 170.60579 178.43094 186.57549 194.56034 198.55277 207.43434 211.87123 219.85608 227.84093 235.82578 239.8182 243.81064 258.01026 262.44715 270.5917 277.67985 281.51258 291.2675 298.35563 303.7853 308.2222 316.20707 322.42185 326.41429 330.4067 337.49485 345.4797 353.46458 357.457 368.10868 376.09355 381.41157 385.84846 392.06324 396.50013 400.937 409.08158 416.1697 420.00245 435.01396 439.45085 444.08207 450.29685 458.2817 466.26658 470.259">Jagroop Singh, Mike Larios, and Christina Wilson. </tspan></text>
<text xml:space="preserve" transform="matrix(.75 0 0 .75 0 0)" font-size="15.9697" font-family="F1"><tspan y="608.48" x="144"> </tspan></text>
<text xml:space="preserve" transform="matrix(.75 0 0 .75 0 0)" font-size="15.9697" font-family="F1"><tspan y="626.88" x="144 154.65166 161.73976 174.16152 181.24962 186.56766 194.5525 202.53736 206.37009 216.2713 223.35942 234.6979 238.69034 243.12725 249.51512 253.50756 257.94444 265.9293 273.01744 277.00987 285.15443 292.24256 297.35285 303.74073 311.7256 319.71046 323.70289 328.81318 332.8056 337.2425 345.38706 353.37193 361.35679 365.5089 372.59706 376.90888 380.9013 386.21934 394.2042 399.52223 403.51466 410.70103 417.78916 425.77403 431.9888 439.97367 446.18846 450.62535 457.8117 470.23344 474.22587 482.21073 490.1956 494.63249 499.06938 507.21394 511.65083 519.6357 527.62057 531.613 535.6054 542.69357 550.6784 563.10018 575.5219 583.5068 591.49166 595.9285 600.3654 608.50997 612.5024 620.3276 628.31246 632.7493 637.1862 645.1711 649.608 657.59286 665.5777 669.5701 673.56259 681.5474 689.5323 697.51718 701.95407 706.5852 713.67337">Cameron Law is the person I look at for ecosystem building, community building, public </tspan></text>
<text xml:space="preserve" transform="matrix(.75 0 0 .75 0 0)" font-size="15.9697" font-family="F1"><tspan y="645.28" x="144 150.21479 158.19963 165.28774 172.37584 180.20099 184.6379 192.78244 200.76729 204.75972 208.75215 216.737 224.72185 230.93663 235.37352 243.35837 250.44649 256.66127 262.87605 266.86848 273.08326 277.52015 282.83818 289.9263 294.23814 301.5842 309.56907 317.55393 321.54637 325.5388 332.62693 340.4521 348.43696 352.42939 364.8511 372.99568 378.3137 385.18067 389.1731 396.26124 402.476 406.46846 418.1263 425.21446 429.65135 434.08824 438.08067 445.1688 451.38359 455.376 463.52058 470.6087 475.0456 483.03047 491.01533 495.00776 502.0959 506.08833 514.0732 521.1613 526.27169 532.48648 540.4713 548.4562 552.6083 557.92636 561.91879 566.35568 570.79257 578.9371 586.0252 589.858 597.84286 604.93099 609.36788 617.3527 625.49728 629.4897 636.5778 641.8959 649.88076 657.8656 665.85049 673.995">speaking, business strategy, and more as well as being a person I like being around </tspan></text>
<text xml:space="preserve" transform="matrix(.75 0 0 .75 0 0)" font-size="15.9697" font-family="F1"><tspan y="663.68" x="144"> </tspan></text>
<text xml:space="preserve" transform="matrix(.75 0 0 .75 0 0)" font-size="15.9697" font-family="F1"><tspan y="682.08" x="144 153.75493 158.19182 162.62871 169.71681 175.9316 179.92403 191.45684 196.77487 204.75972 210.9745 218.0626 221.89534 226.33223 232.72011 236.71254 244.69739 252.68224 259.77037 263.6031 271.58796 276.90599 280.8984 285.3353 293.32017 300.4083 304.56044 312.5453 319.63343 327.6183 335.60316 339.91499 347.10136 351.25349 356.36378 360.3562 364.7931 369.22999 377.21485 384.30299 388.2954 392.7323 400.71717 404.7096 409.14649 416.23463 420.6715 428.65638 432.6488 437.0857 445.07057 449.063 456.15113 464.2957 472.28056 480.2654 484.7023 488.69474 496.6796 502.89439 510.87925 517.96737 525.9522 533.9371 538.37399 546.3588 554.3437 562.32858 566.321 572.53579 576.97268 584.9575 590.2756 595.5936 599.58609 607.5709 614.65908 621.7472 628.8353 636.8202 643.035 650.1231 653.9559 661.94076 667.2588 671.2512 679.2361 687.22097 692.539">Elias Kruse is one of the people I like to talk to about psychology stuff because of our </tspan></text>
<text xml:space="preserve" transform="matrix(.75 0 0 .75 0 0)" font-size="15.9697" font-family="F1"><tspan y="700.48" x="144 156.42176 164.4066 168.84349 176.98804 184.07616 188.38797 192.3804 196.8173 204.96186 209.39876 216.48686 221.59717 228.68529 234.90007 239.33696 243.32939 247.76628 255.91083 259.90327 272.32499 280.30986 284.74674 289.18363 297.1685 304.25663 308.6935 313.1304 321.11528 329.10014 333.09257 340.1807 346.39549 350.3879 361.92073 369.00886 373.32069 377.9519 381.94435 389.03248 395.10096 399.09339 407.07826 414.16639 418.60328 426.58815 434.573 438.56544 445.65357 449.646 456.83238 464.01875 468.45564 480.87736 484.86979 489.30668 497.45124 501.88813 507.20616 515.191 519.1834 527.1683 534.2564 539.36679 543.80368 551.7885 555.78097 560.21786 568.36239 572.3548 584.77658 592.7614 596.75387 609.1756 613.6125 621.4377 629.5822">mutual interest in motivation as well as being a calm third party to my mind </tspan></text>
<text xml:space="preserve" transform="matrix(.75 0 0 .75 0 0)" font-size="15.9697" font-family="F1"><tspan y="718.88" x="144"> </tspan></text>
<text xml:space="preserve" transform="matrix(.75 0 0 .75 0 0)" font-size="15.9697" font-family="F1"><tspan y="737.28" x="144 155.5328 162.62093 167.73123 174.11911 182.10396 189.19207 197.01721 201.00965 209.89122 218.03577 225.22214 230.54018 242.96193 250.05004 253.88277 257.87519 265.86006 272.94819 279.16297 287.14784 291.58473 296.0216 303.20799 307.3601 315.34498 323.32984 327.76673 331.75917 339.74403 346.83216 354.81703 359.2539 367.23878 375.22364 379.21607 387.20094 394.28907 402.11424 406.10667 410.54356 418.6881 425.77626 429.60899 436.6971 444.68199 451.7701 459.91468 467.10105 474.18919 478.0219 482.65315 490.638 494.63044 502.6153 509.70344 517.5286 525.5135 529.5059 537.4908 545.47567 549.91256 553.90499 558.34188 566.4864 570.4788 577.56698 581.3997 593.0576 601.0425 605.4794 609.91629 617.0044 620.9968 624.98928 629.6204 635.8352 639.82766 652.2494 660.23428 664.2267 672.21157 680.1964 684.6333 692.61819 696.6106 701.92868 709.9135 715.23159">Kershav Sharma, despite not having had the chance to hang out in a while, is my goto for </tspan></text>
<text xml:space="preserve" transform="matrix(.75 0 0 .75 0 0)" font-size="15.9697" font-family="F1"><tspan y="755.68" x="144 151.08812 158.17623 166.00138 172.21616 180.3607 186.57549 191.01238 198.10048 210.52223 214.51467 222.49951 230.48436 234.92125 239.35814 247.34299 251.77989 259.76475 267.7496 271.74205 275.73448 283.71934 290.80747 296.1255 300.56239 308.54725 315.63539 320.74568 324.8978 329.3347 337.31956 341.31199 347.52677 351.96366 357.28169 364.3698 368.68165 375.868 383.85289 391.83775 395.83018 399.8226 406.91075 414.7359 422.72077 426.7132 434.69807 442.84263 449.93077 453.9232 462.06776 467.38578 471.3782 483.79994 491.7848 495.77723 501.992 509.97688 517.96176 523.2798 530.3679 537.2349 543.4497 547.6018 555.5867 560.9047 564.7375 569.1744 577.3189 583.5337 591.51858 595.95547 601.3852 608.4733 612.9102 617.3471 625.332 633.31686 637.30929 642.6273 650.6122 655.93026">ecosystem building, partner in strategy, and one of my sources of inspiration for </tspan></text>
<text xml:space="preserve" transform="matrix(.75 0 0 .75 0 0)" font-size="15.9697" font-family="F1"><tspan y="774.08" x="144 151.98485 159.07295 163.50984 175.04265 183.0275 188.34554 196.17069 200.60759 208.75214 216.73699 220.72942 227.81752 235.64267 243.78722 247.77965 254.86775 262.6929 275.11463 287.73069 295.71556 303.8601 308.297 312.7339 320.71876 324.71119 331.79933 339.78419 344.22108 348.65797 356.64283 361.96086 369.04899">networking and community culture </tspan></text>
<text xml:space="preserve" transform="matrix(.75 0 0 .75 0 0)" font-size="15.9697" font-family="F1"><tspan y="792.48" x="144"> </tspan></text>
<text xml:space="preserve" transform="matrix(.75 0 0 .75 0 0)" font-size="15.9697" font-family="F1"><tspan y="810.88" x="144 150.21479 158.19963 164.41442 168.8513 173.2882 181.43274 188.52086 192.35359 202.10852 209.19664 221.6184 229.60324 233.59568 237.5881 245.57295 252.66106 258.87583 266.8607 271.29759 275.73448 282.8226 286.81504 294.7999 302.78477 307.22166 311.21409 316.5321 323.62025 331.4454 339.58998 344.02687 351.115 356.22529 360.8565 368.84138 372.8338 380.81867 387.9068 392.21864 400.2035 408.18836 412.1808 416.61769 424.76225 428.75468 435.8428 443.66798 451.65284 456.28407 463.3722 470.55857 474.99546 478.98789 483.42478 489.63957 493.7917 500.00648 507.99134 520.4131 527.5012 535.4861 543.47097 550.5591 554.39187 559.5022 563.4946 571.63919 576.9572 584.04537 591.1335 595.44528 599.88217 608.0267 612.0191 617.44888 624.537 630.7518 638.73666 645.82479 652.9129 657.3498 661.3422 672.87509 677.31198 681.74887 689.7337 694.1706 702.15548">Justine Lamb, despite not regularly being in contact is someone I greatly respect within </tspan></text>
<text xml:space="preserve" transform="matrix(.75 0 0 .75 0 0)" font-size="15.9697" font-family="F1"><tspan y="829.28" x="144 148.4369 156.42176 163.50988 167.5023 174.59041 179.90845 186.99657 194.08467 197.9174 206.06195 211.37999 215.21273 223.19757 229.41236 237.3972 244.4853 252.47016 260.45503 264.8919 272.87678 280.86164 288.8465 292.83894 304.4968 312.48167 320.46653 332.88825 337.04039 342.15068 346.1431 353.32948 360.4176 368.24278 372.2352 376.6721 383.85847 388.29536 396.2802 400.27265 404.70954 412.6944 416.68684 423.77497 431.75984 439.7447 447.72956 452.16645 456.15888 461.58857 468.6767 475.76484 483.59 488.0269 492.6581 500.64299 504.6354 509.0723 517.0571 521.494 528.58218 533.9002 540.7672 547.9536 552.3905 556.8274 564.81228 572.7971 579.0119 583.00436 589.2191 597.204 601.1964 605.6333 613.61819 620.80459 625.4357 629.42819 640.961 647.828 651.82046 658.90859 665.9967 673.98159 677.974 685.95889 693.9437 698.3806 706.3655">the area of psychology whom I can talk to about faculty interactions so that we can both </tspan></text>
<text xml:space="preserve" transform="matrix(.75 0 0 .75 0 0)" font-size="15.9697" font-family="F1"><tspan y="847.68" x="144 151.98485 159.07295 167.0578 171.4947 179.47956 186.56768 190.87949 198.06586 202.05829 206.4952 214.48004 221.56816 225.4009 231.78878 239.77362 246.95999 254.04811 260.91508 264.9075 269.3444 277.48896 285.47383 292.56196 296.87379 305.01835 312.10649 317.4245 321.57664">navigate the space together. </tspan></text>
<text xml:space="preserve" transform="matrix(.75 0 0 .75 0 0)" font-size="15.9697" font-family="F1"><tspan y="866.08" x="144"> </tspan></text>
<text xml:space="preserve" transform="matrix(.75 0 0 .75 0 0)" font-size="15.9697" font-family="F1"><tspan y="884.48" x="144 150.21479 157.3029 165.28775 170.60579 178.43094 186.57549 194.56034 198.55277 207.43434 211.87123 219.85608 227.84093 235.82578 239.8182 243.81064 248.24755 254.46233 258.61445 265.70259 269.5353 277.52018 284.6083 291.69645 296.80674 301.11857 309.10343 316.19157 323.05854 328.37657 332.369 343.9018 351.88667 359.87153 363.86396 370.07875 374.51564 378.9525 385.1673 389.15974 396.24787 400.2403 405.66999 412.75813 424.29093 428.12367 434.51155 438.94844 446.03657 453.86174 460.2496 464.40174 471.48988 479.31504 486.40318 493.4913 501.47618 505.4686 513.4534 518.7715 522.60427 535.2203 542.3084 546.30087 550.2933 554.2857 565.81857 570.25546 574.6923 582.6772 590.66207 598.6469 606.6318 614.61666 618.6091 626.59396 634.5788 639.89688 643.8893 648.3262 656.31106 660.7479 667.83609 673.1541 680.24227 686.3107 690.7476">Jagroop Singh, is a near peer who sits a few steps ahead of me.  Although our interest </tspan></text>
<text xml:space="preserve" transform="matrix(.75 0 0 .75 0 0)" font-size="15.9697" font-family="F1"><tspan y="902.88" x="144 151.08812 156.40616 163.27313 170.36125 176.57604 180.72817 187.81627 193.13431 200.22243 204.05516 212.04001 216.67124 221.98928 227.30731 234.49369 239.81172 246.67868 254.82323 259.2601 263.25254 267.40467 272.51496 276.5074 284.49226 289.92195 297.01008 304.19645 308.63334 313.07023 321.05509 325.04753 330.36555 337.45368 343.52217 351.66673 358.75486 365.62184 370.05873 374.21086 382.1957 386.6326 392.84739 396.8398 401.2767 408.36485 415.45298 423.27815 431.263 435.6999 443.04597 450.1341 454.44593 458.43836 466.42323 474.40809 482.39295 493.92576 498.36265 505.45079 513.4356 521.4205 528.5086 532.50106 539.5892 547.41439 555.39926 559.55136 566.63949 574.6243 579.0612 587.0461 595.03097 599.0234 607.00827 614.9931 622.97799 630.9628 638.05099 642.48788 650.4727 658.4576 662.45 666.8869 674.87179 681.9599 689.04806 695.1165">areas are different, I greatly respect his technical knowledge and enjoy bouncing ideas </tspan></text>
<text xml:space="preserve" transform="matrix(.75 0 0 .75 0 0)" font-size="15.9697" font-family="F1"><tspan y="921.28" x="144 155.5328 159.96971 164.4066 172.39145 176.38388 184.36873 188.80562 201.42169 205.41413 213.39897 221.38382 228.47194 232.30467 236.74156 244.88611 248.87854 256.8634 261.3003 267.51509 271.5075 279.49238 287.47724 291.91413 299.7393 307.72416 314.8123 318.80473 323.2416 330.32975 338.3146 345.40275 349.23548 357.22035 365.2052 369.19764 373.63453 381.77909 388.86723 392.69996 404.23277 412.37733 417.69535 422.13224 430.1171 434.10954">with him due to his unique take on the world. </tspan></text>
<text xml:space="preserve" transform="matrix(.75 0 0 .75 0 0)" font-size="15.9697" font-family="F1"><tspan y="939.68" x="144"> </tspan></text>
</g>
</svg>
