<?xml version="1.0" encoding="UTF-8" standalone="no"?>
<!DOCTYPE svg PUBLIC "-//W3C//DTD SVG 1.1//EN" "http://www.w3.org/Graphics/SVG/1.1/DTD/svg11.dtd">
<svg xmlns="http://www.w3.org/2000/svg" xmlns:xlink="http://www.w3.org/1999/xlink" version="1.1" width="612pt" height="792pt" viewBox="0 0 612 792">
<g enable-background="new">
<text xml:space="preserve" transform="matrix(.75 0 0 .75 0 0)" font-size="15.9697" font-family="F1"><tspan y="110.88" x="96 107.53281 113.747577 119.96234 124.39924 132.3841 140.36894 152.7907 159.8788 167.86365 172.30055 176.73744 180.72988 191.58927 198.67739 203.78769 208.2246 215.41095 222.49907 226.81089 230.80332 238.78816 246.77301 250.76544 255.20235 263.3469 270.43504 274.26777 279.5858 287.57066 292.00755 296.44444 304.4293 315.9621 320.399 328.38386 336.3687 340.36116 348.346 356.33088 363.419 369.6338 374.07069 378.50758 386.65214 394.637 400.85179 405.28868">Assignment: Reflect on the following questions: </tspan></text>
<text xml:space="preserve" transform="matrix(.75 0 0 .75 0 0)" font-size="15.9697" font-family="F1"><tspan y="148" x="120 127.98485">1.</tspan></text>
<text xml:space="preserve" transform="matrix(.75 0 0 .75 0 0)" font-size="15.9697" font-family="F2"><tspan y="148" x="132"> </tspan></text>
<text xml:space="preserve" transform="matrix(.75 0 0 .75 0 0)" font-size="15.9697" font-family="F1"><tspan y="148" x="144 155.5328 160.85085 164.84328 169.28017 177.26502 184.35314 188.18587 195.27397 199.71086 207.69571 215.68056 220.11745 224.10988 231.19799 239.18283 243.61974 249.04944 256.13758 264.12245 269.44047 276.5286 284.51347 291.6016 299.58647 305.01615 311.23094 315.22337 320.54139 327.62953 334.4965 338.93339 347.07795 352.39598 359.26295 367.4075 371.39994 375.83683 383.8217 387.81413 392.251 400.23588 404.67277 410.88755 414.87998 419.31687 426.50325 432.71803 438.9328 446.91767 454.90254 458.89497 463.0471 474.5799 482.56477 487.00166 494.08979 502.07466 506.06709 510.50398 518.48886 524.7036 532.6885 537.12539 542.4434 549.53158 555.60006 559.59249 567.57736 575.5622 583.54708 587.5395 591.9764 600.1209 607.20907 611.0418 623.46359 631.6081 637.8229 642.25979 649.3479 653.34036 657.33279 672.3443 680.32919 688.314 695.5004">Of the eight entrepreneurs featured in this lesson, which inspires you the most?  Why? </tspan></text>
<text xml:space="preserve" transform="matrix(.75 0 0 .75 0 0)" font-size="15.9697" font-family="F1"><tspan y="184.96" x="144 149.31804 154.63608 167.05783 171.05027 179.03511 187.01996 191.45687 199.44171 207.42656 211.41899 215.85588 223.84073 227.83316 235.81801 242.90612 246.89855 254.88339 262.86827 270.85313 277.94126 284.00975 288.44664 293.07786 297.07029 308.6031 315.47007 320.89976 328.8846 335.97276 339.80549 347.79035 355.7752 360.2121 368.35667 372.3491 379.43724 387.4221 395.40696 402.4951 407.92478 415.0129 422.99778 426.8305 431.46174 442.99455 450.8197 454.97184 462.1582 470.14308 474.57997 479.89799 486.9861 494.81129 500.24098 507.3291 515.31399 522.4021 530.38699 535.705 541.7735 545.7659 557.29879 561.73568 566.17257 574.3171 578.75399 586.73886 590.73129 600.4862 607.57437 613.7891 620.0039 628.14846 636.1333 640.12576 648.1106 652.103 656.09548">I&#x2019;m going to be honest; we&#x2019;ve only covered two entrepreneurs within Lesson 8.  </tspan></text>
<text xml:space="preserve" transform="matrix(.75 0 0 .75 0 0)" font-size="15.9697" font-family="F1"><tspan y="203.36" x="144 155.5328 159.96971 164.4066 172.39145 180.3763 188.36115 196.346 204.33084 208.32328 212.76018 220.90473 225.34163 231.55641 235.54885 247.08165 254.16976 261.0367 269.02159 273.014 284.5468 291.63496 295.62739 303.77195 310.86009 318.84495 325.93309 329.7658 337.75068 344.93705 352.02519 360.01005 364.00248 368.43937 376.42424 380.8611 387.94926 393.26728 400.45365 407.54179 411.8536 416.2905 424.43507 432.41993 436.41236 447.94517 452.257 456.69389 464.83845 468.83088 475.919 479.75175 485.06977 492.1579 503.6907 507.68315 512.12008 520.1049 527.2913 534.37948 538.6912 542.8433 549.93148 557.75668 562.19357 567.78298 574.8711 582.6963 588.01437 595.1025 603.247 610.33517 618.16036 623.5901 629.8049 633.957 645.4898 649.8016 654.23849 662.383 666.8199 674.80477 678.7972 686.78207 694.7669 700.08499">Although this week we have been interacting with a few local entrepreneurs within our </tspan></text>
<text xml:space="preserve" transform="matrix(.75 0 0 .75 0 0)" font-size="15.9697" font-family="F1"><tspan y="221.76" x="144 151.08812 159.07297 171.49472 183.91648 191.90132 199.88617 204.32308 208.75997 216.90451 220.89694 224.88938 228.8818 240.41461 245.52492 249.51735 253.95424 262.0988 269.18693 281.48359 285.6357 289.62815 294.06504 298.50193 303.81996 310.03474 314.02717 321.1153 324.94804 333.0926 337.52949 341.96638 345.9588 353.94367 359.2617 363.25413 370.34226 374.175 378.61189 386.75645 392.97123 399.186 404.50404 412.4889 420.47377 424.4662 432.45106 439.53919 443.851 455.38383 462.5702 469.65834 477.6432 481.63563 492.2873 496.72419 503.81233 511.79719 515.7896 524.57296 532.5578 537.98757 545.0757 557.49746 564.5856 572.41079 576.56289 580.5553 592.08816 599.9133 608.05789 615.146 619.1384 627.1233 635.10818 643.093 647.08547 662.097 669.1851 677.17 685.15487 693.1397 698.45779 703.8875 709.20559 713.0383">community.  Of them, it&#x2019;s a bit of a toss-up between Rich Foreman, Anna von Wendorff, </tspan></text>
<text xml:space="preserve" transform="matrix(.75 0 0 .75 0 0)" font-size="15.9697" font-family="F1"><tspan y="240.16" x="144 151.08812 159.07297 167.05782 171.05025 181.7019 189.68675 195.00479 199.4417 205.65648 210.09337 214.53026 221.61837 229.60321 233.59564 247.79528 254.88338 261.09815 267.31294 274.40107 282.38594 286.69776 293.88414 301.869 306.02113 310.01356 314.00599 324.65766 329.09455 336.18269 344.16755 348.15998 352.59687 358.81166 362.80409 367.24098 375.22584 381.4406 389.42549 393.86238 399.29206 403.72895 411.7138 419.69868 423.6911 431.67597 438.7641 445.85224 452.7192 460.70408 466.91886 474.007 477.99943 485.98429 491.3023 495.29475 499.73164 507.7165 514.8046 518.6374 525.02529 529.46218 537.447 542.7651 550.74996 554.5827 562.72726 568.0453 571.87808 579.8629 587.8478 592.28469 600.4292 608.41409 612.4065 617.83627 623.266 631.25088 643.6726 647.66506 653.8798 658.3167 666.3016 673.3897 677.38217 685.367 693.35189 701.33676 709.3216 717.30648">and Christian Massegian.  Rich is inspiring because of the story of going from side hobby </tspan></text>
<text xml:space="preserve" transform="matrix(.75 0 0 .75 0 0)" font-size="15.9697" font-family="F1"><tspan y="258.56" x="144 148.4369 156.42176 160.41419 166.62897 174.61382 181.70192 188.79003 195.87813 201.94663 208.1614 212.15384 220.13869 227.22679 233.44158 241.42642 245.86333 250.30022 257.48658 261.479 265.9159 273.90077 280.9889 284.82164 289.2585 294.6882 299.1251 306.31147 310.74836 316.96315 320.95558 328.0437 336.02857 344.01344 348.00587 352.44276 357.76078 362.19767 370.18254 378.1674 382.60429 389.6924 394.1293 398.5662 406.55107 414.53593 420.7507 424.74314">to success despite the trials and tribulations. </tspan></text>
<text xml:space="preserve" transform="matrix(.75 0 0 .75 0 0)" font-size="15.9697" font-family="F1"><tspan y="295.68" x="120 127.98485">2.</tspan></text>
<text xml:space="preserve" transform="matrix(.75 0 0 .75 0 0)" font-size="15.9697" font-family="F2"><tspan y="295.68" x="132"> </tspan></text>
<text xml:space="preserve" transform="matrix(.75 0 0 .75 0 0)" font-size="15.9697" font-family="F1"><tspan y="295.68" x="144 159.01152 166.99637 174.08449 178.52138 182.51381 189.60192 197.58676 204.67488 208.9867 213.4236 220.60996 228.5948 236.73935 243.82747 249.89597 253.8884 261.87327 266.31016 274.4547 278.44715 282.88404 290.8689 297.95704 302.10917 309.1973 317.02247 321.45936 326.88905 333.97718 341.80235 347.23204 354.32017 362.30503 369.39317 377.37803 382.69606 386.52879 394.51365 402.6582 409.74635 415.06437 422.1525 429.97767 442.75343 449.84156 456.70854 460.86067 472.39347 480.37834 491.91114 495.90357 503.88844 511.8733 515.8657 520.3026 528.2875 535.3756 541.5904 548.6785 552.5113 559.6977 567.8422 574.93038 579.2421 583.679 590.8654 598.8503 606.83517 613.9233 619.99179 624.14389 631.232 639.21688 651.6386 659.6235 666.7116 672.02969 679.1178 682.95059 687.38748 695.3723">What challenges did the entrepreneur overcome? How do these challenges compare to </tspan></text>
<text xml:space="preserve" transform="matrix(.75 0 0 .75 0 0)" font-size="15.9697" font-family="F1"><tspan y="314.08" x="144 151.98485 159.9697 167.95455 173.27259 177.26502 185.24987 196.78267 204.76752 211.95389">your own? </tspan></text>
<text xml:space="preserve" transform="matrix(.75 0 0 .75 0 0)" font-size="15.9697" font-family="F1"><tspan y="351.2" x="144 154.65166 159.08855 166.2749 174.25975 178.25218 186.23703 194.22188 201.30998 206.42029 213.5084 220.59651 233.21259 240.3007 244.13344 251.22154 259.2064 266.29454 270.7314 275.1683 282.25645 290.2413 298.38587 305.57225 311.78703 315.77946 320.21635 328.2012 332.19364 340.1785 347.26664 352.58467 356.89649 365.04106 373.0259 379.2407 383.23313 388.55116 392.86299 400.84785 408.8327 415.0475 419.19963 426.28776 434.1129 442.09779 446.0902 453.17835 461.1632 465.79444 470.23133 478.2162 483.5342 490.62236 494.45509 500.84297 508.82783 513.2647 518.58279 523.01968 529.23446 533.22689 537.66378 545.6486 549.64108 554.07797 562.0628 569.15097 573.1434 581.12826 585.5651 590.8832 596.20126 603.28939 608.6074 615.69558 623.52078 627.95767 632.10977 639.1979 644.3082 651.39639 658.4845 664.6993 668.6917 673.1286 681.27316 688.36129 692.79818 696.7906 704.77548 711.8636">Rich overcame challenges in various flops and culture shifts in the different areas that he </tspan></text>
<text xml:space="preserve" transform="matrix(.75 0 0 .75 0 0)" font-size="15.9697" font-family="F1"><tspan y="369.6" x="144 155.5328 163.51766 168.8357 176.82054 183.90865 191.7338 195.72623 200.16313 208.30768 212.30011 216.29254 220.28498 229.0683 237.21285 242.53089 246.36362 258.97969 266.0678 269.90055 273.89299 278.32987 282.9611 286.95353 294.9384 302.92326 307.36015 311.35258 323.7743 330.86244 334.85487 339.29176 347.2766 351.26905 356.58708 363.6752 368.7855 373.22239 380.40876 387.59513 392.032 396.02445 404.0093 411.99418 419.97904 427.9639 431.95634 436.39323 444.37809 451.46623 455.45866 459.89555 467.8804 475.86528 482.9534 486.78614 494.9307 500.24873 504.08146 511.1696 519.1544 531.5762 539.56106 546.6492 554.63406 562.6189 566.6113 571.0482 579.0331 586.1212 590.5581 594.7102 600.02828 604.0207 610.2355 617.3236 624.41177 632.3966 636.38906 640.8259 648.8108 652.8032 660.7881 667.8762 671.86868 679.8535 686.94168 692.052 696.4889 700.641 708.62588 713.9439">worked in.  For me, it got me to reflect upon the type of company that I seek to be part of </tspan></text>
<text xml:space="preserve" transform="matrix(.75 0 0 .75 0 0)" font-size="15.9697" font-family="F1"><tspan y="388" x="144 151.98485 157.30289 161.29532 169.28017 177.26502 181.70192 186.13881 194.12366 198.11609 202.10852 206.10095 217.63376 225.6186 237.15142 241.14385 245.58074 250.01763 254.01006 261.09819 269.08305 281.50477 289.48963 296.57777 302.00746 309.09559 315.16407 319.1565 323.59339 331.73796 335.73039 348.1521 356.13697 360.1294 368.11427 379.64707 387.63194 391.62437 398.7125 406.53767 413.6258 418.06269 422.49958 429.5877 437.57258 445.55744 452.64558 458.86036 463.01249 467.44938 473.66416 477.6566 482.09349 490.07835 494.07078 506.4925 514.637 518.62948 526.6143 533.70248 539.77096 544.2078 548.3599 555.44808 563.27328 571.2581 575.25057 582.3387 590.32357 595.6416 600.95968 607.82669 615.8115 620.2484 624.56027 630.775 635.2119 640.52999 648.51486 656.4997 664.48458 668.92147 676.0096 682.22439 686.2168 697.74966 702.0614 706.4983 714.6428">or build.  How it compares to my own challenges is in my past and current struggles with </tspan></text>
<text xml:space="preserve" transform="matrix(.75 0 0 .75 0 0)" font-size="15.9697" font-family="F1"><tspan y="406.4" x="144 148.4369 156.42176 163.50988 170.59798 174.90979 179.06192 190.59473 198.41988 203.73792 211.72277 216.15966 224.1445 232.12935 236.12178 243.20989 251.19474 259.1796 263.17204 267.60893 275.59379 283.57865 291.5635 299.54838 306.73475 311.17164 315.80287 323.78773 331.77259 335.765 342.85316 350.6783 355.1152 359.74644 367.7313 373.04933 379.9163 383.90873 395.44154 399.87843 404.3153 412.45988 416.89677 424.88163 428.87406 433.31095 441.2958 448.38395 452.37638 460.36125 465.67927 473.50444 480.6908 488.67567 495.7638 500.87409 504.86653 511.95466 519.9395 532.36129 544.783 552.7679 560.75277 565.18966 569.8208 577.80569 581.7981 588.8862 596.7114 604.6963 608.6887 620.22158 624.8527 629.2896 637.2745 641.71139 649.8559 653.8483 658.2852 666.2701 673.3582 680.44638 684.7581">local working and innovation culture within the broader community and within local </tspan></text>
<text xml:space="preserve" transform="matrix(.75 0 0 .75 0 0)" font-size="15.9697" font-family="F1"><tspan y="424.8" x="144 151.08812 159.07297 171.49472 179.47957 186.56768 194.55252 198.86435 206.05072 212.2655 216.25794 220.25037 224.2428 233.02613 241.17067 246.48871 250.48114 262.90287 269.991 273.82374 278.26063 286.40519 293.49333 297.32606 305.6303 310.0672 318.05207 326.03694 333.12507 339.19355 343.63044 347.78257 354.8707 362.69587 370.68074 375.99876 380.43565 384.87254 392.0589 396.4958 400.48823 408.47309 413.7911 417.78355 424.87168 432.69685 437.13374 441.76496 449.74983 455.06785 461.9348 466.08695 474.0718 481.15995 487.37474 491.36717 499.35203 506.44017 513.52828 521.35348 525.3459 529.7828 537.9273 545.01547 548.8482 556.99276 564.17916 570.3939 576.6087 581.0456 589.03048 593.46737 597.90426 605.8891 609.88156 617.8664 623.18447 627.1769 634.265 642.2499 647.56796 655.3931 663.53768 668.8557 675.7227 680.3539 687.442">companies.  For me the biggest conflict of culture has been the passivity of corporate </tspan></text>
<text xml:space="preserve" transform="matrix(.75 0 0 .75 0 0)" font-size="15.9697" font-family="F1"><tspan y="443.2" x="144 148.4369 156.42176 164.4066 172.39145 180.3763 187.4644 191.90129 196.33818 204.32303 212.30788 216.30031 220.7372 228.88175 232.87418 239.9623 247.78745 260.20918 268.35374 275.44187 280.55216 284.98905 291.37693 299.3618 307.34666 311.33909 315.77598 323.76084 327.75328 340.175 348.15986 352.15229 356.58918 369.0109 381.62696 388.7151 396.54026 402.75505 409.84318 413.8356 420.92375 428.9086 436.89347 443.9816 448.29344 452.73033 457.36155 464.44969 468.2824 473.60044 481.5853 486.90333 490.89576 495.33265 503.3175 511.30238 519.28726 527.2721 534.3602 538.672 543.30319 551.288 559.2729 563.2653 570.35348 578.17868 586.1635 590.15597 602.5777 610.7222 618.7071 625.8935 638.31527 645.4034 653.38827 657.82516 661.81759">innovation in comparison to my immense appetite for innovation and movement. </tspan></text>
<text xml:space="preserve" transform="matrix(.75 0 0 .75 0 0)" font-size="15.9697" font-family="F1"><tspan y="480.16" x="120 127.98485">3.</tspan></text>
<text xml:space="preserve" transform="matrix(.75 0 0 .75 0 0)" font-size="15.9697" font-family="F2"><tspan y="480.16" x="132"> </tspan></text>
<text xml:space="preserve" transform="matrix(.75 0 0 .75 0 0)" font-size="15.9697" font-family="F1"><tspan y="480.16" x="144 149.31804 154.63608 158.46881 166.61336 174.5982 182.58306 194.11586 198.42768 205.5158 213.50064 221.48549 228.5736 232.72573 239.81383 247.63898 255.62383 259.61625 266.8026 272.2323 277.55033 285.3755 290.6935 295.1304 299.12284 304.55253 309.87055 316.95869 321.39558 329.38044 336.46858 341.57887 345.731 350.16789 358.15275 365.24089 373.06605 377.21818 381.65507 389.79963 396.88777 404.87263 408.70536 415.89173 423.8766 431.86146 435.85389 442.94203 447.25386 452.68354 459.77168 467.91624 480.33796 486.55274 490.98963 498.176 506.16087 513.24899 520.11599 526.33078 531.6488 535.64126 542.82766 548.1457 555.2338 559.22628 563.66317 571.648 578.73617 582.5689 590.71347 597.89987 605.8847 612.0995 616.0919 620.5288 628.5137 635.6018 640.0387 644.0311 651.11929 663.4159 671.5604 679.5453 691.0781 697.9451 703.2632">If knowledge and effort (rather than luck and circumstances) are the keys that empower </tspan></text>
<text xml:space="preserve" transform="matrix(.75 0 0 .75 0 0)" font-size="15.9697" font-family="F1"><tspan y="498.56" x="144 151.08812 159.07297 163.50988 168.82791 175.91603 183.74118 189.17089 196.25899 204.24384 211.33196 219.3168 224.63484 230.70334 234.69577 239.13268 247.27722 251.26966 257.48445 265.4693 272.65568 279.7438 286.61079 293.79716 301.782 305.93415 309.92658 321.45939 329.28456 336.47093 340.9078 344.90025 351.98838 357.09867 364.28504 368.27748 376.26234 384.2472 392.23207 396.3842 407.917 412.22883 416.6657 421.29695 425.73384 433.7187 441.70356 445.69599 450.13288 458.11775 462.11018 470.09504 474.53193 482.51679 489.60493 493.59736 501.5822 509.56709 513.5595 517.9964 525.98129 529.9737 537.95858 543.2766 551.2615 558.3496 563.66769 567.5004 571.9373 580.08187 584.0743 591.2607 598.3488 605.2158 613.36038 625.9764 633.96127 638.39816 642.835 649.0498 657.03469 661.0271 669.01199 676.9968 684.9817 690.29977">entrepreneurs to succeed, what are you willing to give up in order to accomplish your </tspan></text>
<text xml:space="preserve" transform="matrix(.75 0 0 .75 0 0)" font-size="15.9697" font-family="F1"><tspan y="516.96" x="144 151.98485 159.9697 167.05782 171.4947 177.70949 184.79759">goals? </tspan></text>
<text xml:space="preserve" transform="matrix(.75 0 0 .75 0 0)" font-size="15.9697" font-family="F1"><tspan y="554.08" x="144 149.31804 154.63608 162.46123 169.64759 173.64002 180.72814 185.03995 190.46965 197.55776 204.64586 212.6307 220.61556 224.60799 232.59284 237.02974 245.01459 252.1027 259.92787 264.08 272.06486 280.0497 284.20185 291.28999 295.1227 300.5524 307.64054 312.07743 317.39546 321.38789 328.476 340.89775 348.8826 356.86747 364.85234 369.2892 373.28166 381.2665 386.58454 390.57698 396.79176 401.22865 408.31678 415.4049 423.23008 427.2225 431.21495 435.36708 440.6851 446.0031 453.98799 461.17436 465.16679 473.15165 477.58854 485.5734 492.66154 500.6464 504.63883 512.62368 520.6085 524.60098 531.6891 535.52188 539.95877 548.1033 556.08816 564.073 569.39108 577.21627 584.3044 588.7413 596.72616 600.71859 605.15548 613.1403 621.28488 625.43698 629.4294 633.8663 641.85116 648.9393 656.76449">I&#x2019;ve already given up a fair amount of sleep.  I&#x2019;ve given up a long-held job, then </tspan></text>
<text xml:space="preserve" transform="matrix(.75 0 0 .75 0 0)" font-size="15.9697" font-family="F1"><tspan y="572.48" x="144 151.98485 159.9697 164.4066 171.4947 179.47956 183.91646 188.35335 195.44145 199.87834 204.31523 212.30008 216.29251 220.72942 228.87397 235.96208 241.07239 248.1605 252.5974 257.03428 265.01914 272.10728 276.0997 287.6325 295.61738 301.04707 309.03193 313.02436 320.1125 328.09736 336.0822 340.39405 345.82374 352.91188 359.77885 364.21574 368.36787 375.456 379.76783 384.2047 388.19715 393.51518 401.65974 406.97776 410.97019 415.40708 423.39195 430.48008 434.4725 440.6873 447.77543 455.91999 463.10636 467.0988 475.08366 480.40168 484.2344 492.21928 500.20414 504.64103 511.8274 516.2643 524.24917 528.68606 536.6709 544.65579 548.6482 554.863 562.84786 567.2847 571.7216 576.3528 582.56759 586.56 593.64816 601.4733 609.61788 613.6103 621.59518 629.58 637.5649 649.0977 653.4095 660.4976 668.4825 676.46737 683.5555 687.5479 691.9848 699.96969">potentially lucrative work contract all for the sake of obtaining skills and knowledge to </tspan></text>
<text xml:space="preserve" transform="matrix(.75 0 0 .75 0 0)" font-size="15.9697" font-family="F1"><tspan y="590.88" x="144 151.98485 159.07295 163.50984 167.94673 175.03484 180.35288 184.18561 189.50365 197.4885 205.47335 213.45819 221.44304 225.43547 233.42032 241.40517 245.84206 249.83449 257.81935 265.8042 269.79664 276.88478 284.86964 289.30653 293.7434 298.1803 302.81153 307.2484 314.33656 320.55134 324.54377 331.6319 339.45707 347.44194 351.43437 359.41923 367.40409 371.84098 376.4722 384.45707 388.4495 400.87123 408.85609 412.8485 420.83338 427.9215 432.23335 443.8912 451.87608 457.1941 465.01927 469.1714 473.16383 477.15626 482.47428 487.7923 495.77717 502.8653 506.69804 514.8425 519.2794 527.2643 534.3524 542.1776 546.3297 554.3146 562.29946 566.2919 578.7136 586.6985 593.7866 601.6118 605.7639 613.90847 619.2265 623.05929 630.24569 634.2381 640.626 648.61087 655.699 660.01077 667.0989 671.53579 675.5282 679.9651 684.402 689.8317 696.91989">better round out by abilities and build my network.  I&#x2019;ve given up much of a social life </tspan></text>
<text xml:space="preserve" transform="matrix(.75 0 0 .75 0 0)" font-size="15.9697" font-family="F1"><tspan y="609.28" x="144 151.08812 159.07297 167.05782 171.05025 179.0351 186.12322 190.43503 198.41988 205.50798 213.49283 217.48526 224.57338 228.56581 236.71036 243.79848 255.13697 259.1294 265.34419 273.48875 280.57688 284.8887 291.97685 296.41374 300.40617 305.03739 309.47428 314.7923 321.88044 325.87287 329.8653 334.01744 339.12773 344.44575 352.4306 359.51875 363.35148 371.33634 375.77323 383.9178 391.00593 398.99079 402.98323 410.96809 418.95295 422.94538 428.2634 433.69309 440.78123 447.6482 451.80033 456.2372 460.86845 473.29017 480.3783 484.37074 488.36317 492.3556 497.6736 502.7839 510.76878 517.8569 521.8493 529.83419 534.27108 542.2559 549.34408 557.3289 561.32138 569.3062 577.2911 581.2835 593.89956 600.9877 608.0758 612.3876 618.60238 622.75448 626.7469 630.7393 642.3972 646.8341 651.271 655.2634 663.2483 668.56637 672.5588 676.99569 684.9805 689.4174 695.6322">and gained a new social life.  I&#x2019;ve given up free time.  I&#x2019;ve given up meals.  All of this </tspan></text>
<text xml:space="preserve" transform="matrix(.75 0 0 .75 0 0)" font-size="15.9697" font-family="F1"><tspan y="627.68" x="144 155.5328 162.62093 168.68943 172.84156 177.27846 185.2633 189.25574 193.69264 201.67749 208.76561 212.75804 219.84615 224.95645 230.38616 238.371 243.68904 248.12593 252.11837 256.55525 264.6998 268.69224 276.6771 284.66197 289.09886 293.53575 301.5206 305.51304 313.4979 321.48277 325.91966 329.91209 336.12687 344.11174 348.5486 353.17985 357.61674 363.8315 367.82395 371.81639 379.80125 387.7861 395.77098 407.30378 411.74067 418.8288 426.81367 434.79853 441.88667 445.7194 449.71183 456.79997 464.78483 472.76969 476.76213 484.74699 491.8351 496.14695 507.8048 515.7897 521.1077 528.9329 535.1477 539.14016 544.4582 552.44308 557.7611 561.75357 574.1753 582.16018 586.1526 594.13748 601.2256 609.21047 613.64736 617.79946 630.2212 638.20608 646.1909 653.27908 659.49386 663.48629 669.70108 677.6859 681.67837 686.11526 694.1001 701.18826 705.6251 709.61758 714.7279">was in the effort to build out skills, knowledge, and networks for my next moves so that I </tspan></text>
<text xml:space="preserve" transform="matrix(.75 0 0 .75 0 0)" font-size="15.9697" font-family="F1"><tspan y="646.08" x="144 151.98485 159.07295 167.0578 174.14592 177.97866 185.06676 189.05919 197.20374 204.29186 208.72875 213.16564 220.25374 225.57178 229.40451 236.49263 244.63718 251.7253 259.71015 266.79829 273.66526 277.81739 289.47526 293.91215 298.34904 306.3339 310.32633 321.85914 329.844 336.93214 341.24397 348.43034 356.4152 363.50334 368.61363 372.76576 378.08378 382.0762 389.16435 397.1492 405.13407 413.11894 419.5068 426.59495 430.42768 437.5158 443.7306 447.72303 460.14476 468.2893 472.28175 480.2666 487.35475 495.3396 499.7765 503.76893 511.75379 517.07186 525.0567 529.4936 536.5817 543.66989 547.9816 552.1337">have a better chance with whatever I choose as my next project. </tspan></text>
<text xml:space="preserve" transform="matrix(.75 0 0 .75 0 0)" font-size="15.9697" font-family="F1"><tspan y="683.04" x="120 127.98485">4.</tspan></text>
<text xml:space="preserve" transform="matrix(.75 0 0 .75 0 0)" font-size="15.9697" font-family="F2"><tspan y="683.04" x="132"> </tspan></text>
<text xml:space="preserve" transform="matrix(.75 0 0 .75 0 0)" font-size="15.9697" font-family="F1"><tspan y="683.04" x="144 159.01152 166.99637 174.08449 178.52138 182.51381 188.72859 193.16548 200.25359 208.23844 216.22328 222.43807 226.4305 234.41535 242.40019 246.83708 250.82952 255.2664 263.41096 267.40339 275.38825 283.3731 291.35798 295.3504 299.34284 304.66087 311.52784 318.61598 323.05287 329.26765 333.26008 341.24494 348.33308 359.86589 363.8583 368.2952 376.28007 380.2725 388.25736 396.24223 404.22709 408.2195 412.21195 419.30009 427.44465 434.53279 438.8446 443.2815 450.46788 456.68266 460.83479 468.81965 476.8045 484.78938 488.7818 492.77424 500.7591 506.07713 509.90986 516.998 524.98287 532.071 536.5079 540.94479 548.0329 556.01779 564.0026 571.09078 577.15927 581.1517 589.13656 597.1214 605.10629 609.25839 614.5764 620.00619 627.991 640.4128 644.4052 648.8421 656.98666 661.4235 667.6383 671.47109">What stands out to you, feels new to you, excites you, or challenges you from this  </tspan></text>
<text xml:space="preserve" transform="matrix(.75 0 0 .75 0 0)" font-size="15.9697" font-family="F1"><tspan y="701.44" x="144 148.4369 155.52501 161.73979 167.95458 175.93943 183.92427 191.01238">lesson? </tspan></text>
<text xml:space="preserve" transform="matrix(.75 0 0 .75 0 0)" font-size="15.9697" font-family="F1"><tspan y="719.84" x="144"> </tspan></text>
<text xml:space="preserve" transform="matrix(.75 0 0 .75 0 0)" font-size="15.9697" font-family="F1"><tspan y="738.24" x="144 153.75493 161.73978 168.8279 172.82033 177.25722 181.6941 194.11586 201.20397 205.64086 212.72896 218.94374 225.15853 229.15096 236.23906 244.2239 252.20876 256.52058 261.1518 268.23994 275.1069 279.5438 283.98069 292.12525 300.1101 304.26225 312.2471 317.56513 321.55757 333.09037 340.91554 348.00367 352.44056 359.5287 363.52113 374.1728 378.60969 385.6978 393.68269 400.86906 406.18708 412.40187 416.3943 428.816 435.90415 442.11894 448.3337 455.42185 463.5664 470.65455 474.48728 486.909 493.99714 501.982 506.41889 510.85578 519.0003 526.98519 531.42208 539.4069 547.3918 551.3842 559.3691 567.35397 578.8868 582.8792 590.8641 597.9522 605.7774 613.76229 618.19918 625.5452 629.53768 637.5225 642.8406 647.15237 654.2405 662.22537 666.2178 671.5358 678.62399 682.9357 687.3726">The timeless application of Uncle Cleve&#x2019;s message mentioning how people often fall </tspan></text>
<text xml:space="preserve" transform="matrix(.75 0 0 .75 0 0)" font-size="15.9697" font-family="F1"><tspan y="756.64" x="144 151.98485 157.30289 164.391 172.21616 176.20859 180.6455 188.79004 192.78247 200.76732 208.75217 216.73702 224.72187 229.15877 236.24687 241.56491 245.39765 257.81938 262.4506 268.66539 275.7535 283.57868 291.56355 298.7499 306.09599 314.08085 318.51774 322.95463 330.93949 338.92436 345.13914 349.13157 356.2197 364.20457 372.18943 380.1743 384.61119 388.6036 395.69175 403.6766 408.1135 413.43153 420.2985 428.44306 433.76109 440.62806 448.7726 455.95899 463.94386 469.37355 475.58833 479.58076 486.66889 494.49406 502.6386 506.63105 518.1639 525.9891 533.0772 537.5141 541.50656 545.9434 550.3803 554.5324 558.9693 566.05746 574.0423 581.13046 587.1989 591.19137 595.62826 603.77279 607.7652 613.98 621.96487 629.15127 636.2394 643.1064 650.1945 658.1794 662.1718 667.60159 674.6897 681.77786 686.0896 690.5265 698.671">prey to popular misconceptions about entrepreneurs and what it takes to succeed really </tspan></text>
<text xml:space="preserve" transform="matrix(.75 0 0 .75 0 0)" font-size="15.9697" font-family="F1"><tspan y="775.04" x="144 149.31804 156.40615 162.47464 170.45949 178.44434 185.53246 189.96935 197.05745 203.27223 207.26467 218.79747 223.23436 227.67125 235.6561 239.64853 252.07028 259.15843 263.15086 267.14329 271.1357 280.89064 287.1054 295.09028 302.27665 309.36479 313.80168 320.8898 325.3267 329.76359 337.74845 341.74089 353.27369 357.71058 362.14747 370.13233 374.12477 378.56166 386.5465 393.63465 397.62709 403.84187 408.27876 416.2636 421.58164 429.5665 433.55894 437.99583 445.98069 453.96556 461.9504 466.3873 474.53187 478.96876 486.9536 494.93849 498.9309 509.58259 514.0195 518.45639 523.8861 528.323 536.30789 544.2927 549.6108 555.82559 559.818 566.0328 570.46969 575.7877 583.7726 591.75747 599.7423 604.1792 611.26736 617.3358 621.1686 632.8265 637.26339 641.70028 649.6851">resonates with me.  Especially with the story involving Clifton&#x2019;s struggles with </tspan></text>
<text xml:space="preserve" transform="matrix(.75 0 0 .75 0 0)" font-size="15.9697" font-family="F1"><tspan y="793.44" x="144 151.98485 159.9697 167.95455 172.39144 176.82833 183.2162 191.20105 195.63796 203.6228 211.60765 215.60009 223.58493 228.02184 234.23662 238.22905 244.44384 248.88072 256.86558 262.1836 266.62049 273.70863 279.9234 283.91584 295.44865 300.76667 304.9188 309.55003 313.9869 321.07505 328.9002 333.05235 337.48924 345.4741 349.46653 353.9034 361.88829 368.9764 372.96885 384.50166 388.81349 394.1315 399.44953 407.4344 412.7524 419.93879 427.02693 430.85966 434.85209 438.8445 453.04414 460.13227 468.27684 476.2617 480.25413 488.23899 493.557 497.54945 509.97117 517.956 521.9484 529.9333 535.25137 542.3395 550.1647 554.60159 562.7461 570.73098 576.94577 580.9382 588.92306 594.2411 602.22598 606.5377 613.7241 620.81228 625.124 631.5119 635.50436 647.0372 654.1253 659.44338 666.5315">publishing his stories written in the Airforce.  Many of my previous projects were </tspan></text>
<text xml:space="preserve" transform="matrix(.75 0 0 .75 0 0)" font-size="15.9697" font-family="F1"><tspan y="811.84" x="144 150.21479 154.65169 162.63654 169.72466 174.16155 178.59844 186.58329 193.6714 201.65625 205.64868 213.63353 220.72164 227.80974 234.6767 242.66155 249.04943 256.13755 260.12998 268.11485 273.43287 277.4253 281.86219 289.84706 296.93519 300.9276 305.55885 313.5437 321.52857 329.51344 341.93516 349.0233 354.13359 361.31996 369.3048 373.7417 380.82984 384.66258 390.87736 398.06373 402.5006 410.64518 417.7333 424.82145 432.6466 438.8614 442.85383 447.2907 455.43528 462.5234 466.9603 470.95274 476.27076 480.26319 491.796 498.88414 505.0989 509.09135 514.52108 521.6092 528.4762 532.9131 541.0576 549.0425 553.0349 560.12307 564.4348 568.42727 572.86416 581.00869 588.0968 591.92959 596.36648 600.9976 613.4194 620.5075 624.3403 628.6521 632.64456 637.7549 642.1918 646.1842 654.16909 658.60598 666.5908 674.5757 678.5681 686.553 691.87106">sidelined because of the innumerable setbacks that I was facing at the time.  It kind of </tspan></text>
<text xml:space="preserve" transform="matrix(.75 0 0 .75 0 0)" font-size="15.9697" font-family="F1"><tspan y="830.24" x="144 151.98485 156.42174 164.40659 171.4947 177.70949 181.70192 194.12368 201.21178 205.20421 212.29232 216.12505 224.26959 228.7065 233.14339 237.13582 245.12067 250.4387 254.43114 262.416 270.40086 278.3857 285.47386 289.30659 297.29145 305.436 313.42088 325.07875 329.51564 337.5005 345.48536 349.47779 353.91468 361.89955 368.98768 373.42457 377.417 381.85389 387.1719 391.16435 396.27464 400.26707 408.41163 415.49977 420.81779 426.88627 433.9744 442.11897 449.2071 454.52513 461.3921 465.54423 469.53666 475.75144 483.896 496.31773 503.40586 507.71769 515.8622 520.2991 528.28396 536.2688 540.2612 552.683 557.1199 565.10476 573.0896 577.5265 581.5189 588.7053 596.6902 609.11196 616.2001 620.03286 628.17739 636.16226 640.5991 644.59158 652.5764 657.8945 661.72726 666.3584 674.34329 681.4314">gives me a bit of hope knowing that if I persevere, something might come out of the </tspan></text>
<text xml:space="preserve" transform="matrix(.75 0 0 .75 0 0)" font-size="15.9697" font-family="F1"><tspan y="848.64" x="144 155.5328 163.51766 171.5025 175.9394 183.02751 187.01995 193.23473 197.67162 202.1085 210.09336 217.18148 221.61837 226.05525 234.0401 242.02495 246.01738">whole situation. </tspan></text>
<text xml:space="preserve" transform="matrix(.75 0 0 .75 0 0)" font-size="14.6921" font-family="F3"><tspan y="884.8" x="96"> </tspan></text>
</g>
</svg>
