<?xml version="1.0" encoding="UTF-8" standalone="no"?>
<!DOCTYPE svg PUBLIC "-//W3C//DTD SVG 1.1//EN" "http://www.w3.org/Graphics/SVG/1.1/DTD/svg11.dtd">
<svg xmlns="http://www.w3.org/2000/svg" xmlns:xlink="http://www.w3.org/1999/xlink" version="1.1" width="612pt" height="792pt" viewBox="0 0 612 792">
<g enable-background="new">
<text xml:space="preserve" transform="matrix(.75 0 0 .75 0 0)" font-size="15.9697" font-family="F1"><tspan y="110.88" x="96 107.53281 113.747577 119.96234 124.39924 132.3841 140.36894 152.7907 159.8788 167.86365 172.30055 176.73744 180.72988 191.58927 198.67739 203.78769 208.2246 215.41095 222.49907 226.81089 230.80332 238.78816 246.77301 250.76544 255.20235 263.3469 270.43504 274.26777 279.5858 287.57066 292.00755 296.44444 304.4293 315.9621 320.399 328.38386 336.3687 340.36116 348.346 356.33088 363.419 369.6338 374.07069 378.50758 386.65214 394.637 400.85179 405.28868">Assignment: Reflect on the following questions: </tspan></text>
<text xml:space="preserve" transform="matrix(.75 0 0 .75 0 0)" font-size="15.9697" font-family="F1"><tspan y="148" x="120 127.98485">1.</tspan></text>
<text xml:space="preserve" transform="matrix(.75 0 0 .75 0 0)" font-size="15.9697" font-family="F2"><tspan y="148" x="132"> </tspan></text>
<text xml:space="preserve" transform="matrix(.75 0 0 .75 0 0)" font-size="15.9697" font-family="F1"><tspan y="148" x="144 159.01152 166.99637 174.08449 178.52138 182.51381 190.49866 198.4835 205.57161 211.78639 215.77883 220.21572 228.20056 235.28868 239.28112 243.718 250.90436 256.22239 268.6441 272.63655 279.72468 287.54985 292.97953 300.1659 308.15077 316.13563 320.5725 328.55738 336.54225 343.63038 347.4631 360.07917 367.1673 374.03428 382.01914 386.01158 390.44847 398.59303 402.58546 410.5703 418.55519 426.54005 433.7264">What does the term &#x201c;branding&#x201d; mean to you? </tspan></text>
<text xml:space="preserve" transform="matrix(.75 0 0 .75 0 0)" font-size="15.9697" font-family="F1"><tspan y="166.4" x="144"> </tspan></text>
<text xml:space="preserve" transform="matrix(.75 0 0 .75 0 0)" font-size="15.9697" font-family="F1"><tspan y="184.8" x="144 159.01152 166.99637 174.08449 178.52138 182.51381 190.49866 195.8167 202.9048 210.72995 218.8745 223.31139 231.29624 239.28108 243.27352 255.69527 262.88163 269.96977 277.95463 284.1694 288.16184 292.59873 300.5836 304.57603 316.99775 324.08589 328.0783 332.5152 338.72999 342.7224 347.1593 355.14418 362.2323 366.22474 370.66163 383.08335 390.17149 398.15635 405.24449 409.2369 413.6738 421.65867 428.7468 433.05863 437.21076 441.64765 447.86244 451.85487 459.83973 466.92787 471.2397 479.38426 487.3691 491.36155 499.3464 507.33128 512.6493 516.96109 522.2791 529.36727 537.3521 544.44027 552.26547 556.2579 560.69479 568.8393 572.8317 577.2686 585.2535 592.3416 596.33407 607.8669 615.6921 621.01016 625.6413 633.62619 637.6186 641.611 645.60348 657.1363 661.1287 667.3435 671.7804 677.09848 685.0833 693.0682 701.05307">What branding means to me is the image that is being portrayed to the world.  A strong </tspan></text>
<text xml:space="preserve" transform="matrix(.75 0 0 .75 0 0)" font-size="15.9697" font-family="F1"><tspan y="203.2" x="144 155.5328 162.62093 166.93274 171.56397 176.882 184.70716 191.79528 199.78012 206.86824 211.30513 219.28998 227.27483 234.36293 242.18808 246.34021 254.48476 259.8028 266.66978 274.65464 282.6395 286.63194 298.2898 306.43437 314.41923 318.8561 326.84098 330.8334 337.92155 345.00968 349.3215 353.31394 360.40208 366.61686 370.60929 377.69743 381.53016 389.6747 396.86109 403.94923 410.8162 418.80107 426.78593 430.93806 438.02619 446.01106 453.9959 458.4328 466.41767 471.7357 475.72813 480.165 488.14988 494.36466 502.34953 506.7864 512.2161 519.30429 523.616 528.0529 536.0378 544.02267 548.0151 552.45199 560.5965 564.5889 569.0258 577.0107 584.99557 591.2103 598.29849 602.2909 613.8237 621.8086 629.79348 633.6262 640.0141 647.10226 653.96926 657.9617 662.39859 666.83547 670.98757 674.98 678.9724 690.50527">well-developed brand would act as a beacon and/or inspiration to those who see it.  A </tspan></text>
<text xml:space="preserve" transform="matrix(.75 0 0 .75 0 0)" font-size="15.9697" font-family="F1"><tspan y="221.6" x="144 150.21479 154.65169 159.96973 167.95458 175.93943 183.92427 187.9167 195.90155 203.8864 208.32329 212.31572 220.30057 228.28542 236.27027 241.5883 246.02519 254.01004 258.00248 265.98735 273.07548 281.06034 288.14848 292.4603 300.60487 308.58973 315.67787 323.50303 327.49546 335.48033 340.79835 347.88648 355.87135 363.8562 367.84864 379.38145 387.2066 395.35118 399.78807 407.77293 411.92506 419.01319 425.88017 430.51139 434.5038 441.59196 447.66044 451.65287 458.741 462.89314 468.21116 475.2993 483.12446 491.1093 495.5462 501.93409 506.37098 514.35586 521.444 525.27676 530.7065 535.1434 540.4614 547.54959 551.3823 555.8192 563.96377 571.0519 575.4888 579.4812 587.46609 592.7841 597.221 605.2059 612.294 618.5088 622.6609 630.64578 637.7339 645.71878 653.7036 658.1405 665.22866 669.0614 676.14956 687.80746 694.89559 702.88046">strong but poorly developed brand would act as a repulsive fire that drives people away </tspan></text>
<text xml:space="preserve" transform="matrix(.75 0 0 .75 0 0)" font-size="15.9697" font-family="F1"><tspan y="240" x="144 149.31804 154.63608 162.46123 175.0773 179.06974 183.50664 187.94353 194.15831 198.15074 204.36553 212.35037 220.33522 225.65326 232.74138 239.82949 243.66222 250.75032 256.9651 260.95753 265.3944 269.8313 273.82374 280.91188 285.34877 289.78565 297.7705 304.95689 310.38658 314.379 322.36387 330.34873 335.66676 343.4919 349.7067 353.69914 361.8437 367.1617 370.99446 378.9793 386.96418 391.40107 397.78895 405.7738 413.75868 419.97346 423.96589 428.40278 436.38764 443.47578 447.4682 451.9051 459.88996 467.07633 474.16447 478.4763 482.46873 489.6551 497.63996 505.62483 510.0617 515.37979 523.3646 531.3495 543.77127 550.8594 558.6846 563.12149 567.27359 571.266 575.2584 585.9101 591.22817 598.3163 606.1415 614.12637 618.56326 626.8675 634.85238 638.8448 645.9329 650.2447 656.4595 664.604 668.59646 676.5813 683.66946 689.7379 693.73037 700.8185">from its source as it either burns or poisons the local environment.  Branding also has a </tspan></text>
<text xml:space="preserve" transform="matrix(.75 0 0 .75 0 0)" font-size="15.9697" font-family="F1"><tspan y="258.4" x="144 155.5328 159.96971 167.95456 175.04268 180.36072 184.19345 189.51149 196.5996 204.58444 212.72899 219.8171 223.64983 231.79438 237.11241 240.94515 245.38204 253.52658 258.8446 263.15644 271.1413 278.22944 286.374 293.46214 300.55027 304.5427 311.63084 319.6157 332.0374 340.02229 347.1104 352.42845 359.51658 367.34175 371.33418 375.77107 383.75593 387.74836 394.8365 402.82136 406.81379 411.25068 419.23554 427.2204 431.6573 439.64216 444.07905 452.2236 460.20848 467.39485 471.83174 477.14976 483.36454 487.35697 495.34184 506.87464 514.8595 518.8519 526.8368 532.15487 539.02188 545.23666 552.42306 560.56759 567.6557 574.5227 578.51516 582.50759 586.65969 591.77 596.2069 600.359 608.50357 615.5917 621.66018 625.81228 630.24917 638.234 645.32217 649.1549 656.24307 664.2279 668.6648 673.1017 677.73287 682.16976 690.1546 694.14706 698.5839 706.5688">wider range of influence compared to an individual&#x2019;s own presence.  It has the ability to </tspan></text>
<text xml:space="preserve" transform="matrix(.75 0 0 .75 0 0)" font-size="15.9697" font-family="F1"><tspan y="276.8" x="144 148.4369 156.42176 161.73979 166.17668 174.16153 181.24965 189.2345 196.32262 203.18958 207.182 211.61891 219.76346 226.85158 230.68431 238.98856 246.07668 251.18698 258.37336 265.4615 273.44636 277.88325 282.32014 290.305 298.28987 304.50465 308.49708 312.93397 321.07853 328.16667 332.4785 336.47093 344.45579 351.5439 359.52879 367.51365 371.95054 379.03868 383.0311 391.01597 399.00083 403.4377 409.6525 414.0894 422.07426 429.16239 433.15483 441.13969 446.4577 450.45014 457.53828 465.52314 469.51557 473.95246 482.09703 490.08189 494.51878 502.50364 506.94053 514.92538 522.9102 529.99838 534.43527 539.7533 545.9681 549.9605 556.1753 563.2634 571.0886 579.23318 586.3213 590.15408 598.1389 603.457 607.4494 611.8863 619.87118 625.3009 629.7378 637.72268 644.8108 652.79568 659.8838 666.9719 670.8047 675.2416 683.3861">influence the perceptions that people outside of an individual&#x2019;s scope of influence in </tspan></text>
<text xml:space="preserve" transform="matrix(.75 0 0 .75 0 0)" font-size="15.9697" font-family="F1"><tspan y="295.2" x="144 151.98485 156.42174 161.73978 168.8279 175.916 180.22782 184.66472 192.80927 200.79412 207.0089 211.00133 218.98618 226.97103 231.40792 239.39276 243.3852 251.37004 259.3549 265.56968 270.00657 274.44346 278.88035 287.0249 294.11305 297.94578 305.0339 313.01878 321.00364 324.99607 332.98094 340.06907 348.05393 355.14207 359.4539 363.89079 372.03535 379.12348 383.1159">directions both positive and negative. </tspan></text>
<text xml:space="preserve" transform="matrix(.75 0 0 .75 0 0)" font-size="15.9697" font-family="F1"><tspan y="313.6" x="144"> </tspan></text>
<text xml:space="preserve" transform="matrix(.75 0 0 .75 0 0)" font-size="15.9697" font-family="F1"><tspan y="332" x="120 127.98485">2.</tspan></text>
<text xml:space="preserve" transform="matrix(.75 0 0 .75 0 0)" font-size="15.9697" font-family="F2"><tspan y="332" x="132"> </tspan></text>
<text xml:space="preserve" transform="matrix(.75 0 0 .75 0 0)" font-size="15.9697" font-family="F1"><tspan y="332" x="144 155.5328 163.51766 175.05046 179.0429 187.02774 195.01259 199.00502 206.98987 214.97472 222.95957 226.952 238.4848 245.35178 253.49633 257.9332 261.92564 266.36253 274.34739 278.3398 285.42796 293.4128 306.02888 318.4506 326.43547 334.42033 338.8572 345.94535 353.03349 357.3453 364.53169 368.5241 376.50898 384.49385 392.4787 397.79673 401.62947 409.61433 416.8007 422.1187 428.3335 436.31837 444.30323 451.39137 455.82826 459.82069 467.96525 473.28327 480.3714 488.19657 496.34114 500.33357 504.77046 512.7553 516.74777 524.7326 532.71749 540.70236 546.0204 550.0128 557.9977 565.1841 572.2722 577.38259 583.59738 587.5898 591.5822 598.7686 605.955 613.04318 620.86837 628.05477 640.4765 645.10769 652.1958 656.02859 663.1167 671.10159 679.0864 683.5233 689.7381 696.82626 702.1443 708.3591 712.3515">How do you want to communicate your personal brand to your peers, academic advisers, </tspan></text>
<text xml:space="preserve" transform="matrix(.75 0 0 .75 0 0)" font-size="15.9697" font-family="F1"><tspan y="350.4" x="144 156.42176 163.50988 171.49472 175.93163 183.91648 189.23451 195.4493 199.44173 206.52983 214.51468 222.49953 226.33226 233.51862 241.50347 245.94036 250.37725 257.46537 264.5535 272.37867 280.52323 287.7096 293.92439 301.11076">mentors and colleagues? </tspan></text>
<text xml:space="preserve" transform="matrix(.75 0 0 .75 0 0)" font-size="15.9697" font-family="F1"><tspan y="368.8" x="144"> </tspan></text>
<text xml:space="preserve" transform="matrix(.75 0 0 .75 0 0)" font-size="15.9697" font-family="F1"><tspan y="387.2" x="144 155.5328 163.51766 175.05046 179.20259 184.3129 188.30533 192.74224 200.72708 205.16399 212.25209 220.23694 228.22179 232.21422 236.65111 244.63596 248.62839 255.7165 263.70137 268.13825 272.57514 280.56 285.87803 292.96617 296.9586 309.3803 317.52488 321.5173 329.50218 336.5903 341.7006 347.91539 355.90025 363.8851 370.97325 375.41014 379.40257 387.38743 392.70545 399.79359 407.77845 415.7633 419.75575 424.19264 430.4074 434.39985 438.83674 446.8216 450.81404 458.9586 466.04673 470.03916 474.47605 482.4609 489.54905 493.98594 497.97837 505.96324 511.28126 515.2737 522.3618 526.1946 530.6315 537.8179 545.0043 557.426 561.41848 569.4033 577.3882 581.8251 586.26199 594.2468 601.33499 606.653 610.64547 614.6379 621.8243 629.80917 634.24606 638.6829 645.77108 653.7559 661.7408 667.05886 673.92587 678.36276 686.50729 691.8253 695.6581">How I intend to culture my personal brand is to be that of a team builder, collaborator, </tspan></text>
<text xml:space="preserve" transform="matrix(.75 0 0 .75 0 0)" font-size="15.9697" font-family="F1"><tspan y="405.6" x="144 150.21479 154.65169 159.96973 167.05785 171.49474 178.58284 186.56769 190.87952 197.2674 201.7043 205.69673 209.68917 216.77727 224.60242 232.74697 236.7394 243.8275 249.14554 256.23368 263.3218 267.63365 272.07054 280.2151 287.30323 291.13597 297.35075 305.4953 309.9322 315.36189 319.79878 324.23567 328.2281 332.22053 336.21296 347.74577 352.18266 356.61955 364.6044 372.58927 380.57414 388.559 396.54386 400.5363 404.97319 413.11775 420.20588 426.27436 433.3625 437.35493 441.7918 447.10984 454.19798 458.5098 463.14103 469.3558 473.34825 481.3331 489.31797 497.30284 502.62086 506.93269 510.9251 518.01327 525.9981 538.41989 546.4047 550.8416 557.92977 562.36666 569.4548 573.89169 581.8765 585.86898 592.9571 597.394 601.8309 609.81576 617.8006 621.793 633.32589 637.76278 642.19967 650.1845 654.17697 666.5987 674.7432">strategist, and creative spirit.  Although these traits don&#x2019;t completely align with my </tspan></text>
<text xml:space="preserve" transform="matrix(.75 0 0 .75 0 0)" font-size="15.9697" font-family="F1"><tspan y="424" x="144 151.98485 159.07295 167.0578 172.37584 179.2428 186.33092 190.32335 198.4679 203.78594 211.77079 219.75563 225.07367 232.16179 244.45847 248.4509 252.60303 257.92106 261.91349 267.2315 271.6684 279.65327 287.63813 291.63056 296.06745 304.0523 311.14045 323.56217 327.5546 335.53947 342.6276 349.71574 356.5827 362.7975 369.18537 376.37174 381.68977 389.51493 393.50736 397.94425 406.0888 410.08125 418.0661 423.38414 431.2093 438.55537 443.87339 447.70613 452.143 460.28758 464.28 472.26487 477.5829 484.44987 492.43473 499.52287 504.95256 512.04067 516.0331 523.1212 530.9464 535.0985 542.18667 550.1715 558.1564 562.59329 567.9113 575.8962 583.88107 596.3028 603.3909 611.3758 615.8127 619.8051 624.242 632.22689 639.315 643.7519 647.7443 652.1812 658.396">degree program, I find them necessary in order to prepare an environment that is </tspan></text>
<text xml:space="preserve" transform="matrix(.75 0 0 .75 0 0)" font-size="15.9697" font-family="F1"><tspan y="442.24" x="144 151.08812 159.07297 167.05782 175.04267 183.02751 190.11562 194.42743 202.41228 209.50038 213.49282 217.9297 225.91455 229.90699 241.43979 249.42464 256.51277 261.14399 268.23213 276.05729 283.14543 288.46345 292.45588 300.60044 306.03013 314.01499 318.45188 325.54 332.62815 336.93998 340.9324 345.3693 353.51387 360.602 364.91383 369.06596 374.17625 378.16868 384.38346 391.56983 398.65797 406.48313 410.47557 414.91246 423.057 427.04945 435.0343 443.01918 451.16374 458.25187 463.36216 467.99339 475.0815 483.06639 490.1545 494.30665">conducive to whatever project that I seek to undertake. </tspan></text>
<text xml:space="preserve" transform="matrix(.75 0 0 .75 0 0)" font-size="15.9697" font-family="F1"><tspan y="460.64" x="144"> </tspan></text>
<text xml:space="preserve" transform="matrix(.75 0 0 .75 0 0)" font-size="15.9697" font-family="F1"><tspan y="479.04" x="120 127.98485">3.</tspan></text>
<text xml:space="preserve" transform="matrix(.75 0 0 .75 0 0)" font-size="15.9697" font-family="F2"><tspan y="479.04" x="132"> </tspan></text>
<text xml:space="preserve" transform="matrix(.75 0 0 .75 0 0)" font-size="15.9697" font-family="F1"><tspan y="479.04" x="144 155.5328 163.51766 175.05046 179.0429 186.131 192.99796 200.9828 204.97524 209.41213 217.55667 224.64479 228.63722 235.72533 243.71018 251.69503 258.88139 265.9695 273.95439 278.39128 282.3837 290.36857 295.68659 299.67903 307.82359 313.1416 320.00859 327.99345 335.9783 340.4152 348.55976 356.54463 360.53706 368.5219 375.61006 379.92189 387.90675 391.89918 399.88404 407.8689 415.85377 419.8462 426.93434 434.1207 441.20884 449.1937 461.80976 469.79463 474.2315 478.6684 484.88319 492.86805 496.86048 504.84535 512.8302 520.81509 526.1331 530.12557 538.1104 545.19857 550.5166 556.5851 564.56997 572.5548 579.64297 584.07986 588.07229 592.0647 599.15286 606.33926 613.42739 621.5719 628.66006 640.95669 645.39358 652.57998 656.5724 663.6605 671.4857 679.4706">How can the concept of branding help you accomplish your personal, academic and </tspan></text>
<text xml:space="preserve" transform="matrix(.75 0 0 .75 0 0)" font-size="15.9697" font-family="F1"><tspan y="497.44" x="144 151.98485 157.30289 165.28774 170.60578 177.47275 183.86063 190.07541 194.51232 202.49716 210.48201 217.57012 222.007 225.99944 233.98429 241.96913 249.05724 253.36905 259.58384 266.9299">professional goals? </tspan></text>
<text xml:space="preserve" transform="matrix(.75 0 0 .75 0 0)" font-size="15.9697" font-family="F1"><tspan y="515.84" x="144"> </tspan></text>
<text xml:space="preserve" transform="matrix(.75 0 0 .75 0 0)" font-size="15.9697" font-family="F1"><tspan y="534.24" x="144 155.5328 163.51766 175.05046 179.0429 183.47978 191.46463 198.55275 202.38549 209.57184 217.55669 225.54154 232.7279 239.81603 247.64118 252.07808 256.2302 264.21507 269.53309 273.3658 281.35069 286.78038 293.8685 302.01307 309.99794 314.4348 322.41969 330.40455 334.39698 341.4851 348.57325 356.5581 360.55055 368.5354 375.62355 379.93537 387.92024 391.91267 404.33439 411.52076 415.51319 419.95008 426.16487 430.1573 434.59419 442.57905 449.66719 454.10408 458.0965 462.5334 466.97029 470.9627 478.05085 485.13899 493.12385 497.11628 504.2044 511.07139 515.5083 519.8201 526.90829 532.97677 536.9692 544.0573 548.04977 560.4715 567.55966 575.5445 583.52938 590.6175 594.92929 599.36618 606.55258 610.70468 616.0227 624.00759 629.3256 636.41378 643.5019 647.33468 655.3195 660.6376 665.07449 673.0593 681.0442 685.4811 693.6256 701.6105">How the concept of branding can help me is that it can act as a magnetic force bringing </tspan></text>
<text xml:space="preserve" transform="matrix(.75 0 0 .75 0 0)" font-size="15.9697" font-family="F1"><tspan y="552.64" x="144 151.98485 159.07295 167.0578 175.04265 179.47954 186.56764 190.40038 195.03159 203.01644 207.00887 214.09697 217.9297 225.91455 233.00267 238.32071 242.75762 247.1945 254.28261 262.26747 266.89869 273.98683 279.0971 283.08955 290.2759 297.36405 305.5086 311.7234 318.81153 322.80397 330.78883 336.10685 340.09928 348.08415 353.40217 361.22734 369.2122 377.19706 384.2852 388.72209 392.7145 396.70695 400.85908 415.87059 420.30747 424.9387 432.92356 436.916 444.00413 451.82929 459.81416 467.799 475.78388 483.76875 487.76118 493.0792 501.06407 506.38209 513.4702 519.5387 523.9756 532.1201 540.105 544.5419 548.5343 552.52676 559.61489 563.6073 571.59219 576.9102 584.7354 592.87997 600.06637 605.3844 609.69619 617.681 621.67349 629.818 637.80288 642.23977 646.8709 651.3078 655.30026 663.2851 670.3732 675.6913 681.75979 689.7446 697.7295 704.8176 709.2545">people to a particular cause or product.  With enough foresight, a properly built personal </tspan></text>
<text xml:space="preserve" transform="matrix(.75 0 0 .75 0 0)" font-size="15.9697" font-family="F1"><tspan y="571.04" x="144 151.98485 157.30289 164.391 172.21616 180.3607 184.35314 191.44124 198.3082 206.29305 210.28548 218.27033 226.25518 230.69207 235.12895 243.2735 247.26593 254.35405 262.1792 266.6161 271.2473 276.677 283.76515 287.59788 295.74244 302.83058 307.26747 318.92533 326.9102 332.2282 340.05339 346.26817 350.2606 358.24546 363.56349 367.5559 375.54078 382.6289 390.61378 398.59864 403.03553 410.12367 414.1161 422.26066 429.3488 436.43693 443.52507 449.73985 455.95463 463.04277 468.36079 476.34565 480.33808 484.77497 492.75984 496.75227 504.73713 512.722 517.1589 521.59579 529.7403 533.7327 541.7176 547.03567 553.90267 561.08908 565.52597 569.5184 573.95529 581.9401 586.377 594.3619 602.34677 608.5615 612.55398">brand can build entire networks of people necessary to build great things. </tspan></text>
<text xml:space="preserve" transform="matrix(.75 0 0 .75 0 0)" font-size="15.9697" font-family="F1"><tspan y="589.44" x="144"> </tspan></text>
<text xml:space="preserve" transform="matrix(.75 0 0 .75 0 0)" font-size="15.9697" font-family="F1"><tspan y="607.84" x="120 127.98485">4.</tspan></text>
<text xml:space="preserve" transform="matrix(.75 0 0 .75 0 0)" font-size="15.9697" font-family="F2"><tspan y="607.84" x="132"> </tspan></text>
<text xml:space="preserve" transform="matrix(.75 0 0 .75 0 0)" font-size="15.9697" font-family="F1"><tspan y="607.84" x="144 159.01152 166.99637 174.08449 178.52138 182.51381 188.72859 193.16548 200.25359 208.23844 216.22328 222.43807 226.4305 234.41535 242.40019 246.83708 250.82952 255.2664 263.41096 267.40339 275.38825 283.3731 291.35798 295.3504 299.34284 304.66087 311.52784 318.61598 323.05287 329.26765 333.26008 341.24494 348.33308 359.86589 363.8583 368.2952 376.28007 380.2725 388.25736 396.24223 404.22709 408.2195 412.21195 419.30009 427.44465 434.53279 438.8446 443.2815 450.46788 456.68266 460.83479 468.81965 476.8045 484.78938 488.7818 492.77424 500.7591 506.07713 509.90986 516.998 524.98287 532.071 536.5079 540.94479 548.0329 556.01779 564.0026 571.09078 577.15927 581.1517 589.13656 597.1214 605.10629 609.25839 614.5764 620.00619 627.991 640.4128 644.4052 648.8421 656.98666 661.4235 667.6383 671.63076 676.0676 683.15579 689.37057 695.5853 703.5702 711.55508 718.6432">What stands out to you, feels new to you, excites you, or challenges you from this lesson? </tspan></text>
<text xml:space="preserve" transform="matrix(.75 0 0 .75 0 0)" font-size="15.9697" font-family="F1"><tspan y="626.24" x="144"> </tspan></text>
<text xml:space="preserve" transform="matrix(.75 0 0 .75 0 0)" font-size="15.9697" font-family="F1"><tspan y="644.64" x="144 159.01152 166.99637 174.08449 178.52138 182.51381 188.72859 193.16548 200.25359 208.23844 216.22328 222.43807 226.4305 234.41535 242.40019 246.83708 250.82952 255.2664 263.41096 267.40339 279.8251 286.91325 290.74598 294.7384 302.88298 310.86784 315.30473 319.29716 327.282 335.26689 342.355 348.4235 356.56806 361.88609 366.1979 370.19035 376.40513 384.38999 389.708 397.69288 403.0109 407.44779 413.66258 420.7507 424.74314 437.16487 444.253 448.24543 452.6823 458.8971 463.04924 467.4861 475.47099 482.5591 486.55155 493.63969 505.93635 514.0809 522.06576 529.1539 535.22238 539.65927 546.0471 550.03958 558.0244 566.0093 570.0017 575.31979 582.18679 586.62368 591.2548 598.34298 606.16818 610.60507 615.2362 619.6731 624.11 632.09487 636.0873 640.0797 644.07217 649.1825 653.6194 657.6118 663.04159 670.1297 682.55148 686.98837 694.9732 702.95809 709.17288">What stands out to me, but doesn&#x2019;t surprise me is the emphasis on reliability.  It reminds </tspan></text>
<text xml:space="preserve" transform="matrix(.75 0 0 .75 0 0)" font-size="15.9697" font-family="F1"><tspan y="663.04" x="144 156.42176 163.50988 167.5023 175.48715 180.80519 184.79763 192.78247 200.76732 207.85543 211.68816 219.673 224.99105 228.98348 233.42037 241.40522 248.49333 252.48577 264.9075 272.89237 278.32206 285.4102 289.40263 293.8395 306.26124 314.2461 322.23097 327.54899 331.98588 339.074 347.05888 351.49577 355.4882 359.92509 367.0132 373.228 379.44279 387.42765 395.4125 401.6273 405.61973 413.60459 418.9226 422.91505 430.00318 437.82835 450.25007 462.86613 467.303 471.7399 484.16163 491.24977 499.23463 503.6715 509.8863 513.8787 518.3156 526.46017 533.5483 537.86007 541.8525 546.9628 550.95529 555.39218 562.7382 569.82638 574.9367 582.9216 590.0097 597.99459 602.14669 607.4647 612.7828 620.76766 633.1894 637.3415 649.76327 657.7481 661.74057 674.1623 681.2504 689.2353 693.6722 701.65707 706.9751 713.1899">me of one of the more important lessons of commitments that I learned from my mentors </tspan></text>
<text xml:space="preserve" transform="matrix(.75 0 0 .75 0 0)" font-size="15.9697" font-family="F1"><tspan y="681.44" x="144 151.08812 155.52501 159.51744 164.62775 172.6126 177.2438 184.33193 188.76882 192.76125 196.75368 200.74611 212.27892 224.70067 228.8528 233.9631 237.95554 245.94039 253.92523 261.9101 275.21299 279.2054 284.6351 291.72325 296.03507 300.47196 307.65834 315.6432 320.08009 327.1682 331.00096 338.18733 346.17219 351.60188 356.9199 363.78688 371.93144 376.36833 380.8052 388.79008 392.7825 396.77494 404.7598 412.74467 418.06269 426.04756 431.36558 435.6774 443.82197 451.80683 458.89497 463.33186 470.41999 474.85688 482.84175 486.83418 494.81904 502.8039 506.79634 510.78877 514.7812 519.89157 524.04367 532.0285 539.11666 547.1015 554.18966 558.18209 566.3266 571.64468 579.46987 591.12777 599.1126 603.10507 607.54196 615.5268 623.6713 627.66378 632.10067 640.0855 648.0704 654.28518 661.3733 665.3657 676.89859 681.33547 685.77236 693.7572 697.74966 710.1714 718.15628">at Intel.  Am I 100% reliable currently, unfortunately no.  I have grown too loose with my </tspan></text>
<text xml:space="preserve" transform="matrix(.75 0 0 .75 0 0)" font-size="15.9697" font-family="F1"><tspan y="699.84" x="144 148.4369 152.8738 165.48987 172.57799 176.8898 183.97792 191.96277 196.39968 203.48778 209.70256 213.69499 220.7831 226.8516 234.99614 242.08425 248.9512 253.3881 260.57447 265.01136 269.44825 277.4331 281.42555 292.95835 297.39524 302.02647 310.01133 314.00376 318.44065 326.4255 333.51365 337.50608 349.9278 357.91267 363.23069 371.21556 375.65245 383.6373 391.62217 397.83695 401.82939 413.36219 421.34706 425.78395 432.87208 440.85694 444.84938 449.28627 455.50105 459.49348 465.70826 473.6931 486.11485 493.20298 497.63987 505.62474 510.0616 518.04647 526.0313 530.02377 535.1341 539.1265 546.4726 553.5607 561.3859 566.704 571.14089 575.1333 582.22146 590.36599 597.4541 605.43899 611.65377 618.7419 622.7343 635.15609 643.1409 649.3557 656.5421 660.979 666.29708 670.2895 677.3776 685.2028 693.1877 701.17257 705.60946 709.60189 713.5943">timetables especially with the mornings which is something I can&#x2019;t excuse myself about.  </tspan></text>
<text xml:space="preserve" transform="matrix(.75 0 0 .75 0 0)" font-size="15.9697" font-family="F1"><tspan y="718.24" x="144 152.88158 160.86643 164.85886 169.96916 175.39887 187.82062 191.81305 196.24996 203.33806 211.3229 215.75981 223.74466 231.7295 235.72194 240.15883 248.14368 252.58058 258.79536 262.78779 267.22468 274.41105 280.62583 286.8406 294.82548 302.81034 306.96247 314.0506 320.26539 324.2578 336.67955 344.6644 349.98243 357.07057 360.9033 368.88816 374.20619 378.1986 385.28675 389.27919 396.3673 404.35218 411.4403 415.8772 420.3141 427.40223 435.3871 443.53166 450.61979 454.4525 458.8894 467.03398 471.0264 475.4633 483.44816 491.433 499.41789 503.4103 508.72834 516.7132 522.03128 525.864 537.5219 544.61007 552.43527 558.65 562.64248 574.1753 582.3198 589.40798 594.726 601.81417 605.8066 611.12466 615.11709 622.2052 629.3916 637.37649 641.3689 646.68698 654.51217 658.94906 663.5802 671.56509 683.0979 686.93069 695.0752 703.06008">So I&#x2019;m taking this lesson as more of a challenge to look for ways where I can follow up </tspan></text>
<text xml:space="preserve" transform="matrix(.75 0 0 .75 0 0)" font-size="15.9697" font-family="F1"><tspan y="736.64" x="144 151.98485 159.9697 163.96213 176.38388 184.36873 188.36116 195.44927 203.43412 215.85587 228.27762 232.71453 237.34574 249.76749 256.85563 264.6808 269.312 275.5268 279.51924 286.60737 294.43254 302.4174 306.40983 314.39469 322.37956 326.81645 334.0028 341.98768 346.42457 350.86146 357.9496 362.38648 366.82337 374.80824 378.80067 386.78553 394.7704 401.85853 407.17655 412.28684 420.4314 427.51954 431.83137 436.26826 444.4128 451.50096 456.61125 460.60368 468.74824 476.7331 480.72554 485.1624 493.30699 500.3951 512.6918 516.6842 521.1211 529.2656 533.25808 541.2429 546.561 554.38619 561.5726 566.8906 570.7234 575.1603 583.3048 587.29727 592.6153 599.4823 607.62686 615.6117 620.0486 624.67977 632.6646 636.65707 641.09396 649.0788 656.16696 660.6038">on my commitments and potentially over-deliver on them in order to rebuild that </tspan></text>
<text xml:space="preserve" transform="matrix(.75 0 0 .75 0 0)" font-size="15.9697" font-family="F1"><tspan y="755.04" x="144 149.31804 156.40615 164.2313 172.37584 176.81273 183.90084 188.21265 192.64955 200.7941 208.77895 212.77138 220.75623 226.07427 229.907 234.34389 238.9751 251.39685 258.485 262.47743 266.9143 274.89918 281.9873 286.29914 290.45127 295.7693 299.76173 307.74659 314.83473 322.81959 329.9077 333.74046 339.17015 347.155 352.47303 356.30577 368.72749 376.87205 383.08683 390.17497 394.61186 400.04154 404.03398 408.0264 412.17854">reputation of time that I have for myself.   </tspan></text>
<text xml:space="preserve" transform="matrix(.75 0 0 .75 0 0)" font-size="15.9697" font-family="F1"><tspan y="773.44" x="144"> </tspan></text>
<text xml:space="preserve" transform="matrix(.75 0 0 .75 0 0)" font-size="14.6921" font-family="F3"><tspan y="809.6" x="96"> </tspan></text>
</g>
</svg>
