<?xml version="1.0" encoding="UTF-8" standalone="no"?>
<!DOCTYPE svg PUBLIC "-//W3C//DTD SVG 1.1//EN" "http://www.w3.org/Graphics/SVG/1.1/DTD/svg11.dtd">
<svg xmlns="http://www.w3.org/2000/svg" xmlns:xlink="http://www.w3.org/1999/xlink" version="1.1" width="612pt" height="792pt" viewBox="0 0 612 792">
<g enable-background="new">
<text xml:space="preserve" transform="matrix(.75 0 0 .75 0 0)" font-size="15.9697" font-family="F1"><tspan y="110.88" x="96 107.53281 113.747577 119.96234 124.39924 132.3841 140.36894 152.7907 159.8788 167.86365 172.30055 176.73744 180.72988 191.58927 198.67739 203.78769 208.2246 215.41095 222.49907 226.81089 230.80332 238.78816 246.77301 250.76544 255.20235 263.3469 270.43504 274.26777 279.5858 287.57066 292.00755 296.44444 304.4293 315.9621 320.399 328.38386 336.3687 340.36116 348.346 356.33088 363.419 369.6338 374.07069 378.50758 386.65214 394.637 400.85179 405.28868">Assignment: Reflect on the following questions: </tspan></text>
<text xml:space="preserve" transform="matrix(.75 0 0 .75 0 0)" font-size="15.9697" font-family="F1"><tspan y="129.28" x="120 127.98485">1.</tspan></text>
<text xml:space="preserve" transform="matrix(.75 0 0 .75 0 0)" font-size="15.9697" font-family="F2"><tspan y="129.28" x="132"> </tspan></text>
<text xml:space="preserve" transform="matrix(.75 0 0 .75 0 0)" font-size="15.9697" font-family="F1"><tspan y="129.28" x="144 149.1103 155.32509 159.31752 163.75441 171.73926 178.82738 182.9795 190.06761 198.05246 202.48937 206.92626 211.36315 215.80004 223.94458 227.93701 232.37392 240.35877 244.3512 251.43932 256.54963 263.736 270.82414 275.13597 282.2241 286.37623 297.90904 305.0954 312.18354 316.49537 321.1266 329.11146 333.10389 337.54078 349.9625 357.94737 365.93223 371.25025 375.68714 382.77528 390.76014 395.19703 399.18946 403.62635 411.6112 415.60365 423.5885 431.57337 439.55824 446.64637 450.6388 465.6503 473.63517 481.62004 485.61247 493.59733 498.91535 502.74809 514.40597 522.3908 530.3757 534.3681 542.35299 550.3378 554.7747 561.9611">Is the ability to create wealth important to you? Why or why not? </tspan></text>
<text xml:space="preserve" transform="matrix(.75 0 0 .75 0 0)" font-size="15.9697" font-family="F1"><tspan y="147.68" x="144"> </tspan></text>
<text xml:space="preserve" transform="matrix(.75 0 0 .75 0 0)" font-size="15.9697" font-family="F1"><tspan y="166.08" x="144 154.65166 162.6365 166.62894 171.06584 179.21039 186.29851 190.13124 198.11609 203.43413 211.41898 219.40383 227.38867 231.3811 239.36595 244.68399 248.67642 256.6613 263.74943 268.8597 275.0745 283.21907 291.36363 298.45176 302.76359 306.756 311.1929 319.33747 327.32234 334.41047 342.23564 349.32377 357.30863 365.2935 372.38163 380.3665 387.55287 394.641 398.47373 405.56187 413.54673 421.5316 425.52403 433.66859 440.7567 446.07475 452.14323 460.12809 468.27265 475.459 479.8959 483.88835 489.20637 493.64326 500.73139 508.55656 512.99349 521.138 525.5749 530.0118 534.44869 538.88558 547.0301 551.0225 559.0074 566.0955 570.4073 578.39218 586.377 590.36947 594.80636 607.42239 615.4072 623.3921 628.71017 633.0219 640.2083 648.1932 652.63009 656.6225 660.6149 665.933 671.25106 679.07626 683.06869 689.28347 696.3716 704.35647">By the proxy of personal independence and personal flexibility being important, I&#x2019;d say </tspan></text>
<text xml:space="preserve" transform="matrix(.75 0 0 .75 0 0)" font-size="15.9697" font-family="F1"><tspan y="184.48" x="144 148.4369 156.42176 163.50988 167.94676 171.9392 176.37609 184.36093 191.44905 195.44149 202.52959 210.51444 214.95134 219.38823 223.82512 228.26201 236.24686 240.23929 244.6762 252.82074 256.81318 263.9013 269.0116 276.09974 283.18788 287.62477 294.7129 298.70533 310.3632 317.45133 324.3183 328.7552 333.3864 341.37129 345.3637 349.8006 356.01539 360.0078 364.4447 376.86643 389.28816 396.47453 404.45939 410.67417 417.7623 422.07414 430.059 434.05143 438.4883 451.10438 459.08924 467.0741 472.39213 476.70396 483.89033 491.87519 496.31208 500.3045 504.29695 508.28938 523.3009 530.38906 537.4772 541.78897 546.2258 554.2107 558.2031 562.64 570.78457 574.777 587.1987 594.28689 598.2793 602.7162 608.93099 612.9234 620.1098 624.10226 628.5391 636.524 644.50888 648.94577 652.9382 657.37509 665.5196 669.512 676.60018 683.46719 691.452 695.8889 703.0753 711.0602 718.1483">that the ability to create wealth is immensely important.  Wealth to me is a tool to achieve </tspan></text>
<text xml:space="preserve" transform="matrix(.75 0 0 .75 0 0)" font-size="15.9697" font-family="F1"><tspan y="202.88" x="144 151.08812 159.07297 163.0654 170.15352 177.97867 185.96352 189.95595 197.9408 205.92565 210.36254 217.54889 225.53374 237.95549 245.0436 249.03603 257.02088 262.3389 266.33134 273.41947 281.40434 288.49247 292.8043 300.94886 305.10099 313.08586 318.40388 322.2366 330.22148 338.20634 342.64323 349.8296 357.81446 370.23619 377.3243 383.5391 387.53153 391.52397 395.5164 405.2713 413.25617 420.3443 424.17704 436.59877 444.58363 450.0133 457.10145 461.25358 472.78639 479.8745 486.96266 491.27449 495.71138 503.69624 507.84837 512.9587 517.1108 524.2972 531.3853 539.2105 543.20297 551.1878 558.27597 566.2608 573.4472 578.76528 585.8534 590.16519 597.2533 601.4054 606.72348 613.8116 619.88009 624.5112 631.69766 637.0157 640.84848 644.8409 649.2778 657.4223 664.51046 668.3432 673.77297 680.8611 687.07589 691.51278 698.6009 703.91897 708.07107 713.1814">an end outcome or chain of outcomes.  The more wealth I can generate faster, the faster I </tspan></text>
<text xml:space="preserve" transform="matrix(.75 0 0 .75 0 0)" font-size="15.9697" font-family="F1"><tspan y="221.28" x="144 151.08812 158.17623 166.00138 169.9938 182.41556 189.60193 197.58678 204.67488 208.50762 212.9445 221.08905 229.0739 235.28868 242.37679 246.20952 254.35407 261.54045 268.62858 272.9404 279.15519 283.59208 291.73664 299.7215 306.10939 310.1018 317.18995 325.0151 332.99998 336.9924 343.20719 347.8384 354.92655 362.7517 368.9665 372.95893 377.3958 385.54039 392.6285 396.94035 400.93278 408.91764 416.9025 421.3394 429.48396 433.47639 440.5645 448.38969 456.37455 461.69258 468.87895 475.09373 481.3085 485.30094 489.73783 497.8824 504.97053 508.80326 516.7881 522.10617 529.1943 535.40908 542.4972 550.3224 554.7593 558.9114 565.9995 572.068 576.0604 587.7183 594.9047 599.3416 603.7785 607.77096 614.8591 621.07388 625.22598 633.2108 638.5289 645.3959 653.5404 660.62857 665.9466 673.0347 677.02719 682.3452 690.1704 695.48849 699.4809 703.9178 712.0623 719.15048">can make those decisions and steps that both address the present as well as prepare for the </tspan></text>
<text xml:space="preserve" transform="matrix(.75 0 0 .75 0 0)" font-size="15.9697" font-family="F1"><tspan y="239.68" x="144 149.31804 157.30289 161.73979 169.72464 175.04268 182.13079 185.96352 189.95595 193.94838 198.10051">future.    </tspan></text>
<text xml:space="preserve" transform="matrix(.75 0 0 .75 0 0)" font-size="15.9697" font-family="F1"><tspan y="258.08" x="144"> </tspan></text>
<text xml:space="preserve" transform="matrix(.75 0 0 .75 0 0)" font-size="15.9697" font-family="F1"><tspan y="276.48" x="120 127.98485">2.</tspan></text>
<text xml:space="preserve" transform="matrix(.75 0 0 .75 0 0)" font-size="15.9697" font-family="F2"><tspan y="276.48" x="132"> </tspan></text>
<text xml:space="preserve" transform="matrix(.75 0 0 .75 0 0)" font-size="15.9697" font-family="F1"><tspan y="276.48" x="144 155.5328 163.51766 175.05046 179.0429 187.02774 195.01259 199.00502 206.98987 214.97472 222.95957 228.2776 232.11034 240.09519 247.1833 251.6202 256.05708 263.1452 268.46324 274.678 278.83015 285.91828 291.02857 296.61796 303.80433 310.89247 315.20429 319.19673 327.18159 335.16645 343.1513 348.46934 352.46177 359.5499 367.53477 371.97166 376.40855 380.84544 385.28233 393.42689 397.4193 404.50746 409.61775 416.8041 423.89225 428.32914 435.41728 439.4097 450.9425 458.12889 465.31526 469.75215 474.18904 482.1739 489.26203">How do your beliefs affect your ability create wealth? </tspan></text>
<text xml:space="preserve" transform="matrix(.75 0 0 .75 0 0)" font-size="15.9697" font-family="F1"><tspan y="294.88" x="144"> </tspan></text>
<text xml:space="preserve" transform="matrix(.75 0 0 .75 0 0)" font-size="15.9697" font-family="F1"><tspan y="313.28" x="144 154.65166 162.6365 167.95455 173.27259 180.3607 188.18585 192.62276 197.25397 205.23882 209.23125 213.22368 225.64543 233.63028 237.62271 245.60756 252.69567 258.0137 264.08219 272.06706 280.0519 287.14006 291.57695 295.56938 303.71394 310.80207 315.23896 319.67585 326.76399 332.082 338.29679 342.2892 349.37736 354.69538 361.7835 365.77595 370.21284 378.1977 382.19013 389.27827 393.111 401.25556 405.69245 410.12934 414.12178 422.10664 427.42466 431.41709 438.50523 442.33796 447.65599 452.09288 460.23744 468.2223 472.21473 480.1996 488.18446 495.27259 499.265 503.7019 511.68678 515.6792 520.1161 528.2606 535.34878 539.1815 546.26968 554.2545 566.6763 574.66116 581.74929 586.18618 590.62307 598.6079 606.5928 610.5852 618.72976 625.8179 630.25479 638.2396 643.5577 650.6458 654.4786 662.46347 667.7815 671.7739 676.2108 684.1957 691.2838 703.70559 707.698 711.6904">Currently, my personal beliefs are in a bit of a flux due to the competing nature of them.  </tspan></text>
<text xml:space="preserve" transform="matrix(.75 0 0 .75 0 0)" font-size="15.9697" font-family="F1"><tspan y="331.68" x="144 153.75493 161.73978 168.8279 174.14594 181.01291 185.00534 189.44225 195.83013 199.82256 207.8074 215.79225 222.88036 226.71309 232.92787 237.36476 245.50931 252.59743 256.43016 260.86705 269.1713 276.25944 280.57127 284.5637 290.77848 297.8666 305.05299 313.03785 319.25263 323.24507 327.68196 335.6668 339.65925 347.6441 354.73225 358.72468 365.8128 373.79768 381.78254 387.10057 393.96754 400.1823 406.5702 411.00709 418.99195 426.08009 430.3919 438.53648 442.5289 449.61705 457.4422 465.58677 471.80155 478.9879 484.30595 492.1311 499.21925 503.65614 508.09303 516.0779 523.166 527.15847 538.6913 543.1282 547.56509 555.5499 559.54238 564.8604 571.94857 578.1633 586.1482 594.2927 599.6108 606.4778 613.6642 619.87899 624.03109 635.5639 643.54879 647.98568 655.0738 662.899 666.8914 671.3283 677.7162">There is one side that seeks to be aggressively conservative with resources which is </tspan></text>
<text xml:space="preserve" transform="matrix(.75 0 0 .75 0 0)" font-size="15.9697" font-family="F1"><tspan y="350.08" x="144 151.08812 159.07297 164.391 169.50131 176.58943 184.57428 189.01119 193.44808 201.59262 205.58506 211.79984 219.78469 227.76953 235.75438 241.18408 248.2722 254.3407 260.55549 267.74186 275.7267 279.71916 284.15605 292.1409 296.13334 302.5212 314.05403 321.14216 325.45399 329.89088 338.03544 349.56825 353.40098 357.83787 365.98243 373.07057 376.9033 384.88816 389.32505 393.95628 398.39317 405.4813 410.79933 414.63206 422.6169 427.0538 431.68504 436.12193 440.11436 448.0992 453.41725 457.24998 463.63786 470.72599 478.55116 486.536 494.52088 498.95777 503.1099 510.19804 518.0232 524.238 528.67489 535.06277 539.0552 543.0476 547.04006 558.5729 562.88467 566.8771 571.31399 579.4585 586.54666 590.3794 596.5942 603.7806 616.20236 623.38876 627.38119 631.81808 636.25497 648.6767 655.8631 659.8555 664.9659 668.9583 676.9432 684.0313 692.0162 699.1043 703.09677 710.1849">currently suppressed to swallow the bitter pill of school costs.  At the same time I have a </tspan></text>
<text xml:space="preserve" transform="matrix(.75 0 0 .75 0 0)" font-size="15.9697" font-family="F1"><tspan y="368.48" x="144 151.98485 159.07295 163.50984 167.94673 175.03484 180.35288 184.18561 188.62252 196.76706 203.85518 208.16699 212.15943 219.24755 227.23239 235.21724 239.20967 244.52771 252.51256 256.94944 264.9343 270.36399 277.45213 281.44456 289.4294 296.51756 300.95445 309.099 315.31379 319.3062 326.39436 334.2195 346.64125 353.8276 357.82005 363.13807 368.24836 376.23323 388.84928 392.8417 400.82658 406.1446 410.45643 418.44129 423.7593 427.75175 432.18864 440.1735 448.15837 455.2465 461.63438 466.07127 478.49299 485.58113 493.56599 498.00288 501.9953 509.98017 515.2982 519.29067 525.50546 533.4903 545.91207 553.0002 556.9926 563.2074 571.19229 576.5103 580.9472 584.93966 596.4725 604.45736 608.8942 615.98239 623.9672 627.95968 632.39657 639.58297 647.5678 655.5527 661.76748 665.7599 670.1968 678.18167">belief that any future gains come from prior investment of some sort which tends to </tspan></text>
<text xml:space="preserve" transform="matrix(.75 0 0 .75 0 0)" font-size="15.9697" font-family="F1"><tspan y="386.88" x="144 151.98485 157.30289 161.73979 168.8279 176.81275 181.24965 185.24208 197.66384 204.75194 208.74437 213.18126 221.1661 232.69892 239.78704 244.89734 252.88219 259.09696 263.0894 270.17753 274.6144 279.0513 286.13945 298.56117 306.70573 311.1426 315.77384 323.7587 331.74357 335.736 340.17289 348.15776 352.15019 364.5719 371.66004 379.6449 386.73304 390.56578 397.6539 405.63877 413.62364 418.06053 425.14866 432.2368 438.30528 442.2977 446.7346 454.87916 461.9673 466.40419 470.5563 482.0891 490.07398 498.05885 502.37068 510.51524 514.5076 522.4925 529.5806 533.4134 537.8503 545.9948 550.4317 557.51986 562.6302 569.8166 577.80148 582.23837 589.3265 593.15927 597.5961 605.74069 613.7255 620.81369 628.7985 632.79098 638.109 646.0939 651.4119 655.40438 662.4925 666.32528 674.3101 681.39828 685.83517 690.27206 697.6181 702.93618">orient me towards attempting to make choices that would be tolerable today for a better </tspan></text>
<text xml:space="preserve" transform="matrix(.75 0 0 .75 0 0)" font-size="15.9697" font-family="F1"><tspan y="405.28" x="144 149.31804 157.30289 161.73979 169.72464 175.04268 182.13079 185.96352 190.4004 198.54496 210.9667 218.95156 224.26959 229.58763 237.41278 248.94559 252.93802 261.08259 266.4006 270.39305 282.81477 290.79963 298.7845 303.22138 311.20625 317.42103 321.8579 330.00248 337.0906 343.95759 349.2756 355.4904 359.48283 367.46769 375.45256 386.98536 394.9702 398.96266 403.39955 411.3844 418.47254 422.46498 426.90187 431.33876 439.3236 446.41175 450.40419 454.3966 458.54875 463.86677 467.8592 474.94734 479.25917 485.47395 493.4588 497.45124 502.76927 507.20616 514.29428 518.73117 526.716 530.70846 535.1453 543.1302 550.2183 554.21078 562.1956 569.28378 573.72067 578.15756 585.24569 590.5637 594.3965 598.8334 606.9779 614.06607 618.3778 622.5299 634.1878 641.27597 648.14297 652.57986 657.0167 665.16128 669.1537 673.5906 679.80538 683.7978 690.8859">future tomorrow or months/years down the line.  I also field the belief that wealth is a </tspan></text>
<text xml:space="preserve" transform="matrix(.75 0 0 .75 0 0)" font-size="15.9697" font-family="F1"><tspan y="423.68" x="144 148.4369 156.42176 164.4066 168.84349 172.83592 176.82836 188.48624 196.47109 200.90798 207.99608 215.82123 219.97336 224.41027 231.49837 239.32352 247.46807 253.68285 257.67527 262.11216 270.09703 274.08946 281.17759 288.26573 292.57756 296.56999 303.75636 309.97114 313.96357 321.94844 329.9333 334.37019 342.51475 346.50718 353.5953 357.42805 365.4129 369.8498 377.03617 383.25096 389.46574 393.90263 401.88749 409.87236 413.86479 420.9529 428.93778 436.92265 440.91508 448.0032 451.83595 458.92408 467.06864 472.38667 478.60145 485.68959 489.5223 501.18019 509.16505 516.2532 524.07839 528.0708 532.5077 537.13888 541.1313 548.2194 556.0446 568.4664 575.6528 581.86758 585.86 590.2969 598.28176 602.2742 609.4606 614.7786 621.965 629.1514 633.5883 638.0252 646.0101 653.99496 657.98739 669.5202 676.60836 683.6965 688.00827 692.4451 700.58969">tool, which tends to act as both a blessing and a curse when it comes to creating wealth </tspan></text>
<text xml:space="preserve" transform="matrix(.75 0 0 .75 0 0)" font-size="15.9697" font-family="F1"><tspan y="442.08" x="144 150.21479 154.65169 162.63654 169.72466 176.81276 180.80519 187.01998 195.00482 207.42658 214.5147 218.34743 225.53379 233.51863 241.50348 245.94039 253.12674 260.21488 266.42967 270.4221 277.51023 285.3354 293.32026 297.31269 305.45726 313.4421 317.43455 324.52268 332.50755 338.72233 343.1592 347.5961 355.74067 363.72554 367.71797 380.13969 387.2278 391.06056 402.7184 409.80656 416.67353 421.1104 425.74165 433.7265 437.87864">since some choices end up costing me wealth. </tspan></text>
<text xml:space="preserve" transform="matrix(.75 0 0 .75 0 0)" font-size="15.9697" font-family="F1"><tspan y="460.48" x="144"> </tspan></text>
<text xml:space="preserve" transform="matrix(.75 0 0 .75 0 0)" font-size="15.9697" font-family="F1"><tspan y="478.88" x="120 127.98485">3.</tspan></text>
<text xml:space="preserve" transform="matrix(.75 0 0 .75 0 0)" font-size="15.9697" font-family="F2"><tspan y="478.88" x="132"> </tspan></text>
<text xml:space="preserve" transform="matrix(.75 0 0 .75 0 0)" font-size="15.9697" font-family="F1"><tspan y="478.88" x="144 159.01152 166.99637 174.08449 178.52138 182.51381 186.9507 193.16548 197.15792 201.5948 209.73935 216.82747 220.6602 228.64505 233.96309 241.14945 248.23757 252.67446 259.76258 265.97737 270.41426 274.40669 282.39155 289.47969 294.58998 300.01966 304.65089 311.739 316.8493 320.84175 325.27864 333.4232 337.41563 344.50376 349.82179 356.9099 363.99806 368.30989 372.74678 380.89134 388.8762 392.86863 404.40144 411.48957 418.5777 423.0146 427.45149 435.43635 439.42878 443.86567 451.85054 458.93867 463.37556 467.36799 473.58277 478.01966 485.1078 493.09266 501.0775 507.2923 511.28474 515.7216 523.7065 527.6989 535.6838 543.66867 551.6535 556.97158 560.964 572.4968 579.58499 587.41018 594.7562">What is the greatest barrier to creating wealth that stands in your way? </tspan></text>
<text xml:space="preserve" transform="matrix(.75 0 0 .75 0 0)" font-size="15.9697" font-family="F1"><tspan y="497.28" x="144"> </tspan></text>
<text xml:space="preserve" transform="matrix(.75 0 0 .75 0 0)" font-size="15.9697" font-family="F1"><tspan y="515.68" x="144 155.5328 159.96971 163.96215 168.39904 176.38388 180.82079 187.20867 191.2011 199.18595 207.17079 211.60768 219.59253 224.02944 228.02187 232.45876 240.4436 244.43604 248.74787 253.18477 265.80085 272.88899 276.7217 280.71415 285.15104 293.2956 300.38374 304.21647 312.20133 320.1862 324.62309 332.76765 336.76008 344.74494 351.83308 356.94337 362.26139 366.69828 373.7864 379.10444 382.93717 387.5684 395.55326 402.6414 406.95323 410.94566 415.38255 419.81944 432.4355 436.87239 441.30928 447.52406 451.51649 463.9382 472.08277 476.0752 483.16334 490.9885 495.42539 500.0566 504.4935 508.9304 516.9152 520.90768 525.34457 533.3294 537.32186 544.41 549.728 556.81619 563.68319 568.12008 575.30648 579.2989 590.9568 598.0449 604.9119 609.3488 613.98 621.96487 626.11697 630.55386 636.7686 640.76107 645.19796 653.1828 660.27096 664.26339 671.3515 675.7884 682.0032 689.98806 693.98049 698.41738 706.4022 713.49038">At this point in time, the only barrier that limits my ability to create wealth is the also the </tspan></text>
<text xml:space="preserve" transform="matrix(.75 0 0 .75 0 0)" font-size="15.9697" font-family="F1"><tspan y="534.08" x="144 150.21479 157.3029 169.72466 176.81276 180.80519 185.24208 193.22693 201.21178 208.29988 214.36838 218.80529 231.42136 238.50948 246.49433 250.80615 254.95829 259.39518 267.38005 274.46818 278.78 282.77244 287.20933 293.5972 297.58964 302.02653 310.01139 314.44828 321.5364 329.52128 337.50614 344.59428 352.41944 356.41188 361.0431 369.02796 373.0204 380.10853 385.2188 392.40519 399.49333 403.9302 411.01835 415.01078 420.3288 428.31367 432.6255 440.77006 446.19975 453.28788 457.2803 468.8131 475.90126 482.98939 487.3012 491.7381 499.88267 503.8751 507.86753 520.2893 528.2742 532.2666 540.25149 548.2363 552.6732 560.6581 567.7462 573.0643 579.13278 583.56967 588.2008 596.18569 600.1781 607.26626 615.2511 623.23599 630.3241 637.41226 641.8491 646.286 654.2709 662.25576 666.24819 670.2406 674.23306 683.988 691.97286 699.061">same investment that is intended to create future wealth, my university education.  The </tspan></text>
<text xml:space="preserve" transform="matrix(.75 0 0 .75 0 0)" font-size="15.9697" font-family="F1"><tspan y="552.48" x="144 150.21479 158.19963 164.41442 168.8513 175.9394 188.36116 192.35359 199.4417 207.42655 215.41139 219.40383 227.38867 234.47679 242.46164 247.77968 254.86779 261.9559 265.78865 273.9332 279.25123 283.56306 290.65119 298.63606 302.78819 310.77305 317.86119 322.29808 328.51286 332.50529 336.94218 344.92704 348.91947 361.3412 369.32606 373.31849 384.8513 391.93943 399.9243 403.91673 411.00486 418.83003 426.81489 430.8073 435.2442 447.86027 455.84513 463.0315 471.01637 478.1045 484.31929 488.3117 495.39985 499.23258 503.66947 511.81404 516.2509 520.24337 528.2282 533.54629 537.379 549.99508 557.9799 561.97238 574.3941 581.48226 588.5704 596.39559 600.83248 608.8173 615.90548 620.34237 624.9735 632.9584 640.94326 647.158 651.15048 655.58737 663.7319 667.7243 675.70919 681.0272 687.8942 696.03878 703.1269 708.23727 715.42367">system and degree often gets in my way and impedes a lot of my machinations to prepare </tspan></text>
<text xml:space="preserve" transform="matrix(.75 0 0 .75 0 0)" font-size="15.9697" font-family="F1"><tspan y="570.88" x="144 151.98485 157.30289 165.28774 173.27259 181.25743 189.24228 195.45706 199.4495 204.76753 212.75238 218.07042 221.90316 233.43596 240.62232 247.71044 252.14733 256.5842 264.56907 268.5615 276.54637 283.6345 291.61936 298.80574 304.2354 311.32356 315.76045 320.19734 328.1822 336.16706 340.1595 344.15193 352.13679 360.12165 364.55854 368.55097 375.6391 380.076 384.06843 388.5053 396.49018 403.5783 407.57075 413.78553 420.87367 433.29539 440.3835 444.21626 448.65315 453.28437 465.7061 472.79423 476.94636 482.05665 487.37467 499.67134 503.82347 509.14149 516.2296 521.54769 525.5401 529.977 537.96188 545.9467 549.93917 554.37606 562.3609 570.34579 577.4339 583.6487 588.0856 595.1737 603.15859 607.151 611.5879 619.57278 623.72488 630.813 635.12478 639.56167 646.74807 652.0661 655.89889 663.08529 671.0701 679.055 684.37307 690.5878 697.67599 701.6684 708.75656 713.1934">grounds for wealth generation, but at the same time I&#x2019;m far too invested to alter course at </tspan></text>
<text xml:space="preserve" transform="matrix(.75 0 0 .75 0 0)" font-size="15.9697" font-family="F1"><tspan y="589.28" x="144 148.4369 156.42176 160.85866 167.24654 171.23897 179.22382 187.20867 191.64556 199.6304 204.0673 208.05974 212.49663 220.48148 224.4739 228.78574 233.22264 245.83872 252.92684 256.75956 260.75199 264.74443 274.49934 282.4842 289.57234 293.56477 301.54963 308.63777 314.70625 319.33747 323.3299 328.4402 332.59233 339.68046 346.54743 354.5323 358.52473 366.50959 374.49446 378.64659 385.7347 390.1716 394.16404 398.60093 406.74549 411.18238 417.39717 421.3896 429.37446 437.3593 441.7962 449.78108 454.21797 458.2104 462.52223 468.737 472.72944 477.16633 485.31089 489.3033 496.39146 504.2166 512.2015 516.63839 521.26956 529.2544 537.23928 544.3274 548.16018 556.145 561.4631 568.5512 576.5361 583.6242 588.73458 593.17147 601.316 609.30087 613.2933 617.73019 625.8747 632.9628 636.95529 644.9401 650.2582 658.0834 666.06826 674.0531 682.03799 686.0304 691.34848 699.3333 704.65139">this point in time.  The best I can do at this point is to continue preparing the ground for </tspan></text>
<text xml:space="preserve" transform="matrix(.75 0 0 .75 0 0)" font-size="15.9697" font-family="F1"><tspan y="607.68" x="144 148.4369 156.42176 164.4066 170.62139 177.70949 181.70192 193.23473 201.21958 209.20442 213.19686 220.28496 228.1101 240.72618 247.81429 251.64702 258.83338 264.1514 268.5883 275.67643 280.99446 284.98689 297.4086 304.59498 308.5874 314.8022 322.78706 326.77949 331.21638 339.20124 346.28938 350.72627 354.7187 359.15559 367.14045 374.22859 382.21345 386.20588 394.19075 401.27888 409.26374 416.1307 420.28285 427.37098 435.19615 439.34828 446.4364 453.52455 459.73933 464.37055 471.45869 476.56898 480.5614 484.9983 489.62953 502.05125 509.13938 512.9721 521.11666 528.2048 536.02999 543.2164 548.5344 555.62258 560.05947 564.49636 572.4812 580.46609 584.4585 596.88027 604.8651 610.18319 617.2713 621.4234 629.40829 637.3931 645.378 653.36288 658.6809 662.9927 671.1372 679.1221 683.55899 687.99588 692.43276 699.5209 705.73568 709.7281">those who come after me so that they have an easier time generating more opportunities. </tspan></text>
<text xml:space="preserve" transform="matrix(.75 0 0 .75 0 0)" font-size="15.9697" font-family="F1"><tspan y="626.08" x="144"> </tspan></text>
<text xml:space="preserve" transform="matrix(.75 0 0 .75 0 0)" font-size="15.9697" font-family="F1"><tspan y="644.48" x="120 127.98485">4.</tspan></text>
<text xml:space="preserve" transform="matrix(.75 0 0 .75 0 0)" font-size="15.9697" font-family="F2"><tspan y="644.48" x="132"> </tspan></text>
<text xml:space="preserve" transform="matrix(.75 0 0 .75 0 0)" font-size="15.9697" font-family="F1"><tspan y="644.48" x="144 159.01152 166.99637 174.08449 178.52138 182.51381 188.72859 193.16548 200.25359 208.23844 216.22328 222.43807 226.4305 234.41535 242.40019 246.83708 250.82952 255.2664 263.41096 267.40339 275.38825 283.3731 291.35798 295.3504 299.34284 304.66087 311.52784 318.61598 323.05287 329.26765 333.26008 341.24494 348.33308 359.86589 363.8583 368.2952 376.28007 380.2725 388.25736 396.24223 404.22709 408.2195 412.21195 419.30009 427.44465 434.53279 438.8446 443.2815 450.46788 456.68266 460.83479 468.81965 476.8045 484.78938 488.7818 492.77424 500.7591 506.07713 509.90986 516.998 524.98287 532.071 536.5079 540.94479 548.0329 556.01779 564.0026 571.09078 577.15927 581.1517 589.13656 597.1214 605.10629 609.25839 614.5764 620.00619 627.991 640.4128 644.4052 648.8421 656.98666 661.4235 667.6383 671.63076 676.0676 683.15579 689.37057 695.5853 703.5702 711.55508 718.6432">What stands out to you, feels new to you, excites you, or challenges you from this lesson? </tspan></text>
<text xml:space="preserve" transform="matrix(.75 0 0 .75 0 0)" font-size="15.9697" font-family="F1"><tspan y="662.88" x="144"> </tspan></text>
<text xml:space="preserve" transform="matrix(.75 0 0 .75 0 0)" font-size="15.9697" font-family="F1"><tspan y="681.28" x="144 153.75493 161.73978 168.8279 172.82033 179.90843 184.22025 192.2051 198.41988 205.50798 209.50041 216.58852 221.0254 225.4623 233.44715 241.43199 253.85375 260.94187 268.92674 273.36363 277.35606 285.3409 290.65895 294.65138 307.26744 315.2523 319.24473 327.22959 331.66648 338.7546 350.2874 354.27986 362.2647 367.58274 371.41548 382.94828 390.13465 397.22279 401.65968 406.09657 414.08143 418.07386 425.162 431.37678 435.3692 442.45735 446.29008 450.9213 458.90617 467.05073 471.4876 475.48005 479.91694 487.9018 491.89424 496.33113 504.31599 511.4041 515.39657 523.3814 527.8183 534.90646 546.4393 550.4317 554.8686 562.85348 569.9416 574.25338 578.2458 582.6827 589.07058 593.063 597.4999 604.588 612.5729 620.55776 628.5426 632.9795 636.9719 641.4088 649.3937 653.3861 657.823 664.91116 671.1259 677.3407 685.32559 693.3104 697.30288 705.2877">The close alignment of my view of wealth as a tool to the view that is taught in lesson 5 </tspan></text>
<text xml:space="preserve" transform="matrix(.75 0 0 .75 0 0)" font-size="15.9697" font-family="F1"><tspan y="699.68" x="144 151.98485 157.30289 161.29532 176.30684 184.29169 192.27654 196.26897 207.80178 219.33458 227.31943 233.53421 237.52664 241.96355 249.9484 257.03654 261.02897 266.347 273.43513 280.52326 284.5157 296.0485 304.19306 312.17793 318.3927 325.48085 329.47328 333.91017 341.89503 346.3319 351.64994 356.08683 364.0717 372.05656 379.14469 385.35948 389.3519 401.77363 408.86177 412.8542 419.94233 423.77507 429.20475 436.3911 440.828 446.14604 450.13847 457.32484 469.74656 477.7314 485.71629 493.70115 498.13804 502.13047 506.1229 510.11534 525.12686 533.1117 540.1998 544.6367 548.62918 553.06607 561.0509 565.4878 570.91757 575.35446 583.3393 591.32418 598.4123 604.4808 608.4732 621.08926 628.17739 632.01016 636.447 644.59158 652.5764 656.56887 661.00576 667.2205 671.21298 675.64987 683.6347 690.72286">of Who Owns the Ice House intrigues me a fair amount.  What intrigues me tho is the </tspan></text>
<text xml:space="preserve" transform="matrix(.75 0 0 .75 0 0)" font-size="15.9697" font-family="F1"><tspan y="718.08" x="144 149.31804 156.40615 168.70282 175.88919 181.20723 189.03238 193.02481 197.46172 205.60626 212.69438 217.0062 220.99863 226.42833 233.51644 241.50128 248.68766 254.00569 261.99055 266.42744 273.51557 279.73036 285.94514 289.93757 297.92243 303.24046 307.39259 314.4807 318.79255 323.22944 327.22187 331.65876 339.8033 346.89146 350.72419 356.0422 363.13035 371.1152 375.5521 381.76689 386.20378 391.5218 395.95869 403.94355 411.9284 416.3653 420.8022 428.94676 436.9316 440.92405 448.9089 454.22694 458.05967 462.49656 470.6411 477.72926 481.56199 493.21986 501.2047 506.52275 510.83457 518.8194 522.8118 526.80429 538.3371 545.5235 552.61166 557.0485 561.4854 569.4703 573.4627 584.99557 589.43246 593.8693 598.3062 602.4583 607.77639 612.08816 620.23269 631.7655 635.59829 640.03518 648.1797 652.1721 656.609 664.5939 671.682 675.67446 681.8892 688.97738 701.274 708.3621">remark that regardless of all the redistribution of the world, wealth will flow in the same </tspan></text>
<text xml:space="preserve" transform="matrix(.75 0 0 .75 0 0)" font-size="15.9697" font-family="F1"><tspan y="736.48" x="144 151.98485 159.07295 163.50984 167.94673 175.03484 180.35288 188.17803 192.33016 196.32259 200.47472 205.58502 209.57746 217.5623 225.54715 232.63527 238.70377 244.91855 248.91098 253.34789 261.49244 268.58058 272.573 279.66114 287.646 294.73414 299.17103 303.80226 310.89039 318.87525 326.8601 333.94825 337.78099 342.21788 350.20274 357.29087 361.72776 365.72019 371.93498 379.91984 387.9047 395.88957 400.32646 408.471 412.46345 420.4483 427.53645 431.36918 435.80607 442.99244 450.9773 458.06544 466.0503 470.04273 475.36076 480.67878 488.66365 501.08537 505.0778 509.51469 517.4995 521.9364 528.1512 532.1436 539.23178 547.2166 554.30477 562.2896 566.7265 573.81466 578.925 582.9174 587.3543 593.7422 597.7346 602.1715 610.1564 617.2445 621.6814 625.8335 630.2704 638.25527 642.2477 650.23257 655.5506 663.53549 670.6236 675.73397 679.7264 684.16329 692.3078">pattern.  I guess the challenge that should be taken from this chapter is that in order to </tspan></text>
<text xml:space="preserve" transform="matrix(.75 0 0 .75 0 0)" font-size="15.9697" font-family="F1"><tspan y="754.88" x="144 149.31804 153.75493 161.73978 169.72463 173.71706 180.80516 184.79759 191.8857 199.71085 212.1326 217.5623 225.54715 230.86519 235.177 242.26512 250.24997 254.8812 261.96934 265.96177 273.94664 278.3835 285.47166 292.55979 299.64793 303.80006 310.01484 317.9997 330.42143 337.50956 349.04237 356.86753 364.0539 369.37193 376.2389 380.39103 387.47917 391.91606 399.9009 407.88578 415.87065 419.86308 424.29997 432.44453 439.53266 443.84449 447.8369 453.15495 457.59184 465.7364 477.2692 481.26164 489.2465 494.5645 498.55696 510.08976 517.2761 524.36428 528.676 533.1129 541.25747 545.2499 549.2423 554.35269 558.3451 566.4896 573.57778 580.44479 588.4296 592.42208 596.85897 605.0035 608.9959 615.2107 623.19558 627.8267 635.8116 642.8997 646.7325 651.36367 659.3485 666.43667">find a comfortable place somewhere along that flow of wealth, I need to solve the </tspan></text>
<text xml:space="preserve" transform="matrix(.75 0 0 .75 0 0)" font-size="15.9697" font-family="F1"><tspan y="773.28" x="144 151.98485 157.30289 165.28774 173.27259 177.70949 184.79759 197.21935 203.43413 207.42656 215.4114 220.72945 224.72188 232.70673 239.79485 245.86334 250.30025 255.61829 262.70643 268.9212 272.91365 281.0582 286.37623 290.36866 298.35353 302.7904 310.77528 317.8634 323.18144 329.2499 333.40205">problems or desires of others. </tspan></text>
</g>
</svg>
