<?xml version="1.0" encoding="UTF-8" standalone="no"?>
<!DOCTYPE svg PUBLIC "-//W3C//DTD SVG 1.1//EN" "http://www.w3.org/Graphics/SVG/1.1/DTD/svg11.dtd">
<svg xmlns="http://www.w3.org/2000/svg" xmlns:xlink="http://www.w3.org/1999/xlink" version="1.1" width="612pt" height="792pt" viewBox="0 0 612 792">
<g enable-background="new">
<text xml:space="preserve" transform="matrix(.75 0 0 .75 0 0)" font-size="14.6921" font-family="F1"><tspan y="986.08" x="375.04 382.62998 389.66755 396.58317 403.89335">Page </tspan></text>
<text xml:space="preserve" transform="matrix(.75 0 0 .75 0 0)" font-size="14.6921" font-family="F2" font-weight="bold"><tspan y="986.08" x="407.2">2</tspan></text>
<text xml:space="preserve" transform="matrix(.75 0 0 .75 0 0)" font-size="14.6921" font-family="F1"><tspan y="986.08" x="414.72 417.95225 425.7 430.1837"> of </tspan></text>
<text xml:space="preserve" transform="matrix(.75 0 0 .75 0 0)" font-size="14.6921" font-family="F2" font-weight="bold"><tspan y="986.08" x="433.44">4</tspan></text>
<text xml:space="preserve" transform="matrix(.75 0 0 .75 0 0)" font-size="14.6921" font-family="F1"><tspan y="986.08" x="440.8"> </tspan></text>
<text xml:space="preserve" transform="matrix(.75 0 0 .75 0 0)" font-size="14.6921" font-family="F1"><tspan y="1004" x="96"> </tspan></text>
<text xml:space="preserve" transform="matrix(.75 0 0 .75 0 0)" font-size="14.6921" font-family="F2" font-weight="bold"><tspan y="109.92" x="96 99.91693 107.801029 112.89448 120.29075 125.513339 133.39743 140.65023 144.17633 147.49784 154.24129 161.49408 167.51784 171.1263 179.01039 185.91568 189.23719 193.15412 200.35324">Internal Facing IT </tspan></text>
<text xml:space="preserve" transform="matrix(.75 0 0 .75 0 0)" font-size="14.6921" font-family="F4"><tspan y="128.64" x="120">&#xf0b7;</tspan></text>
<text xml:space="preserve" transform="matrix(.75 0 0 .75 0 0)" font-size="14.6921" font-family="F5"><tspan y="128.64" x="126.72"> </tspan></text>
<text xml:space="preserve" transform="matrix(.75 0 0 .75 0 0)" font-size="14.6921" font-family="F1"><tspan y="128.64" x="144 151.17388 157.6384 165.27829 168.65001 176.3978 181.51995 188.71907 194.46535 197.78685 204.82444 212.54352 220.18341 223.50492 226.73717 238.63776 246.27765 249.64937 256.8485 268.7491 276.0593 283.6992 288.62049 294.4973 297.72956 305.36946 312.67964 323.1822 326.5037 332.08668 340.02043 343.39216 351.03205 355.95335 359.1856 366.93339 374.65248 380.39875 383.72026 388.56864 396.3164 399.6379 403.00965 414.74613 422.38603 427.50819 435.25596 441.89179 449.0909 452.4124 457.53459 464.84477 468.07704 471.44877 478.48634 486.12623 489.49797 492.8697 496.24143 501.16273 507.92109 511.24259 518.9617 525.72006 528.8054 535.843 543.56216 551.202 554.5737 562.2136 569.1292 572.45077 577.5729 584.88308 592.6022 600.24209 607.9612 615.6011 622.6387 630.27859 636.5962 639.9679 647.2781 652.8611">Explores and implements new solutions to improve reliability by adding redundancies </tspan></text>
<text xml:space="preserve" transform="matrix(.75 0 0 .75 0 0)" font-size="14.6921" font-family="F4"><tspan y="147.2" x="120">&#xf0b7;</tspan></text>
<text xml:space="preserve" transform="matrix(.75 0 0 .75 0 0)" font-size="14.6921" font-family="F5"><tspan y="147.2" x="126.72"> </tspan></text>
<text xml:space="preserve" transform="matrix(.75 0 0 .75 0 0)" font-size="14.6921" font-family="F1"><tspan y="147.2" x="144 152.50106 160.14095 165.06223 172.70212 184.6027 191.64029 196.56157 203.87175 209.61803 212.8503 218.59658 225.35494 230.93795 235.85923 243.05835 254.95894 260.70524 264.02674 271.66664 277.54347 280.9152 288.55509 295.4707 298.70295 305.3144 312.62458 317.74674 324.5051 327.87684 333.9006 341.2108 345.7088 355.11177 363.0455 373.4769 376.70915 383.45979 386.8315 394.4714 404.97398 410.8508 414.1723 421.20988 428.84977 436.48966 439.81117 445.55744 451.77003 456.89219 460.26393 467.9038 472.8251 476.19685 483.83674 490.75236 494.07386 498.99516 506.9289 510.01423 517.3244 520.6961 523.9284 535.82907 539.20077 546.84066 553.87826 558.7995 566.1097 569.4312 572.8029 580.4428 587.753 592.1606 596.6442 600.0159 606.33358 609.70529 617.01547 624.65536 630.6791 634.0508 641.36099 647.2378">Automates systems using Service-Now Flows and scripting to eliminate inefficiencies </tspan></text>
<text xml:space="preserve" transform="matrix(.75 0 0 .75 0 0)" font-size="14.6921" font-family="F4"><tspan y="165.92" x="120">&#xf0b7;</tspan></text>
<text xml:space="preserve" transform="matrix(.75 0 0 .75 0 0)" font-size="14.6921" font-family="F5"><tspan y="165.92" x="126.72"> </tspan></text>
<text xml:space="preserve" transform="matrix(.75 0 0 .75 0 0)" font-size="14.6921" font-family="F1"><tspan y="165.92" x="144 152.50106 159.41667 166.72686 174.36675 179.28803 182.60953 190.54326 194.80397 198.12548 205.84456 210.9667 218.7145 224.92708 232.23726 239.87715 247.51705 252.63919 259.67677 263.0485 266.37 272.11628 279.75617 283.1279 287.61158 292.53288 298.4097 301.49504 306.3434 313.9833 321.02088 325.94218 329.26368 336.75666 340.1284 343.21376 355.11436 358.48609 366.12599 373.16355 378.08485 385.39503 388.71653 396.4356 404.1547 411.7946 418.9937 425.3113 432.6215 438.36778 444.11405 451.1516 456.14695 462.9053 465.99064 471.1128 478.42298 484.2998 492.04759 499.68748 504.80964 511.02223 518.3324 521.65396 529.2938 532.6655 540.3054 546.62307 553.30197 558.88497">Agent of procedural shifts that eliminate unnecessary resource blocks </tspan></text>
<text xml:space="preserve" transform="matrix(.75 0 0 .75 0 0)" font-size="14.6921" font-family="F4"><tspan y="184.64" x="120">&#xf0b7;</tspan></text>
<text xml:space="preserve" transform="matrix(.75 0 0 .75 0 0)" font-size="14.6921" font-family="F5"><tspan y="184.64" x="126.72"> </tspan></text>
<text xml:space="preserve" transform="matrix(.75 0 0 .75 0 0)" font-size="14.6921" font-family="F1"><tspan y="184.64" x="144 151.83388 159.58167 167.30075 172.22203 175.59375 183.23365 190.95273 198.70052 206.4196 212.16588 215.39813 222.1565 225.478 231.22428 238.53446 241.90618 246.38985 250.88788 254.12014 265.8566 273.4965 278.49183 286.42558 293.0614 296.43315 303.92613 310.84175 314.16325 321.80314 329.1133 334.23548 340.1123 347.86009 355.49998 362.53755 365.90928 369.23078 376.87068 384.18086 389.303 393.71064 401.64439 406.49278 418.39338 425.43095 433.07084 439.28343 446.48255 449.80406 460.3066 463.67835 468.52674 476.24583 479.56733 488.6064 495.9166 502.67497 512.2248 519.81478 525.6916 528.777 533.69827 541.44607 549.19387 552.56558 555.8871 562.0997 569.13729 572.36959 575.7413 583.05148 590.77059 594.0921 602.0258 605.3975 608.7692 614.79299 621.47189 624.70419 634.1307 641.77059">Continuously self-improving personal performance with DevOPs tool called Click Up </tspan></text>
<text xml:space="preserve" transform="matrix(.75 0 0 .75 0 0)" font-size="14.6921" font-family="F1"><tspan y="202.56" x="96"> </tspan></text>
<text xml:space="preserve" transform="matrix(.75 0 0 .75 0 0)" font-size="14.6921" font-family="F2" font-weight="bold"><tspan y="223.04" x="96 103.1667 110.21891 117.61518 125.40199 130.49544 133.7277 141.00202 148.49498 154.64299 162.42981 170.3139 178.10073 181.70919 189.60762 196.51291 203.56511 206.88661 214.70613 219.84838 227.74681 234.69829 238.2244 246.10849 253.50475 258.50007">Event Technology Provider </tspan></text>
<text xml:space="preserve" transform="matrix(.75 0 0 .75 0 0)" font-size="14.6921" font-family="F4"><tspan y="241.76" x="120">&#xf0b7;</tspan></text>
<text xml:space="preserve" transform="matrix(.75 0 0 .75 0 0)" font-size="14.6921" font-family="F5"><tspan y="241.76" x="126.72"> </tspan></text>
<text xml:space="preserve" transform="matrix(.75 0 0 .75 0 0)" font-size="14.6921" font-family="F1"><tspan y="241.76" x="144 156.56147 163.59905 171.31813 178.35572 185.27133 192.58152 198.32779 201.64929 208.68688 216.32677 223.96666 227.28816 235.00725 240.00257 247.31275 255.03183 262.0694 267.19157 274.50175 280.24803 283.48027 290.79045 298.43034 306.1494 309.52116 317.16105 329.06166 336.37184 344.01173 348.933 352.25453 359.8944 367.2046 373.5222 380.83238 386.57865 392.16163 399.1992 404.32136 411.0797 414.31196 418.71958 426.46736 431.5895 434.911 440.03318 447.75227 455.39216 463.11125 466.3435 473.9834 480.89903 484.22053 491.5307 498.28907 505.59925 513.23916 518.0875 523.67056">Manages and prepares equipment necessary for running events </tspan></text>
<text xml:space="preserve" transform="matrix(.75 0 0 .75 0 0)" font-size="14.6921" font-family="F4"><tspan y="260.48" x="120">&#xf0b7;</tspan></text>
<text xml:space="preserve" transform="matrix(.75 0 0 .75 0 0)" font-size="14.6921" font-family="F5"><tspan y="260.48" x="126.72"> </tspan></text>
<text xml:space="preserve" transform="matrix(.75 0 0 .75 0 0)" font-size="14.6921" font-family="F1"><tspan y="260.48" x="144 151.17388 157.93225 164.96984 168.34156 175.98145 183.01903 187.9403 195.13944 200.88571 204.20722 211.5174 219.23648 226.87638 230.2481 237.74106 249.64165 256.95185 264.67094 269.59223 272.91374 277.90907 285.21925 292.2568 299.9759 303.20817 310.84806 318.15824 323.9045 329.6508 332.9723 340.69139 347.72895 353.47523 360.7854 368.5045 371.73674 379.4845 387.20359 390.43583 397.746 404.50437 411.81455 419.30754 424.22883 427.55033 435.2694 442.5796 448.45643 454.4802 459.60237 462.9741 470.61399 475.53529 478.907 486.6548 494.37388 499.95686">Evaluates equipment readiness based on event descriptions </tspan></text>
<text xml:space="preserve" transform="matrix(.75 0 0 .75 0 0)" font-size="14.6921" font-family="F4"><tspan y="279.2" x="120">&#xf0b7;</tspan></text>
<text xml:space="preserve" transform="matrix(.75 0 0 .75 0 0)" font-size="14.6921" font-family="F5"><tspan y="279.2" x="126.72"> </tspan></text>
<text xml:space="preserve" transform="matrix(.75 0 0 .75 0 0)" font-size="14.6921" font-family="F1"><tspan y="279.2" x="144 151.17388 157.6384 165.27829 168.65001 176.3978 181.51995 188.71907 194.46535 197.78685 204.82444 212.54352 220.18341 223.55513 228.47641 231.84813 239.78186 247.42176 254.45934 257.6916 260.92384 268.6429 275.68049 280.80265 288.44255 298.9451 305.85038 310.97254 318.2827 321.60423 327.3505 335.09828 338.47 346.1099 351.0312 354.40293 362.33668 369.97657 375.72285 378.95509 383.87638 391.51628 394.83778 402.33076 409.97065 417.0082 424.6481 428.01985 435.33003 438.65153 446.2914 453.6016 458.5229 463.37129 470.68147 475.80363 479.12513 486.32426 493.0826 500.3928 508.03269 512.9539 516.27548 520.68307 527.72067 534.03829 537.27059 540.6423 544.014 548.93527 555.97286 560.8941 564.1264 572.0601 579.5531">Explores additional hardware solutions to enable better event facilitation </tspan></text>
<text xml:space="preserve" transform="matrix(.75 0 0 .75 0 0)" font-size="14.6921" font-family="F1"><tspan y="297.12" x="144"> </tspan></text>
<text xml:space="preserve" transform="matrix(.75 0 0 .75 0 0)" font-size="14.6921" font-family="F2" font-weight="bold"><tspan y="317.6" x="96 103.1667 110.95352 118.837619 122.446079 130.33017 142.28185 149.6781 157.46492 162.55837 165.87987 178.72112 185.9739 193.76073 201.01352 207.97936 215.37561 220.51786">Equipment Manager </tspan></text>
<text xml:space="preserve" transform="matrix(.75 0 0 .75 0 0)" font-size="14.6921" font-family="F4"><tspan y="336.32" x="120">&#xf0b7;</tspan></text>
<text xml:space="preserve" transform="matrix(.75 0 0 .75 0 0)" font-size="14.6921" font-family="F5"><tspan y="336.32" x="126.72"> </tspan></text>
<text xml:space="preserve" transform="matrix(.75 0 0 .75 0 0)" font-size="14.6921" font-family="F1"><tspan y="336.32" x="144 156.56147 163.59905 171.31813 178.35572 185.27133 192.58152 198.32779 201.64929 209.28919 214.41133 221.44892 229.0888 235.40642 243.04631 246.27858 252.49117 259.39646 271.13294 278.85203 286.4919 292.36875 295.60099 299.3027 306.35493 309.67643 313.04817 320.68806 327.4464 334.7566 342.47569 347.32408 355.07185 360.194 366.8442">Manages branch campus IT inventory </tspan></text>
<text xml:space="preserve" transform="matrix(.75 0 0 .75 0 0)" font-size="14.6921" font-family="F4"><tspan y="355.04" x="120">&#xf0b7;</tspan></text>
<text xml:space="preserve" transform="matrix(.75 0 0 .75 0 0)" font-size="14.6921" font-family="F5"><tspan y="355.04" x="126.72"> </tspan></text>
<text xml:space="preserve" transform="matrix(.75 0 0 .75 0 0)" font-size="14.6921" font-family="F1"><tspan y="355.04" x="144 151.9917 159.63159 163.00331 166.37503 174.01493 179.7612 183.0827 190.80179 198.44168 201.76319 208.96231 216.6022 221.52349 229.16338 241.06397 248.10155 252.80303 260.29603 267.9359 271.25743 277.0037 283.76206 289.34504 294.26634 301.46546 313.36607 319.11235 322.43385 327.28224 335.03 338.26225 350.16285 356.9212 363.6001 371.09309 374.41459 380.43836 387.47593 399.37654 407.01643 414.6563 420.53315 423.76539 427.13713 434.6301 441.38847 448.69865 456.41773 461.2661 469.0139 474.13606 480.8944 484.12666 495.86314 502.9007 510.5406 517.5782 524.4938 531.69296 543.4294 550.73959 558.37948 563.3007 566.62228 572.4991 580.139 585.88528 590.73367 597.77127 601.00357 608.72268 615.76028 623.40017 626.77188 634.08206">Builds up automated systems to make campus inventory management sustainable </tspan></text>
<text xml:space="preserve" transform="matrix(.75 0 0 .75 0 0)" font-size="14.6921" font-family="F4"><tspan y="373.76" x="120">&#xf0b7;</tspan></text>
<text xml:space="preserve" transform="matrix(.75 0 0 .75 0 0)" font-size="14.6921" font-family="F5"><tspan y="373.76" x="126.72"> </tspan></text>
<text xml:space="preserve" transform="matrix(.75 0 0 .75 0 0)" font-size="14.6921" font-family="F1"><tspan y="373.76" x="144 147.70172 159.43817 166.47576 173.39138 180.70156 186.44783 189.76934 193.14105 200.17864 207.6716 212.59288 220.52661 228.1665 233.74951 237.07102 247.57357 251.09966 255.94805 263.66716 266.89939 279.97019 283.34193 290.9818 298.6217 306.36949 316.87205 322.61833 325.85057 333.59834 338.7205 342.042 354.60346 361.64103 367.8536 377.5814 384.33204 387.65354 395.29344 401.0397 404.41145 412.05134 418.96696 422.1992 435.27 438.64173 446.28163 453.87159 461.04545 464.13078 472.0645 477.18669 480.50819 485.19273 493.56724 506.1287 512.7402">Images laptops with Windows or MacOS using WinPE or JAMF </tspan></text>
<text fill="#1f3763" xml:space="preserve" transform="matrix(.75 0 0 .75 0 0)" font-size="15.9697" font-family="F2" font-weight="bold"><tspan y="404.96" x="96 100.257549 108.16441 111.99715 119.54533 124.97503 133.54471 142.11438 150.15381 158.72348 164.15317 167.7635 177.66472 184.03545 190.26363 194.18589 200.73346 206.26982 214.1533 222.72298 228.15267">IT Student Assistant </tspan></text>
<text xml:space="preserve" transform="matrix(.75 0 0 .75 0 0)" font-size="14.6921" font-family="F1"><tspan y="423.2" x="96 103.83387 110.871448 114.24317 117.6149 122.02253 129.77031 134.89246 142.61154 145.98326 153.02085 156.34235 163.09296 168.01424 174.91953 179.8408 187.15099 190.47249 200.02236 207.66225 210.8945 217.65288 224.96306 230.0852 235.83148 239.06374 243.91214 250.6705 253.90277 260.6534 267.69099 273.90357 278.8989 285.93647 297.83708 305.14726 312.64024 317.56153 325.3093 328.6308 335.94819 339.26969 346.02033 353.0579 359.3755 364.49766 371.40293 383.0097 390.3199 398.03898 402.96028 410.60017 414.12626 417.44776 425.3815 432.41908 435.7908 439.16255 443.57017 451.31794 456.4401 464.15919 467.5309 474.4362">California State University Sacramento &#x2013; Sacramento, California </tspan></text>
<text xml:space="preserve" transform="matrix(.75 0 0 .75 0 0)" font-size="14.6921" font-family="F1"><tspan y="441.12" x="96 105.40294 113.33667 119.9725 127.17163 139.07222 146.71212 154.0223 159.01761 162.33911 169.68517 177.13166 184.57814 192.02463 195.34613 200.19454 208.12827 211.44977 216.00432 223.7234 231.3633 238.56243 241.88393 249.33042 256.67646 264.12294 271.5694">November 2021 to June 2022 </tspan></text>
<text xml:space="preserve" transform="matrix(.75 0 0 .75 0 0)" font-size="14.6921" font-family="F1"><tspan y="459.04" x="96"> </tspan></text>
<text xml:space="preserve" transform="matrix(.75 0 0 .75 0 0)" font-size="14.6921" font-family="F2" font-weight="bold"><tspan y="479.52" x="96 103.77649 111.66058 117.521648 122.6151 130.51354 142.46521 149.86147 155.00371 158.23598 162.88465 170.13744 176.28545 179.8939 187.68073 194.64656 197.87883 201.99262 209.19174">Customer facing IT </tspan></text>
<text xml:space="preserve" transform="matrix(.75 0 0 .75 0 0)" font-size="14.6921" font-family="F4"><tspan y="498.24" x="120">&#xf0b7;</tspan></text>
<text xml:space="preserve" transform="matrix(.75 0 0 .75 0 0)" font-size="14.6921" font-family="F5"><tspan y="498.24" x="126.72"> </tspan></text>
<text xml:space="preserve" transform="matrix(.75 0 0 .75 0 0)" font-size="14.6921" font-family="F1"><tspan y="498.24" x="144 147.70172 155.34162 160.2629 167.57308 172.69522 179.4536 182.82532 190.02445 200.527 206.40384 209.48918 215.8068 219.17852 222.55023 229.86042 237.5003 242.42159 245.74309 250.22676 257.13206 263.44966 271.08955 274.46128 279.38258 286.14094 289.37318 297.12095 302.2431 305.47535 311.22163 316.1429 323.18049 327.5881 332.07179 335.30403 343.0518 350.77088 354.09239 359.01368 366.73277 374.04295 377.41468 382.53684 385.76908 392.08668 399.72657 404.84873 409.9709 417.28108 424.92097 429.84226 433.0745 439.3921 446.42967 452.17594 459.4861 462.71836 467.41984 475.35359 478.67509 486.31498 489.6867 495.43299 501.45677 509.3905 515.85507 523.348 528.3433 531.66488 538.34378 545.98367 553.73147 564.234 571.9531 575.1854 582.223 589.8629 597.58206 600.90359 608.6227 616.2626 622.94149 630.6606 638.4084 648.91098 656.63009 659.9516 666.2692 673.9091 679.6554 684.5038 692.1437 703.8801 711.1903 716.31246">Interviews client faculty or staff on their current case to discover known and unknown customer </tspan></text>
<text xml:space="preserve" transform="matrix(.75 0 0 .75 0 0)" font-size="14.6921" font-family="F1"><tspan y="516.16" x="144 151.6399 158.95008 166.44304 174.08293 179.66594">needs </tspan></text>
<text xml:space="preserve" transform="matrix(.75 0 0 .75 0 0)" font-size="14.6921" font-family="F4"><tspan y="534.88" x="120">&#xf0b7;</tspan></text>
<text xml:space="preserve" transform="matrix(.75 0 0 .75 0 0)" font-size="14.6921" font-family="F5"><tspan y="534.88" x="126.72"> </tspan></text>
<text xml:space="preserve" transform="matrix(.75 0 0 .75 0 0)" font-size="14.6921" font-family="F1"><tspan y="534.88" x="144 151.83388 159.58167 167.5154 172.63755 180.27744 183.64916 191.28905 198.32663 203.17504 210.48522 216.23149 219.46376 229.96631 233.33803 238.25931 245.8992 249.2207 255.53832 258.91004 262.1423 269.45249 277.09239 282.01368 287.8905 290.97584 295.89714 303.83088 307.0631 314.3733 322.01319 327.89 335.5299 340.65208 347.96226 351.28376 356.20506 363.92414 370.9617 375.8101 379.04234 386.7614 394.0716 401.79069 405.1624 412.8023 419.4525 431.189 438.49919 446.21827 451.13957 456.72254 460.04405 466.9493 472.07148 479.38166 482.70317 486.0749 493.56788 499.31416 504.89714 508.21864 515.8585 522.8961 526.2678 533.9077 538.39138 546.03128 549.40298">Coordinates with clients to ensure that deployments are less painful </tspan></text>
<text xml:space="preserve" transform="matrix(.75 0 0 .75 0 0)" font-size="14.6921" font-family="F4"><tspan y="553.6" x="120">&#xf0b7;</tspan></text>
<text xml:space="preserve" transform="matrix(.75 0 0 .75 0 0)" font-size="14.6921" font-family="F5"><tspan y="553.6" x="126.72"> </tspan></text>
<text xml:space="preserve" transform="matrix(.75 0 0 .75 0 0)" font-size="14.6921" font-family="F1"><tspan y="553.6" x="144 150.17671 157.4869 164.68602 169.68134 177.40042 183.1467 186.4682 193.50579 200.99875 208.93248 216.57238 221.49365 224.81516 230.56143 238.30922 241.68094 249.32083 254.24211 257.47438 265.22215 272.94123 276.26274 282.13957 289.77946 296.81703 302.8408 310.15098 316.0278 319.26005 323.7437 331.4915 336.61366 339.93516 346.14775 349.51948 352.8912 360.2014 367.84129 372.68968 378.43595 381.75746 389.47654 396.7867 401.19435 408.9421 414.06428 421.37446 424.69596 432.33586 439.64604 447.28593 450.65766 458.29756 464.94776 468.18003 475.8991 482.81474 486.13624 491.8825 499.63029 503.002 510.7211 515.64236 519.01406 526.76187 534.48098 540.06399">Learns about solution spaces for clients before deploying solutions </tspan></text>
<text xml:space="preserve" transform="matrix(.75 0 0 .75 0 0)" font-size="14.6921" font-family="F4"><tspan y="572.16" x="120">&#xf0b7;</tspan></text>
<text xml:space="preserve" transform="matrix(.75 0 0 .75 0 0)" font-size="14.6921" font-family="F5"><tspan y="572.16" x="126.72"> </tspan></text>
<text xml:space="preserve" transform="matrix(.75 0 0 .75 0 0)" font-size="14.6921" font-family="F1"><tspan y="572.16" x="144 156.56147 163.59905 166.97077 174.61066 179.53194 186.73107 189.96332 197.6824 203.42868 206.75019 214.24315 222.17688 227.92316 231.29488 236.21616 239.44841 246.08426 253.39444 256.71595 263.03355 266.40528 269.63755 276.94773 284.58763 289.5089 292.8304 297.95259 305.1517 308.38398 315.42155 320.34284 323.71458 331.64833 339.2882 345.0345 352.67439 356.0461 363.7652 369.51148 372.83299 377.68138 385.42915 388.75065 396.46974 404.10963 407.48136 410.8531 418.49299 421.81449 429.0136 436.6535 439.88575 447.6335 455.2734 462.47254 470.19163 473.51313 479.83073 487.4706 494.50819 502.14808 509.86717 517.1773 520.549 523.87057 531.80429 536.06497 539.3865 545.7041 553.344 564.95077 576.8514 584.4913 592.2104 595.5821 601.7947 608.8323 613.75357 616.98587 624.62576 632.2656 635.58718 643.3063 650.61648 655.5377 666.26296 673.4621 680.7723 688.4122 691.7337 696.65499 704.3741 711.57327">Maintains positive client relationships to build an open channel of communication between the </tspan></text>
<text xml:space="preserve" transform="matrix(.75 0 0 .75 0 0)" font-size="14.6921" font-family="F1"><tspan y="590.08" x="144 151.6399 158.95008 166.66916 173.70674 178.82889 183.75017 195.48662 202.7968 210.43669 215.35797 218.67948 225.8786 233.5185 241.15839 244.47989 247.85161 252.77289 258.35588 261.67738 267.99497 271.3667 274.73844 282.0486 289.6885 294.5369 297.8584 305.4983 312.40357 318.2804 325.47953">department and its client base </tspan></text>
<text xml:space="preserve" transform="matrix(.75 0 0 .75 0 0)" font-size="14.6921" font-family="F1"><tspan y="608" x="96"> </tspan></text>
<text xml:space="preserve" transform="matrix(.75 0 0 .75 0 0)" font-size="14.6921" font-family="F2" font-weight="bold"><tspan y="628.64" x="96 99.91693 107.801029 112.89448 120.29075 125.513339 133.39743 140.65023 144.17633 147.49784 152.1465 159.19872 165.51631 169.12477 177.00887 183.91416 187.23566 191.0556 198.32991 201.56218 208.6144 216.51284 221.06739 226.16083 237.32683 244.37905 249.52129 257.01426 260.2465 267.29869 270.90715 278.79124 285.99037">Internal facing IT Software Side </tspan></text>
<text xml:space="preserve" transform="matrix(.75 0 0 .75 0 0)" font-size="14.6921" font-family="F4"><tspan y="647.36" x="120">&#xf0b7;</tspan></text>
<text xml:space="preserve" transform="matrix(.75 0 0 .75 0 0)" font-size="14.6921" font-family="F5"><tspan y="647.36" x="126.72"> </tspan></text>
<text xml:space="preserve" transform="matrix(.75 0 0 .75 0 0)" font-size="14.6921" font-family="F1"><tspan y="647.36" x="144 156.56147 163.59905 171.31813 178.35572 185.27133 192.58152 198.32779 201.64929 209.14226 216.45244 224.17153 231.2091 236.33126 241.17966 252.9161 260.2263 267.94538 272.86668 276.0989 281.0202 284.39195 290.70954 297.17408 304.3732 309.2945 315.17134 318.40357 323.25196 331.1857 334.27104 346.17164 349.54338 354.46467 357.8364 364.752 371.6573 376.50569 383.81587 387.13737 394.17494 401.09056 404.46229 412.10218 419.0178 422.3393 427.2606 430.63233 436.94993 443.41447 450.72465 455.64595 461.3922 464.62446 471.52973 479.2488 486.8887 490.2102 497.9293 501.30104 507.0473 512.16946 519.8093 527.52847 532.4497 535.8214 543.5692 551.2883 557.0346 560.35617 570.8587 574.091 579.01229 586.7314 590.0529 596.8035 604.1137 609.109 615.8674 619.2391 625.2628 632.573 642.0568 649.8046 660.236">Manages department tickets to mitigate aging tickets and disruptions with ServiceNow </tspan></text>
<text xml:space="preserve" transform="matrix(.75 0 0 .75 0 0)" font-size="14.6921" font-family="F4"><tspan y="665.92" x="120">&#xf0b7;</tspan></text>
<text xml:space="preserve" transform="matrix(.75 0 0 .75 0 0)" font-size="14.6921" font-family="F5"><tspan y="665.92" x="126.72"> </tspan></text>
<text xml:space="preserve" transform="matrix(.75 0 0 .75 0 0)" font-size="14.6921" font-family="F1"><tspan y="665.92" x="144 151.15953 156.28168 163.31926 169.53185 176.21073 182.08757 185.17292 191.49053 199.13042 204.25257 209.37471 216.68489 224.32479 229.24607 232.56757 236.09366 243.58663 250.345 257.65519 265.29508 270.14347 277.89125 283.0134 289.6636 292.89585 296.26759 303.4667 310.22508 317.53526 320.90699 326.65327 329.8855 334.8068 342.4467 345.7682 353.48728 361.42103 366.2694 369.64115 374.04878 380.69898 384.02049 391.73957 399.04975 406.68965 413.7272 418.72254 423.64384 435.3803 442.6905 450.33039 455.25169 458.57319 466.21308 473.52326 480.56083 488.2007 491.52223 499.45597 503.71669 507.03819 510.4099 518.129 524.44668 532.08657 543.823 547.1947 554.9138 561.8294 565.0617 572.7808 579.8184 584.94058 592.58047 603.083 610.1206 615.1159 622.4261 625.6584 633.2983 640.79129 648.10147 655.74136 661.32437">Tracks current inventory levels to notify department head of incoming hardware needs </tspan></text>
<text xml:space="preserve" transform="matrix(.75 0 0 .75 0 0)" font-size="14.6921" font-family="F6"><tspan y="683.84" x="168">o</tspan></text>
<text xml:space="preserve" transform="matrix(.75 0 0 .75 0 0)" font-size="14.6921" font-family="F5"><tspan y="683.84" x="176.8"> </tspan></text>
<text xml:space="preserve" transform="matrix(.75 0 0 .75 0 0)" font-size="14.6921" font-family="F1"><tspan y="683.84" x="192 199.83388 207.47377 212.59592 217.71807 225.02825 232.74733 237.66861 241.04033 247.79869 251.1202 258.7601 266.4792 269.85093 273.22267 280.86256 284.23429 291.87419 298.7898 302.1113 309.14888 312.47038 319.52259 326.83277 333.73805 345.63865 351.22163 355.62925 363.34834 370.3859 376.13218 383.44236 391.08226 394.40376 399.32505 407.0728 415.00657 418.23884 421.47108 426.39237 434.11146 441.14903 446.0703 449.30256 459.8051 467.73887 475.37876 478.7505 486.39039 489.71189 497.20487 505.1386 512.7785 520.0887 524.5723 532.2122 535.5839 538.9556 545.714 549.0355 556.0731 563.713 568.5614 576.2013 588.1019 595.1395 600.0608 607.25997 610.5815 615.50277 623.22189 630.53207 633.8536 641.5727 646.568 654.3158 660.5284 667.83859 673.4216 679.16787 682.4894 690.2372 694.7208">Currently building a Teams-based tool that would hopefully automate the process of </tspan></text>
<text xml:space="preserve" transform="matrix(.75 0 0 .75 0 0)" font-size="14.6921" font-family="F1"><tspan y="701.76" x="192 199.6399 206.67748 211.79962 219.43952 229.94207 237.14119 242.1365 249.62947 252.86174 257.78303 262.90519 269.81047 276.12806 282.80696 286.17869 293.81858 300.7342 304.0557 308.977 316.61689 321.6122 329.54597 337.18586 344.10148 351.74137 354.9736 362.01118 369.65107 372.97257 376.3443 383.9842 388.9055 396.21568 401.33784 408.0962 411.32847 418.63865 429.1412 432.37345 440.3072 445.42936 448.51469 454.83229 462.58006 470.21995 476.85578 484.16596 489.28813 495.0344 501.93968 506.86097 510.2327 517.8726 525.59176 528.91329 533.83456 540.5929 548.312 555.6222 558.8545 564.60079 571.35916 577.1054 581.8069 589.00607 600.9067 604.2282 608.7828 612.1545 615.2398 627.14047 630.51217 635.4334 642.7436 650.2366 653.5581 661.2772 666.39938 674.33309 680.9445 686.06668 693.37686 699.25369 704.99996 709.2607">hardware tracking through an interview or conversation type system (limited progress) </tspan></text>
<text xml:space="preserve" transform="matrix(.75 0 0 .75 0 0)" font-size="14.6921" font-family="F4"><tspan y="720.48" x="120">&#xf0b7;</tspan></text>
<text xml:space="preserve" transform="matrix(.75 0 0 .75 0 0)" font-size="14.6921" font-family="F5"><tspan y="720.48" x="126.72"> </tspan></text>
<text xml:space="preserve" transform="matrix(.75 0 0 .75 0 0)" font-size="14.6921" font-family="F1"><tspan y="720.48" x="144 153.0391 160.23822 166.9966 174.30678 177.53903 185.47277 193.11266 198.85894 202.18044 207.92671 214.24433 219.23964 222.61136 230.33045 235.17885 242.48903 250.12892 253.45043 258.2988 266.04658 273.98033 277.2126 282.95887 286.28038 291.20167 298.84156 305.74684 310.66813 313.98963 321.7087 329.0189 332.39064 340.1097 343.4312 348.2796 356.02738 359.34889 366.548 372.57179 378.78437 386.09455 389.46629 396.77647 401.7718 408.80937 413.73066 421.04084 424.27308 429.19438 436.68736 444.32725 447.5595 455.30729 462.94718 468.69346 471.9257 476.847 483.88456 489.76139 496.37284 501.9558 505.2773 508.80345 512.0357 518.7146 526.2076 529.5291 532.9008 536.1331 542.3457 549.6559 557.2958 563.04208 570.2412 573.56277 579.7753 587.52316 595.163 601.9214 609.23159 614.22689 619.97317 623.34487 630.98477 638.62466 644.50149">Develops scripted tools that help to accelerate tedious tasks like license conversions </tspan></text>
<text xml:space="preserve" transform="matrix(.75 0 0 .75 0 0)" font-size="14.6921" font-family="F1"><tspan y="738.4" x="96"> </tspan></text>
<text xml:space="preserve" transform="matrix(.75 0 0 .75 0 0)" font-size="14.6921" font-family="F2" font-weight="bold"><tspan y="758.88" x="96 99.91693 107.801029 112.89448 120.29075 125.513339 133.39743 140.65023 144.17633 147.49784 152.1465 159.19872 165.51631 169.12477 177.00887 183.91416 187.23566 191.0556 198.25473">Internal facing IT </tspan></text>
<text xml:space="preserve" transform="matrix(.75 0 0 .75 0 0)" font-size="14.6921" font-family="F4"><tspan y="777.6" x="120">&#xf0b7;</tspan></text>
<text xml:space="preserve" transform="matrix(.75 0 0 .75 0 0)" font-size="14.6921" font-family="F5"><tspan y="777.6" x="126.72"> </tspan></text>
<text xml:space="preserve" transform="matrix(.75 0 0 .75 0 0)" font-size="14.6921" font-family="F1"><tspan y="777.6" x="144 150.75061 158.06079 165.37097 172.04985 177.9267 181.01204 185.93332 193.6811 197.00261 208.9032 215.94078 219.3125 226.80547 231.72675 238.76433 242.13605 249.77594 253.09745 260.135 267.7749 271.00715 278.9409 283.93623 290.85185 297.8894 305.5293 308.90104 314.63096 322.12394 329.76383 333.08534 340.1229 347.7628 355.40269 358.72419 366.21717 373.25474 379.001 385.46556 388.78706 393.63545 401.56919 404.8907 410.63697 418.27687 425.31443 430.43659 437.6357 440.9572 451.3886 459.13639 464.1317 470.8106 476.68745 484.32734 491.3649 497.57749 504.7766">Seeks to maintain an organized and easy to share workspace </tspan></text>
<text xml:space="preserve" transform="matrix(.75 0 0 .75 0 0)" font-size="14.6921" font-family="F4"><tspan y="796.32" x="120">&#xf0b7;</tspan></text>
<text xml:space="preserve" transform="matrix(.75 0 0 .75 0 0)" font-size="14.6921" font-family="F5"><tspan y="796.32" x="126.72"> </tspan></text>
<text xml:space="preserve" transform="matrix(.75 0 0 .75 0 0)" font-size="14.6921" font-family="F1"><tspan y="796.32" x="144 153.0391 160.53206 168.17195 171.54367 179.18357 185.94193 191.6882 195.0097 198.38143 205.419 212.91197 216.23348 223.54366 231.26274 238.90264 242.27436 249.91425 261.65074 268.9609 276.6008 281.5221 284.8436 288.36973 296.0096 299.33113 306.2364 309.5579 320.06047 327.09803 333.74824 337.06974 341.99104 349.63093 356.6685 361.58979 364.9113 368.28303 374.0293 377.26155 384.75453 391.6598 397.40608 404.05628 407.37779 412.22618 419.97395 423.20619 435.10679 442.01206 445.3838 453.10289 458.02418 465.06175 468.294 475.9339 479.2554 489.75798 497.47706 500.8488 504.22053 511.5307 514.85226 522.57138 529.88156 533.25326 540.97238 547.88796 551.12026 555.6039 563.323 570.9629 577.2805 582.1289 585.3612 593.2949 600.9348 607.9724 611.3441 614.66567 618.92636 626.86007 631.70846 635.02999 640.9068 645.82809 653.46798 661.1871 668.49728 676.13717 681.0584 686.93527 690.2568 697.2944 704.93429 712.6534">Deploys lab equipment in a way that is easy to maintain while being functional for students and </tspan></text>
<text xml:space="preserve" transform="matrix(.75 0 0 .75 0 0)" font-size="14.6921" font-family="F1"><tspan y="814.24" x="144 148.40764 155.44522 161.76284 169.40273 172.77445 177.69573 184.3459">faculty </tspan></text>
<text xml:space="preserve" transform="matrix(.75 0 0 .75 0 0)" font-size="14.6921" font-family="F4"><tspan y="832.96" x="120">&#xf0b7;</tspan></text>
<text xml:space="preserve" transform="matrix(.75 0 0 .75 0 0)" font-size="14.6921" font-family="F5"><tspan y="832.96" x="126.72"> </tspan></text>
<text xml:space="preserve" transform="matrix(.75 0 0 .75 0 0)" font-size="14.6921" font-family="F1"><tspan y="832.96" x="144 151.15953 156.28168 164.02947 171.74855 179.46764 182.83936 190.14954 195.89582 203.38878 211.32251 218.9624 223.88368 229.62996 232.95146 240.67055 247.70813 252.83028 260.47019 270.97276 278.0103 283.00566 290.31584 293.63734 297.00907 302.59205 308.46888 316.10877 323.41896 329.16523 332.48674 338.36357 346.00346 352.21604 359.85594 363.17744 370.215 375.96128 379.1935 386.8334 393.87098 398.99314 406.71223 410.03373 417.6736 422.79579 426.1675 432.80335 440.11354 443.43504 447.9187 454.95628 458.328 461.56028 469.20018 474.32234 481.6325 487.37879 490.7003 498.41938 505.45695 511.20323 518.51339 526.15328 529.38558 537.3193 544.95919 548.2807 553.20199 560.69497 568.0051 571.53128 577.2775 584.9174 592.2276 598.5452 601.7775 606.26119 609.49349 615.8111 618.8965 626.6156 633.6532 638.7753 646.4152 656.9178 663.9554 669.0775 676.3877 679.7092 687.42837 693.1746 700.4848 708.1247">Troubleshoots hardware issues such as hard drive failures based on the specific hardware used </tspan></text>
<text xml:space="preserve" transform="matrix(.75 0 0 .75 0 0)" font-size="14.6921" font-family="F4"><tspan y="851.52" x="120">&#xf0b7;</tspan></text>
<text xml:space="preserve" transform="matrix(.75 0 0 .75 0 0)" font-size="14.6921" font-family="F5"><tspan y="851.52" x="126.72"> </tspan></text>
<text xml:space="preserve" transform="matrix(.75 0 0 .75 0 0)" font-size="14.6921" font-family="F1"><tspan y="851.52" x="144 150.75061 158.06079 162.98207 168.72835 172.04985 179.76894 187.40883 190.73033 197.76792 205.487 213.12689 216.4484 224.16748 231.47766 239.19675 242.429 250.17679 256.93516 262.51814 265.83964 271.71647 278.36668 283.94966 288.87095 296.07008 307.97068 313.71696 316.9492 327.45176 330.8235 335.74479 343.38468 346.70619 359.92909 363.3008 370.9407 378.4337 386.36744 396.79884 402.67567 406.20176 409.434 415.7516 419.12333 426.7632 434.4031 440.86766 444.39375 447.71525 454.6205 462.2604 469.9003 473.2218 486.00395 493.0415 499.2541 508.98188 515.7325 518.8179 525.1355 532.8833 538.00546 545.4984 553.4321 558.55429 565.59188 570.29336 577.6035 580.92507 584.29678 596.0332 603.0708 609.9864 617.18557 622.9318 626.25338 636.7559 640.1276 645.0489 652.768 656.0003 660.8487 668.5965 676.3443 679.716 685.59286 688.82516 692.19686 695.56857 702.18 709.4902">Sets up and deploys systems with Windows, Linux, and MacOS corporate images with tools like </tspan></text>
<text xml:space="preserve" transform="matrix(.75 0 0 .75 0 0)" font-size="14.6921" font-family="F1"><tspan y="869.44" x="144 150.75061 158.58449 166.41837 178.97983 182.30133 189.33892 196.9788 204.69789 208.0194 221.24228 224.47454 232.11443 239.70439 246.75659">SCCM and WinPE </tspan></text>
<text xml:space="preserve" transform="matrix(.75 0 0 .75 0 0)" font-size="14.6921" font-family="F4"><tspan y="888.16" x="120">&#xf0b7;</tspan></text>
<text xml:space="preserve" transform="matrix(.75 0 0 .75 0 0)" font-size="14.6921" font-family="F5"><tspan y="888.16" x="126.72"> </tspan></text>
<text xml:space="preserve" transform="matrix(.75 0 0 .75 0 0)" font-size="14.6921" font-family="F1"><tspan y="888.16" x="144 150.75061 154.12233 161.76222 169.40212 175.14839 178.4699 185.50748 193.22657 200.86646 204.18796 210.0648 214.91321 222.6323 230.27219 233.6439 240.95409 246.83094 250.0632 255.80948 263.55726 266.929 274.56889 279.49018 282.8619 290.79566 298.43556 304.01853 307.25077 312.09916 320.0329 323.3544 330.9943 338.71339 343.121 350.02629 361.92689 365.2986 368.67036 371.90263 378.9402 384.06236 387.38386 395.10295 400.09828 407.84605 415.56513 418.93687 426.136 438.0366 443.78288 447.0151 454.7342 462.04438 466.452 474.19978 479.32194 486.6321 489.9536 496.8589 501.78019 506.70149 514.01168 525.9123 533.5522 538.47348 541.84518 549.48507 556.40066 559.63296 564.4813 572.41506 575.64736 581.3936 588.7038 593.5522 598.4006 601.7723 609.08248 612.31478 620.2485 627.74148 631.063 638.1006 641.4221 647.1684 654.9162 658.4423 665.9353 670.7837 674.1554 682.0891 689.729 692.9613 697.88259 705.6304">Finds and studies solutions to unfamiliar problems before attempting to settle on a solution to </tspan></text>
<text xml:space="preserve" transform="matrix(.75 0 0 .75 0 0)" font-size="14.6921" font-family="F1"><tspan y="906.08" x="144 151.31018 159.02927 164.77555 172.41544 177.53759 184.84777 188.16927 193.09055 200.80963 207.84722 212.69562 216.01712 223.65702 227.02873 232.90558 237.9009 245.61998 253.25988 258.18116 261.5529 269.48664 277.12654 282.7095 286.031 293.06858 298.19075 305.38987 308.71138 320.61198 323.9837 331.6236 334.85588 346.75648 349.98875 355.7924 363.10258 370.59556">ensure that disruptions are minimized </tspan></text>
<text xml:space="preserve" transform="matrix(.75 0 0 .75 0 0)" font-size="14.6921" font-family="F1"><tspan y="924" x="96"> </tspan></text>
</g>
</svg>
