<?xml version="1.0" encoding="UTF-8" standalone="no"?>
<!DOCTYPE svg PUBLIC "-//W3C//DTD SVG 1.1//EN" "http://www.w3.org/Graphics/SVG/1.1/DTD/svg11.dtd">
<svg xmlns="http://www.w3.org/2000/svg" xmlns:xlink="http://www.w3.org/1999/xlink" version="1.1" width="612pt" height="792pt" viewBox="0 0 612 792">
<g enable-background="new">
<text xml:space="preserve" transform="matrix(.75 0 0 .75 0 0)" font-size="14.6921" font-family="F1"><tspan y="986.08" x="375.04 382.62998 389.66755 396.58317 403.89335">Page </tspan></text>
<text xml:space="preserve" transform="matrix(.75 0 0 .75 0 0)" font-size="14.6921" font-family="F2" font-weight="bold"><tspan y="986.08" x="407.2">4</tspan></text>
<text xml:space="preserve" transform="matrix(.75 0 0 .75 0 0)" font-size="14.6921" font-family="F1"><tspan y="986.08" x="414.72 417.95225 425.7 430.1837"> of </tspan></text>
<text xml:space="preserve" transform="matrix(.75 0 0 .75 0 0)" font-size="14.6921" font-family="F2" font-weight="bold"><tspan y="986.08" x="433.44">4</tspan></text>
<text xml:space="preserve" transform="matrix(.75 0 0 .75 0 0)" font-size="14.6921" font-family="F1"><tspan y="986.08" x="440.8"> </tspan></text>
<text xml:space="preserve" transform="matrix(.75 0 0 .75 0 0)" font-size="14.6921" font-family="F1"><tspan y="1004" x="96"> </tspan></text>
<text fill="#1f3763" xml:space="preserve" transform="matrix(.75 0 0 .75 0 0)" font-size="15.9697" font-family="F2" font-weight="bold"><tspan y="111.2" x="96 103.90687 112.051418 118.73405 127.30373 135.8734 139.70613 146.5731 150.49536 158.37885 166.94852 170.46184 174.71939 178.8715">Technician II </tspan></text>
<text xml:space="preserve" transform="matrix(.75 0 0 .75 0 0)" font-size="14.6921" font-family="F1"><tspan y="129.44" x="96 103.977359 111.28754 119.22127 126.969058 134.46202 141.7722 148.23673 153.158 156.4795 160.88715 168.63494 173.63025 185.53084 192.84102 197.96317 201.19542 207.95378 211.18605 218.23827 225.54845 228.92017 236.41313 244.05303 247.42475 254.33003 261.96995 265.29145 268.99317 276.63307 281.55436 288.86454 293.9867 301.70579 308.74336 313.66465 317.03639 324.78416 332.50325 339.5408 342.77308 346.09458 353.41197 356.73347 364.7108 372.45857 378.04154 385.3517 392.11009 395.4818 398.85356 402.22529 409.4244 413.09025 416.32249 424.15638 432.53089">ReConext formerly Teleplan International &#x2013; Roseville, CA </tspan></text>
<text xml:space="preserve" transform="matrix(.75 0 0 .75 0 0)" font-size="14.6921" font-family="F1"><tspan y="147.36" x="96 102.75062 110.0608 117.70069 122.62197 129.8211 141.7217 149.36159 156.67177 161.79392 165.02619 172.47267 179.91916 187.36565 194.7117 198.0332 202.95449 210.70227 214.02378 226.80591 233.56429 240.32265 243.55492 251.0014 258.34745 265.98735 273.33338">September 2018 to May 2020 </tspan></text>
<text xml:space="preserve" transform="matrix(.75 0 0 .75 0 0)" font-size="14.6921" font-family="F1"><tspan y="165.28" x="96"> </tspan></text>
<text xml:space="preserve" transform="matrix(.75 0 0 .75 0 0)" font-size="14.6921" font-family="F2" font-weight="bold"><tspan y="185.76" x="96 102.21258 105.82104 113.16708 116.77554 122.636608 130.53504 138.32186 141.55413 145.16259 153.04668 156.36818 163.64249 171.03874 174.56485 181.9611 189.74793 193.35639 200.70244 208.48926 211.81076 216.45943 224.35787 229.58045 232.81272 240.5892 244.19766 250.05872 256.0825 263.98094 267.30244 273.45045 276.97657 280.7965 288.19279 295.97959 300.97489 306.83595">Liaison in Teleplan for Cisco clients </tspan></text>
<text xml:space="preserve" transform="matrix(.75 0 0 .75 0 0)" font-size="14.6921" font-family="F4"><tspan y="204.48" x="120">&#xf0b7;</tspan></text>
<text xml:space="preserve" transform="matrix(.75 0 0 .75 0 0)" font-size="14.6921" font-family="F5"><tspan y="204.48" x="126.72"> </tspan></text>
<text xml:space="preserve" transform="matrix(.75 0 0 .75 0 0)" font-size="14.6921" font-family="F1"><tspan y="204.48" x="144 153.72777 161.36766 168.67784 173.79999 180.83757 185.75885 193.25182 200.89171 204.12398 214.62653 217.99825 222.91953 230.55942 233.88092 241.08005 248.71994 251.95221 259.2624 266.90229 274.54219 279.0402 286.97395 291.38157 295.87959 301.90336 309.62245 316.66 320.03175 327.67164 332.07926 338.39686 346.03675 351.78303 356.7043 364.4521 376.18858 383.68156 388.67689 391.99839 399.71748 404.83964 408.0719 415.81968 420.94184 424.31358 429.16197 435.92033 439.00566 450.90626 454.27799 461.91789 469.55778 475.4346 482.74479 487.66609 490.98759 501.49015 509.13005 516.4402 524.0801 527.3124 539.213 546.2506 552.86209 556.23379 563.87368 570.78927 574.1108 581.8299 589.4698 595.7874 603.4273 615.03408 622.2332 629.95236 634.8736 641.9112 646.83248 650.20419 658.1379 665.7778 669.0993 676.1369 683.7768 691.4959">Operated with an end-of-chain-customer priority mindset when making documentation and </tspan></text>
<text xml:space="preserve" transform="matrix(.75 0 0 .75 0 0)" font-size="14.6921" font-family="F1"><tspan y="222.4" x="144 151.6399 156.76204 164.69577 170.90836 178.21854 183.96482 189.54782 192.86933 200.58841 207.89859 214.2162 217.44846 223.3253 226.41065 234.34438 241.98427 247.56728">process decisions </tspan></text>
<text xml:space="preserve" transform="matrix(.75 0 0 .75 0 0)" font-size="14.6921" font-family="F4"><tspan y="241.12" x="120">&#xf0b7;</tspan></text>
<text xml:space="preserve" transform="matrix(.75 0 0 .75 0 0)" font-size="14.6921" font-family="F5"><tspan y="241.12" x="126.72"> </tspan></text>
<text xml:space="preserve" transform="matrix(.75 0 0 .75 0 0)" font-size="14.6921" font-family="F1"><tspan y="241.12" x="144 153.0391 160.97283 167.18541 174.67838 186.57897 193.88915 201.38211 206.30339 213.61357 221.33266 224.65416 232.37325 239.57238 250.07492 253.39643 261.1155 266.11085 273.8586 281.5777 289.2176 295.5352 300.45649 306.03947 309.36097 319.86354 323.23527 328.15657 335.87565 339.19715 344.11845 351.75834 359.0685 362.39 368.7076 376.3475 382.09379 386.94218 394.58207 406.48268 413.79286 418.78819 422.10969 425.4814 433.1213 436.4428 448.3434 451.71516 459.35505 466.84803 470.16954 475.09083 483.02458 486.2568 492.4694 499.50697 504.42826 510.64085 518.2807 521.60226 529.2421 536.9899 541.8383 549.1485 556.7884 561.70968 565.2358 572.1411 575.5128 578.83438 586.55349 589.9252 596.2428 602.85427 607.3523 614.9922 622.7113 628.2943 631.61587 634.98757 642.62747 645.949 653.6681 660.7057 668.4248 676.0647 679.4364 682.8081 690.448 697.3636">Documented new products with the customer in mind to catch potential hick-ups in handling </tspan></text>
<text xml:space="preserve" transform="matrix(.75 0 0 .75 0 0)" font-size="14.6921" font-family="F4"><tspan y="259.84" x="120">&#xf0b7;</tspan></text>
<text xml:space="preserve" transform="matrix(.75 0 0 .75 0 0)" font-size="14.6921" font-family="F5"><tspan y="259.84" x="126.72"> </tspan></text>
<text xml:space="preserve" transform="matrix(.75 0 0 .75 0 0)" font-size="14.6921" font-family="F1"><tspan y="259.84" x="144 151.97736 159.28754 165.16439 172.47457 179.51215 184.36054 190.67815 198.31804 205.62822 213.3473 216.66881 221.51721 228.8274 235.145 242.7849 250.42479 253.79651 260.1141 267.01939 270.3911 273.71263 281.4317 289.0716 295.3892 302.88218 314.78279 322.09297 329.73286 334.65415 341.55943 346.4807 349.85246 357.7862 365.4261 368.7476 373.74293 381.0531 387.96873 395.0063 400.12846 407.76835 411.14009 418.77998 425.6956 429.0171 436.65699 443.96717 454.39857 457.72007 465.43916 470.5613 478.30909 486.02818 493.74726 499.95985 504.88114 510.6274 513.9489 520.9865 528.7056 536.3455 539.66708 543.03878 550.7579 556.97048 560.34219 567.98208 575.7012 582.9003 586.22189 593.86178 598.9839 606.9176 612.94137 620.2515 625.83456 631.71139 634.94369 641.2613 648.2989 654.93478 662.1339 669.1715 674.0928 679.83908">Researched technical documentation regarding new products and include process caveats </tspan></text>
<text xml:space="preserve" transform="matrix(.75 0 0 .75 0 0)" font-size="14.6921" font-family="F1"><tspan y="277.6" x="144 154.50255 157.87427 162.79555 170.51464 173.88636 181.52625 184.84775 192.56684 200.31462 206.63224 214.1252 226.02579 233.33597 240.97586 245.82427 252.86185 257.78315 261.15489 268.90266 276.54255 279.86405 284.27168 292.2054 297.0538 300.3753 307.4275 310.65977 318.5935 326.2334 333.27098 336.6427 339.9642 344.8855 352.08464 359.1222 371.0228 376.60578">within documentation for global teams </tspan></text>
<text xml:space="preserve" transform="matrix(.75 0 0 .75 0 0)" font-size="14.6921" font-family="F4"><tspan y="296.32" x="120">&#xf0b7;</tspan></text>
<text xml:space="preserve" transform="matrix(.75 0 0 .75 0 0)" font-size="14.6921" font-family="F5"><tspan y="296.32" x="126.72"> </tspan></text>
<text xml:space="preserve" transform="matrix(.75 0 0 .75 0 0)" font-size="14.6921" font-family="F1"><tspan y="296.32" x="144 153.0391 160.23822 166.9966 174.30678 177.53903 185.47277 193.11266 200.42284 208.06273 211.38423 218.42182 226.1409 233.78079 237.1023 242.22444 249.7174 254.12505 257.49678 264.98976 272.29994 280.019 283.3405 288.1889 295.93669 303.87043 307.1027 312.84898 316.17048 319.5422 327.1821 330.5036 337.99656 344.7549 349.6762 357.3953 365.14308 372.86216 376.38825 379.70976 387.7904 394.82798 399.67637 405.99397 413.63386 417.15995 420.48146 427.519 435.2381 442.878 446.1995 453.78947 461.42936 471.93193 479.2421 484.36427 490.2411 497.88099 505.19117 508.5629 511.93464 515.16696 520.0882 527.7281 531.0496 538.0872 544.40487 550.4286 557.7388 561.1105 568.60348 573.59878 580.63638 585.48477 592.7949 596.11648 601.0377 608.6776 615.9878 619.2201 626.86 634.6078 640.9254 648.5653 660.30178 667.61196 675.25186 680.1731 687.2107 692.13198 695.36428 703.298 710.93789">Developed and refined tools in Python, Batch, and Powershell to accelerate the documentation </tspan></text>
<text xml:space="preserve" transform="matrix(.75 0 0 .75 0 0)" font-size="14.6921" font-family="F1"><tspan y="314.24" x="144 151.6399 156.76204 164.69577 170.90836 178.21854 183.96482 189.71109 193.2372 196.5587 201.11325 207.72469 214.76227 221.39812 228.7083 236.34819 239.6697 246.70728 254.42636 257.74787 264.65315 271.4115 278.72169 283.84385 290.8814 297.79704 304.99617 308.2284 316.16215 320.56977 323.802 331.24848 334.56999 342.28907 349.32664 355.97685 361.7231 364.95536 372.67445 379.98463 385.10679 388.42829 396.14738 403.78727 407.159 412.0074 416.2681">process. (Saved an average of 5 days per unit) </tspan></text>
<text xml:space="preserve" transform="matrix(.75 0 0 .75 0 0)" font-size="14.6921" font-family="F6"><tspan y="332.16" x="168">o</tspan></text>
<text xml:space="preserve" transform="matrix(.75 0 0 .75 0 0)" font-size="14.6921" font-family="F5"><tspan y="332.16" x="176.8"> </tspan></text>
<text xml:space="preserve" transform="matrix(.75 0 0 .75 0 0)" font-size="14.6921" font-family="F1"><tspan y="332.16" x="192 195.70172 203.34162 209.65923 212.89148 220.61057 228.25046 235.56064 243.27973 246.60123 252.47808 260.11799 271.85447 279.34745 282.57969 285.81196 297.71257 304.75013 311.66575 318.71797 322.03947 333.77595 340.8135 348.4534 351.82514 359.46504 367.1841 370.55586 377.5934 382.5147 385.88645 393.63423 401.3533">Included some image manipulation </tspan></text>
<text xml:space="preserve" transform="matrix(.75 0 0 .75 0 0)" font-size="14.6921" font-family="F6"><tspan y="350.08" x="168">o</tspan></text>
<text xml:space="preserve" transform="matrix(.75 0 0 .75 0 0)" font-size="14.6921" font-family="F5"><tspan y="350.08" x="176.8"> </tspan></text>
<text xml:space="preserve" transform="matrix(.75 0 0 .75 0 0)" font-size="14.6921" font-family="F1"><tspan y="350.08" x="192 195.70172 203.34162 209.65923 212.89148 220.61057 228.25046 235.56064 243.27973 246.60123 252.47808 260.11799 271.85447 279.34745 282.57969 287.06336 290.4351 293.66737 300.97755 304.20979 316.11039 323.14796 330.78785 337.8254 344.74104 351.79325 363.69386 371.00404 378.7231 383.5715">Included some file management </tspan></text>
<text xml:space="preserve" transform="matrix(.75 0 0 .75 0 0)" font-size="14.6921" font-family="F2" font-weight="bold"><tspan y="370.56" x="96 104.90278 112.786869 117.88032 125.66713 137.6188 144.96486 149.96018 153.56864 161.46707 169.35117 172.67267 180.06893 187.85575 194.76103 198.36949 206.25359 213.64984 221.0461 226.18834 229.7968 237.6809 244.58618">Automation engineering </tspan></text>
<text xml:space="preserve" transform="matrix(.75 0 0 .75 0 0)" font-size="14.6921" font-family="F4"><tspan y="389.28" x="120">&#xf0b7;</tspan></text>
<text xml:space="preserve" transform="matrix(.75 0 0 .75 0 0)" font-size="14.6921" font-family="F5"><tspan y="389.28" x="126.72"> </tspan></text>
<text xml:space="preserve" transform="matrix(.75 0 0 .75 0 0)" font-size="14.6921" font-family="F1"><tspan y="389.28" x="144 153.72777 161.36766 169.08675 176.83454 183.87212 188.99427 196.71335 204.02353 211.74262 215.06412 222.70401 229.35419 232.67569 240.31558 245.43773 252.63686 259.39524 262.76698 270.51475 278.23384 283.9801 287.21235 294.52253 302.0155 308.93113 312.30287 319.94276 327.25294 334.5631 339.68528 343.00679 347.49046 355.4242 360.41954 363.65177 370.68934 378.40843 383.2568 391.00459 402.90519 409.81047 414.65885 418.03059 425.96434 433.60423 436.83647 448.57295 455.6105 458.84278 466.48268 471.40397 478.89695 486.53684 493.5744 501.2143 507.42689 514.73709 518.0586 525.7777 530.773 538.5208 545.4364 550.55856 557.5961 569.2029 581.1035 584.4752 592.1151 599.0307 602.35226 609.38986 616.8828 624.5227 627.84426 635.56338 642.87356 649.6319 656.9421 660.1744 668.1081 675.6011 687.3375 694.8305 702.4704 707.39169">Onboarded by previous engineer for automation maintenance programming and development </tspan></text>
<text xml:space="preserve" transform="matrix(.75 0 0 .75 0 0)" font-size="14.6921" font-family="F1"><tspan y="407.2" x="144 148.40764 156.34137 161.46352 164.78502 172.42491 179.73509 187.45418 194.49176 199.6139 204.46231 216.06906 223.37924 231.09833 236.0196 239.34111 246.3787 254.09778 258.94618 266.58607 278.48667 285.39195 290.31324 293.5455 301.29328 308.93318 312.25468 319.97377 325.09593 332.8437 336.3589 343.85188 349.87565 354.72404">for department automation project </tspan></text>
<text xml:space="preserve" transform="matrix(.75 0 0 .75 0 0)" font-size="14.6921" font-family="F4"><tspan y="425.92" x="120">&#xf0b7;</tspan></text>
<text xml:space="preserve" transform="matrix(.75 0 0 .75 0 0)" font-size="14.6921" font-family="F5"><tspan y="425.92" x="126.72"> </tspan></text>
<text xml:space="preserve" transform="matrix(.75 0 0 .75 0 0)" font-size="14.6921" font-family="F1"><tspan y="425.92" x="144 152.50106 157.42234 162.34362 169.54274 181.44333 189.08322 194.0045 201.31468 209.03377 212.26604 217.18732 224.82721 228.14871 235.8678 240.98995 248.02753 252.5112 257.4325 260.754 267.79158 275.51066 278.7429 286.05308 292.5176 297.2191 304.4182 312.0581 317.93495 321.30668 329.05445 336.69435 340.01585 347.9496 352.2103 355.5318 360.4531 368.17219 375.48237 378.7146 385.75218 393.47126 398.39256 406.03245 417.93305 424.9706 429.8919 433.12419 440.87196 448.59104 451.91255 459.63163 464.62696 472.37474 475.88993 483.2001 489.4127 494.26109 497.58259 502.50389 510.22297 517.26058 522.10897 525.4305 535.8619 543.6097 551.3288 554.7005 562.3404 565.6619 573.1549 580.7948 587.8324 595.4723 598.844 606.1542 609.3865 620.9932 628.92697 634.0491 641.35928 644.6808 649.1644 652.3967 659.7069 666.17147 669.54318 677.18307 680.55477 683.92648 687.15878 692.00717 698.7655 702.08706 706.5707 714.3185 719.3138">Attempted to draft an extension of the automation project that would enable more flexibility for </tspan></text>
<text xml:space="preserve" transform="matrix(.75 0 0 .75 0 0)" font-size="14.6921" font-family="F1"><tspan y="443.84" x="144 148.40764 155.44522 161.32207 166.17047 169.49198 177.21106 184.24864 190.56626 197.87644 205.51633 208.7486 214.96118 222.60108 229.63866 237.35774 244.27336 251.58354 257.32984 260.65135 266.3976 269.76936 276.67463 281.59593 288.9061 296.546 299.8675 304.71589 312.64964 315.73497 323.6687 329.8813 336.09388 343.73377 348.85594 352.08818 362.59074 365.96247 370.88377 378.60285 381.97459 389.61448 392.93598 397.85728 405.57637 412.77549 416.097 423.81608 431.12626 438.84535 445.8829 451.00508 455.70655 467.44303 474.7532 482.3931 487.3144 491.13435">fast paced changes slated to occur within the department. </tspan></text>
<text fill="#767171" xml:space="preserve" transform="matrix(.75 0 0 .75 0 0)" font-size="17.2473" font-family="F3"><tspan y="467.04" x="96 104.45117 113.59224 122.56084 129.97719 138.08342 143.77504 147.74192 156.71051 165.67911">Education </tspan></text>
<text fill="#767171" xml:space="preserve" transform="matrix(.75 0 0 .75 0 0)" font-size="17.2473" font-family="F3"><tspan y="467.04" x="96 104.45117 113.59224 122.56084 129.97719 138.08342 143.77504 147.74192 156.71051 165.67911">Education </tspan></text>
<path transform="matrix(.75,0,0,.75,0,0)" d="M 94.08 472.96 L 721.92 472.96 L 721.92 475.84 L 94.08 475.84 Z " fill="#d0cece"/>
<text fill="#1f3763" xml:space="preserve" transform="matrix(.75 0 0 .75 0 0)" font-size="15.9697" font-family="F2" font-weight="bold"><tspan y="493.92" x="96 104.95177 112.49995 116.11028 120.032527 128.81586 132.4262 140.73044 149.31572 162.3067 170.87638 179.44605 185.19513 193.23456 198.66426 202.49698 210.04517 216.59275 220.515 228.65955 237.22922 243.91185 251.737">BS in Computer Science </tspan></text>
<text xml:space="preserve" transform="matrix(.75 0 0 .75 0 0)" font-size="14.6921" font-family="F1"><tspan y="512" x="96 103.83387 110.871448 114.24317 117.6149 122.02253 129.77031 134.89246 142.61154 145.98326 153.02085 156.34235 163.09296 168.01424 174.91953 179.8408 187.15099 190.47249 200.02236 207.66225 210.8945 217.65288 224.96306 230.0852 235.83148 239.06374 243.91214 250.6705 253.90277 261.22016 264.54167 271.2923 278.32987 284.54246 289.6646 296.5699 308.30638 315.61656 323.33564 328.18403 335.9318 339.16404 346.4814 349.80293 356.55357 363.59114 369.90873 375.03089 381.78926 393.68986 401.00004 408.71913 413.5675 421.31529 424.9811 428.3026 436.23637 444.46394">California State University &#x2013; Sacramento &#x2013; Sacramento, CA </tspan></text>
<text xml:space="preserve" transform="matrix(.75 0 0 .75 0 0)" font-size="14.6921" font-family="F1"><tspan y="529.92" x="96 104.501049 112.14094 117.06222 120.433948 126.75155 129.98381 137.7029 144.74048 149.66176 156.97194 164.69103 168.01253 174.76314 181.80072 185.17244 188.54416 191.6295 199.2694 206.61545 214.06194 221.40799">Anticipated Fall 2023 </tspan></text>
<text xml:space="preserve" transform="matrix(.75 0 0 .75 0 0)" font-size="14.6921" font-family="F1"><tspan y="547.84" x="96"> </tspan></text>
<text fill="#1f3763" xml:space="preserve" transform="matrix(.75 0 0 .75 0 0)" font-size="15.9697" font-family="F2" font-weight="bold"><tspan y="569.76" x="96 104.45271 113.03799 121.607669 127.51646 133.88718 141.9266 145.43993 157.33924 165.92452 171.60126 179.2664 182.87674 186.70948 195.27915 199.11186 207.56458 216.14986 229.08531 237.54924 246.11891 251.5486 259.69316 265.36988 268.98023 276.64567 283.32829 287.25053 295.28996 303.85963 310.54225 318.36738">Course work in Computer Science </tspan></text>
<text xml:space="preserve" transform="matrix(.75 0 0 .75 0 0)" font-size="14.6921" font-family="F1"><tspan y="588" x="96 102.75062 106.122348 113.432529 118.55468 123.676837 130.71442 133.94669 141.88042 149.6282 152.99993 156.23218 163.54236 170.45798 177.76816 181.00043 188.31778 191.63928 199.61664 207.36443 213.57701 220.25589 223.62761 226.99933 234.63922 238.30509 241.53736 249.37123 257.74574">Sierra College &#x2013; Rocklin, CA </tspan></text>
<text xml:space="preserve" transform="matrix(.75 0 0 .75 0 0)" font-size="14.6921" font-family="F1"><tspan y="605.92" x="96"> </tspan></text>
<text fill="#1f3763" xml:space="preserve" transform="matrix(.75 0 0 .75 0 0)" font-size="15.9697" font-family="F2" font-weight="bold"><tspan y="627.84" x="96 104.45271 113.03799 121.607669 127.51646 133.88718 141.9266 145.43993 157.33924 165.92452 171.60126 179.2664 182.87674 186.70948 195.27915 199.11186 208.06363 216.6333 222.86148 226.78374 235.35341 243.49796 249.86869 256.09687 259.7072 273.6651 281.54859 290.11827 298.00175 305.5075 313.65205 326.5875 334.62693 343.1966 348.73298">Course work in Business Management </tspan></text>
<text xml:space="preserve" transform="matrix(.75 0 0 .75 0 0)" font-size="14.6921" font-family="F1"><tspan y="645.92" x="96 103.83387 111.47376 118.78394 130.68454 137.88367 144.56255 151.76168 156.68296 163.72054 167.04204 174.87592 182.6237 194.23046 206.13105 213.77094 221.49002 224.86174 229.71015 236.36032 239.68183 247.32172 255.25545 258.4877 261.71998 269.21296 275.9713 283.2815 286.603 294.09599 297.41749 304.16813 311.2057 314.43797 321.6371 333.37358 337.0394 340.3609 350.2046">Chemeketa Community College &#x2013; Salem, OR</tspan></text>
<text fill="#767171" xml:space="preserve" transform="matrix(.75 0 0 .75 0 0)" font-size="17.2473" font-family="F3"><tspan y="645.92" x="358.24"> </tspan></text>
<text fill="#767171" xml:space="preserve" transform="matrix(.75 0 0 .75 0 0)" font-size="17.2473" font-family="F3"><tspan y="645.92" x="358.24"> </tspan></text>
<text fill="#767171" xml:space="preserve" transform="matrix(.75 0 0 .75 0 0)" font-size="17.2473" font-family="F3"><tspan y="669.12" x="96 103.93376 112.052127 125.50502 129.4719 133.2663 137.0607 145.16693 151.37596 155.17037 163.62154 172.59014 181.55873 185.35314 192.07958">Familiar Tools </tspan></text>
<text fill="#767171" xml:space="preserve" transform="matrix(.75 0 0 .75 0 0)" font-size="17.2473" font-family="F3"><tspan y="669.12" x="96 103.93376 112.052127 125.50502 129.4719 133.2663 137.0607 145.16693 151.37596 155.17037 163.62154 172.59014 181.55873 185.35314 192.07958">Familiar Tools </tspan></text>
<path transform="matrix(.75,0,0,.75,0,0)" d="M 94.08 675.04 L 721.92 675.04 L 721.92 677.92 L 94.08 677.92 Z " fill="#d0cece"/>
<text xml:space="preserve" transform="matrix(.75 0 0 .75 0 0)" font-size="14.6921" font-family="F1"><tspan y="760.16" x="720"> </tspan></text>
<path transform="matrix(.75,0,0,.75,83.64,508.68)" d="M 0 0 L 59.68 0 C 67.52 0 73.92 5.92 73.92 13.12 C 73.92 20.32 67.52 26.24 59.68 26.24 L 0 26.24 C -7.84 26.24 -14.08 20.32 -14.08 13.12 C -14.08 5.92 -7.84 0 0 0 Z " fill="#ffffff" fill-rule="evenodd"/>
<clipPath id="cp16">
<path transform="matrix(.75,0,0,.75,83.64,508.68)" d="M -20.48 -.16 L 80.48 -.16 L 80.48 32.8 L -20.48 32.8 Z " fill-rule="evenodd"/>
</clipPath>
<g clip-path="url(#cp16)">
<path transform="matrix(.75,0,0,.75,83.64,508.68)" stroke-width="1.28" stroke-linecap="butt" stroke-miterlimit="8" stroke-linejoin="miter" fill="none" stroke="#4472c4" d="M 0 0 L 59.68 0 C 67.52 0 73.92 5.92 73.92 13.12 C 73.92 20.32 67.52 26.24 59.68 26.24 L 0 26.24 C -7.84 26.24 -14.08 20.32 -14.08 13.12 C -14.08 5.92 -7.84 0 0 0 Z "/>
</g>
<text xml:space="preserve" transform="matrix(.02746575 0 0 .02746575 0 0)" font-size="327.68" font-family="F1"><tspan y="18966.1" x="2997.12 3183.898 3259.2645 3387.0596 3557.4532 3714.7396 3786.829 3865.4722 4016.2049 4124.3395 4294.7336 4465.1276 4540.4938">Visual Studio</tspan></text>
<path transform="matrix(.75,0,0,.75,148.44,508.68)" d="M 0 0 L 52.96 0 C 59.84 0 65.44 5.92 65.44 13.12 C 65.44 20.32 59.84 26.24 52.96 26.24 L 0 26.24 C -6.88 26.24 -12.48 20.32 -12.48 13.12 C -12.48 5.92 -6.88 0 0 0 Z " fill="#ffffff" fill-rule="evenodd"/>
<clipPath id="cp17">
<path transform="matrix(.75,0,0,.75,148.44,508.68)" d="M -18.88 -.16 L 72 -.16 L 72 32.8 L -18.88 32.8 Z " fill-rule="evenodd"/>
</clipPath>
<g clip-path="url(#cp17)">
<path transform="matrix(.75,0,0,.75,148.44,508.68)" stroke-width="1.28" stroke-linecap="butt" stroke-miterlimit="8" stroke-linejoin="miter" fill="none" stroke="#4472c4" d="M 0 0 L 52.96 0 C 59.84 0 65.44 5.92 65.44 13.12 C 65.44 20.32 59.84 26.24 52.96 26.24 L 0 26.24 C -6.88 26.24 -12.48 20.32 -12.48 13.12 C -12.48 5.92 -6.88 0 0 0 Z "/>
</g>
<text xml:space="preserve" transform="matrix(.02746575 0 0 .02746575 0 0)" font-size="327.68" font-family="F1"><tspan y="18966.1" x="5387.04 5596.7556 5770.426 5881.8376 6042.4006 6212.7946 6370.0808 6540.4748 6701.0378">Notepad++</tspan></text>
<path transform="matrix(.75,0,0,.75,206.76,508.68)" d="M 0 0 L 51.52 0 C 58.24 0 63.68 5.92 63.68 13.12 C 63.68 20.32 58.24 26.24 51.52 26.24 L 0 26.24 C -6.88 26.24 -12.32 20.32 -12.32 13.12 C -12.32 5.92 -6.88 0 0 0 Z " fill="#ffffff" fill-rule="evenodd"/>
<clipPath id="cp18">
<path transform="matrix(.75,0,0,.75,206.76,508.68)" d="M -18.72 -.16 L 70.24 -.16 L 70.24 32.8 L -18.72 32.8 Z " fill-rule="evenodd"/>
</clipPath>
<g clip-path="url(#cp18)">
<path transform="matrix(.75,0,0,.75,206.76,508.68)" stroke-width="1.28" stroke-linecap="butt" stroke-miterlimit="8" stroke-linejoin="miter" fill="none" stroke="#4472c4" d="M 0 0 L 51.52 0 C 58.24 0 63.68 5.92 63.68 13.12 C 63.68 20.32 58.24 26.24 51.52 26.24 L 0 26.24 C -6.88 26.24 -12.32 20.32 -12.32 13.12 C -12.32 5.92 -6.88 0 0 0 Z "/>
</g>
<text xml:space="preserve" transform="matrix(.02746575 0 0 .02746575 0 0)" font-size="327.68" font-family="F1"><tspan y="18966.1" x="7488.64 7570.56 7740.954 7852.3659 8012.9289 8088.295 8160.3845 8235.751 8314.395 8393.038 8474.958 8645.352 8809.192">Intellij Idea</tspan></text>
<path transform="matrix(.75,0,0,.75,260.88,508.68)" d="M 0 0 L 36 0 C 40.8 0 44.48 5.92 44.48 13.12 C 44.48 20.32 40.8 26.24 36 26.24 L 0 26.24 C -4.64 26.24 -8.48 20.32 -8.48 13.12 C -8.48 5.92 -4.64 0 0 0 Z " fill="#ffffff" fill-rule="evenodd"/>
<clipPath id="cp19">
<path transform="matrix(.75,0,0,.75,260.88,508.68)" d="M -14.88 -.16 L 51.04 -.16 L 51.04 32.8 L -14.88 32.8 Z " fill-rule="evenodd"/>
</clipPath>
<g clip-path="url(#cp19)">
<path transform="matrix(.75,0,0,.75,260.88,508.68)" stroke-width="1.28" stroke-linecap="butt" stroke-miterlimit="8" stroke-linejoin="miter" fill="none" stroke="#4472c4" d="M 0 0 L 36 0 C 40.8 0 44.48 5.92 44.48 13.12 C 44.48 20.32 40.8 26.24 36 26.24 L 0 26.24 C -4.64 26.24 -8.48 20.32 -8.48 13.12 C -8.48 5.92 -4.64 0 0 0 Z "/>
</g>
<text xml:space="preserve" transform="matrix(.02746575 0 0 .02746575 0 0)" font-size="327.68" font-family="F1"><tspan y="18966.1" x="9533.28 9693.844 9834.746 9910.113 9982.203 10152.597 10280.392">Eclipse</tspan></text>
<path transform="matrix(.75,0,0,.75,300.72,508.68)" d="M 0 0 L 35.84 0 C 40.64 0 44.48 5.92 44.48 13.12 C 44.48 20.32 40.64 26.24 35.84 26.24 L 0 26.24 C -4.8 26.24 -8.64 20.32 -8.64 13.12 C -8.64 5.92 -4.8 0 0 0 Z " fill="#ffffff" fill-rule="evenodd"/>
<clipPath id="cp20">
<path transform="matrix(.75,0,0,.75,300.72,508.68)" d="M -15.04 -.16 L 51.04 -.16 L 51.04 32.8 L -15.04 32.8 Z " fill-rule="evenodd"/>
</clipPath>
<g clip-path="url(#cp20)">
<path transform="matrix(.75,0,0,.75,300.72,508.68)" stroke-width="1.28" stroke-linecap="butt" stroke-miterlimit="8" stroke-linejoin="miter" fill="none" stroke="#4472c4" d="M 0 0 L 35.84 0 C 40.64 0 44.48 5.92 44.48 13.12 C 44.48 20.32 40.64 26.24 35.84 26.24 L 0 26.24 C -4.8 26.24 -8.64 20.32 -8.64 13.12 C -8.64 5.92 -4.8 0 0 0 Z "/>
</g>
<text xml:space="preserve" transform="matrix(.02746575 0 0 .02746575 0 0)" font-size="327.68" font-family="F1"><tspan y="18966.1" x="10988.2 11194.639 11266.729 11378.14 11548.533 11718.927">Github</tspan></text>
<path transform="matrix(.75,0,0,.75,342.24,508.68)" d="M 0 0 L 46.08 0 C 52.16 0 57.12 5.92 57.12 13.12 C 57.12 20.32 52.16 26.24 46.08 26.24 L 0 26.24 C -6.08 26.24 -10.88 20.32 -10.88 13.12 C -10.88 5.92 -6.08 0 0 0 Z " fill="#ffffff" fill-rule="evenodd"/>
<clipPath id="cp21">
<path transform="matrix(.75,0,0,.75,342.24,508.68)" d="M -17.28 -.16 L 63.68 -.16 L 63.68 32.8 L -17.28 32.8 Z " fill-rule="evenodd"/>
</clipPath>
<g clip-path="url(#cp21)">
<path transform="matrix(.75,0,0,.75,342.24,508.68)" stroke-width="1.28" stroke-linecap="butt" stroke-miterlimit="8" stroke-linejoin="miter" fill="none" stroke="#4472c4" d="M 0 0 L 46.08 0 C 52.16 0 57.12 5.92 57.12 13.12 C 57.12 20.32 52.16 26.24 46.08 26.24 L 0 26.24 C -6.08 26.24 -10.88 20.32 -10.88 13.12 C -10.88 5.92 -6.08 0 0 0 Z "/>
</g>
<text xml:space="preserve" transform="matrix(.02746575 0 0 .02746575 0 0)" font-size="327.68" font-family="F1"><tspan y="18966.1" x="12456.2 12636.425 12708.515 12819.926 12990.319 13160.713 13298.339 13449.071 13609.635">Bitbucket</tspan></text>
<path transform="matrix(.75,0,0,.75,395.40003,508.68)" d="M 0 0 L 58.4 0 C 65.92 0 72.16 5.92 72.16 13.12 C 72.16 20.32 65.92 26.24 58.4 26.24 L 0 26.24 C -7.68 26.24 -13.76 20.32 -13.76 13.12 C -13.76 5.92 -7.68 0 0 0 Z " fill="#ffffff" fill-rule="evenodd"/>
<clipPath id="cp22">
<path transform="matrix(.75,0,0,.75,395.40003,508.68)" d="M -20.16 -.16 L 78.72 -.16 L 78.72 32.8 L -20.16 32.8 Z " fill-rule="evenodd"/>
</clipPath>
<g clip-path="url(#cp22)">
<path transform="matrix(.75,0,0,.75,395.40003,508.68)" stroke-width="1.28" stroke-linecap="butt" stroke-miterlimit="8" stroke-linejoin="miter" fill="none" stroke="#4472c4" d="M 0 0 L 58.4 0 C 65.92 0 72.16 5.92 72.16 13.12 C 72.16 20.32 65.92 26.24 58.4 26.24 L 0 26.24 C -7.68 26.24 -13.76 20.32 -13.76 13.12 C -13.76 5.92 -7.68 0 0 0 Z "/>
</g>
<text xml:space="preserve" transform="matrix(.02746575 0 0 .02746575 0 0)" font-size="327.68" font-family="F1"><tspan y="18966.1" x="14356.8 14504.256 14668.097 14779.508 14930.24 15002.33 15143.232 15303.796 15405.377 15615.092 15788.763">Service-Now</tspan></text>
<path transform="matrix(.75,0,0,.75,458.76,508.68)" d="M 0 0 L 51.52 0 C 58.24 0 63.68 5.92 63.68 13.12 C 63.68 20.32 58.24 26.24 51.52 26.24 L 0 26.24 C -6.88 26.24 -12.32 20.32 -12.32 13.12 C -12.32 5.92 -6.88 0 0 0 Z " fill="#ffffff" fill-rule="evenodd"/>
<clipPath id="cp23">
<path transform="matrix(.75,0,0,.75,458.76,508.68)" d="M -18.72 -.16 L 70.24 -.16 L 70.24 32.8 L -18.72 32.8 Z " fill-rule="evenodd"/>
</clipPath>
<g clip-path="url(#cp23)">
<path transform="matrix(.75,0,0,.75,458.76,508.68)" stroke-width="1.28" stroke-linecap="butt" stroke-miterlimit="8" stroke-linejoin="miter" fill="none" stroke="#4472c4" d="M 0 0 L 51.52 0 C 58.24 0 63.68 5.92 63.68 13.12 C 63.68 20.32 58.24 26.24 51.52 26.24 L 0 26.24 C -6.88 26.24 -12.32 20.32 -12.32 13.12 C -12.32 5.92 -6.88 0 0 0 Z "/>
</g>
<text xml:space="preserve" transform="matrix(.02746575 0 0 .02746575 0 0)" font-size="327.68" font-family="F1"><tspan y="18966.1" x="16681.1 16851.493 17021.885 17195.555 17306.967 17480.637 17608.432 17778.825 17952.495">Photoshop</tspan></text>
<path transform="matrix(.75,0,0,.75,85.08,528.36)" d="M 0 0 L 67.84 0 C 76.8 0 84 5.92 84 13.12 C 84 20.32 76.8 26.24 67.84 26.24 L 0 26.24 C -8.8 26.24 -16 20.32 -16 13.12 C -16 5.92 -8.8 0 0 0 Z " fill="#ffffff" fill-rule="evenodd"/>
<path transform="matrix(.75,0,0,.75,85.08,528.36)" stroke-width="1.28" stroke-linecap="butt" stroke-miterlimit="8" stroke-linejoin="miter" fill="none" stroke="#4472c4" d="M 0 0 L 67.84 0 C 76.8 0 84 5.92 84 13.12 C 84 20.32 76.8 26.24 67.84 26.24 L 0 26.24 C -8.8 26.24 -16 20.32 -16 13.12 C -16 5.92 -8.8 0 0 0 Z "/>
<text xml:space="preserve" transform="matrix(.02746575 0 0 .02746575 0 0)" font-size="327.68" font-family="F1"><tspan y="19682.7" x="3014.72 3185.1136 3355.507 3529.1776 3640.5887 3814.259 3942.0543 4112.448 4286.1188 4456.5129 4531.879 4718.6564 4794.0227 4902.157">Photoshop Alts</tspan></text>
<path transform="matrix(.75,0,0,.75,172.44,528.36)" d="M 0 0 L 136.96 0 C 154.88 0 169.44 5.92 169.44 13.12 C 169.44 20.32 154.88 26.24 136.96 26.24 L 0 26.24 C -17.92 26.24 -32.48 20.32 -32.48 13.12 C -32.48 5.92 -17.92 0 0 0 Z " fill="#ffffff" fill-rule="evenodd"/>
<path transform="matrix(.75,0,0,.75,172.44,528.36)" stroke-width="1.28" stroke-linecap="butt" stroke-miterlimit="8" stroke-linejoin="miter" fill="none" stroke="#4472c4" d="M 0 0 L 136.96 0 C 154.88 0 169.44 5.92 169.44 13.12 C 169.44 20.32 154.88 26.24 136.96 26.24 L 0 26.24 C -17.92 26.24 -32.48 20.32 -32.48 13.12 C -32.48 5.92 -17.92 0 0 0 Z "/>
<text xml:space="preserve" transform="matrix(.02746575 0 0 .02746575 0 0)" font-size="327.68" font-family="F1"><tspan y="19682.7" x="5845.76 6032.537 6134.1179 6235.698 6307.7878 6478.1818 6553.548 6661.6828 6812.4157 6891.0588 7090.944 7251.507 7379.3024 7454.6687 7605.4016 7775.7956 7939.6354 8051.0466 8136.243 8234.547 8424.602 8496.691 8608.103 8686.746 8794.881 8968.552 9040.642 9122.562 9197.929 9270.019 9440.412 9568.207 9676.342 9791.029 9948.316 10056.451 10233.398 10344.81">Affinity Designer (Alt to Illustrator)</tspan></text>
<path transform="matrix(.75,0,0,.75,314.04,528.36)" d="M 0 0 L 81.76 0 C 92.48 0 101.12 5.92 101.12 13.12 C 101.12 20.32 92.48 26.24 81.76 26.24 L 0 26.24 C -10.72 26.24 -19.36 20.32 -19.36 13.12 C -19.36 5.92 -10.72 0 0 0 Z " fill="#ffffff" fill-rule="evenodd"/>
<path transform="matrix(.75,0,0,.75,314.04,528.36)" stroke-width="1.28" stroke-linecap="butt" stroke-miterlimit="8" stroke-linejoin="miter" fill="none" stroke="#4472c4" d="M 0 0 L 81.76 0 C 92.48 0 101.12 5.92 101.12 13.12 C 101.12 20.32 92.48 26.24 81.76 26.24 L 0 26.24 C -10.72 26.24 -19.36 20.32 -19.36 13.12 C -19.36 5.92 -10.72 0 0 0 Z "/>
<text xml:space="preserve" transform="matrix(.02746575 0 0 .02746575 0 0)" font-size="327.68" font-family="F1"><tspan y="19682.7" x="11276.6 11486.314 11656.708 11732.075 11840.21 11987.666 12066.31 12272.748 12430.035 12692.179 12852.742 12928.108 13088.672 13259.065 13413.075 13488.442 13658.836">Unity Game Engine</tspan></text>
<path transform="matrix(.75,0,0,.75,397.56,528.36)" d="M 0 0 L 43.52 0 C 49.12 0 53.76 5.92 53.76 13.12 C 53.76 20.32 49.12 26.24 43.52 26.24 L 0 26.24 C -5.6 26.24 -10.24 20.32 -10.24 13.12 C -10.24 5.92 -5.6 0 0 0 Z " fill="#ffffff" fill-rule="evenodd"/>
<path transform="matrix(.75,0,0,.75,397.56,528.36)" stroke-width="1.28" stroke-linecap="butt" stroke-miterlimit="8" stroke-linejoin="miter" fill="none" stroke="#4472c4" d="M 0 0 L 43.52 0 C 49.12 0 53.76 5.92 53.76 13.12 C 53.76 20.32 49.12 26.24 43.52 26.24 L 0 26.24 C -5.6 26.24 -10.24 20.32 -10.24 13.12 C -10.24 5.92 -5.6 0 0 0 Z "/>
<text xml:space="preserve" transform="matrix(.02746575 0 0 .02746575 0 0)" font-size="327.68" font-family="F1"><tspan y="19682.7" x="14470.4 14748.929 14906.216 15056.948 15214.235 15286.325 15453.441">Maya 3D</tspan></text>
<path transform="matrix(.75,0,0,.75,444.84,528.36)" d="M 0 0 L 39.36 0 C 44.48 0 48.64 5.92 48.64 13.12 C 48.64 20.32 44.48 26.24 39.36 26.24 L 0 26.24 C -5.12 26.24 -9.28 20.32 -9.28 13.12 C -9.28 5.92 -5.12 0 0 0 Z " fill="#ffffff" fill-rule="evenodd"/>
<path transform="matrix(.75,0,0,.75,444.84,528.36)" stroke-width="1.28" stroke-linecap="butt" stroke-miterlimit="8" stroke-linejoin="miter" fill="none" stroke="#4472c4" d="M 0 0 L 39.36 0 C 44.48 0 48.64 5.92 48.64 13.12 C 48.64 20.32 44.48 26.24 39.36 26.24 L 0 26.24 C -5.12 26.24 -9.28 20.32 -9.28 13.12 C -9.28 5.92 -5.12 0 0 0 Z "/>
<text xml:space="preserve" transform="matrix(.02746575 0 0 .02746575 0 0)" font-size="327.68" font-family="F1"><tspan y="19682.7" x="16217.9 16398.124 16470.213 16634.053 16804.446 16974.838 17135.403">Blender</tspan></text>
<path transform="matrix(.75,0,0,.75,490.56,528.36)" d="M 0 0 L 51.52 0 C 58.24 0 63.68 5.92 63.68 13.12 C 63.68 20.32 58.24 26.24 51.52 26.24 L 0 26.24 C -6.72 26.24 -12.32 20.32 -12.32 13.12 C -12.32 5.92 -6.72 0 0 0 Z " fill="#ffffff" fill-rule="evenodd"/>
<path transform="matrix(.75,0,0,.75,490.56,528.36)" stroke-width="1.28" stroke-linecap="butt" stroke-miterlimit="8" stroke-linejoin="miter" fill="none" stroke="#4472c4" d="M 0 0 L 51.52 0 C 58.24 0 63.68 5.92 63.68 13.12 C 63.68 20.32 58.24 26.24 51.52 26.24 L 0 26.24 C -6.72 26.24 -12.32 20.32 -12.32 13.12 C -12.32 5.92 -6.72 0 0 0 Z "/>
<text xml:space="preserve" transform="matrix(.02746575 0 0 .02746575 0 0)" font-size="327.68" font-family="F1"><tspan y="19682.7" x="17838.9 17986.356 18156.749 18284.543 18359.91 18533.58 18703.973 18782.618 18949.735 19113.575">Fusion 360</tspan></text>
<path transform="matrix(.75,0,0,.75,81,548.04)" d="M 0 0 L 44.8 0 C 50.56 0 55.36 5.92 55.36 13.12 C 55.36 20.32 50.56 26.24 44.8 26.24 L 0 26.24 C -5.92 26.24 -10.56 20.32 -10.56 13.12 C -10.56 5.92 -5.92 0 0 0 Z " fill="#ffffff" fill-rule="evenodd"/>
<clipPath id="cp24">
<path transform="matrix(.75,0,0,.75,81,548.04)" d="M -16.96 -6.4 L 61.92 -6.4 L 61.92 29.44 L -16.96 29.44 Z " fill-rule="evenodd"/>
</clipPath>
<g clip-path="url(#cp24)">
<path transform="matrix(.75,0,0,.75,81,548.04)" stroke-width="1.28" stroke-linecap="butt" stroke-miterlimit="8" stroke-linejoin="miter" fill="none" stroke="#4472c4" d="M 0 0 L 44.8 0 C 50.56 0 55.36 5.92 55.36 13.12 C 55.36 20.32 50.56 26.24 44.8 26.24 L 0 26.24 C -5.92 26.24 -10.56 20.32 -10.56 13.12 C -10.56 5.92 -5.92 0 0 0 Z "/>
</g>
<text xml:space="preserve" transform="matrix(.02746575 0 0 .02746575 0 0)" font-size="327.68" font-family="F1"><tspan y="20403.5" x="2957.92 3144.6976 3315.091 3426.5023 3600.1727 3773.843 3963.8973">AutoCAD</tspan></text>
<path transform="matrix(.75,0,0,.75,127.68001,548.04)" d="M 0 0 L 29.28 0 C 33.12 0 36.16 5.92 36.16 13.12 C 36.16 20.32 33.12 26.24 29.28 26.24 L 0 26.24 C -3.68 26.24 -6.88 20.32 -6.88 13.12 C -6.88 5.92 -3.68 0 0 0 Z " fill="#ffffff" fill-rule="evenodd"/>
<clipPath id="cp25">
<path transform="matrix(.75,0,0,.75,127.68001,548.04)" d="M -13.28 -6.4 L 42.72 -6.4 L 42.72 29.44 L -13.28 29.44 Z " fill-rule="evenodd"/>
</clipPath>
<g clip-path="url(#cp25)">
<path transform="matrix(.75,0,0,.75,127.68001,548.04)" stroke-width="1.28" stroke-linecap="butt" stroke-miterlimit="8" stroke-linejoin="miter" fill="none" stroke="#4472c4" d="M 0 0 L 29.28 0 C 33.12 0 36.16 5.92 36.16 13.12 C 36.16 20.32 33.12 26.24 29.28 26.24 L 0 26.24 C -3.68 26.24 -6.88 20.32 -6.88 13.12 C -6.88 5.92 -3.68 0 0 0 Z "/>
</g>
<text xml:space="preserve" transform="matrix(.02746575 0 0 .02746575 0 0)" font-size="327.68" font-family="F1"><tspan y="20403.5" x="4705.44 4866.003 5006.9055 5147.8078 5308.3708">Excel</tspan></text>
<path transform="matrix(.75,0,0,.75,158.88,548.04)" d="M 0 0 L 23.04 0 C 26.08 0 28.48 5.92 28.48 13.12 C 28.48 20.32 26.08 26.24 23.04 26.24 L 0 26.24 C -3.04 26.24 -5.44 20.32 -5.44 13.12 C -5.44 5.92 -3.04 0 0 0 Z " fill="#ffffff" fill-rule="evenodd"/>
<clipPath id="cp26">
<path transform="matrix(.75,0,0,.75,158.88,548.04)" d="M -11.84 -6.4 L 35.04 -6.4 L 35.04 29.44 L -11.84 29.44 Z " fill-rule="evenodd"/>
</clipPath>
<g clip-path="url(#cp26)">
<path transform="matrix(.75,0,0,.75,158.88,548.04)" stroke-width="1.28" stroke-linecap="butt" stroke-miterlimit="8" stroke-linejoin="miter" fill="none" stroke="#4472c4" d="M 0 0 L 23.04 0 C 26.08 0 28.48 5.92 28.48 13.12 C 28.48 20.32 26.08 26.24 23.04 26.24 L 0 26.24 C -3.04 26.24 -5.44 20.32 -5.44 13.12 C -5.44 5.92 -3.04 0 0 0 Z "/>
</g>
<text xml:space="preserve" transform="matrix(.02746575 0 0 .02746575 0 0)" font-size="327.68" font-family="F1"><tspan y="20403.5" x="5872 5976.8576 6052.2238 6163.635">Jira</tspan></text>
<path transform="matrix(.75,0,0,.75,185.88,548.04)" d="M 0 0 L 31.2 0 C 35.2 0 38.56 5.92 38.56 13.12 C 38.56 20.32 35.2 26.24 31.2 26.24 L 0 26.24 C -4.16 26.24 -7.52 20.32 -7.52 13.12 C -7.52 5.92 -4.16 0 0 0 Z " fill="#ffffff" fill-rule="evenodd"/>
<clipPath id="cp27">
<path transform="matrix(.75,0,0,.75,185.88,548.04)" d="M -13.92 -6.4 L 45.12 -6.4 L 45.12 29.44 L -13.92 29.44 Z " fill-rule="evenodd"/>
</clipPath>
<g clip-path="url(#cp27)">
<path transform="matrix(.75,0,0,.75,185.88,548.04)" stroke-width="1.28" stroke-linecap="butt" stroke-miterlimit="8" stroke-linejoin="miter" fill="none" stroke="#4472c4" d="M 0 0 L 31.2 0 C 35.2 0 38.56 5.92 38.56 13.12 C 38.56 20.32 35.2 26.24 31.2 26.24 L 0 26.24 C -4.16 26.24 -7.52 20.32 -7.52 13.12 C -7.52 5.92 -4.16 0 0 0 Z "/>
</g>
<text xml:space="preserve" transform="matrix(.02746575 0 0 .02746575 0 0)" font-size="327.68" font-family="F1"><tspan y="20403.5" x="6811.36 6971.923 7086.611 7247.174 7322.54 7397.9064">Trello</tspan></text>
<path transform="matrix(.75,0,0,.75,221.63999,548.04)" d="M 0 0 L 38.72 0 C 43.84 0 47.84 5.92 47.84 13.12 C 47.84 20.32 43.84 26.24 38.72 26.24 L 0 26.24 C -4.96 26.24 -9.12 20.32 -9.12 13.12 C -9.12 5.92 -4.96 0 0 0 Z " fill="#ffffff" fill-rule="evenodd"/>
<clipPath id="cp28">
<path transform="matrix(.75,0,0,.75,221.63999,548.04)" d="M -15.52 -6.4 L 54.4 -6.4 L 54.4 29.44 L -15.52 29.44 Z " fill-rule="evenodd"/>
</clipPath>
<g clip-path="url(#cp28)">
<path transform="matrix(.75,0,0,.75,221.63999,548.04)" stroke-width="1.28" stroke-linecap="butt" stroke-miterlimit="8" stroke-linejoin="miter" fill="none" stroke="#4472c4" d="M 0 0 L 38.72 0 C 43.84 0 47.84 5.92 47.84 13.12 C 47.84 20.32 43.84 26.24 38.72 26.24 L 0 26.24 C -4.96 26.24 -9.12 20.32 -9.12 13.12 C -9.12 5.92 -4.96 0 0 0 Z "/>
</g>
<text xml:space="preserve" transform="matrix(.02746575 0 0 .02746575 0 0)" font-size="327.68" font-family="F1"><tspan y="20403.5" x="8100.32 8273.99 8349.357 8424.725 8562.351 8713.083 8922.798">ClickUp</tspan></text>
</g>
</svg>
