<?xml version="1.0" encoding="UTF-8" standalone="no"?>
<!DOCTYPE svg PUBLIC "-//W3C//DTD SVG 1.1//EN" "http://www.w3.org/Graphics/SVG/1.1/DTD/svg11.dtd">
<svg xmlns="http://www.w3.org/2000/svg" xmlns:xlink="http://www.w3.org/1999/xlink" version="1.1" width="612pt" height="792pt" viewBox="0 0 612 792">
<g enable-background="new">
<text xml:space="preserve" transform="matrix(.75 0 0 .75 0 0)" font-size="14.6921" font-family="F1"><tspan y="986.08" x="375.04 382.62998 389.66755 396.58317 403.89335">Page </tspan></text>
<text xml:space="preserve" transform="matrix(.75 0 0 .75 0 0)" font-size="14.6921" font-family="F2" font-weight="bold"><tspan y="986.08" x="407.2">2</tspan></text>
<text xml:space="preserve" transform="matrix(.75 0 0 .75 0 0)" font-size="14.6921" font-family="F1"><tspan y="986.08" x="414.72 417.95225 425.7 430.1837"> of </tspan></text>
<text xml:space="preserve" transform="matrix(.75 0 0 .75 0 0)" font-size="14.6921" font-family="F2" font-weight="bold"><tspan y="986.08" x="433.44">4</tspan></text>
<text xml:space="preserve" transform="matrix(.75 0 0 .75 0 0)" font-size="14.6921" font-family="F1"><tspan y="986.08" x="440.8"> </tspan></text>
<text xml:space="preserve" transform="matrix(.75 0 0 .75 0 0)" font-size="14.6921" font-family="F1"><tspan y="1004" x="96"> </tspan></text>
<text fill="#1f3763" xml:space="preserve" transform="matrix(.75 0 0 .75 0 0)" font-size="15.9697" font-family="F2" font-weight="bold"><tspan y="111.2" x="96 100.257549 108.16441 111.99715 119.54533 124.97503 133.54471 142.11438 150.15381 158.72348 164.15317 167.7635 177.66472 184.03545 190.26363 194.18589 200.73346 206.26982 214.1533 222.72298 228.15267">IT Student Assistant </tspan></text>
<text xml:space="preserve" transform="matrix(.75 0 0 .75 0 0)" font-size="14.6921" font-family="F1"><tspan y="129.44" x="96 103.83387 110.871448 114.24317 117.6149 122.02253 129.77031 134.89246 142.61154 145.98326 153.02085 156.34235 163.09296 168.01424 174.91953 179.8408 187.15099 190.47249 200.02236 207.66225 210.8945 217.65288 224.96306 230.0852 235.83148 239.06374 243.91214 250.6705 253.90277 260.6534 267.69099 273.90357 278.8989 285.93647 297.83708 305.14726 312.64024 317.56153 325.3093 328.6308 335.94819 339.26969 346.02033 353.0579 359.3755 364.49766 371.40293 383.0097 390.3199 398.03898 402.96028 410.60017 414.12626 417.44776 425.3815 432.41908 435.7908 439.16255 443.57017 451.31794 456.4401 464.15919 467.5309 474.4362">California State University Sacramento &#x2013; Sacramento, California </tspan></text>
<text xml:space="preserve" transform="matrix(.75 0 0 .75 0 0)" font-size="14.6921" font-family="F1"><tspan y="147.36" x="96 105.40294 113.33667 119.9725 127.17163 139.07222 146.71212 154.0223 159.01761 162.33911 169.68517 177.13166 184.57814 192.02463 195.34613 200.19454 208.12827 211.44977 216.00432 223.7234 231.3633 238.56243 241.88393 249.33042 256.67646 264.12294 271.5694">November 2021 to June 2022 </tspan></text>
<text xml:space="preserve" transform="matrix(.75 0 0 .75 0 0)" font-size="14.6921" font-family="F1"><tspan y="165.28" x="96"> </tspan></text>
<text xml:space="preserve" transform="matrix(.75 0 0 .75 0 0)" font-size="14.6921" font-family="F2" font-weight="bold"><tspan y="185.76" x="96 103.77649 111.66058 117.521648 122.6151 130.51354 142.46521 149.86147 155.00371 158.23598 162.88465 170.13744 176.28545 179.8939 187.68073 194.64656 197.87883 201.99262 209.19174">Customer facing IT </tspan></text>
<text xml:space="preserve" transform="matrix(.75 0 0 .75 0 0)" font-size="14.6921" font-family="F4"><tspan y="204.48" x="120">&#xf0b7;</tspan></text>
<text xml:space="preserve" transform="matrix(.75 0 0 .75 0 0)" font-size="14.6921" font-family="F5"><tspan y="204.48" x="126.72"> </tspan></text>
<text xml:space="preserve" transform="matrix(.75 0 0 .75 0 0)" font-size="14.6921" font-family="F1"><tspan y="204.48" x="144 147.70172 155.34162 160.2629 167.57308 172.69522 179.4536 182.82532 190.02445 200.527 206.40384 209.48918 215.8068 219.17852 222.55023 229.86042 237.5003 242.42159 245.74309 250.22676 257.13206 263.44966 271.08955 274.46128 279.38258 286.14094 289.37318 297.12095 302.2431 305.47535 311.22163 316.1429 323.18049 327.5881 332.07179 335.30403 343.0518 350.77088 354.09239 359.01368 366.73277 374.04295 377.41468 382.53684 385.76908 392.08668 399.72657 404.84873 409.9709 417.28108 424.92097 429.84226 433.0745 439.3921 446.42967 452.17594 459.4861 462.71836 467.41984 475.35359 478.67509 486.31498 489.6867 495.43299 501.45677 509.3905 515.85507 523.348 528.3433 531.66488 538.34378 545.98367 553.73147 564.234 571.9531 575.1854 582.223 589.8629 597.58206 600.90359 608.6227 616.2626 622.94149 630.6606 638.4084 648.91098 656.63009 659.9516 666.2692 673.9091 679.6554 684.5038 692.1437 703.8801 711.1903 716.31246">Interviews client faculty or staff on their current case to discover known and unknown customer </tspan></text>
<text xml:space="preserve" transform="matrix(.75 0 0 .75 0 0)" font-size="14.6921" font-family="F1"><tspan y="222.4" x="144 151.6399 158.95008 166.44304 174.08293 179.66594">needs </tspan></text>
<text xml:space="preserve" transform="matrix(.75 0 0 .75 0 0)" font-size="14.6921" font-family="F4"><tspan y="241.12" x="120">&#xf0b7;</tspan></text>
<text xml:space="preserve" transform="matrix(.75 0 0 .75 0 0)" font-size="14.6921" font-family="F5"><tspan y="241.12" x="126.72"> </tspan></text>
<text xml:space="preserve" transform="matrix(.75 0 0 .75 0 0)" font-size="14.6921" font-family="F1"><tspan y="241.12" x="144 151.83388 159.58167 167.5154 172.63755 180.27744 183.64916 191.28905 198.32663 203.17504 210.48522 216.23149 219.46376 229.96631 233.33803 238.25931 245.8992 249.2207 255.53832 258.91004 262.1423 269.45249 277.09239 282.01368 287.8905 290.97584 295.89714 303.83088 307.0631 314.3733 322.01319 327.89 335.5299 340.65208 347.96226 351.28376 356.20506 363.92414 370.9617 375.8101 379.04234 386.7614 394.0716 401.79069 405.1624 412.8023 419.4525 431.189 438.49919 446.21827 451.13957 456.72254 460.04405 466.9493 472.07148 479.38166 482.70317 486.0749 493.56788 499.31416 504.89714 508.21864 515.8585 522.8961 526.2678 533.9077 538.39138 546.03128 549.40298">Coordinates with clients to ensure that deployments are less painful </tspan></text>
<text xml:space="preserve" transform="matrix(.75 0 0 .75 0 0)" font-size="14.6921" font-family="F4"><tspan y="259.84" x="120">&#xf0b7;</tspan></text>
<text xml:space="preserve" transform="matrix(.75 0 0 .75 0 0)" font-size="14.6921" font-family="F5"><tspan y="259.84" x="126.72"> </tspan></text>
<text xml:space="preserve" transform="matrix(.75 0 0 .75 0 0)" font-size="14.6921" font-family="F1"><tspan y="259.84" x="144 150.17671 157.4869 164.68602 169.68134 177.40042 183.1467 186.4682 193.50579 200.99875 208.93248 216.57238 221.49365 224.81516 230.56143 238.30922 241.68094 249.32083 254.24211 257.47438 265.22215 272.94123 276.26274 282.13957 289.77946 296.81703 302.8408 310.15098 316.0278 319.26005 323.7437 331.4915 336.61366 339.93516 346.14775 349.51948 352.8912 360.2014 367.84129 372.68968 378.43595 381.75746 389.47654 396.7867 401.19435 408.9421 414.06428 421.37446 424.69596 432.33586 439.64604 447.28593 450.65766 458.29756 464.94776 468.18003 475.8991 482.81474 486.13624 491.8825 499.63029 503.002 510.7211 515.64236 519.01406 526.76187 534.48098 540.06399">Learns about solution spaces for clients before deploying solutions </tspan></text>
<text xml:space="preserve" transform="matrix(.75 0 0 .75 0 0)" font-size="14.6921" font-family="F4"><tspan y="278.4" x="120">&#xf0b7;</tspan></text>
<text xml:space="preserve" transform="matrix(.75 0 0 .75 0 0)" font-size="14.6921" font-family="F5"><tspan y="278.4" x="126.72"> </tspan></text>
<text xml:space="preserve" transform="matrix(.75 0 0 .75 0 0)" font-size="14.6921" font-family="F1"><tspan y="278.4" x="144 156.56147 163.59905 166.97077 174.61066 179.53194 186.73107 189.96332 197.6824 203.42868 206.75019 214.24315 222.17688 227.92316 231.29488 236.21616 239.44841 246.08426 253.39444 256.71595 263.03355 266.40528 269.63755 276.94773 284.58763 289.5089 292.8304 297.95259 305.1517 308.38398 315.42155 320.34284 323.71458 331.64833 339.2882 345.0345 352.67439 356.0461 363.7652 369.51148 372.83299 377.68138 385.42915 388.75065 396.46974 404.10963 407.48136 410.8531 418.49299 421.81449 429.0136 436.6535 439.88575 447.6335 455.2734 462.47254 470.19163 473.51313 479.83073 487.4706 494.50819 502.14808 509.86717 517.1773 520.549 523.87057 531.80429 536.06497 539.3865 545.7041 553.344 564.95077 576.8514 584.4913 592.2104 595.5821 601.7947 608.8323 613.75357 616.98587 624.62576 632.2656 635.58718 643.3063 650.61648 655.5377 666.26296 673.4621 680.7723 688.4122 691.7337 696.65499 704.3741 711.57327">Maintains positive client relationships to build an open channel of communication between the </tspan></text>
<text xml:space="preserve" transform="matrix(.75 0 0 .75 0 0)" font-size="14.6921" font-family="F1"><tspan y="296.32" x="144 151.6399 158.95008 166.66916 173.70674 178.82889 183.75017 195.48662 202.7968 210.43669 215.35797 218.67948 225.8786 233.5185 241.15839 244.47989 247.85161 252.77289 258.35588 261.67738 267.99497 271.3667 274.73844 282.0486 289.6885 294.5369 297.8584 305.4983 312.40357 318.2804 325.47953">department and its client base </tspan></text>
<text xml:space="preserve" transform="matrix(.75 0 0 .75 0 0)" font-size="14.6921" font-family="F1"><tspan y="314.24" x="96"> </tspan></text>
<text xml:space="preserve" transform="matrix(.75 0 0 .75 0 0)" font-size="14.6921" font-family="F2" font-weight="bold"><tspan y="334.88" x="96 99.91693 107.801029 112.89448 120.29075 125.513339 133.39743 140.65023 144.17633 147.49784 152.1465 159.19872 165.51631 169.12477 177.00887 183.91416 187.23566 191.0556 198.32991 201.56218 208.6144 216.51284 221.06739 226.16083 237.32683 244.37905 249.52129 257.01426 260.2465 267.29869 270.90715 278.79124 285.99037">Internal facing IT Software Side </tspan></text>
<text xml:space="preserve" transform="matrix(.75 0 0 .75 0 0)" font-size="14.6921" font-family="F4"><tspan y="353.44" x="120">&#xf0b7;</tspan></text>
<text xml:space="preserve" transform="matrix(.75 0 0 .75 0 0)" font-size="14.6921" font-family="F5"><tspan y="353.44" x="126.72"> </tspan></text>
<text xml:space="preserve" transform="matrix(.75 0 0 .75 0 0)" font-size="14.6921" font-family="F1"><tspan y="353.44" x="144 156.56147 163.59905 171.31813 178.35572 185.27133 192.58152 198.32779 201.64929 209.14226 216.45244 224.17153 231.2091 236.33126 241.17966 252.9161 260.2263 267.94538 272.86668 276.0989 281.0202 284.39195 290.70954 297.17408 304.3732 309.2945 315.17134 318.40357 323.25196 331.1857 334.27104 346.17164 349.54338 354.46467 357.8364 364.752 371.6573 376.50569 383.81587 387.13737 394.17494 401.09056 404.46229 412.10218 419.0178 422.3393 427.2606 430.63233 436.94993 443.41447 450.72465 455.64595 461.3922 464.62446 471.52973 479.2488 486.8887 490.2102 497.9293 501.30104 507.0473 512.16946 519.8093 527.52847 532.4497 535.8214 543.5692 551.2883 557.0346 560.35617 570.8587 574.091 579.01229 586.7314 590.0529 596.8035 604.1137 609.109 615.8674 619.2391 625.2628 632.573 642.0568 649.8046 660.236">Manages department tickets to mitigate aging tickets and disruptions with ServiceNow </tspan></text>
<text xml:space="preserve" transform="matrix(.75 0 0 .75 0 0)" font-size="14.6921" font-family="F4"><tspan y="372.16" x="120">&#xf0b7;</tspan></text>
<text xml:space="preserve" transform="matrix(.75 0 0 .75 0 0)" font-size="14.6921" font-family="F5"><tspan y="372.16" x="126.72"> </tspan></text>
<text xml:space="preserve" transform="matrix(.75 0 0 .75 0 0)" font-size="14.6921" font-family="F1"><tspan y="372.16" x="144 151.15953 156.28168 163.31926 169.53185 176.21073 182.08757 185.17292 191.49053 199.13042 204.25257 209.37471 216.68489 224.32479 229.24607 232.56757 236.09366 243.58663 250.345 257.65519 265.29508 270.14347 277.89125 283.0134 289.6636 292.89585 296.26759 303.4667 310.22508 317.53526 320.90699 326.65327 329.8855 334.8068 342.4467 345.7682 353.48728 361.42103 366.2694 369.64115 374.04878 380.69898 384.02049 391.73957 399.04975 406.68965 413.7272 418.72254 423.64384 435.3803 442.6905 450.33039 455.25169 458.57319 466.21308 473.52326 480.56083 488.2007 491.52223 499.45597 503.71669 507.03819 510.4099 518.129 524.44668 532.08657 543.823 547.1947 554.9138 561.8294 565.0617 572.7808 579.8184 584.94058 592.58047 603.083 610.1206 615.1159 622.4261 625.6584 633.2983 640.79129 648.10147 655.74136 661.32437">Tracks current inventory levels to notify department head of incoming hardware needs </tspan></text>
<text xml:space="preserve" transform="matrix(.75 0 0 .75 0 0)" font-size="14.6921" font-family="F6"><tspan y="390.08" x="168">o</tspan></text>
<text xml:space="preserve" transform="matrix(.75 0 0 .75 0 0)" font-size="14.6921" font-family="F5"><tspan y="390.08" x="176.8"> </tspan></text>
<text xml:space="preserve" transform="matrix(.75 0 0 .75 0 0)" font-size="14.6921" font-family="F1"><tspan y="390.08" x="192 199.17388 205.6384 213.27829 216.65001 224.3978 229.51995 236.83013 244.47002 247.79152 253.5378 261.28556 264.6573 272.37638 277.29768 280.52995 288.2777 295.9968 301.74308 305.06459 309.4722 317.21998 322.34214 325.66365 332.7012 340.4203 345.26869 352.90858 364.64506 371.68263 376.6039 379.83619 387.76994 395.40983 398.73133 406.37123 412.24806 415.61979 423.25968 430.1753 433.40754 440.56709 447.87727 454.91484 466.6513 472.23429 475.5558 482.59336 488.47019 491.5555 496.4768 504.1959 511.50608 514.73837 518.11007 525.74996 530.6712 538.1642 543.2863 547.6939 554.7315 561.04916 568.2483">Explored solutions for automation using Teams as the interface </tspan></text>
<text xml:space="preserve" transform="matrix(.75 0 0 .75 0 0)" font-size="14.6921" font-family="F4"><tspan y="408.8" x="120">&#xf0b7;</tspan></text>
<text xml:space="preserve" transform="matrix(.75 0 0 .75 0 0)" font-size="14.6921" font-family="F5"><tspan y="408.8" x="126.72"> </tspan></text>
<text xml:space="preserve" transform="matrix(.75 0 0 .75 0 0)" font-size="14.6921" font-family="F1"><tspan y="408.8" x="144 153.0391 160.23822 166.9966 174.30678 177.53903 185.47277 193.11266 198.85894 202.18044 207.92671 214.24433 219.23964 222.61136 230.33045 235.17885 242.48903 250.12892 253.45043 258.2988 266.04658 273.98033 277.2126 282.95887 286.28038 291.20167 298.84156 305.74684 310.66813 313.98963 321.7087 329.0189 332.39064 340.1097 343.4312 348.2796 356.02738 359.34889 366.548 372.57179 378.78437 386.09455 389.46629 396.77647 401.7718 408.80937 413.73066 421.04084 424.27308 429.19438 436.68736 444.32725 447.5595 455.30729 462.94718 468.69346 471.9257 476.847 483.88456 489.76139 496.37284 501.9558 505.2773 508.80345 512.0357 518.7146 526.2076 529.5291 532.9008 536.1331 542.3457 549.6559 557.2958 563.04208 570.2412 573.56277 579.7753 587.52316 595.163 601.9214 609.23159 614.22689 619.97317 623.34487 630.98477 638.62466 644.50149">Develops scripted tools that help to accelerate tedious tasks like license conversions </tspan></text>
<text xml:space="preserve" transform="matrix(.75 0 0 .75 0 0)" font-size="14.6921" font-family="F1"><tspan y="426.72" x="96"> </tspan></text>
<text xml:space="preserve" transform="matrix(.75 0 0 .75 0 0)" font-size="14.6921" font-family="F2" font-weight="bold"><tspan y="447.2" x="96 99.91693 107.801029 112.89448 120.29075 125.513339 133.39743 140.65023 144.17633 147.49784 152.1465 159.19872 165.51631 169.12477 177.00887 183.91416 187.23566 191.0556 198.25473">Internal facing IT </tspan></text>
<text xml:space="preserve" transform="matrix(.75 0 0 .75 0 0)" font-size="14.6921" font-family="F4"><tspan y="465.92" x="120">&#xf0b7;</tspan></text>
<text xml:space="preserve" transform="matrix(.75 0 0 .75 0 0)" font-size="14.6921" font-family="F5"><tspan y="465.92" x="126.72"> </tspan></text>
<text xml:space="preserve" transform="matrix(.75 0 0 .75 0 0)" font-size="14.6921" font-family="F1"><tspan y="465.92" x="144 150.75061 158.06079 165.37097 172.04985 177.9267 181.01204 185.93332 193.6811 197.00261 208.9032 215.94078 219.3125 226.80547 231.72675 238.76433 242.13605 249.77594 253.09745 260.135 267.7749 271.00715 278.9409 283.93623 290.85185 297.8894 305.5293 308.90104 314.63096 322.12394 329.76383 333.08534 340.1229 347.7628 355.40269 358.72419 366.21717 373.25474 379.001 385.46556 388.78706 393.63545 401.56919 404.8907 410.63697 418.27687 425.31443 430.43659 437.6357 440.9572 451.3886 459.13639 464.1317 470.8106 476.68745 484.32734 491.3649 497.57749 504.7766">Seeks to maintain an organized and easy to share workspace </tspan></text>
<text xml:space="preserve" transform="matrix(.75 0 0 .75 0 0)" font-size="14.6921" font-family="F4"><tspan y="484.64" x="120">&#xf0b7;</tspan></text>
<text xml:space="preserve" transform="matrix(.75 0 0 .75 0 0)" font-size="14.6921" font-family="F5"><tspan y="484.64" x="126.72"> </tspan></text>
<text xml:space="preserve" transform="matrix(.75 0 0 .75 0 0)" font-size="14.6921" font-family="F1"><tspan y="484.64" x="144 151.17388 157.6384 164.94858 170.07073 176.28331 179.65503 185.4013 188.77303 196.41292 203.32854 206.41388 218.31447 221.68619 229.32608 236.96598 241.44965 249.16873 252.54045 260.18037 267.49055 273.36738 279.11366 282.3459 285.71763 293.4367 296.66896 302.88154 306.1138 309.48554 316.79573 324.4356 329.3569 332.6784 340.3975 346.14378 353.45396 356.6862 363.00379 370.04136 375.78764 382.98677">Exercising mindfulness in client use case </tspan></text>
<text xml:space="preserve" transform="matrix(.75 0 0 .75 0 0)" font-size="14.6921" font-family="F4"><tspan y="503.36" x="120">&#xf0b7;</tspan></text>
<text xml:space="preserve" transform="matrix(.75 0 0 .75 0 0)" font-size="14.6921" font-family="F5"><tspan y="503.36" x="126.72"> </tspan></text>
<text xml:space="preserve" transform="matrix(.75 0 0 .75 0 0)" font-size="14.6921" font-family="F1"><tspan y="503.36" x="144 151.15953 156.28168 164.02947 171.74855 179.46764 182.83936 190.14954 195.89582 203.38878 211.32251 218.9624 223.88368 229.62996 232.95146 240.67055 247.70813 252.83028 260.47019 270.97276 278.0103 283.00566 290.31584 293.63734 297.00907 302.59205 308.46888 316.10877 323.41896 329.16523 332.48674 338.36357 346.00346 352.21604 359.85594 363.17744 370.215 375.96128 379.1935 386.8334 393.87098 398.99314 406.71223 410.03373 417.6736 422.79579 426.1675 432.80335 440.11354 443.43504 447.9187 454.95628 458.328 461.56028 469.20018 474.32234 481.6325 487.37879 490.7003 498.41938 505.45695 511.20323 518.51339 526.15328 529.38558 537.3193 544.95919 548.2807 553.20199 560.69497 568.0051 571.53128 577.2775 584.9174 592.2276 598.5452 601.7775 606.26119 609.49349 615.8111 618.8965 626.6156 633.6532 638.7753 646.4152 656.9178 663.9554 669.0775 676.3877 679.7092 687.42837 693.1746 700.4848 708.1247">Troubleshoots hardware issues such as hard drive failures based on the specific hardware used </tspan></text>
<text xml:space="preserve" transform="matrix(.75 0 0 .75 0 0)" font-size="14.6921" font-family="F4"><tspan y="521.92" x="120">&#xf0b7;</tspan></text>
<text xml:space="preserve" transform="matrix(.75 0 0 .75 0 0)" font-size="14.6921" font-family="F5"><tspan y="521.92" x="126.72"> </tspan></text>
<text xml:space="preserve" transform="matrix(.75 0 0 .75 0 0)" font-size="14.6921" font-family="F1"><tspan y="521.92" x="144 150.75061 158.06079 162.98207 168.72835 172.04985 179.76894 187.40883 190.73033 197.76792 205.487 213.12689 216.4484 224.16748 231.47766 239.19675 242.429 250.17679 256.93516 262.51814 265.83964 271.71647 278.36668 283.94966 288.87095 296.07008 307.97068 313.71696 316.9492 327.45176 330.8235 335.74479 343.38468 346.70619 359.92909 363.3008 370.9407 378.4337 386.36744 396.79884 402.67567 406.20176 409.434 415.7516 419.12333 426.7632 434.4031 440.86766 444.39375 447.71525 454.6205 462.2604 469.9003 473.2218 486.00395 493.0415 499.2541 508.98188 515.7325 518.8179 525.1355 532.8833 538.00546 545.4984 553.4321 558.55429 565.59188 570.29336 577.6035 580.92507 584.29678 596.0332 603.0708 609.9864 617.18557 622.9318 626.25338 636.7559 640.1276 645.0489 652.768 656.0003 660.8487 668.5965 676.3443 679.716 685.59286 688.82516 692.19686 695.56857 702.18 709.4902">Sets up and deploys systems with Windows, Linux, and MacOS corporate images with tools like </tspan></text>
<text xml:space="preserve" transform="matrix(.75 0 0 .75 0 0)" font-size="14.6921" font-family="F1"><tspan y="539.84" x="144 150.75061 158.58449 166.41837 178.97983 182.30133 189.33892 196.9788 204.69789 208.0194 221.24228 224.47454 232.11443 239.70439 246.75659">SCCM and WinPE </tspan></text>
<text xml:space="preserve" transform="matrix(.75 0 0 .75 0 0)" font-size="14.6921" font-family="F1"><tspan y="557.76" x="96"> </tspan></text>
<text fill="#1f3763" xml:space="preserve" transform="matrix(.75 0 0 .75 0 0)" font-size="15.9697" font-family="F2" font-weight="bold"><tspan y="579.68" x="96 105.44302 113.3265 117.24874 121.17098 129.74066 137.72551 143.26187 147.18413 155.76941 164.33908 167.8524 175.75928 183.90383 190.58646 199.15613 207.7258 211.64806 218.33069 222.25295 230.2378 238.80747 242.4178 249.27979 252.7931 261.29264 265.12538 273.00886 278.54524 283.59815 292.38148 298.0582 310.99366 314.604 323.70674 331.74617 340.31584 344.14857 348.0708 354.75343 362.73829 368.27467 372.1074 380.69267 389.26234 393.09507 399.8479 407.67304 415.6579 424.22758 427.83793 434.69993 438.31028 447.413 455.45243 468.38789 476.97315 482.50953 490.54896 494.1593 502.612 511.19728 518.86276 526.90219 532.4916 540.37509 547.8808 555.9202 559.5305 566.2833 574.4279 582.3114 590.8811">Validation Technician / Platform Replication Lead / Remote Coverage Lead </tspan></text>
<text xml:space="preserve" transform="matrix(.75 0 0 .75 0 0)" font-size="14.6921" font-family="F1"><tspan y="597.92" x="96 99.70171 107.341609 112.262889 119.57307 122.94479 126.2663 133.75926 137.08077 143.6922 151.43999 154.8117 160.39472 168.1425 180.04309 183.5692 186.8907 194.82444 203.052">Intel &#x2013; Folsom, CA </tspan></text>
<text xml:space="preserve" transform="matrix(.75 0 0 .75 0 0)" font-size="14.6921" font-family="F1"><tspan y="615.84" x="96 105.72778 112.04539 116.893779 124.82751 132.32048 139.63066 144.7528 147.98508 155.43157 162.77762 170.2241 177.864 181.09627 185.94467 193.69246 197.01396 205.51502 213.1549 220.07053 227.71042 233.4567 238.37798 241.69948 249.14597 256.492 263.93849 271.28453">October 2020 to August 2021 </tspan></text>
<text xml:space="preserve" transform="matrix(.75 0 0 .75 0 0)" font-size="14.6921" font-family="F1"><tspan y="633.76" x="96"> </tspan></text>
<text xml:space="preserve" transform="matrix(.75 0 0 .75 0 0)" font-size="14.6921" font-family="F1"><tspan y="651.68" x="96 100.45498 108.28885 116.03664 123.75573 128.677 133.79915 140.83673 147.04932 151.89772 159.2079 166.92699 170.15926 175.00766 182.94139 186.2629 189.96462 197.45758 202.37886 209.68904 213.06076 216.38227 221.30355 229.02263 234.01795 241.95168 249.59157 256.34996 263.98985 267.31135 275.30305 282.61323 289.6508 295.86338 303.61116 311.25105 314.57255 323.7264 327.09815 330.46989 333.70216 337.02366 343.7743 348.6956 355.73316 360.21684 364.7005 368.07225 375.71214 382.62776 385.94926 395.35218 400.20057 408.1343 415.6273 423.26719 427.82176">(Contracted to Intel through Beacon Hill Staffing Group) </tspan></text>
<text xml:space="preserve" transform="matrix(.75 0 0 .75 0 0)" font-size="14.6921" font-family="F2" font-weight="bold"><tspan y="672.16" x="96 100.77063 108.70437 113.8466 121.74504 125.49698 132.6961 139.0137 144.10715 147.33942 154.7859 162.67 167.44063 170.76213 178.40203 182.22197 189.47476 194.47008 199.11875 206.90557 212.12815 224.07982 227.31209 235.68659 243.08284 250.86966 254.47812 258.08659 264.2346 271.48738 276.5808 280.18928 288.0877 295.8745 299.196 305.5136 312.90989 320.16267 327.94947 331.27098 338.52375 346.31056 354.09736 357.41886 365.79335 373.1896 385.0902 392.98866 398.0821 405.47837 408.5637 416.34019 424.12699 431.1792 438.57548 443.79808 451.05085 457.95613 465.3524 468.6739 474.9915 482.38777 489.43995 497.22676">[Project 2b] Platform Replication Lead and Remote Coverage Lead </tspan></text>
<text xml:space="preserve" transform="matrix(.75 0 0 .75 0 0)" font-size="14.6921" font-family="F4"><tspan y="690.88" x="120">&#xf0b7;</tspan></text>
<text xml:space="preserve" transform="matrix(.75 0 0 .75 0 0)" font-size="14.6921" font-family="F5"><tspan y="690.88" x="126.72"> </tspan></text>
<text xml:space="preserve" transform="matrix(.75 0 0 .75 0 0)" font-size="14.6921" font-family="F1"><tspan y="690.88" x="144 151.9917 159.63159 163.00331 166.37503 171.29631 174.61782 181.6554 184.9769 189.8253 197.13549 204.17307 215.90952 219.23102 225.54863 233.18852 236.56024 241.40865 249.12773 254.24988 261.56007 264.7923 271.00489 278.31507 286.03416 290.88255 298.19273 303.18806 310.49824 318.13813 321.45964 328.4972 333.61936 341.5531 349.193 356.8329 364.47279 367.79429 375.10447 381.4677 389.1076 392.47935 400.4131 405.40843 412.3137 417.235 420.60673 428.54048 436.18037 439.8462 443.1677 450.66069 458.59443 464.6182 472.2581 484.1587 491.46888 499.10877 504.03007 511.2292 516.0776 519.3099 527.0577 534.7768 538.4426 541.76419 548.80178 556.5209 564.16079 567.39309 572.31436 577.43649 585.3702 593.0101 600.64999 604.02169 611.2208 616.9671 624.607 632.5407 640.1806 645.10189 648.4736 656.11349 663.02908">Built a team culture centered around exploration, documentation, and troubleshooting </tspan></text>
<text xml:space="preserve" transform="matrix(.75 0 0 .75 0 0)" font-size="14.6921" font-family="F4"><tspan y="709.6" x="120">&#xf0b7;</tspan></text>
<text xml:space="preserve" transform="matrix(.75 0 0 .75 0 0)" font-size="14.6921" font-family="F5"><tspan y="709.6" x="126.72"> </tspan></text>
<text xml:space="preserve" transform="matrix(.75 0 0 .75 0 0)" font-size="14.6921" font-family="F1"><tspan y="709.6" x="144 156.56147 163.87165 171.59073 176.43914 184.18692 189.30907 196.61925 204.33834 207.5706 212.49188 219.80207 226.11968 233.75957 241.39946 244.77118 251.08879 254.46051 261.49809 269.13798 274.88426 278.1165 285.86427 293.58335 296.90486 304.39784 311.708 322.21058 325.73667 330.43815 338.1859 345.9337 349.30543 355.0517 358.3732 365.41078 373.12986 380.76976 384.09126 387.46299 395.18208 402.49226 409.39753 415.1438 418.4653 423.3137 431.06147 434.38298 438.7906 446.53837 452.4152 457.11668 464.42686 469.42219 472.74369 477.66499 485.15797 492.06324 503.7997 507.12123 514.0368 519.0321 526.7799 537.2825 542.4247 549.91769">Mentored technicians on new tools and ideas to foster team growth </tspan></text>
<text xml:space="preserve" transform="matrix(.75 0 0 .75 0 0)" font-size="14.6921" font-family="F4"><tspan y="728.32" x="120">&#xf0b7;</tspan></text>
<text xml:space="preserve" transform="matrix(.75 0 0 .75 0 0)" font-size="14.6921" font-family="F5"><tspan y="728.32" x="126.72"> </tspan></text>
<text xml:space="preserve" transform="matrix(.75 0 0 .75 0 0)" font-size="14.6921" font-family="F1"><tspan y="728.32" x="144 151.9917 159.02928 162.401 169.43859 177.07848 183.29106 190.60124 198.32033 201.64183 212.07323 219.82102 224.94316 231.62204 234.8543 242.78803 249.8256 257.4655 263.2118 266.5333 273.43858 279.65116 284.77333 292.5211 298.26737 304.01365 307.09898 314.13655 317.45805 322.37934 329.8723 336.7776 348.51408 351.7463 359.49409 363.97776 367.21 374.65647 377.97798 385.69706 392.89619 400.82994 408.46983 411.84156 419.15174 422.38398 427.30528 434.94517 438.26667 450.00315 457.75093 462.87309 470.18327 473.50477 480.81495 485.2986 489.7823 497.09248 503.30506 508.15345 511.52519 518.161 525.36019 528.7319 535.49026 538.72256 544.9351 552.575 564.47567 572.11557 575.48727 582.7974 587.6458 594.956 598.1883 608.69088 616.43869 621.43399 628.11288 631.34518 635.8288 643.7625 648.7578 651.9901 658.7485 665.7861 670.9082 674.2799 682.0277 689.6676 695.4139">Balanced workloads across a team of 4 people to more effectively complete work for various </tspan></text>
<text xml:space="preserve" transform="matrix(.75 0 0 .75 0 0)" font-size="14.6921" font-family="F1"><tspan y="746.08" x="144 155.90059 159.13285 166.85193 170.22365 173.54515 181.18505 186.30719 194.24092 197.6201 204.93029 211.14287 216.06415 221.64716">mini projects </tspan></text>
<text xml:space="preserve" transform="matrix(.75 0 0 .75 0 0)" font-size="14.6921" font-family="F4"><tspan y="764.8" x="120">&#xf0b7;</tspan></text>
<text xml:space="preserve" transform="matrix(.75 0 0 .75 0 0)" font-size="14.6921" font-family="F5"><tspan y="764.8" x="126.72"> </tspan></text>
<text xml:space="preserve" transform="matrix(.75 0 0 .75 0 0)" font-size="14.6921" font-family="F1"><tspan y="764.8" x="144 151.9917 159.63159 163.00331 166.37503 171.29631 174.61782 181.6554 189.37448 192.69599 196.0677 203.7076 208.19127 216.125 220.97339 232.87398 239.91156 244.83284 248.0651 255.81288 263.53199 266.8535 270.22523 277.8651 282.3488 287.47096 294.5085 300.2548 305.10319 310.22535 317.86524 324.18284 329.03123 336.7503 341.87248 349.18266 352.50416 357.42546 365.14454 372.1821 377.0305 380.352 390.7834 398.53117 406.25025 409.62199 417.26188 420.58338 427.89356 435.61265 442.6502 450.2901 453.66184 460.86097 464.0932 469.0145 476.6544 484.14738 487.3796 492.3009 499.61109 506.64866 518.2554 521.5769 528.6145 536.3336 543.9735 547.29507 550.66677 555.588 561.46487 564.7864 572.4263 579.3316 584.25289 589.375 597.3087 604.9486 610.6949 613.9272 621.5671 629.207 632.5285 637.01217 644.73129 649.6525 657.2924 662.41458 669.72476 673.04629 678.1885 685.0938 690.8401 697.45156 703.03457">Built an information infrastructure that would enable the team and its patrons on future tasks </tspan></text>
<text xml:space="preserve" transform="matrix(.75 0 0 .75 0 0)" font-size="14.6921" font-family="F4"><tspan y="783.52" x="120">&#xf0b7;</tspan></text>
<text xml:space="preserve" transform="matrix(.75 0 0 .75 0 0)" font-size="14.6921" font-family="F5"><tspan y="783.52" x="126.72"> </tspan></text>
<text xml:space="preserve" transform="matrix(.75 0 0 .75 0 0)" font-size="14.6921" font-family="F1"><tspan y="783.52" x="144 147.70172 155.34162 162.6518 170.37088 175.29216 178.66388 183.14756 186.51927 193.82946 201.46935 204.79085 212.50994 219.54752 224.66967 232.30956 242.8121 249.84969 254.97183 262.17097 265.49247 273.21156 280.52174 288.0147 295.6546 301.23759 304.46983 311.5074 319.14729 326.78718 330.10868 337.82777 342.94993 350.6977 357.0153 364.65519 369.77735 377.08753 384.8066 388.1281 395.8472 402.88478 408.00694 415.64683 426.07823 433.11579 438.23796 445.54814 448.78038 453.62876 461.5625 464.79475 472.43464 480.07453 483.44627 486.818 494.4579 497.7794 502.70069 510.41978 517.7299 521.05148 525.9727 533.4657 540.37106 552.1075 555.429 563.14816 570.86727 574.1888 578.44949 586.3832 591.5053 594.82687 601.0394 608.6793 613.80148 618.79678 625.9959 633.6358 638.55709 641.8786 649.07778 656.71768 664.35757 667.6791 672.1627 679.88186 684.8031 692.443 697.5651 704.8753">Identified hardware needs and procured hardware to build the team up for current and future </tspan></text>
<text xml:space="preserve" transform="matrix(.75 0 0 .75 0 0)" font-size="14.6921" font-family="F1"><tspan y="801.44" x="144 151.6399 156.76204 164.69577 168.21097 175.52115 181.54492 186.4662 192.04921">projects </tspan></text>
<text xml:space="preserve" transform="matrix(.75 0 0 .75 0 0)" font-size="14.6921" font-family="F4"><tspan y="820.16" x="120">&#xf0b7;</tspan></text>
<text xml:space="preserve" transform="matrix(.75 0 0 .75 0 0)" font-size="14.6921" font-family="F5"><tspan y="820.16" x="126.72"> </tspan></text>
<text xml:space="preserve" transform="matrix(.75 0 0 .75 0 0)" font-size="14.6921" font-family="F1"><tspan y="820.16" x="144 153.26865 160.57883 168.21872 175.71169 180.707 187.74459 192.59299 199.90317 207.62226 210.94376 221.37516 228.68534 235.99552 242.6744 245.90665 252.66501 255.98651 261.86335 266.56483 273.6024 278.52369 286.24278 291.98905 295.31056 300.30589 307.505 315.1449 323.07865 328.07398 332.99528 338.8721 342.10435 349.8521 357.492 360.8135 365.7348 373.3747 380.68489 384.00639 391.72547 399.36537 411.26597 418.90586 426.10499 431.22715 434.54866 442.4824 446.7431 450.0646 453.43635 459.18263 464.7656 472.48469 479.79487 485.54115 488.86265 493.71104 501.64479 509.28468 515.49728 523.13717 530.4473 538.16647 541.488 549.2071 556.2447 561.99099 569.30117 576.7941 580.11569 588.0494 595.6893 599.0108 605.62228 615.6129 621.7896 626.05038 629.42208 632.79379 639.47268 646.78286 650.1044 657.8235 664.8611 669.78237 676.81997 684.53909 691.57669 697.15969 704.46987">Generated weekly status reports on the number of issues touched based on SQL-like database </tspan></text>
<text xml:space="preserve" transform="matrix(.75 0 0 .75 0 0)" font-size="14.6921" font-family="F1"><tspan y="838.08" x="144 151.6399 159.35898 166.66916 171.7913 175.16303 182.4732 188.21949 191.54099 195.94863 203.69641 208.81856 212.14006 217.06134 224.78043 231.97956 235.30106 241.51364 249.26143 261.16203 268.8019 275.83949 283.33247 290.09083 293.75666 299.50294 302.82444 306.0567 313.6966 318.6179 325.92808 331.05024 338.76933 345.8069 349.17863 352.50013 357.42143 360.79316 367.00575 373.6172 380.92738 385.84867 389.2204 396.93949 403.8551 406.94044 418.84104 425.8786 433.5185 440.55607 447.47169 454.6708 466.2776 473.58778 481.30686 486.22816 489.54966 495.42649 501.89103 507.76786 512.6162 519.81539 531.5518">queries for the company&#x2019;s internal ticketing management system </tspan></text>
<text xml:space="preserve" transform="matrix(.75 0 0 .75 0 0)" font-size="14.6921" font-family="F2" font-weight="bold"><tspan y="858.56" x="96 100.77063 108.70437 113.8466 121.74504 125.49698 132.6961 139.0137 144.10715 147.33942 154.7859 162.0387 166.74018 170.06168 177.8812 181.48966 188.74245 193.73777 198.38643 206.28487 211.50745 223.45912 226.69139 235.06589 242.46215 250.24897 253.85742 257.38356 263.70115 270.95393 275.94923 279.55769 287.45613 295.24293 298.56443 305.91047 313.69728 321.48408 324.80558 334.2085 341.60478 349.39158 357.17839 364.1442 367.4657 374.81175 380.6728 383.9943 391.89274 396.44728 399.76878 412.61 419.66218 424.88478 431.20237 438.98918 442.2214 449.66789 457.01393 464.6538 471.99986">[Project 2a] Platform Replication and Debug as of March 2021 </tspan></text>
<text xml:space="preserve" transform="matrix(.75 0 0 .75 0 0)" font-size="14.6921" font-family="F4"><tspan y="877.28" x="120">&#xf0b7;</tspan></text>
<text xml:space="preserve" transform="matrix(.75 0 0 .75 0 0)" font-size="14.6921" font-family="F5"><tspan y="877.28" x="126.72"> </tspan></text>
<text xml:space="preserve" transform="matrix(.75 0 0 .75 0 0)" font-size="14.6921" font-family="F1"><tspan y="877.28" x="144 151.15953 156.28168 159.6534 166.69098 173.6066 180.91678 188.55667 191.87818 199.59726 204.7194 212.4672 220.18628 223.558 230.75713 242.49358 248.23986 251.47212 261.97468 265.3464 270.2677 277.9868 281.21903 288.2566 291.5781 297.79069 305.28367 317.18428 324.82417 328.1959 335.8358 342.87336 347.79466 351.16639 359.10014 366.5931 369.9146 377.84837 382.25599 385.57749 390.06117 393.4329 396.66517 401.58647 408.89665 414.0188 419.60179 422.92329 429.96086 437.67994 445.31983 448.64134 454.95893 461.9965 466.84489 474.15507 481.07069 488.81846 493.9406 497.31236 503.04228 510.07984 515.0011 518.2334 525.9812 533.7003 537.02188 541.87026 549.61807 552.9396 557.34719 565.2809 571.49349 579.13339 584.87966 588.11196 595.85977 603.57888 606.9004 613.218 618.2133 621.585 626.5063 629.7386 636.0562 643.0938 646.4655 649.6978 657.41696 662.53909 670.28689 678.006 681.3777 688.57687 700.4775 706.22378">Triaged problems with a combination of filters and categorization to focus on critical problems </tspan></text>
<text xml:space="preserve" transform="matrix(.75 0 0 .75 0 0)" font-size="14.6921" font-family="F1"><tspan y="895.2" x="144 154.50255 162.22164 165.59336 168.96508 176.27526 179.59676 184.7189 192.02909 199.74817 207.38806 213.70568 217.0774 224.71729 231.6329 234.86518 242.58426 247.57958 255.32736 263.04646 266.41819 273.6173 285.3538 288.6753 294.88789 302.52778 310.16767 317.80757 322.72886">while reducing problem count </tspan></text>
<text xml:space="preserve" transform="matrix(.75 0 0 .75 0 0)" font-size="14.6921" font-family="F4"><tspan y="913.92" x="120">&#xf0b7;</tspan></text>
<text xml:space="preserve" transform="matrix(.75 0 0 .75 0 0)" font-size="14.6921" font-family="F5"><tspan y="913.92" x="126.72"> </tspan></text>
<text xml:space="preserve" transform="matrix(.75 0 0 .75 0 0)" font-size="14.6921" font-family="F1"><tspan y="913.92" x="144 153.26865 160.57883 168.21872 175.71169 180.707 187.74459 192.59299 199.90317 207.62226 210.94376 218.58365 226.30274 233.61292 238.73506 242.10678 249.41696 254.99997 258.32148 262.80516 270.7389 275.73423 279.05574 283.46336 286.83509 291.95726 297.70353 302.62483 305.85707 311.60334 316.52464 323.5622 330.4778 337.788 341.1095 346.0308 351.31996 354.55223 361.58979 368.34815 375.65834 378.97984 386.0174 393.73649 401.37638 404.69789 408.0696 415.7887 423.09889 430.81797 435.73927 439.111 443.59468 446.9664 452.99018 460.02775 464.94905 468.1813 475.92909 483.64817 486.96968 494.9034 499.16413 502.48564 510.2047 515.32687 523.07467 530.79379 534.16549 541.3646 553.26528 558.84829 562.1698 565.5415 573.1814 576.5029 581.62509 588.93527 596.57516 604.32296 609.44509 614.36636 617.73806 625.231 632.1466">Generated queries for first stage triage and identification of problems in reporting </tspan></text>
<text xml:space="preserve" transform="matrix(.75 0 0 .75 0 0)" font-size="14.6921" font-family="F4"><tspan y="932.48" x="120">&#xf0b7;</tspan></text>
<text xml:space="preserve" transform="matrix(.75 0 0 .75 0 0)" font-size="14.6921" font-family="F5"><tspan y="932.48" x="126.72"> </tspan></text>
<text xml:space="preserve" transform="matrix(.75 0 0 .75 0 0)" font-size="14.6921" font-family="F1"><tspan y="932.48" x="144 151.58997 159.08293 164.07825 168.48589 176.23368 181.22899 193.12958 200.43976 208.07965 211.40116 219.12024 222.49196 229.52954 234.45082 238.85846 246.60625 251.60157 263.33805 266.65956 274.37864 279.5008 282.87254 290.51243 297.42805 301.83567 309.55476 317.19465 320.51615 325.43745 333.3712 336.6927 341.68803 348.9982 356.7173 360.08903 363.46076 369.67335 376.7109 381.6322 388.83134 392.15284 399.1904 406.8303 414.54939 417.87089 421.2426 426.9889 434.92265 438.1549 445.06019 449.98149 457.29167 460.5239 465.37229 472.68247 478.5593 483.40769 486.7292 493.04679 499.95207 505.69834 513.0085 516.33 522.5426 530.2904 537.9303 545.5702 548.9419 553.86318 557.09548 565.0292 572.66909 578.2521">Performed platform bring-up to replicate and isolate test case conditions </tspan></text>
<text xml:space="preserve" transform="matrix(.75 0 0 .75 0 0)" font-size="14.6921" font-family="F4"><tspan y="951.2" x="120">&#xf0b7;</tspan></text>
<text xml:space="preserve" transform="matrix(.75 0 0 .75 0 0)" font-size="14.6921" font-family="F5"><tspan y="951.2" x="126.72"> </tspan></text>
<text xml:space="preserve" transform="matrix(.75 0 0 .75 0 0)" font-size="14.6921" font-family="F1"><tspan y="951.2" x="144 153.0391 160.53206 168.17195 175.81185 182.72747 189.64308 196.95326 204.59316 207.91466 213.49767 221.4314 225.83904 230.76032 241.19171 248.2293 253.35144 260.66163 263.89387 274.39643 277.76817 282.68946 290.40855 293.73005 298.57844 306.21833 313.9661 317.33784 323.21467 326.53617 329.9079 333.27964 339.74418 347.05436 350.37586 361.1011 364.47285 371.96583 381.0049 389.08558 398.35423 401.8803 405.11256 415.6151 419.14125 426.78114 433.53178 442.34706 450.13389 453.7997 457.12123 464.32035 471.0787 478.3889 486.02879 490.95008 494.27159 497.50386 505.4376 512.3532 518.0995 521.7653 524.9976 532.0352 539.75436 547.3942 550.6265 558.3743 563.2956 570.9355 578.24569 583.3678 586.68936 592.27236 600.20608 604.61367 609.46206 619.9646 626.86996 631.99209 639.30227 642.6238 647.47219 655.4059 663.1537 666.5254 672.1084">Debugged software with tools like winDBG, winSDK, event logs, and other software tools </tspan></text>
</g>
</svg>
