<?xml version="1.0" encoding="UTF-8" standalone="no"?>
<!DOCTYPE svg PUBLIC "-//W3C//DTD SVG 1.1//EN" "http://www.w3.org/Graphics/SVG/1.1/DTD/svg11.dtd">
<svg xmlns="http://www.w3.org/2000/svg" xmlns:xlink="http://www.w3.org/1999/xlink" version="1.1" width="612pt" height="792pt" viewBox="0 0 612 792">
<g enable-background="new">
<text xml:space="preserve" transform="matrix(.75 0 0 .75 0 0)" font-size="14.6921" font-family="F1"><tspan y="986.08" x="375.04 382.62998 389.66755 396.58317 403.89335">Page </tspan></text>
<text xml:space="preserve" transform="matrix(.75 0 0 .75 0 0)" font-size="14.6921" font-family="F2" font-weight="bold"><tspan y="986.08" x="407.2">4</tspan></text>
<text xml:space="preserve" transform="matrix(.75 0 0 .75 0 0)" font-size="14.6921" font-family="F1"><tspan y="986.08" x="414.72 417.95225 425.7 430.1837"> of </tspan></text>
<text xml:space="preserve" transform="matrix(.75 0 0 .75 0 0)" font-size="14.6921" font-family="F2" font-weight="bold"><tspan y="986.08" x="433.44">4</tspan></text>
<text xml:space="preserve" transform="matrix(.75 0 0 .75 0 0)" font-size="14.6921" font-family="F1"><tspan y="986.08" x="440.8"> </tspan></text>
<text xml:space="preserve" transform="matrix(.75 0 0 .75 0 0)" font-size="14.6921" font-family="F1"><tspan y="1004" x="96"> </tspan></text>
<text fill="#767171" xml:space="preserve" transform="matrix(.75 0 0 .75 0 0)" font-size="17.2473" font-family="F3"><tspan y="112.48" x="96 104.45117 113.59224 122.56084 129.97719 138.08342 143.77504 147.74192 156.71051 165.67911">Education </tspan></text>
<text fill="#767171" xml:space="preserve" transform="matrix(.75 0 0 .75 0 0)" font-size="17.2473" font-family="F3"><tspan y="112.48" x="96 104.45117 113.59224 122.56084 129.97719 138.08342 143.77504 147.74192 156.71051 165.67911">Education </tspan></text>
<path transform="matrix(.75,0,0,.75,0,0)" d="M 94.08 118.4 L 721.92 118.4 L 721.92 121.28 L 94.08 121.28 Z " fill="#d0cece"/>
<text fill="#1f3763" xml:space="preserve" transform="matrix(.75 0 0 .75 0 0)" font-size="15.9697" font-family="F2" font-weight="bold"><tspan y="139.36" x="96 104.95177 112.49995 116.11028 120.032527 128.81586 132.4262 140.73044 149.31572 162.3067 170.87638 179.44605 185.19513 193.23456 198.66426 202.49698 210.04517 216.59275 220.515 228.65955 237.22922 243.91185 251.737">BS in Computer Science </tspan></text>
<text xml:space="preserve" transform="matrix(.75 0 0 .75 0 0)" font-size="14.6921" font-family="F1"><tspan y="157.6" x="96 103.83387 110.871448 114.24317 117.6149 122.02253 129.77031 134.89246 142.61154 145.98326 153.02085 156.34235 163.09296 168.01424 174.91953 179.8408 187.15099 190.47249 200.02236 207.66225 210.8945 217.65288 224.96306 230.0852 235.83148 239.06374 243.91214 250.6705 253.90277 261.22016 264.54167 271.2923 278.32987 284.54246 289.6646 296.5699 308.30638 315.61656 323.33564 328.18403 335.9318 339.16404 346.4814 349.80293 356.55357 363.59114 369.90873 375.03089 381.78926 393.68986 401.00004 408.71913 413.5675 421.31529 424.9811 428.3026 436.23637 444.46394">California State University &#x2013; Sacramento &#x2013; Sacramento, CA </tspan></text>
<text xml:space="preserve" transform="matrix(.75 0 0 .75 0 0)" font-size="14.6921" font-family="F1"><tspan y="175.52" x="96 104.501049 112.14094 117.06222 120.433948 126.75155 129.98381 137.7029 144.74048 149.66176 156.97194 164.69103 168.01253 174.76314 181.80072 185.17244 188.54416 191.6295 199.2694 206.61545 214.06194 221.40799">Anticipated Fall 2023 </tspan></text>
<text xml:space="preserve" transform="matrix(.75 0 0 .75 0 0)" font-size="14.6921" font-family="F1"><tspan y="193.44" x="96"> </tspan></text>
<text fill="#1f3763" xml:space="preserve" transform="matrix(.75 0 0 .75 0 0)" font-size="15.9697" font-family="F2" font-weight="bold"><tspan y="215.2" x="96 104.45271 113.03799 121.607669 127.51646 133.88718 141.9266 145.43993 157.33924 165.92452 171.60126 179.2664 182.87674 186.70948 195.27915 199.11186 207.56458 216.14986 229.08531 237.54924 246.11891 251.5486 259.69316 265.36988 268.98023 276.64567 283.32829 287.25053 295.28996 303.85963 310.54225 318.36738">Course work in Computer Science </tspan></text>
<text xml:space="preserve" transform="matrix(.75 0 0 .75 0 0)" font-size="14.6921" font-family="F1"><tspan y="233.44" x="96 102.75062 106.122348 113.432529 118.55468 123.676837 130.71442 133.94669 141.88042 149.6282 152.99993 156.23218 163.54236 170.45798 177.76816 181.00043 188.31778 191.63928 199.61664 207.36443 213.57701 220.25589 223.62761 226.99933 234.63922 238.30509 241.53736 249.37123 257.74574">Sierra College &#x2013; Rocklin, CA </tspan></text>
<text xml:space="preserve" transform="matrix(.75 0 0 .75 0 0)" font-size="14.6921" font-family="F1"><tspan y="251.36" x="96"> </tspan></text>
<text fill="#1f3763" xml:space="preserve" transform="matrix(.75 0 0 .75 0 0)" font-size="15.9697" font-family="F2" font-weight="bold"><tspan y="273.28" x="96 104.45271 113.03799 121.607669 127.51646 133.88718 141.9266 145.43993 157.33924 165.92452 171.60126 179.2664 182.87674 186.70948 195.27915 199.11186 208.06363 216.6333 222.86148 226.78374 235.35341 243.49796 249.86869 256.09687 259.7072 273.6651 281.54859 290.11827 298.00175 305.5075 313.65205 326.5875 334.62693 343.1966 348.73298">Course work in Business Management </tspan></text>
<text xml:space="preserve" transform="matrix(.75 0 0 .75 0 0)" font-size="14.6921" font-family="F1"><tspan y="291.52" x="96 103.83387 111.47376 118.78394 130.68454 137.88367 144.56255 151.76168 156.68296 163.72054 167.04204 174.87592 182.6237 194.23046 206.13105 213.77094 221.49002 224.86174 229.71015 236.36032 239.68183 247.32172 255.25545 258.4877 261.71998 269.21296 275.9713 283.2815 286.603 294.09599 297.41749 304.16813 311.2057 314.43797 321.6371 333.37358 337.0394 340.3609 350.2046">Chemeketa Community College &#x2013; Salem, OR</tspan></text>
<text fill="#767171" xml:space="preserve" transform="matrix(.75 0 0 .75 0 0)" font-size="17.2473" font-family="F3"><tspan y="291.52" x="358.24"> </tspan></text>
<text fill="#767171" xml:space="preserve" transform="matrix(.75 0 0 .75 0 0)" font-size="17.2473" font-family="F3"><tspan y="291.52" x="358.24"> </tspan></text>
<text fill="#767171" xml:space="preserve" transform="matrix(.75 0 0 .75 0 0)" font-size="17.2473" font-family="F3"><tspan y="314.72" x="96 103.93376 112.052127 125.50502 129.4719 133.2663 137.0607 145.16693 151.37596 155.17037 163.62154 172.59014 181.55873 185.35314 192.07958">Familiar Tools </tspan></text>
<text fill="#767171" xml:space="preserve" transform="matrix(.75 0 0 .75 0 0)" font-size="17.2473" font-family="F3"><tspan y="314.72" x="96 103.93376 112.052127 125.50502 129.4719 133.2663 137.0607 145.16693 151.37596 155.17037 163.62154 172.59014 181.55873 185.35314 192.07958">Familiar Tools </tspan></text>
<path transform="matrix(.75,0,0,.75,0,0)" d="M 94.08 320.64 L 721.92 320.64 L 721.92 323.52 L 94.08 323.52 Z " fill="#d0cece"/>
<text xml:space="preserve" transform="matrix(.75 0 0 .75 0 0)" font-size="14.6921" font-family="F1"><tspan y="405.6" x="720"> </tspan></text>
<path transform="matrix(.75,0,0,.75,83.64,242.88)" d="M 0 0 L 59.68 0 C 67.52 0 73.92 5.76 73.92 13.12 C 73.92 20.32 67.52 26.24 59.68 26.24 L 0 26.24 C -7.84 26.24 -14.08 20.32 -14.08 13.12 C -14.08 5.76 -7.84 0 0 0 Z " fill="#ffffff" fill-rule="evenodd"/>
<clipPath id="cp16">
<path transform="matrix(.75,0,0,.75,83.64,242.88)" d="M -20.48 -.16 L 80.48 -.16 L 80.48 32.8 L -20.48 32.8 Z " fill-rule="evenodd"/>
</clipPath>
<g clip-path="url(#cp16)">
<path transform="matrix(.75,0,0,.75,83.64,242.88)" stroke-width="1.28" stroke-linecap="butt" stroke-miterlimit="8" stroke-linejoin="miter" fill="none" stroke="#4472c4" d="M 0 0 L 59.68 0 C 67.52 0 73.92 5.76 73.92 13.12 C 73.92 20.32 67.52 26.24 59.68 26.24 L 0 26.24 C -7.84 26.24 -14.08 20.32 -14.08 13.12 C -14.08 5.76 -7.84 0 0 0 Z "/>
</g>
<text xml:space="preserve" transform="matrix(.02746575 0 0 .02746575 0 0)" font-size="327.68" font-family="F1"><tspan y="9288.64" x="2997.12 3183.898 3259.2645 3387.0596 3557.4532 3714.7396 3786.829 3865.4722 4016.2049 4124.3395 4294.7336 4465.1276 4540.4938">Visual Studio</tspan></text>
<path transform="matrix(.75,0,0,.75,148.44,242.88)" d="M 0 0 L 52.96 0 C 59.84 0 65.44 5.76 65.44 13.12 C 65.44 20.32 59.84 26.24 52.96 26.24 L 0 26.24 C -6.88 26.24 -12.48 20.32 -12.48 13.12 C -12.48 5.76 -6.88 0 0 0 Z " fill="#ffffff" fill-rule="evenodd"/>
<clipPath id="cp17">
<path transform="matrix(.75,0,0,.75,148.44,242.88)" d="M -18.88 -.16 L 72 -.16 L 72 32.8 L -18.88 32.8 Z " fill-rule="evenodd"/>
</clipPath>
<g clip-path="url(#cp17)">
<path transform="matrix(.75,0,0,.75,148.44,242.88)" stroke-width="1.28" stroke-linecap="butt" stroke-miterlimit="8" stroke-linejoin="miter" fill="none" stroke="#4472c4" d="M 0 0 L 52.96 0 C 59.84 0 65.44 5.76 65.44 13.12 C 65.44 20.32 59.84 26.24 52.96 26.24 L 0 26.24 C -6.88 26.24 -12.48 20.32 -12.48 13.12 C -12.48 5.76 -6.88 0 0 0 Z "/>
</g>
<text xml:space="preserve" transform="matrix(.02746575 0 0 .02746575 0 0)" font-size="327.68" font-family="F1"><tspan y="9288.64" x="5387.04 5596.7556 5770.426 5881.8376 6042.4006 6212.7946 6370.0808 6540.4748 6701.0378">Notepad++</tspan></text>
<path transform="matrix(.75,0,0,.75,206.76,242.88)" d="M 0 0 L 51.52 0 C 58.24 0 63.68 5.76 63.68 13.12 C 63.68 20.32 58.24 26.24 51.52 26.24 L 0 26.24 C -6.88 26.24 -12.32 20.32 -12.32 13.12 C -12.32 5.76 -6.88 0 0 0 Z " fill="#ffffff" fill-rule="evenodd"/>
<clipPath id="cp18">
<path transform="matrix(.75,0,0,.75,206.76,242.88)" d="M -18.72 -.16 L 70.24 -.16 L 70.24 32.8 L -18.72 32.8 Z " fill-rule="evenodd"/>
</clipPath>
<g clip-path="url(#cp18)">
<path transform="matrix(.75,0,0,.75,206.76,242.88)" stroke-width="1.28" stroke-linecap="butt" stroke-miterlimit="8" stroke-linejoin="miter" fill="none" stroke="#4472c4" d="M 0 0 L 51.52 0 C 58.24 0 63.68 5.76 63.68 13.12 C 63.68 20.32 58.24 26.24 51.52 26.24 L 0 26.24 C -6.88 26.24 -12.32 20.32 -12.32 13.12 C -12.32 5.76 -6.88 0 0 0 Z "/>
</g>
<text xml:space="preserve" transform="matrix(.02746575 0 0 .02746575 0 0)" font-size="327.68" font-family="F1"><tspan y="9288.64" x="7488.64 7570.56 7740.954 7852.3659 8012.9289 8088.295 8160.3845 8235.751 8314.395 8393.038 8474.958 8645.352 8809.192">Intellij Idea</tspan></text>
<path transform="matrix(.75,0,0,.75,260.88,242.88)" d="M 0 0 L 36 0 C 40.8 0 44.48 5.76 44.48 13.12 C 44.48 20.32 40.8 26.24 36 26.24 L 0 26.24 C -4.64 26.24 -8.48 20.32 -8.48 13.12 C -8.48 5.76 -4.64 0 0 0 Z " fill="#ffffff" fill-rule="evenodd"/>
<clipPath id="cp19">
<path transform="matrix(.75,0,0,.75,260.88,242.88)" d="M -14.88 -.16 L 51.04 -.16 L 51.04 32.8 L -14.88 32.8 Z " fill-rule="evenodd"/>
</clipPath>
<g clip-path="url(#cp19)">
<path transform="matrix(.75,0,0,.75,260.88,242.88)" stroke-width="1.28" stroke-linecap="butt" stroke-miterlimit="8" stroke-linejoin="miter" fill="none" stroke="#4472c4" d="M 0 0 L 36 0 C 40.8 0 44.48 5.76 44.48 13.12 C 44.48 20.32 40.8 26.24 36 26.24 L 0 26.24 C -4.64 26.24 -8.48 20.32 -8.48 13.12 C -8.48 5.76 -4.64 0 0 0 Z "/>
</g>
<text xml:space="preserve" transform="matrix(.02746575 0 0 .02746575 0 0)" font-size="327.68" font-family="F1"><tspan y="9288.64" x="9533.28 9693.844 9834.746 9910.113 9982.203 10152.597 10280.392">Eclipse</tspan></text>
<path transform="matrix(.75,0,0,.75,300.72,242.88)" d="M 0 0 L 35.84 0 C 40.64 0 44.48 5.76 44.48 13.12 C 44.48 20.32 40.64 26.24 35.84 26.24 L 0 26.24 C -4.8 26.24 -8.64 20.32 -8.64 13.12 C -8.64 5.76 -4.8 0 0 0 Z " fill="#ffffff" fill-rule="evenodd"/>
<clipPath id="cp20">
<path transform="matrix(.75,0,0,.75,300.72,242.88)" d="M -15.04 -.16 L 51.04 -.16 L 51.04 32.8 L -15.04 32.8 Z " fill-rule="evenodd"/>
</clipPath>
<g clip-path="url(#cp20)">
<path transform="matrix(.75,0,0,.75,300.72,242.88)" stroke-width="1.28" stroke-linecap="butt" stroke-miterlimit="8" stroke-linejoin="miter" fill="none" stroke="#4472c4" d="M 0 0 L 35.84 0 C 40.64 0 44.48 5.76 44.48 13.12 C 44.48 20.32 40.64 26.24 35.84 26.24 L 0 26.24 C -4.8 26.24 -8.64 20.32 -8.64 13.12 C -8.64 5.76 -4.8 0 0 0 Z "/>
</g>
<text xml:space="preserve" transform="matrix(.02746575 0 0 .02746575 0 0)" font-size="327.68" font-family="F1"><tspan y="9288.64" x="10988.2 11194.639 11266.729 11378.14 11548.533 11718.927">Github</tspan></text>
<path transform="matrix(.75,0,0,.75,342.24,242.88)" d="M 0 0 L 46.08 0 C 52.16 0 57.12 5.76 57.12 13.12 C 57.12 20.32 52.16 26.24 46.08 26.24 L 0 26.24 C -6.08 26.24 -10.88 20.32 -10.88 13.12 C -10.88 5.76 -6.08 0 0 0 Z " fill="#ffffff" fill-rule="evenodd"/>
<clipPath id="cp21">
<path transform="matrix(.75,0,0,.75,342.24,242.88)" d="M -17.28 -.16 L 63.68 -.16 L 63.68 32.8 L -17.28 32.8 Z " fill-rule="evenodd"/>
</clipPath>
<g clip-path="url(#cp21)">
<path transform="matrix(.75,0,0,.75,342.24,242.88)" stroke-width="1.28" stroke-linecap="butt" stroke-miterlimit="8" stroke-linejoin="miter" fill="none" stroke="#4472c4" d="M 0 0 L 46.08 0 C 52.16 0 57.12 5.76 57.12 13.12 C 57.12 20.32 52.16 26.24 46.08 26.24 L 0 26.24 C -6.08 26.24 -10.88 20.32 -10.88 13.12 C -10.88 5.76 -6.08 0 0 0 Z "/>
</g>
<text xml:space="preserve" transform="matrix(.02746575 0 0 .02746575 0 0)" font-size="327.68" font-family="F1"><tspan y="9288.64" x="12456.2 12636.425 12708.515 12819.926 12990.319 13160.713 13298.339 13449.071 13609.635">Bitbucket</tspan></text>
<path transform="matrix(.75,0,0,.75,395.40003,242.88)" d="M 0 0 L 58.4 0 C 65.92 0 72.16 5.76 72.16 13.12 C 72.16 20.32 65.92 26.24 58.4 26.24 L 0 26.24 C -7.68 26.24 -13.76 20.32 -13.76 13.12 C -13.76 5.76 -7.68 0 0 0 Z " fill="#ffffff" fill-rule="evenodd"/>
<clipPath id="cp22">
<path transform="matrix(.75,0,0,.75,395.40003,242.88)" d="M -20.16 -.16 L 78.72 -.16 L 78.72 32.8 L -20.16 32.8 Z " fill-rule="evenodd"/>
</clipPath>
<g clip-path="url(#cp22)">
<path transform="matrix(.75,0,0,.75,395.40003,242.88)" stroke-width="1.28" stroke-linecap="butt" stroke-miterlimit="8" stroke-linejoin="miter" fill="none" stroke="#4472c4" d="M 0 0 L 58.4 0 C 65.92 0 72.16 5.76 72.16 13.12 C 72.16 20.32 65.92 26.24 58.4 26.24 L 0 26.24 C -7.68 26.24 -13.76 20.32 -13.76 13.12 C -13.76 5.76 -7.68 0 0 0 Z "/>
</g>
<text xml:space="preserve" transform="matrix(.02746575 0 0 .02746575 0 0)" font-size="327.68" font-family="F1"><tspan y="9288.64" x="14356.8 14504.256 14668.097 14779.508 14930.24 15002.33 15143.232 15303.796 15405.377 15615.092 15788.763">Service-Now</tspan></text>
<path transform="matrix(.75,0,0,.75,458.76,242.88)" d="M 0 0 L 51.52 0 C 58.24 0 63.68 5.76 63.68 13.12 C 63.68 20.32 58.24 26.24 51.52 26.24 L 0 26.24 C -6.88 26.24 -12.32 20.32 -12.32 13.12 C -12.32 5.76 -6.88 0 0 0 Z " fill="#ffffff" fill-rule="evenodd"/>
<clipPath id="cp23">
<path transform="matrix(.75,0,0,.75,458.76,242.88)" d="M -18.72 -.16 L 70.24 -.16 L 70.24 32.8 L -18.72 32.8 Z " fill-rule="evenodd"/>
</clipPath>
<g clip-path="url(#cp23)">
<path transform="matrix(.75,0,0,.75,458.76,242.88)" stroke-width="1.28" stroke-linecap="butt" stroke-miterlimit="8" stroke-linejoin="miter" fill="none" stroke="#4472c4" d="M 0 0 L 51.52 0 C 58.24 0 63.68 5.76 63.68 13.12 C 63.68 20.32 58.24 26.24 51.52 26.24 L 0 26.24 C -6.88 26.24 -12.32 20.32 -12.32 13.12 C -12.32 5.76 -6.88 0 0 0 Z "/>
</g>
<text xml:space="preserve" transform="matrix(.02746575 0 0 .02746575 0 0)" font-size="327.68" font-family="F1"><tspan y="9288.64" x="16681.1 16851.493 17021.885 17195.555 17306.967 17480.637 17608.432 17778.825 17952.495">Photoshop</tspan></text>
<path transform="matrix(.75,0,0,.75,85.08,262.56)" d="M 0 0 L 67.84 0 C 76.8 0 84 5.76 84 13.12 C 84 20.32 76.8 26.24 67.84 26.24 L 0 26.24 C -8.8 26.24 -16 20.32 -16 13.12 C -16 5.76 -8.8 0 0 0 Z " fill="#ffffff" fill-rule="evenodd"/>
<path transform="matrix(.75,0,0,.75,85.08,262.56)" stroke-width="1.28" stroke-linecap="butt" stroke-miterlimit="8" stroke-linejoin="miter" fill="none" stroke="#4472c4" d="M 0 0 L 67.84 0 C 76.8 0 84 5.76 84 13.12 C 84 20.32 76.8 26.24 67.84 26.24 L 0 26.24 C -8.8 26.24 -16 20.32 -16 13.12 C -16 5.76 -8.8 0 0 0 Z "/>
<text xml:space="preserve" transform="matrix(.02746575 0 0 .02746575 0 0)" font-size="327.68" font-family="F1"><tspan y="10005.1" x="3014.72 3185.1136 3355.507 3529.1776 3640.5887 3814.259 3942.0543 4112.448 4286.1188 4456.5129 4531.879 4718.6564 4794.0227 4902.157">Photoshop Alts</tspan></text>
<path transform="matrix(.75,0,0,.75,172.44,262.56)" d="M 0 0 L 136.96 0 C 154.88 0 169.44 5.76 169.44 13.12 C 169.44 20.32 154.88 26.24 136.96 26.24 L 0 26.24 C -17.92 26.24 -32.48 20.32 -32.48 13.12 C -32.48 5.76 -17.92 0 0 0 Z " fill="#ffffff" fill-rule="evenodd"/>
<path transform="matrix(.75,0,0,.75,172.44,262.56)" stroke-width="1.28" stroke-linecap="butt" stroke-miterlimit="8" stroke-linejoin="miter" fill="none" stroke="#4472c4" d="M 0 0 L 136.96 0 C 154.88 0 169.44 5.76 169.44 13.12 C 169.44 20.32 154.88 26.24 136.96 26.24 L 0 26.24 C -17.92 26.24 -32.48 20.32 -32.48 13.12 C -32.48 5.76 -17.92 0 0 0 Z "/>
<text xml:space="preserve" transform="matrix(.02746575 0 0 .02746575 0 0)" font-size="327.68" font-family="F1"><tspan y="10005.1" x="5845.76 6032.537 6134.1179 6235.698 6307.7878 6478.1818 6553.548 6661.6828 6812.4157 6891.0588 7090.944 7251.507 7379.3024 7454.6687 7605.4016 7775.7956 7939.6354 8051.0466 8136.243 8234.547 8424.602 8496.691 8608.103 8686.746 8794.881 8968.552 9040.642 9122.562 9197.929 9270.019 9440.412 9568.207 9676.342 9791.029 9948.316 10056.451 10233.398 10344.81">Affinity Designer (Alt to Illustrator)</tspan></text>
<path transform="matrix(.75,0,0,.75,314.04,262.56)" d="M 0 0 L 81.76 0 C 92.48 0 101.12 5.76 101.12 13.12 C 101.12 20.32 92.48 26.24 81.76 26.24 L 0 26.24 C -10.72 26.24 -19.36 20.32 -19.36 13.12 C -19.36 5.76 -10.72 0 0 0 Z " fill="#ffffff" fill-rule="evenodd"/>
<path transform="matrix(.75,0,0,.75,314.04,262.56)" stroke-width="1.28" stroke-linecap="butt" stroke-miterlimit="8" stroke-linejoin="miter" fill="none" stroke="#4472c4" d="M 0 0 L 81.76 0 C 92.48 0 101.12 5.76 101.12 13.12 C 101.12 20.32 92.48 26.24 81.76 26.24 L 0 26.24 C -10.72 26.24 -19.36 20.32 -19.36 13.12 C -19.36 5.76 -10.72 0 0 0 Z "/>
<text xml:space="preserve" transform="matrix(.02746575 0 0 .02746575 0 0)" font-size="327.68" font-family="F1"><tspan y="10005.1" x="11276.6 11486.314 11656.708 11732.075 11840.21 11987.666 12066.31 12272.748 12430.035 12692.179 12852.742 12928.108 13088.672 13259.065 13413.075 13488.442 13658.836">Unity Game Engine</tspan></text>
<path transform="matrix(.75,0,0,.75,397.56,262.56)" d="M 0 0 L 43.52 0 C 49.12 0 53.76 5.76 53.76 13.12 C 53.76 20.32 49.12 26.24 43.52 26.24 L 0 26.24 C -5.6 26.24 -10.24 20.32 -10.24 13.12 C -10.24 5.76 -5.6 0 0 0 Z " fill="#ffffff" fill-rule="evenodd"/>
<path transform="matrix(.75,0,0,.75,397.56,262.56)" stroke-width="1.28" stroke-linecap="butt" stroke-miterlimit="8" stroke-linejoin="miter" fill="none" stroke="#4472c4" d="M 0 0 L 43.52 0 C 49.12 0 53.76 5.76 53.76 13.12 C 53.76 20.32 49.12 26.24 43.52 26.24 L 0 26.24 C -5.6 26.24 -10.24 20.32 -10.24 13.12 C -10.24 5.76 -5.6 0 0 0 Z "/>
<text xml:space="preserve" transform="matrix(.02746575 0 0 .02746575 0 0)" font-size="327.68" font-family="F1"><tspan y="10005.1" x="14470.4 14748.929 14906.216 15056.948 15214.235 15286.325 15453.441">Maya 3D</tspan></text>
<path transform="matrix(.75,0,0,.75,444.84,262.56)" d="M 0 0 L 39.36 0 C 44.48 0 48.64 5.76 48.64 13.12 C 48.64 20.32 44.48 26.24 39.36 26.24 L 0 26.24 C -5.12 26.24 -9.28 20.32 -9.28 13.12 C -9.28 5.76 -5.12 0 0 0 Z " fill="#ffffff" fill-rule="evenodd"/>
<path transform="matrix(.75,0,0,.75,444.84,262.56)" stroke-width="1.28" stroke-linecap="butt" stroke-miterlimit="8" stroke-linejoin="miter" fill="none" stroke="#4472c4" d="M 0 0 L 39.36 0 C 44.48 0 48.64 5.76 48.64 13.12 C 48.64 20.32 44.48 26.24 39.36 26.24 L 0 26.24 C -5.12 26.24 -9.28 20.32 -9.28 13.12 C -9.28 5.76 -5.12 0 0 0 Z "/>
<text xml:space="preserve" transform="matrix(.02746575 0 0 .02746575 0 0)" font-size="327.68" font-family="F1"><tspan y="10005.1" x="16217.9 16398.124 16470.213 16634.053 16804.446 16974.838 17135.403">Blender</tspan></text>
<path transform="matrix(.75,0,0,.75,490.56,262.56)" d="M 0 0 L 51.52 0 C 58.24 0 63.68 5.76 63.68 13.12 C 63.68 20.32 58.24 26.24 51.52 26.24 L 0 26.24 C -6.72 26.24 -12.32 20.32 -12.32 13.12 C -12.32 5.76 -6.72 0 0 0 Z " fill="#ffffff" fill-rule="evenodd"/>
<path transform="matrix(.75,0,0,.75,490.56,262.56)" stroke-width="1.28" stroke-linecap="butt" stroke-miterlimit="8" stroke-linejoin="miter" fill="none" stroke="#4472c4" d="M 0 0 L 51.52 0 C 58.24 0 63.68 5.76 63.68 13.12 C 63.68 20.32 58.24 26.24 51.52 26.24 L 0 26.24 C -6.72 26.24 -12.32 20.32 -12.32 13.12 C -12.32 5.76 -6.72 0 0 0 Z "/>
<text xml:space="preserve" transform="matrix(.02746575 0 0 .02746575 0 0)" font-size="327.68" font-family="F1"><tspan y="10005.1" x="17838.9 17986.356 18156.749 18284.543 18359.91 18533.58 18703.973 18782.618 18949.735 19113.575">Fusion 360</tspan></text>
<path transform="matrix(.75,0,0,.75,81,282.24)" d="M 0 0 L 44.8 0 C 50.56 0 55.36 5.76 55.36 13.12 C 55.36 20.32 50.56 26.24 44.8 26.24 L 0 26.24 C -5.92 26.24 -10.56 20.32 -10.56 13.12 C -10.56 5.76 -5.92 0 0 0 Z " fill="#ffffff" fill-rule="evenodd"/>
<clipPath id="cp24">
<path transform="matrix(.75,0,0,.75,81,282.24)" d="M -16.96 -6.4 L 61.92 -6.4 L 61.92 29.28 L -16.96 29.28 Z " fill-rule="evenodd"/>
</clipPath>
<g clip-path="url(#cp24)">
<path transform="matrix(.75,0,0,.75,81,282.24)" stroke-width="1.28" stroke-linecap="butt" stroke-miterlimit="8" stroke-linejoin="miter" fill="none" stroke="#4472c4" d="M 0 0 L 44.8 0 C 50.56 0 55.36 5.76 55.36 13.12 C 55.36 20.32 50.56 26.24 44.8 26.24 L 0 26.24 C -5.92 26.24 -10.56 20.32 -10.56 13.12 C -10.56 5.76 -5.92 0 0 0 Z "/>
</g>
<text xml:space="preserve" transform="matrix(.02746575 0 0 .02746575 0 0)" font-size="327.68" font-family="F1"><tspan y="10721.8" x="2957.92 3144.6976 3315.091 3426.5023 3600.1727 3773.843 3963.8973">AutoCAD</tspan></text>
<path transform="matrix(.75,0,0,.75,127.68001,282.24)" d="M 0 0 L 29.28 0 C 33.12 0 36.16 5.76 36.16 13.12 C 36.16 20.32 33.12 26.24 29.28 26.24 L 0 26.24 C -3.68 26.24 -6.88 20.32 -6.88 13.12 C -6.88 5.76 -3.68 0 0 0 Z " fill="#ffffff" fill-rule="evenodd"/>
<clipPath id="cp25">
<path transform="matrix(.75,0,0,.75,127.68001,282.24)" d="M -13.28 -6.4 L 42.72 -6.4 L 42.72 29.28 L -13.28 29.28 Z " fill-rule="evenodd"/>
</clipPath>
<g clip-path="url(#cp25)">
<path transform="matrix(.75,0,0,.75,127.68001,282.24)" stroke-width="1.28" stroke-linecap="butt" stroke-miterlimit="8" stroke-linejoin="miter" fill="none" stroke="#4472c4" d="M 0 0 L 29.28 0 C 33.12 0 36.16 5.76 36.16 13.12 C 36.16 20.32 33.12 26.24 29.28 26.24 L 0 26.24 C -3.68 26.24 -6.88 20.32 -6.88 13.12 C -6.88 5.76 -3.68 0 0 0 Z "/>
</g>
<text xml:space="preserve" transform="matrix(.02746575 0 0 .02746575 0 0)" font-size="327.68" font-family="F1"><tspan y="10721.8" x="4705.44 4866.003 5006.9055 5147.8078 5308.3708">Excel</tspan></text>
<path transform="matrix(.75,0,0,.75,158.88,282.24)" d="M 0 0 L 23.04 0 C 26.08 0 28.48 5.76 28.48 13.12 C 28.48 20.32 26.08 26.24 23.04 26.24 L 0 26.24 C -3.04 26.24 -5.44 20.32 -5.44 13.12 C -5.44 5.76 -3.04 0 0 0 Z " fill="#ffffff" fill-rule="evenodd"/>
<clipPath id="cp26">
<path transform="matrix(.75,0,0,.75,158.88,282.24)" d="M -11.84 -6.4 L 35.04 -6.4 L 35.04 29.28 L -11.84 29.28 Z " fill-rule="evenodd"/>
</clipPath>
<g clip-path="url(#cp26)">
<path transform="matrix(.75,0,0,.75,158.88,282.24)" stroke-width="1.28" stroke-linecap="butt" stroke-miterlimit="8" stroke-linejoin="miter" fill="none" stroke="#4472c4" d="M 0 0 L 23.04 0 C 26.08 0 28.48 5.76 28.48 13.12 C 28.48 20.32 26.08 26.24 23.04 26.24 L 0 26.24 C -3.04 26.24 -5.44 20.32 -5.44 13.12 C -5.44 5.76 -3.04 0 0 0 Z "/>
</g>
<text xml:space="preserve" transform="matrix(.02746575 0 0 .02746575 0 0)" font-size="327.68" font-family="F1"><tspan y="10721.8" x="5872 5976.8576 6052.2238 6163.635">Jira</tspan></text>
<path transform="matrix(.75,0,0,.75,185.88,282.24)" d="M 0 0 L 31.2 0 C 35.2 0 38.56 5.76 38.56 13.12 C 38.56 20.32 35.2 26.24 31.2 26.24 L 0 26.24 C -4.16 26.24 -7.52 20.32 -7.52 13.12 C -7.52 5.76 -4.16 0 0 0 Z " fill="#ffffff" fill-rule="evenodd"/>
<clipPath id="cp27">
<path transform="matrix(.75,0,0,.75,185.88,282.24)" d="M -13.92 -6.4 L 45.12 -6.4 L 45.12 29.28 L -13.92 29.28 Z " fill-rule="evenodd"/>
</clipPath>
<g clip-path="url(#cp27)">
<path transform="matrix(.75,0,0,.75,185.88,282.24)" stroke-width="1.28" stroke-linecap="butt" stroke-miterlimit="8" stroke-linejoin="miter" fill="none" stroke="#4472c4" d="M 0 0 L 31.2 0 C 35.2 0 38.56 5.76 38.56 13.12 C 38.56 20.32 35.2 26.24 31.2 26.24 L 0 26.24 C -4.16 26.24 -7.52 20.32 -7.52 13.12 C -7.52 5.76 -4.16 0 0 0 Z "/>
</g>
<text xml:space="preserve" transform="matrix(.02746575 0 0 .02746575 0 0)" font-size="327.68" font-family="F1"><tspan y="10721.8" x="6811.36 6971.923 7086.611 7247.174 7322.54 7397.9064">Trello</tspan></text>
<path transform="matrix(.75,0,0,.75,221.63999,282.24)" d="M 0 0 L 38.72 0 C 43.84 0 47.84 5.76 47.84 13.12 C 47.84 20.32 43.84 26.24 38.72 26.24 L 0 26.24 C -4.96 26.24 -9.12 20.32 -9.12 13.12 C -9.12 5.76 -4.96 0 0 0 Z " fill="#ffffff" fill-rule="evenodd"/>
<clipPath id="cp28">
<path transform="matrix(.75,0,0,.75,221.63999,282.24)" d="M -15.52 -6.4 L 54.4 -6.4 L 54.4 29.28 L -15.52 29.28 Z " fill-rule="evenodd"/>
</clipPath>
<g clip-path="url(#cp28)">
<path transform="matrix(.75,0,0,.75,221.63999,282.24)" stroke-width="1.28" stroke-linecap="butt" stroke-miterlimit="8" stroke-linejoin="miter" fill="none" stroke="#4472c4" d="M 0 0 L 38.72 0 C 43.84 0 47.84 5.76 47.84 13.12 C 47.84 20.32 43.84 26.24 38.72 26.24 L 0 26.24 C -4.96 26.24 -9.12 20.32 -9.12 13.12 C -9.12 5.76 -4.96 0 0 0 Z "/>
</g>
<text xml:space="preserve" transform="matrix(.02746575 0 0 .02746575 0 0)" font-size="327.68" font-family="F1"><tspan y="10721.8" x="8100.32 8273.99 8349.357 8424.725 8562.351 8713.083 8922.798">ClickUp</tspan></text>
</g>
</svg>
