<?xml version="1.0" encoding="UTF-8" standalone="no"?>
<!DOCTYPE svg PUBLIC "-//W3C//DTD SVG 1.1//EN" "http://www.w3.org/Graphics/SVG/1.1/DTD/svg11.dtd">
<svg xmlns="http://www.w3.org/2000/svg" xmlns:xlink="http://www.w3.org/1999/xlink" version="1.1" width="612pt" height="792pt" viewBox="0 0 612 792">
<g enable-background="new">
<text xml:space="preserve" transform="matrix(.75 0 0 .75 0 0)" font-size="14.6921" font-family="F1"><tspan y="986.08" x="375.04 382.62998 389.66755 396.58317 403.89335">Page </tspan></text>
<text xml:space="preserve" transform="matrix(.75 0 0 .75 0 0)" font-size="14.6921" font-family="F2" font-weight="bold"><tspan y="986.08" x="407.2">3</tspan></text>
<text xml:space="preserve" transform="matrix(.75 0 0 .75 0 0)" font-size="14.6921" font-family="F1"><tspan y="986.08" x="414.72 417.95225 425.7 430.1837"> of </tspan></text>
<text xml:space="preserve" transform="matrix(.75 0 0 .75 0 0)" font-size="14.6921" font-family="F2" font-weight="bold"><tspan y="986.08" x="433.44">4</tspan></text>
<text xml:space="preserve" transform="matrix(.75 0 0 .75 0 0)" font-size="14.6921" font-family="F1"><tspan y="986.08" x="440.8"> </tspan></text>
<text xml:space="preserve" transform="matrix(.75 0 0 .75 0 0)" font-size="14.6921" font-family="F1"><tspan y="1004" x="96"> </tspan></text>
<text xml:space="preserve" transform="matrix(.75 0 0 .75 0 0)" font-size="14.6921" font-family="F4"><tspan y="110.72" x="120">&#xf0b7;</tspan></text>
<text xml:space="preserve" transform="matrix(.75 0 0 .75 0 0)" font-size="14.6921" font-family="F5"><tspan y="110.72" x="126.72"> </tspan></text>
<text xml:space="preserve" transform="matrix(.75 0 0 .75 0 0)" font-size="14.6921" font-family="F1"><tspan y="110.72" x="144 152.50106 160.14095 167.17853 170.55025 177.30861 183.03853 190.34871 197.9886 201.3101 207.52269 215.27048 222.91037 230.22055 233.45282 241.38655 245.79419 249.11569 254.03697 261.75608 265.1278 270.24998 277.88987 282.38789 290.02778 297.06535 302.1875 307.0359 313.79426 317.11576 322.69874 330.4465 334.93019 339.85148 350.57673 357.482 362.47734 369.7875 373.109 380.8281 387.86567 393.44865 400.75883 408.4779 411.7994 419.73316 427.37306 430.6053 435.52659 443.16648 450.47666 453.79817 458.92033 466.11946 471.86573 479.5056 482.87736 487.79866 493.54493 496.86643 504.5855 509.70768 517.4555 525.1746 532.8145 539.13217 546.4423 553.9353 557.25686 561.7405 566.8626 574.5025 586.40316 589.7247 597.4438 604.4814 609.6035 617.0965 627.5279 634.5655 639.5608 647.0538 650.2861 658.0052 665.31539 673.0345 680.6744 687.58999 694.50558 697.73788 705.457 712.37258">Analyzed code of third-party software based on the results produced from hardware debugging </tspan></text>
<text xml:space="preserve" transform="matrix(.75 0 0 .75 0 0)" font-size="14.6921" font-family="F1"><tspan y="128.64" x="144 151.03759 158.67748 166.31737 169.63887 177.13184 183.89022 191.2004 198.69336 203.61464 206.93614 210.30786 218.2416 224.99996 230.74623">and event logs </tspan></text>
<text xml:space="preserve" transform="matrix(.75 0 0 .75 0 0)" font-size="14.6921" font-family="F4"><tspan y="147.2" x="120">&#xf0b7;</tspan></text>
<text xml:space="preserve" transform="matrix(.75 0 0 .75 0 0)" font-size="14.6921" font-family="F5"><tspan y="147.2" x="126.72"> </tspan></text>
<text xml:space="preserve" transform="matrix(.75 0 0 .75 0 0)" font-size="14.6921" font-family="F1"><tspan y="147.2" x="144 151.83388 156.95603 164.2662 171.30379 176.22507 183.53525 191.25434 194.57584 202.21573 209.52591 214.44719 221.48477 224.85649 228.22821 235.53839 243.17829 246.49979 254.13968 261.88746 268.20506 275.69804 287.4345 294.7447 302.46379 307.31217 314.34974 319.27104 322.64277 330.39054 338.10963 341.34187 349.08964 353.5733 356.8948 362.01698 369.32716 377.04624 380.41798 383.7897 389.81349 396.85105 401.77235 405.14408 413.07783 420.5708 423.8923 430.92988 437.24748 442.09587 445.32814 452.0865 455.45823 460.3066 463.53889 470.84907 476.7259 480.0474 484.89579 492.64356 495.96507 499.3368 504.91978 512.85348 516.22518 523.1305 527.9789 535.28909 538.6106 541.9823 547.85916 553.6054 561.2453 568.5555 574.1385 577.46 582.3084 590.2421 593.4744 598.3957 606.1148 613.425 616.7967 621.792 625.0243 631.2369 638.9847 644.1068 651.417">Created detailed documentation of replication activities to isolate issues to their core </tspan></text>
<text xml:space="preserve" transform="matrix(.75 0 0 .75 0 0)" font-size="14.6921" font-family="F4"><tspan y="165.92" x="120">&#xf0b7;</tspan></text>
<text xml:space="preserve" transform="matrix(.75 0 0 .75 0 0)" font-size="14.6921" font-family="F5"><tspan y="165.92" x="126.72"> </tspan></text>
<text xml:space="preserve" transform="matrix(.75 0 0 .75 0 0)" font-size="14.6921" font-family="F1"><tspan y="165.92" x="144 151.97736 159.28754 162.65926 169.69684 176.34702 183.54615 191.26523 194.58673 197.95845 205.59835 210.08202 218.01575 223.01107 234.74752 241.7851 246.70638 249.93863 257.6864 265.4055 268.727 273.57539 281.32316 284.64466 288.17079 295.81068 303.45057 306.68284 313.4412 316.81294 324.45283 332.0927 339.13029 342.502 345.82353 353.4634 361.39717 364.7689 372.40879 377.33009 382.91307 386.23457 394.1683 398.42903 401.75053 408.0681 415.8159 423.45579 428.30418 435.34175 441.65934 446.58064 449.81288 454.73417 462.37406 465.6063 472.91648 480.63557 486.38185 494.02174 499.1439 506.45408 509.77558 514.69686 522.41598 529.45358 534.30197 537.6235 542.7456 550.0558 553.4275 560.62667 567.385 574.4226 582.0625 586.9109 590.2324 595.9787 603.6186 611.1116 617.32418 620.55648 627.4618 630.8335 634.2052 639.9515 644.87277 650.619 653.94058 660.97817 666.1003 673.29946">Relayed information to individual points of contact to ensure that relevant specialists are </tspan></text>
<text xml:space="preserve" transform="matrix(.75 0 0 .75 0 0)" font-size="14.6921" font-family="F1"><tspan y="183.84" x="144 147.37172 155.01161 161.76999 169.51778 172.75003 179.5084 186.81859 194.45848 197.69075">involved  </tspan></text>
<text xml:space="preserve" transform="matrix(.75 0 0 .75 0 0)" font-size="14.6921" font-family="F4"><tspan y="202.56" x="120">&#xf0b7;</tspan></text>
<text xml:space="preserve" transform="matrix(.75 0 0 .75 0 0)" font-size="14.6921" font-family="F5"><tspan y="202.56" x="126.72"> </tspan></text>
<text xml:space="preserve" transform="matrix(.75 0 0 .75 0 0)" font-size="14.6921" font-family="F1"><tspan y="202.56" x="144 153.0391 160.23822 166.9966 174.30678 177.53903 185.47277 193.11266 200.42284 208.06273 211.295 219.04279 226.76187 234.07205 241.79114 246.28917 252.03545 259.78324 267.50233 272.62449 278.64826 286.14125 289.37348 296.41105 304.05094 311.69084 315.01234 322.65223 327.77439 335.70814 343.34803 348.47019 351.84193 359.1521 364.0734 371.11097 376.1063 382.86466 386.0969 390.94529 398.58518 406.51893 409.89067 415.63694 418.86918 423.71757 431.6513 434.73664 442.0468 449.7659 457.4058 464.44337 472.16246 478.37504 485.6852 489.0067 496.7258 500.09754 507.1351 512.05636 516.4639 524.21176 529.33389 541.0703 544.3026 552.0217 557.14389 560.51559 568.15548 575.07107 579.4787 587.1978 594.8377 598.15927 603.0805 606.4522 618.35287 625.552 628.87356 635.91116 643.551 651.27017 654.5917 659.51296 667.0059 673.7643 685.6649">Developed open-source and proprietary tools to enhance platform bring-up time and team </tspan></text>
<text xml:space="preserve" transform="matrix(.75 0 0 .75 0 0)" font-size="14.6921" font-family="F1"><tspan y="220.48" x="144 151.6399 158.95008 164.07222 168.5559 176.48963 181.33802 193.2386 200.27619 207.91608 214.23369 221.43282">performance </tspan></text>
<text xml:space="preserve" transform="matrix(.75 0 0 .75 0 0)" font-size="14.6921" font-family="F6"><tspan y="238.4" x="168">o</tspan></text>
<text xml:space="preserve" transform="matrix(.75 0 0 .75 0 0)" font-size="14.6921" font-family="F5"><tspan y="238.4" x="176.8"> </tspan></text>
<text xml:space="preserve" transform="matrix(.75 0 0 .75 0 0)" font-size="14.6921" font-family="F1"><tspan y="238.4" x="192 199.17388 205.6384 212.67598 224.41243 232.05233 235.28458 242.59476 246.70854 249.79389 257.72764 265.36753 272.6777 280.3968 284.8044 290.5507 298.29847 305.93836 311.06053 317.3781 324.57725 327.80949 335.30247 341.47315 346.39445 351.38978 358.42735 364.63993 369.56123 372.93296 380.57286 387.48847 390.80998 398.44987 403.37117 406.89729 410.12956 413.50129 418.42259 421.7943 429.1045 434.85078 438.083 444.2956 452.04338 459.68327 466.99345 474.71253 478.03404 488.5366 491.76887 496.69017 504.40925 507.73075 514.63607 517.9576 524.2752 531.9151 543.81576 551.4556 554.82736 562.4672 569.5048 574.4261 577.6584 585.5921 593.232 596.5535 604.30136 608.7089">Example: open-source extracting utilities coded with a combination of </tspan></text>
<text xml:space="preserve" transform="matrix(.75 0 0 .75 0 0)" font-size="14.6921" font-family="F1"><tspan y="256.32" x="192 199.6399 206.39826 211.31954 218.95943 226.89316 234.38613 240.06067 247.77976 255.41965 265.9222 273.4152 278.53736 284.28364 291.92353 299.2337 302.60545 305.8377 311.51225 318.5498 326.2689 333.90879 337.2303 344.94938 351.85466 356.77595 363.09355 370.73344">python/powershell/and batch </tspan></text>
<text xml:space="preserve" transform="matrix(.75 0 0 .75 0 0)" font-size="14.6921" font-family="F1"><tspan y="274.08" x="96"> </tspan></text>
<text xml:space="preserve" transform="matrix(.75 0 0 .75 0 0)" font-size="14.6921" font-family="F2" font-weight="bold"><tspan y="294.72" x="96 100.77063 108.70437 113.8466 121.74504 125.49698 132.6961 139.0137 144.10715 147.33942 154.7859 159.55654 162.7888 171.69158 179.57567 184.66912 192.56755 204.46814 211.72093 216.81438 224.21063 231.99745 235.31896 242.59326 249.98952 255.71944 260.71476 264.03627 272.72386 279.97663 283.58509 287.19355 295.07765 302.3304 307.42387 311.03233 318.93077 326.71757 330.03907 337.29185 343.1529 346.4744 354.37284 359.0215 362.34303 372.0398 378.3574 383.45085 391.23765 399.12174 406.518 411.7406 414.97285 422.4193 429.76536 437.21183 444.6583">[Project 1] Automated Test Validation as of October 2020 </tspan></text>
<text xml:space="preserve" transform="matrix(.75 0 0 .75 0 0)" font-size="14.6921" font-family="F4"><tspan y="313.44" x="120">&#xf0b7;</tspan></text>
<text xml:space="preserve" transform="matrix(.75 0 0 .75 0 0)" font-size="14.6921" font-family="F5"><tspan y="313.44" x="126.72"> </tspan></text>
<text xml:space="preserve" transform="matrix(.75 0 0 .75 0 0)" font-size="14.6921" font-family="F1"><tspan y="313.44" x="144 151.97736 159.01494 166.65483 169.97634 175.85318 183.60097 188.0086 192.85701 203.35956 210.55869 215.40708 222.71726 226.03876 231.181 238.38013 244.1264 248.97481 254.85166 257.93699 265.87074 273.51063 276.74287 283.3787 290.41627 295.53843 298.91017 306.55006 314.18995 320.06678 323.38829 331.02818 338.06575 343.1879 350.8278 361.33036 368.36793 373.49009 380.80027 384.12178 391.84086 396.83619 404.76994 408.28514 415.48426 421.69685 426.54524 432.2915">Ran software tests on various hardware projects </tspan></text>
<text xml:space="preserve" transform="matrix(.75 0 0 .75 0 0)" font-size="14.6921" font-family="F4"><tspan y="332.16" x="120">&#xf0b7;</tspan></text>
<text xml:space="preserve" transform="matrix(.75 0 0 .75 0 0)" font-size="14.6921" font-family="F5"><tspan y="332.16" x="126.72"> </tspan></text>
<text xml:space="preserve" transform="matrix(.75 0 0 .75 0 0)" font-size="14.6921" font-family="F1"><tspan y="332.16" x="144 152.33605 159.37363 162.74535 165.9776 173.69669 180.73427 185.65555 192.96573 200.68482 204.00632 209.12847 216.43865 222.31549 229.95539 233.3271 238.1755 243.92179 247.15406 251.63773 256.63307 264.38084 276.1173 279.4388 284.3601 291.8531 297.43608 302.13755 308.01438 311.2466 319.18037 326.82026 330.14176 337.86085 344.8984 350.02058 357.66047 368.09187 375.12944 380.2516 387.4507">Validated results from tests on hardware </tspan></text>
<text xml:space="preserve" transform="matrix(.75 0 0 .75 0 0)" font-size="14.6921" font-family="F4"><tspan y="350.72" x="120">&#xf0b7;</tspan></text>
<text xml:space="preserve" transform="matrix(.75 0 0 .75 0 0)" font-size="14.6921" font-family="F5"><tspan y="350.72" x="126.72"> </tspan></text>
<text xml:space="preserve" transform="matrix(.75 0 0 .75 0 0)" font-size="14.6921" font-family="F1"><tspan y="350.72" x="144 153.0391 160.53206 168.17195 175.81185 182.72747 189.64308 196.95326 204.59316 207.91466 215.22484 220.34699 225.3423 233.09009 240.80918 248.0083 255.94203 263.58195 269.32823 272.64973 280.2896 287.32719 292.24848 299.15376 302.47526 307.32365 315.2574 318.48963 325.9826 329.21488 332.44715 344.34776 347.71949 355.35939 362.39695 367.24534 374.5555 377.877 385.5169 392.55448 400.19438 403.51588 409.72846 417.47624 425.1953 429.60295 432.97468 439.8903 445.63658 448.95808 455.99565 463.48863 471.2077 474.5292 482.1691 489.20668 496.92576 500.24726 505.16856 512.4787 518.3555 523.057 526.37857 534.09768 541.13528 546.0565 552.96188">Debugged erroneous data to eliminate bad configs and bad test data </tspan></text>
<text xml:space="preserve" transform="matrix(.75 0 0 .75 0 0)" font-size="14.6921" font-family="F4"><tspan y="369.44" x="120">&#xf0b7;</tspan></text>
<text xml:space="preserve" transform="matrix(.75 0 0 .75 0 0)" font-size="14.6921" font-family="F5"><tspan y="369.44" x="126.72"> </tspan></text>
<text xml:space="preserve" transform="matrix(.75 0 0 .75 0 0)" font-size="14.6921" font-family="F1"><tspan y="369.44" x="144 150.75061 158.4984 166.21749 173.85738 181.49727 184.81877 195.544 202.4493 209.09947 214.84575 218.16725 223.01566 230.76345 234.08495 238.56862 246.2877 251.40985 256.33116 263.97105 271.28123 276.27656 279.59806 287.5318 295.02479 299.94609 303.3178 315.2184 318.59016 324.32008 331.63026 334.95176 339.80015 347.11033 352.8566 357.7779 361.14964 368.8687 375.78434 378.86967 385.62803 388.99977 396.03733 399.35884 406.3964 414.0363 418.88468 426.52458 438.42518 445.46275 450.38404 453.6163 461.2562 468.8961 472.2176 482.72016 486.24629 491.09468 498.81376 502.13526 509.17283 516.8127 524.5318 527.9035 532.82479 536.05709 543.8049 551.524 558.5616 561.9333 565.2548 570.1032 577.851 585.7847 589.15646 594.73947 598.061 602.90939 610.65719 613.9787 618.974 626.2842 634.0033 641.6432 647.9608 655.271 658.5925 666.2324 673.95156 685.8522 692.8898 700.38278">Found ways to further optimize testing via automation with additional tools to reduce human </tspan></text>
<text xml:space="preserve" transform="matrix(.75 0 0 .75 0 0)" font-size="14.6921" font-family="F1"><tspan y="387.36" x="144 147.37172 155.01161 159.93289 167.24308 172.36522 176.84889 184.34186 189.33718 196.64736 204.36644 210.57903 217.63123">interference </tspan></text>
<text xml:space="preserve" transform="matrix(.75 0 0 .75 0 0)" font-size="14.6921" font-family="F4"><tspan y="406.08" x="120">&#xf0b7;</tspan></text>
<text xml:space="preserve" transform="matrix(.75 0 0 .75 0 0)" font-size="14.6921" font-family="F5"><tspan y="406.08" x="126.72"> </tspan></text>
<text xml:space="preserve" transform="matrix(.75 0 0 .75 0 0)" font-size="14.6921" font-family="F1"><tspan y="406.08" x="144 151.97736 159.28754 166.04592 169.27817 176.58835 187.0909 194.40108 202.04097 205.36248 211.57506 219.32285 226.96274 234.27292 237.59442 242.44283 250.19062 253.51212 257.9958 261.36753 269.0866 276.7265 279.95875 287.8925 295.53239 300.45368 303.6859 314.18849 321.82838 328.58674 331.90824 336.75663 344.0668 349.81309 354.73439 360.31736 363.63887 370.83799 375.8333 383.3263 386.55854 394.19844 401.5086 406.63078 411.0384 418.97215 423.82054 435.72114 439.09288 446.73277 453.64839 456.96989 461.81828 469.45817 476.76835 480.08985 490.5924 497.62998 504.28019 507.60169 512.52297 520.24209 527.4412 534.1996 537.5211 545.161 552.4712 557.5933 562.0009 569.7487 574.744 586.64468 589.9662 594.8146 602.5624 605.7947 612.55307 619.59066 622.67599 626.04769 633.68759 640.72518 645.6464 653.1394 656.46096 661.58309 668.89328 674.6395 682.2794 685.5117 690.433 696.016">Reviewed code to find out why tests are performing the way they perform to validate results </tspan></text>
<text xml:space="preserve" transform="matrix(.75 0 0 .75 0 0)" font-size="14.6921" font-family="F4"><tspan y="424.8" x="120">&#xf0b7;</tspan></text>
<text xml:space="preserve" transform="matrix(.75 0 0 .75 0 0)" font-size="14.6921" font-family="F5"><tspan y="424.8" x="126.72"> </tspan></text>
<text xml:space="preserve" transform="matrix(.75 0 0 .75 0 0)" font-size="14.6921" font-family="F1"><tspan y="424.8" x="144 153.0391 160.23822 166.9966 174.30678 177.53903 185.47277 193.11266 200.42284 208.06273 211.38423 218.42182 221.74332 229.38321 237.131 247.5624 254.87258 259.99473 265.87156 273.51145 280.82164 284.19337 287.5651 290.8866 296.46958 302.68217 307.6775 311.04924 318.68913 323.6104 326.93193 331.8532 339.60099 342.9225 350.85624 355.9784 362.894 369.7993 377.51838 380.8901 386.62004 393.81916 397.14067 408.87715 416.18733 421.9336 427.67988 434.33009 437.56233 441.0775 446.6605 454.59425 462.23414 465.46638 473.10627 480.14384 485.06513 492.1027 495.4242 498.79594 506.43583 511.35713 519.1049 522.42648 529.46408 532.69638 544.597 552.3448 557.3401 564.65029 567.9718 575.6909 583.1839 595.08456 602.12216 609.762 613.08358 617.5672 622.68936 625.92166 633.2318 640.8717 648.5908 651.9625 658.7209 661.9532 666.4368 674.18466 679.30679 690.9135">Developed a powershell script to organize messy json data into a more human friendly form </tspan></text>
<text xml:space="preserve" transform="matrix(.75 0 0 .75 0 0)" font-size="14.6921" font-family="F4"><tspan y="443.36" x="120">&#xf0b7;</tspan></text>
<text xml:space="preserve" transform="matrix(.75 0 0 .75 0 0)" font-size="14.6921" font-family="F5"><tspan y="443.36" x="126.72"> </tspan></text>
<text xml:space="preserve" transform="matrix(.75 0 0 .75 0 0)" font-size="14.6921" font-family="F1"><tspan y="443.36" x="144 153.0391 160.23822 166.9966 174.30678 177.53903 185.47277 193.11266 200.42284 208.06273 211.38423 218.42182 221.74332 229.38321 237.131 247.5624 254.87258 259.99473 265.87156 273.51145 280.82164 284.19337 287.5651 290.8866 296.46958 302.68217 307.6775 311.04924 318.68913 323.6104 326.93193 331.8532 339.60099 342.9225 349.13508 356.88285 364.52275 371.2811 378.59129 383.5866 388.5079 391.8294 399.5485 407.1884 410.56013 417.239 420.56053 425.24507 431.9957 441.72349 451.12644 454.44795 462.08784 469.1254 473.9738 481.01136 484.33287 487.7046 495.42369 500.34498 508.09275 511.41426 517.1605 522.0818 528.9871 533.9084 541.5483 547.4251 550.74667 555.8688 563.17898 570.67196 578.60568 583.60098 588.5222 594.2685 597.5008 608.00338 611.5295 616.37789 624.01779 627.25009 630.62179 633.99349 638.91476 643.836 647.2077 654.7007 657.933 665.6521 673.1451 685.0457 692.0833 699.7232">Developed a powershell script to convert bulk JSON data into status reports with little human </tspan></text>
<text xml:space="preserve" transform="matrix(.75 0 0 .75 0 0)" font-size="14.6921" font-family="F1"><tspan y="461.28" x="144 147.37172 155.01161 159.93289 167.24308 172.36522 179.4028 185.72042 190.6417 193.87395 201.62174 209.26163">interaction </tspan></text>
<text xml:space="preserve" transform="matrix(.75 0 0 .75 0 0)" font-size="14.6921" font-family="F4"><tspan y="480" x="120">&#xf0b7;</tspan></text>
<text xml:space="preserve" transform="matrix(.75 0 0 .75 0 0)" font-size="14.6921" font-family="F5"><tspan y="480" x="126.72"> </tspan></text>
<text xml:space="preserve" transform="matrix(.75 0 0 .75 0 0)" font-size="14.6921" font-family="F1"><tspan y="480" x="144 153.0391 160.53206 168.17195 171.54367 179.18357 185.94193 193.2521 200.892 204.12427 209.04555 216.35573 222.102 226.95041 230.27191 236.4845 244.23229 255.96874 263.68785 271.32774 276.17613 283.4863 288.60847 294.35475 297.67625 302.08387 309.83164 314.9538 318.18605 324.9444 331.98197 335.3537 338.58598 346.30506 353.34263 358.26393 361.63566 369.38343 377.02333 380.34483 385.2661 392.5763 398.32258 403.17097 406.5427 414.1826 421.0982">Deployed test computers for validation testing </tspan></text>
<text xml:space="preserve" transform="matrix(.75 0 0 .75 0 0)" font-size="14.6921" font-family="F4"><tspan y="498.72" x="120">&#xf0b7;</tspan></text>
<text xml:space="preserve" transform="matrix(.75 0 0 .75 0 0)" font-size="14.6921" font-family="F5"><tspan y="498.72" x="126.72"> </tspan></text>
<text xml:space="preserve" transform="matrix(.75 0 0 .75 0 0)" font-size="14.6921" font-family="F1"><tspan y="498.72" x="144 151.83388 159.58167 167.30075 171.78443 175.15615 182.07176 189.71166 194.8338 202.14398 209.78388 213.10538 216.4771 224.22489 230.43747 237.47505 240.84677 244.16828 251.80817 259.0073 263.9286 274.36 282.29374 287.28907 293.96797 299.8448 303.07704 307.9254 315.85917 318.9445 326.43748 334.07737 341.11494 348.75483 352.12657 359.43675 362.75825 366.12998 373.16755 378.2897 385.20533 392.40446 395.72596 402.76353 410.4034 418.0433 421.3648 425.84849 429.2202 436.7132 443.07646 446.44819 454.08808 457.4598 464.65895 467.98045 471.35218 478.38975 486.02964 489.35115 492.72288 499.76045 506.41065 514.15847 521.79837 526.7196 532.59646 535.82876 540.75 548.4691 555.37448 560.2957 563.61727 570.65487 575.777 582.97616 586.29769 594.0168 601.7646 606.613 614.3321 617.6536 622.0612 629.7011 637.341 643.6586 648.507 651.8787 659.81246 667.45236 674.4899 677.86166 681.18319 688.22079 695.86068 703.5798">Configured local networks to enable large and flexible lab layouts that are both functional and </tspan></text>
<text xml:space="preserve" transform="matrix(.75 0 0 .75 0 0)" font-size="14.6921" font-family="F1"><tspan y="516.64" x="144 151.74779 156.86994 163.78556 170.82314 178.46303 181.83475 187.56467 194.87485 202.59394">organized </tspan></text>
<text xml:space="preserve" transform="matrix(.75 0 0 .75 0 0)" font-size="14.6921" font-family="F1"><tspan y="534.56" x="96"> </tspan></text>
<text fill="#1f3763" xml:space="preserve" transform="matrix(.75 0 0 .75 0 0)" font-size="15.9697" font-family="F2" font-weight="bold"><tspan y="556.32" x="96 103.90687 112.051418 118.73405 127.30373 135.8734 139.70613 146.5731 150.49536 158.37885 166.94852 170.46184 174.71939 178.8715">Technician II </tspan></text>
<text xml:space="preserve" transform="matrix(.75 0 0 .75 0 0)" font-size="14.6921" font-family="F1"><tspan y="574.56" x="96 103.977359 111.28754 119.22127 126.969058 134.46202 141.7722 148.23673 153.158 156.4795 160.88715 168.63494 173.63025 185.53084 192.84102 197.96317 201.19542 207.95378 211.18605 218.23827 225.54845 228.92017 236.41313 244.05303 247.42475 254.33003 261.96995 265.29145 268.99317 276.63307 281.55436 288.86454 293.9867 301.70579 308.74336 313.66465 317.03639 324.78416 332.50325 339.5408 342.77308 346.09458 353.41197 356.73347 364.7108 372.45857 378.04154 385.3517 392.11009 395.4818 398.85356 402.22529 409.4244 413.09025 416.32249 424.15638 432.53089">ReConext formerly Teleplan International &#x2013; Roseville, CA </tspan></text>
<text xml:space="preserve" transform="matrix(.75 0 0 .75 0 0)" font-size="14.6921" font-family="F1"><tspan y="592.48" x="96 102.75062 110.0608 117.70069 122.62197 129.8211 141.7217 149.36159 156.67177 161.79392 165.02619 172.47267 179.91916 187.36565 194.7117 198.0332 202.95449 210.70227 214.02378 226.80591 233.56429 240.32265 243.55492 251.0014 258.34745 265.98735 273.33338">September 2018 to May 2020 </tspan></text>
<text xml:space="preserve" transform="matrix(.75 0 0 .75 0 0)" font-size="14.6921" font-family="F1"><tspan y="610.4" x="96"> </tspan></text>
<text xml:space="preserve" transform="matrix(.75 0 0 .75 0 0)" font-size="14.6921" font-family="F2" font-weight="bold"><tspan y="631.04" x="96 102.21258 105.82104 113.16708 116.77554 122.636608 130.53504 138.32186 141.55413 145.16259 153.04668 156.36818 163.64249 171.03874 174.56485 181.9611 189.74793 193.35639 200.70244 208.48926 211.81076 216.45943 224.35787 229.58045 232.81272 240.5892 244.19766 250.05872 256.0825 263.98094 267.30244 273.45045 276.97657 280.7965 288.19279 295.97959 300.97489 306.83595">Liaison in Teleplan for Cisco clients </tspan></text>
<text xml:space="preserve" transform="matrix(.75 0 0 .75 0 0)" font-size="14.6921" font-family="F4"><tspan y="649.6" x="120">&#xf0b7;</tspan></text>
<text xml:space="preserve" transform="matrix(.75 0 0 .75 0 0)" font-size="14.6921" font-family="F5"><tspan y="649.6" x="126.72"> </tspan></text>
<text xml:space="preserve" transform="matrix(.75 0 0 .75 0 0)" font-size="14.6921" font-family="F1"><tspan y="649.6" x="144 153.72777 161.36766 168.67784 173.79999 180.83757 185.75885 193.25182 200.89171 204.12398 214.62653 217.99825 222.91953 230.55942 233.88092 241.08005 248.71994 251.95221 259.2624 266.90229 274.54219 279.0402 286.97395 291.38157 295.87959 301.90336 309.62245 316.66 320.03175 327.67164 332.07926 338.39686 346.03675 351.78303 356.7043 364.4521 376.18858 383.68156 388.67689 391.99839 399.71748 404.83964 408.0719 415.81968 420.94184 424.31358 429.16197 435.92033 439.00566 450.90626 454.27799 461.91789 469.55778 475.4346 482.74479 487.66609 490.98759 501.49015 509.13005 516.4402 524.0801 527.3124 539.213 546.2506 552.86209 556.23379 563.87368 570.78927 574.1108 581.8299 589.4698 595.7874 603.4273 615.03408 622.2332 629.95236 634.8736 641.9112 646.83248 650.20419 658.1379 665.7778 669.0993 676.1369 683.7768 691.4959">Operated with an end-of-chain-customer priority mindset when making documentation and </tspan></text>
<text xml:space="preserve" transform="matrix(.75 0 0 .75 0 0)" font-size="14.6921" font-family="F1"><tspan y="667.52" x="144 151.6399 156.76204 164.69577 170.90836 178.21854 183.96482 189.54782 192.86933 200.58841 207.89859 214.2162 217.44846 223.3253 226.41065 234.34438 241.98427 247.56728">process decisions </tspan></text>
<text xml:space="preserve" transform="matrix(.75 0 0 .75 0 0)" font-size="14.6921" font-family="F4"><tspan y="686.24" x="120">&#xf0b7;</tspan></text>
<text xml:space="preserve" transform="matrix(.75 0 0 .75 0 0)" font-size="14.6921" font-family="F5"><tspan y="686.24" x="126.72"> </tspan></text>
<text xml:space="preserve" transform="matrix(.75 0 0 .75 0 0)" font-size="14.6921" font-family="F1"><tspan y="686.24" x="144 153.0391 160.97283 167.18541 174.67838 186.57897 193.88915 201.38211 206.30339 213.61357 221.33266 224.65416 232.37325 239.57238 250.07492 253.39643 261.1155 266.11085 273.8586 281.5777 289.2176 295.5352 300.45649 306.03947 309.36097 319.86354 323.23527 328.15657 335.87565 339.19715 344.11845 351.75834 359.0685 362.39 368.7076 376.3475 382.09379 386.94218 394.58207 406.48268 413.79286 418.78819 422.10969 425.4814 433.1213 436.4428 448.3434 451.71516 459.35505 466.84803 470.16954 475.09083 483.02458 486.2568 492.4694 499.50697 504.42826 510.64085 518.2807 521.60226 529.2421 536.9899 541.8383 549.1485 556.7884 561.70968 565.2358 572.1411 575.5128 578.83438 586.55349 589.9252 596.2428 602.85427 607.3523 614.9922 622.7113 628.2943 631.61587 634.98757 642.62747 645.949 653.6681 660.7057 668.4248 676.0647 679.4364 682.8081 690.448 697.3636">Documented new products with the customer in mind to catch potential hick-ups in handling </tspan></text>
<text xml:space="preserve" transform="matrix(.75 0 0 .75 0 0)" font-size="14.6921" font-family="F4"><tspan y="704.96" x="120">&#xf0b7;</tspan></text>
<text xml:space="preserve" transform="matrix(.75 0 0 .75 0 0)" font-size="14.6921" font-family="F5"><tspan y="704.96" x="126.72"> </tspan></text>
<text xml:space="preserve" transform="matrix(.75 0 0 .75 0 0)" font-size="14.6921" font-family="F1"><tspan y="704.96" x="144 151.97736 159.28754 165.16439 172.47457 179.51215 184.36054 190.67815 198.31804 205.62822 213.3473 216.66881 221.51721 228.8274 235.145 242.7849 250.42479 253.79651 260.1141 267.01939 270.3911 273.71263 281.4317 289.0716 295.3892 302.88218 314.78279 322.09297 329.73286 334.65415 341.55943 346.4807 349.85246 357.7862 365.4261 368.7476 373.74293 381.0531 387.96873 395.0063 400.12846 407.76835 411.14009 418.77998 425.6956 429.0171 436.65699 443.96717 454.39857 457.72007 465.43916 470.5613 478.30909 486.02818 493.74726 499.95985 504.88114 510.6274 513.9489 520.9865 528.7056 536.3455 539.66708 543.03878 550.7579 556.97048 560.34219 567.98208 575.7012 582.9003 586.22189 593.86178 598.9839 606.9176 612.94137 620.2515 625.83456 631.71139 634.94369 641.2613 648.2989 654.93478 662.1339 669.1715 674.0928 679.83908">Researched technical documentation regarding new products and include process caveats </tspan></text>
<text xml:space="preserve" transform="matrix(.75 0 0 .75 0 0)" font-size="14.6921" font-family="F1"><tspan y="722.88" x="144 154.50255 157.87427 162.79555 170.51464 173.88636 181.52625 184.84775 192.56684 200.31462 206.63224 214.1252 226.02579 233.33597 240.97586 245.82427 252.86185 257.78315 261.15489 268.90266 276.54255 279.86405 284.27168 292.2054 297.0538 300.3753 307.4275 310.65977 318.5935 326.2334 333.27098 336.6427 339.9642 344.8855 352.08464 359.1222 371.0228 376.60578">within documentation for global teams </tspan></text>
<text xml:space="preserve" transform="matrix(.75 0 0 .75 0 0)" font-size="14.6921" font-family="F4"><tspan y="741.6" x="120">&#xf0b7;</tspan></text>
<text xml:space="preserve" transform="matrix(.75 0 0 .75 0 0)" font-size="14.6921" font-family="F5"><tspan y="741.6" x="126.72"> </tspan></text>
<text xml:space="preserve" transform="matrix(.75 0 0 .75 0 0)" font-size="14.6921" font-family="F1"><tspan y="741.6" x="144 153.0391 160.23822 166.9966 174.30678 177.53903 185.47277 193.11266 200.42284 208.06273 211.38423 218.42182 226.1409 233.78079 237.1023 242.22444 249.7174 254.12505 257.49678 264.98976 272.29994 280.019 283.3405 288.1889 295.93669 303.87043 307.1027 312.84898 316.17048 319.5422 327.1821 330.5036 337.99656 344.7549 349.6762 357.3953 365.14308 372.86216 376.38825 379.70976 387.7904 394.82798 399.67637 405.99397 413.63386 417.15995 420.48146 427.519 435.2381 442.878 446.1995 453.78947 461.42936 471.93193 479.2421 484.36427 490.2411 497.88099 505.19117 508.5629 511.93464 515.16696 520.0882 527.7281 531.0496 538.0872 544.40487 550.4286 557.7388 561.1105 568.60348 573.59878 580.63638 585.48477 592.7949 596.11648 601.0377 608.6776 615.9878 619.2201 626.86 634.6078 640.9254 648.5653 660.30178 667.61196 675.25186 680.1731 687.2107 692.13198 695.36428 703.298 710.93789">Developed and refined tools in Python, Batch, and Powershell to accelerate the documentation </tspan></text>
<text xml:space="preserve" transform="matrix(.75 0 0 .75 0 0)" font-size="14.6921" font-family="F1"><tspan y="759.36" x="144 151.6399 156.76204 164.69577 170.90836 178.21854 183.96482 189.71109 193.2372 196.5587 201.11325 207.72469 214.76227 221.39812 228.7083 236.34819 239.6697 246.70728 254.42636 257.74787 264.65315 271.4115 278.72169 283.84385 290.8814 297.79704 304.99617 308.2284 316.16215 320.56977 323.802 331.24848 334.56999 342.28907 349.32664 355.97685 361.7231 364.95536 372.67445 379.98463 385.10679 388.42829 396.14738 403.78727 407.159 412.0074 416.2681">process. (Saved an average of 5 days per unit) </tspan></text>
<text xml:space="preserve" transform="matrix(.75 0 0 .75 0 0)" font-size="14.6921" font-family="F6"><tspan y="777.28" x="168">o</tspan></text>
<text xml:space="preserve" transform="matrix(.75 0 0 .75 0 0)" font-size="14.6921" font-family="F5"><tspan y="777.28" x="176.8"> </tspan></text>
<text xml:space="preserve" transform="matrix(.75 0 0 .75 0 0)" font-size="14.6921" font-family="F1"><tspan y="777.28" x="192 195.70172 203.34162 209.65923 212.89148 220.61057 228.25046 235.56064 243.27973 246.60123 252.47808 260.11799 271.85447 279.34745 282.57969 285.81196 297.71257 304.75013 311.66575 318.71797 322.03947 333.77595 340.8135 348.4534 351.82514 359.46504 367.1841 370.55586 377.5934 382.5147 385.88645 393.63423 401.3533">Included some image manipulation </tspan></text>
<text xml:space="preserve" transform="matrix(.75 0 0 .75 0 0)" font-size="14.6921" font-family="F6"><tspan y="795.2" x="168">o</tspan></text>
<text xml:space="preserve" transform="matrix(.75 0 0 .75 0 0)" font-size="14.6921" font-family="F5"><tspan y="795.2" x="176.8"> </tspan></text>
<text xml:space="preserve" transform="matrix(.75 0 0 .75 0 0)" font-size="14.6921" font-family="F1"><tspan y="795.2" x="192 195.70172 203.34162 209.65923 212.89148 220.61057 228.25046 235.56064 243.27973 246.60123 252.47808 260.11799 271.85447 279.34745 282.57969 287.06336 290.4351 293.66737 300.97755 304.20979 316.11039 323.14796 330.78785 337.8254 344.74104 351.79325 363.69386 371.00404 378.7231 383.5715">Included some file management </tspan></text>
<text xml:space="preserve" transform="matrix(.75 0 0 .75 0 0)" font-size="14.6921" font-family="F2" font-weight="bold"><tspan y="815.84" x="96 104.90278 112.786869 117.88032 125.66713 137.6188 144.96486 149.96018 153.56864 161.46707 169.35117 172.67267 180.06893 187.85575 194.76103 198.36949 206.25359 213.64984 221.0461 226.18834 229.7968 237.6809 244.58618">Automation engineering </tspan></text>
<text xml:space="preserve" transform="matrix(.75 0 0 .75 0 0)" font-size="14.6921" font-family="F4"><tspan y="834.56" x="120">&#xf0b7;</tspan></text>
<text xml:space="preserve" transform="matrix(.75 0 0 .75 0 0)" font-size="14.6921" font-family="F5"><tspan y="834.56" x="126.72"> </tspan></text>
<text xml:space="preserve" transform="matrix(.75 0 0 .75 0 0)" font-size="14.6921" font-family="F1"><tspan y="834.56" x="144 153.72777 161.36766 169.08675 176.83454 183.87212 188.99427 196.71335 204.02353 211.74262 215.06412 222.70401 229.35419 232.67569 240.31558 245.43773 252.63686 259.39524 262.76698 270.51475 278.23384 283.9801 287.21235 294.52253 302.0155 308.93113 312.30287 319.94276 327.25294 334.5631 339.68528 343.00679 347.49046 355.4242 360.41954 363.65177 370.68934 378.40843 383.2568 391.00459 402.90519 409.81047 414.65885 418.03059 425.96434 433.60423 436.83647 448.57295 455.6105 458.84278 466.48268 471.40397 478.89695 486.53684 493.5744 501.2143 507.42689 514.73709 518.0586 525.7777 530.773 538.5208 545.4364 550.55856 557.5961 569.2029 581.1035 584.4752 592.1151 599.0307 602.35226 609.38986 616.8828 624.5227 627.84426 635.56338 642.87356 649.6319 656.9421 660.1744 668.1081 675.6011 687.3375 694.8305 702.4704 707.39169">Onboarded by previous engineer for automation maintenance programming and development </tspan></text>
<text xml:space="preserve" transform="matrix(.75 0 0 .75 0 0)" font-size="14.6921" font-family="F1"><tspan y="852.32" x="144 148.40764 156.34137 161.46352 164.78502 172.42491 179.73509 187.45418 194.49176 199.6139 204.46231 216.06906 223.37924 231.09833 236.0196 239.34111 246.3787 254.09778 258.94618 266.58607 278.48667 285.39195 290.31324 293.5455 301.29328 308.93318 312.25468 319.97377 325.09593 332.8437 336.3589 343.85188 349.87565 354.72404">for department automation project </tspan></text>
<text xml:space="preserve" transform="matrix(.75 0 0 .75 0 0)" font-size="14.6921" font-family="F4"><tspan y="871.04" x="120">&#xf0b7;</tspan></text>
<text xml:space="preserve" transform="matrix(.75 0 0 .75 0 0)" font-size="14.6921" font-family="F5"><tspan y="871.04" x="126.72"> </tspan></text>
<text xml:space="preserve" transform="matrix(.75 0 0 .75 0 0)" font-size="14.6921" font-family="F1"><tspan y="871.04" x="144 152.50106 157.42234 162.34362 169.54274 181.44333 189.08322 194.0045 201.31468 209.03377 212.26604 217.18732 224.82721 228.14871 235.8678 240.98995 248.02753 252.5112 257.4325 260.754 267.79158 275.51066 278.7429 286.05308 292.5176 297.2191 304.4182 312.0581 317.93495 321.30668 329.05445 336.69435 340.01585 347.9496 352.2103 355.5318 360.4531 368.17219 375.48237 378.7146 385.75218 393.47126 398.39256 406.03245 417.93305 424.9706 429.8919 433.12419 440.87196 448.59104 451.91255 459.63163 464.62696 472.37474 475.88993 483.2001 489.4127 494.26109 497.58259 502.50389 510.22297 517.26058 522.10897 525.4305 535.8619 543.6097 551.3288 554.7005 562.3404 565.6619 573.1549 580.7948 587.8324 595.4723 598.844 606.1542 609.3865 620.9932 628.92697 634.0491 641.35928 644.6808 649.1644 652.3967 659.7069 666.17147 669.54318 677.18307 680.55477 683.92648 687.15878 692.00717 698.7655 702.08706 706.5707 714.3185 719.3138">Attempted to draft an extension of the automation project that would enable more flexibility for </tspan></text>
<text xml:space="preserve" transform="matrix(.75 0 0 .75 0 0)" font-size="14.6921" font-family="F1"><tspan y="888.96" x="144 148.40764 155.44522 161.32207 166.17047 169.49198 177.21106 184.24864 190.56626 197.87644 205.51633 208.7486 214.96118 222.60108 229.63866 237.35774 244.27336 251.58354 257.32984 260.65135 266.3976 269.76936 276.67463 281.59593 288.9061 296.546 299.8675 304.71589 312.64964 315.73497 323.6687 329.8813 336.09388 343.73377 348.85594 352.08818 362.59074 365.96247 370.88377 378.60285 381.97459 389.61448 392.93598 397.85728 405.57637 412.77549 416.097 423.81608 431.12626 438.84535 445.8829 451.00508 455.70655 467.44303 474.7532 482.3931 487.3144 491.13435">fast paced changes slated to occur within the department. </tspan></text>
</g>
</svg>
