<?xml version="1.0" encoding="UTF-8" standalone="no"?>
<!DOCTYPE svg PUBLIC "-//W3C//DTD SVG 1.1//EN" "http://www.w3.org/Graphics/SVG/1.1/DTD/svg11.dtd">
<svg xmlns="http://www.w3.org/2000/svg" xmlns:xlink="http://www.w3.org/1999/xlink" version="1.1" width="612pt" height="792pt" viewBox="0 0 612 792">
<g enable-background="new">
<text fill="#404040" xml:space="preserve" transform="matrix(.75 0 0 .75 0 0)" font-size="14.6921" font-family="F1"><tspan y="1005.76" x="371.36 380.50669 388.3262 396.24617 404.12309">Page </tspan></text>
<text fill="#404040" xml:space="preserve" transform="matrix(.75 0 0 .75 0 0)" font-size="14.6921" font-family="F2"><tspan y="1005.76" x="408">2</tspan></text>
<text fill="#404040" xml:space="preserve" transform="matrix(.75 0 0 .75 0 0)" font-size="14.6921" font-family="F1"><tspan y="1005.76" x="415.68 419.6256 427.63166 432.2875"> of </tspan></text>
<text fill="#404040" xml:space="preserve" transform="matrix(.75 0 0 .75 0 0)" font-size="14.6921" font-family="F2"><tspan y="1005.76" x="436.32">4</tspan></text>
<text fill="#404040" xml:space="preserve" transform="matrix(.75 0 0 .75 0 0)" font-size="14.6921" font-family="F1"><tspan y="1005.76" x="444.48"> </tspan></text>
<text fill="#404040" xml:space="preserve" transform="matrix(.75 0 0 .75 0 0)" font-size="14.6921" font-family="F1"><tspan y="62.56" x="57.44"> </tspan></text>
<text fill="#336699" xml:space="preserve" transform="matrix(.75 0 0 .75 0 0)" font-size="23.9545" font-family="F2"><tspan y="97.44" x="57.44 71.75655 84.669528 97.991878 109.92234 122.85777 130.52323 136.7514 149.80474 162.9797">Education </tspan></text>
<text fill="#336699" xml:space="preserve" transform="matrix(.75 0 0 .75 0 0)" font-size="18.6845" font-family="F1"><tspan y="128.96" x="57.44 68.999217 79.088848 89.48027 97.454029 107.14296 117.16033 122.17814 136.75206 146.84169 154.68918 164.77881 169.63678 174.32616 184.60263 189.62044 201.17966 211.36125 227.3635 237.63999 247.91646 254.0108 264.02818 272.00193">Course work in Computer </tspan></text>
<text fill="#336699" xml:space="preserve" transform="matrix(.75 0 0 .75 0 0)" font-size="18.6845" font-family="F1"><tspan y="151.36" x="57.44 68.94447 78.25023 82.939609 92.84239 103.279438 112.58519 122.60256">Science </tspan></text>
<text fill="#404040" xml:space="preserve" transform="matrix(.75 0 0 .75 0 0)" font-size="14.6921" font-family="F1"><tspan y="177.76" x="57.44 66.48626 70.17364 78.05055 84.22124 90.4912 98.31073 102.25636 111.51239 119.2992 123.553318 127.960948 135.74776 143.8284 151.46829 155.41393 163.60649 167.55213 177.12926 185.063 192.38036 200.02025 204.27436 207.96172 216.16864 219.40091 223.34654 232.43584 241.83878">Sierra College &#x2013; Rocklin, CA </tspan></text>
<text fill="#404040" xml:space="preserve" transform="matrix(.75 0 0 .75 0 0)" font-size="14.6921" font-family="F1"><tspan y="195.36" x="57.44"> </tspan></text>
<text fill="#336699" xml:space="preserve" transform="matrix(.75 0 0 .75 0 0)" font-size="18.6845" font-family="F1"><tspan y="224.96" x="57.44 68.999217 79.088848 89.48027 97.454029 107.14296 117.16033 122.17814 137.99793 148.17952 156.15328 166.0338 171.0516 175.74098 186.01746 191.03527 203.09626 213.37273 223.06166 227.75104 238.18808 248.20546 257.8944 267.58335">Course Work in Business </tspan></text>
<text fill="#336699" xml:space="preserve" transform="matrix(.75 0 0 .75 0 0)" font-size="18.6845" font-family="F1"><tspan y="247.36" x="57.44 72.00077 81.94516 92.221637 102.16602 112.23814 122.25551 138.25775 148.27513 158.71218 164.69121">Management </tspan></text>
<text fill="#404040" xml:space="preserve" transform="matrix(.75 0 0 .75 0 0)" font-size="14.6921" font-family="F1"><tspan y="273.76" x="57.44 66.5293 74.736209 82.523029 95.10601 102.982929 110.752239 118.62915 123.4213 131.24083 135.06078 144.15007 152.15613 164.64441 177.22739 185.39844 193.60536 197.29273 201.9942 209.08916 212.9091 221.9984 229.93215 234.33977 238.59387 246.23377 254.3144 262.1012 266.0468 274.23939">Chemeketa Community College &#x2013; </tspan></text>
<text fill="#404040" xml:space="preserve" transform="matrix(.75 0 0 .75 0 0)" font-size="14.6921" font-family="F1"><tspan y="291.36" x="57.44 66.48626 74.42 78.67411 86.313999 98.89698 102.42308 106.36871 115.77165 125.1746">Salem, OR </tspan></text>
<text fill="#404040" xml:space="preserve" transform="matrix(.75 0 0 .75 0 0)" font-size="14.6921" font-family="F1"><tspan y="308.96" x="57.44"> </tspan></text>
<text xml:space="preserve" transform="matrix(.75 0 0 .75 0 0)" font-size="14.6921" font-family="F1"><tspan y="62.56" x="327.52"> </tspan></text>
<text xml:space="preserve" transform="matrix(.75 0 0 .75 0 0)" font-size="14.6921" font-family="F2"><tspan y="82.88" x="327.52 336.3008 343.64686 351.43367 359.64057 364.4327 368.37834 375.45176 383.23857 390.55595 398.76286 406.96977 414.90348 419.3111 427.2448 435.16477 442.25975 446.20536 455.35206 461.52275 469.52879 476.87483 480.40095 488.3209 496.1077 502.27836">Event Technology Provider </tspan></text>
<text xml:space="preserve" transform="matrix(.75 0 0 .75 0 0)" font-size="14.6921" font-family="F3"><tspan y="100.64" x="351.52">&#xf0b7;</tspan></text>
<text xml:space="preserve" transform="matrix(.75 0 0 .75 0 0)" font-size="14.6921" font-family="F4"><tspan y="100.64" x="358.24"> </tspan></text>
<text xml:space="preserve" transform="matrix(.75 0 0 .75 0 0)" font-size="14.6921" font-family="F1"><tspan y="100.64" x="375.52 386.9695 394.90324 402.9839 410.9176 418.83757 426.47746 434.26426 438.20988 446.0294 453.9631 462.04377 465.98939 474.07005 480.2407 488.0275 496.10816 503.92768 510.09837 517.9753 525.46829 529.41397 537.20077 545.1207 553.2918 556.9792 564.9709 577.55386 585.4307 593.51138 598.30349 602.4173 610.4979 618.2847 625.7777 633.4176 641.0363 648.655 656.5888 662.7595 669.8545 673.8002 678.456 686.3897 692.5604 696.3804 702.5511 710.72219 718.9291 727.0097 730.6971 738.904 746.824">Manages and prepares equipment necessary for running </tspan></text>
<text xml:space="preserve" transform="matrix(.75 0 0 .75 0 0)" font-size="14.6921" font-family="F1"><tspan y="118.24" x="375.52 383.3068 390.65284 398.52976 406.73667 411.4381 419.2249">events </tspan></text>
<text xml:space="preserve" transform="matrix(.75 0 0 .75 0 0)" font-size="14.6921" font-family="F3"><tspan y="136" x="351.52">&#xf0b7;</tspan></text>
<text xml:space="preserve" transform="matrix(.75 0 0 .75 0 0)" font-size="14.6921" font-family="F4"><tspan y="136" x="358.24"> </tspan></text>
<text xml:space="preserve" transform="matrix(.75 0 0 .75 0 0)" font-size="14.6921" font-family="F1"><tspan y="136" x="375.52 384.3008 391.64686 399.46638 403.72047 411.8915 419.82524 424.52668 432.31349 439.93214 443.87776 451.75468 459.54148 467.7125 471.39988 479.39158 491.97456 499.76136 507.96827 512.7604 516.70608 522.976 530.7628 538.5824 546.5024 550.18978 558.2704 566.1473 573.766 581.259 585.3728 593.3645 601.1841 608.8028 616.4427 624.5234 628.46908 636.4028 644.6097 648.55538 656.43228 663.7783 671.5651 679.77206 684.56417">Evaluates equipment readiness based on event </tspan></text>
<text xml:space="preserve" transform="matrix(.75 0 0 .75 0 0)" font-size="14.6921" font-family="F1"><tspan y="153.6" x="375.52 383.43995 391.31687 398.93553 406.4285 412.59916 416.28654 424.27824 429.07038 432.75776 440.69148 448.77214 456.2651">descriptions </tspan></text>
<text xml:space="preserve" transform="matrix(.75 0 0 .75 0 0)" font-size="14.6921" font-family="F3"><tspan y="171.36" x="351.52">&#xf0b7;</tspan></text>
<text xml:space="preserve" transform="matrix(.75 0 0 .75 0 0)" font-size="14.6921" font-family="F4"><tspan y="171.36" x="358.24"> </tspan></text>
<text xml:space="preserve" transform="matrix(.75 0 0 .75 0 0)" font-size="14.6921" font-family="F1"><tspan y="171.36" x="375.52 384.3008 391.89796 399.9786 404.2327 412.23875 418.5087 426.1486 433.76725 437.881 445.5209 453.44087 461.5215 465.2089 469.91035 473.43647 481.4425 489.6494 497.46894 501.72303 505.66865 513.87557 521.8093 527.8331 535.62 547.07986 554.8994 561.0701 568.85696 572.97079 580.5895 588.5232 592.93087 601.01156 605.80368 609.3298 617.3358 625.5427 633.16146 637.1071 641.89926 649.83297 653.7786 661.5654 669.77236 677.5919 685.67257 689.9267 697.5666 701.51229 709.5929 717.3797 722.1718 726.9639 734.8408 741.01156">Explores additional hardware solutions to enable better </tspan></text>
<text xml:space="preserve" transform="matrix(.75 0 0 .75 0 0)" font-size="14.6921" font-family="F1"><tspan y="188.96" x="375.52 383.3068 390.65284 398.52976 406.73667 411.4381 415.38374 420.03959 427.9733 435.29069 438.97807 443.23216 446.91954 451.71168 459.6454 464.34684 467.87297 475.879 484.0859">event facilitation </tspan></text>
<text xml:space="preserve" transform="matrix(.75 0 0 .75 0 0)" font-size="14.6921" font-family="F1"><tspan y="206.56" x="375.52"> </tspan></text>
<text xml:space="preserve" transform="matrix(.75 0 0 .75 0 0)" font-size="14.6921" font-family="F2"><tspan y="226.88" x="327.52 336.3008 344.22077 352.3918 356.0792 364.15986 376.74284 384.52964 392.73655 397.29109 401.40486 412.85438 420.6739 428.8808 436.5207 444.44065 452.31758 458.34135">Equipment Manager </tspan></text>
<text xml:space="preserve" transform="matrix(.75 0 0 .75 0 0)" font-size="14.6921" font-family="F3"><tspan y="244.64" x="351.52">&#xf0b7;</tspan></text>
<text xml:space="preserve" transform="matrix(.75 0 0 .75 0 0)" font-size="14.6921" font-family="F4"><tspan y="244.64" x="358.24"> </tspan></text>
<text xml:space="preserve" transform="matrix(.75 0 0 .75 0 0)" font-size="14.6921" font-family="F1"><tspan y="244.64" x="375.52 386.9695 394.90324 402.9839 410.9176 418.83757 426.47746 434.26426 438.20988 446.20158 452.37223 460.30595 468.3866 475.70399 483.78465 487.73027 495.04765 502.86717 515.35549 523.4361 531.5168 539.1355 543.0812 547.04806 554.12149 558.06716 561.7545 569.9614 577.3075 585.0943 593.3012 598.0027 606.0087 612.2787 619.37368">Manages branch campus IT inventory </tspan></text>
<text xml:space="preserve" transform="matrix(.75 0 0 .75 0 0)" font-size="14.6921" font-family="F3"><tspan y="262.4" x="351.52">&#xf0b7;</tspan></text>
<text xml:space="preserve" transform="matrix(.75 0 0 .75 0 0)" font-size="14.6921" font-family="F4"><tspan y="262.4" x="358.24"> </tspan></text>
<text xml:space="preserve" transform="matrix(.75 0 0 .75 0 0)" font-size="14.6921" font-family="F1"><tspan y="262.4" x="375.52 384.92295 393.09397 396.78135 401.03544 409.1161 416.60908 420.5547 428.72575 436.8064 440.752 448.57154 456.50529 461.29743 469.30348 481.88645 489.82017 494.6123 502.2522 510.33287 514.1528 521.7715 528.86648 536.35946 541.0609 548.9378 561.52078 569.3076 573.2533 578.0454 585.8322 589.7779 602.56 610.1999 617.96926 625.8461 629.6661 636.9834 644.9172 657.5001 665.4918 673.4256 681.0443 685.15817 688.8455 696.77926 704.1253 711.9121 720.119 724.91116 732.84487 739.1148 746.2098">Builds up automated systems to make campus inventory </tspan></text>
<text xml:space="preserve" transform="matrix(.75 0 0 .75 0 0)" font-size="14.6921" font-family="F1"><tspan y="280" x="375.52 388.10298 396.03669 404.11735 411.93687 420.01753 427.6574 440.2404 448.0272 456.2341 461.02626 464.97187 472.75868 480.6924 488.31108 493.1032 501.03694 504.7243 512.80496 520.7387 528.5255 532.63937 540.51626">management sustainable </tspan></text>
<text xml:space="preserve" transform="matrix(.75 0 0 .75 0 0)" font-size="14.6921" font-family="F3"><tspan y="297.76" x="351.52">&#xf0b7;</tspan></text>
<text xml:space="preserve" transform="matrix(.75 0 0 .75 0 0)" font-size="14.6921" font-family="F4"><tspan y="297.76" x="358.24"> </tspan></text>
<text xml:space="preserve" transform="matrix(.75 0 0 .75 0 0)" font-size="14.6921" font-family="F1"><tspan y="297.76" x="375.52 379.48686 392.06983 400.00355 407.9235 415.8004 423.2934 427.239 431.64665 439.28654 447.3672 452.06864 460.07469 468.15534 475.64833 479.59394 490.95738 494.64476 499.3462 507.5531 511.49873 523.93826 527.6256 535.70626 543.6262 551.63229 562.99569 570.48867 574.4343 582.44039 588.7103 592.656 604.10549 611.92507 619.2424 628.64529 637.6074 641.5531 649.7242 657.3429 661.16287 669.09658 677.01657 681.1304 693.5699 697.096 705.17666 714.3233 723.1041 727.0498 735.05587 741.3258">Images laptops with Windows or MacOS using WinPE or </tspan></text>
<text xml:space="preserve" transform="matrix(.75 0 0 .75 0 0)" font-size="14.6921" font-family="F1"><tspan y="316.64" x="375.52 382.94499 392.45756 403.90708 411.98774">JAMF </tspan></text>
<text fill="#336699" xml:space="preserve" transform="matrix(.75 0 0 .75 0 0)" font-size="18.6845" font-family="F1"><tspan y="350.4" x="327.52 332.56483 341.5604 346.57823 357.97578 364.07014 374.46156 384.53367 394.55104 404.9881 411.08247 415.94044 428.2722 437.96113 447.65007 452.33943 462.02836 468.1227 478.0671 488.3436 494.32264">IT Student Assistant </tspan></text>
<text fill="#404040" xml:space="preserve" transform="matrix(.75 0 0 .75 0 0)" font-size="14.6921" font-family="F1"><tspan y="376.8" x="327.52 336.60929 344.4288 348.83644 352.5238 357.07835 365.01206 371.282 379.48893 383.1763 390.99583 394.81578 403.86204 408.65419 416.5879 421.28935 429.16627 433.11189 442.73924 450.8199 454.50727 461.8533 469.73023 475.9009 483.6877 487.21385 491.91529 499.01026 502.95588 512.00216 519.9359 527.25326 533.5232 541.1631 553.74606 561.6229 569.82986 574.5313 582.53738 586.48306 594.6756 598.49557 607.5418 615.4756 622.7929 628.9636 636.7832 649.2715 657.0583 665.1389 669.931 677.9371 681.26577 685.3796 694.4689 702.28848 706.5426 710.23 714.8858 722.8195 729.0895 737.2964 740.98379 748.62368">California State University Sacramento &#x2013; Sacramento, California </tspan></text>
<text fill="#404040" xml:space="preserve" transform="matrix(.75 0 0 .75 0 0)" font-size="14.6921" font-family="F1"><tspan y="394.4" x="327.52 337.80735 345.74107 353.0871 360.8739 373.45689 381.53755 389.32435 395.59434 399.53996 407.1299 415.2364 422.72935 427.72465 431.67027 436.4624 444.39613 448.34175 455.76673 463.93778 472.14469 479.9315 483.75144 491.53825 499.47196 507.06193 514.6519">November 2021 to June 2022 </tspan></text>
<text fill="#404040" xml:space="preserve" transform="matrix(.75 0 0 .75 0 0)" font-size="14.6921" font-family="F1"><tspan y="412" x="327.52"> </tspan></text>
<text xml:space="preserve" transform="matrix(.75 0 0 .75 0 0)" font-size="14.6921" font-family="F2"><tspan y="432.32" x="327.52 336.60929 344.7803 352.39897 357.1911 365.19715 377.78013 385.65705 391.68083 395.7946 400.34913 408.28285 415.60023 419.2876 427.36827 435.2882 439.23384 443.20069 450.2741">Customer facing IT </tspan></text>
<text xml:space="preserve" transform="matrix(.75 0 0 .75 0 0)" font-size="14.6921" font-family="F3"><tspan y="450.08" x="351.52">&#xf0b7;</tspan></text>
<text xml:space="preserve" transform="matrix(.75 0 0 .75 0 0)" font-size="14.6921" font-family="F4"><tspan y="450.08" x="358.24"> </tspan></text>
<text xml:space="preserve" transform="matrix(.75 0 0 .75 0 0)" font-size="14.6921" font-family="F1"><tspan y="450.08" x="375.52 379.48686 387.69377 392.3952 400.27214 406.54209 413.88813 417.5755 425.3623 436.72575 444.3444 448.29 455.783 460.03709 463.72447 471.51127 479.71818 484.5103 488.45594 493.1118 500.75169 508.06907 516.2401 520.64779 525.34927 532.4442 536.26419 544.2702 550.4409 554.55477 562.17349 566.9656 574.78518 579.441 583.99557 588.1094 596.0431 604.1237 608.0694 612.7709 620.9778 628.7646 632.45199 638.7219 642.6676 649.9849 658.156 664.42599 670.6959 678.4827 686.68966 691.3911 695.3368 702.6541 710.4737 718.0924 725.9693 729.915 734.7071 742.6408">Interviews client faculty or staff on their current case to </tspan></text>
<text xml:space="preserve" transform="matrix(.75 0 0 .75 0 0)" font-size="14.6921" font-family="F1"><tspan y="467.68" x="375.52 383.43995 387.12733 394.91413 402.2315 410.0183 417.36436 425.24128 431.41197 435.52574 443.295 451.37568 459.3817 470.84156 478.9222 482.74217 490.67588 498.75654 506.8372 510.7828 518.95388 526.8876 534.6569 542.73757 550.7436 562.107 570.1876 574.30148 581.6188 589.69949 597.4863 602.1878 610.1215 622.70449 630.4913 636.7612 640.7069 648.9138 656.7006 664.4874 672.5681 680.0611">discover known and unknown customer needs </tspan></text>
<text xml:space="preserve" transform="matrix(.75 0 0 .75 0 0)" font-size="14.6921" font-family="F3"><tspan y="485.44" x="351.52">&#xf0b7;</tspan></text>
<text xml:space="preserve" transform="matrix(.75 0 0 .75 0 0)" font-size="14.6921" font-family="F4"><tspan y="485.44" x="358.24"> </tspan></text>
<text xml:space="preserve" transform="matrix(.75 0 0 .75 0 0)" font-size="14.6921" font-family="F1"><tspan y="485.44" x="375.52 384.60929 392.61534 400.54905 406.819 414.89967 418.58705 426.6677 434.4872 439.27937 447.06617 454.6848 458.63044 469.99388 473.68125 478.3827 486.5896 490.53523 497.73439 502.142 505.82939 513.6162 521.69686 526.48898 534.2758 538.09579 542.8879 550.8216 554.9354 562.7222 570.80288 578.5897 586.6704 592.94039 600.7272 604.841 609.5425 617.7494 625.569 630.27047 634.2161 642.1361 650.013 658.0047 662.25888 670.2649 677.17019 689.7531 697.5399 705.7468 710.53897 718.15768 722.2715 730.09109 736.2618 744.0486">Coordinates with clients to ensure that deployments are </tspan></text>
<text xml:space="preserve" transform="matrix(.75 0 0 .75 0 0)" font-size="14.6921" font-family="F1"><tspan y="503.04" x="375.52 379.77409 387.651 395.26966 402.8883 406.83393 414.82563 422.64515 426.33253 434.41319 439.06904 447.24009 451.35386">less painful </tspan></text>
<text xml:space="preserve" transform="matrix(.75 0 0 .75 0 0)" font-size="14.6921" font-family="F3"><tspan y="520.8" x="351.52">&#xf0b7;</tspan></text>
<text xml:space="preserve" transform="matrix(.75 0 0 .75 0 0)" font-size="14.6921" font-family="F4"><tspan y="520.8" x="358.24"> </tspan></text>
<text xml:space="preserve" transform="matrix(.75 0 0 .75 0 0)" font-size="14.6921" font-family="F1"><tspan y="520.8" x="375.52 384.0414 391.82823 399.64775 405.9177 413.99836 421.78517 425.73078 433.5503 441.542 449.4757 457.55638 462.3485 466.29414 473.91279 481.8465 486.1006 494.27165 499.06379 502.75117 510.68489 518.8918 522.71176 530.33047 538.32217 546.1417 553.3408 561.2177 568.8364 572.95028 577.5048 585.51089 591.7808 595.60079 602.9181 607.32577 611.0131 618.7999 626.88058 631.67269 639.16567 643.2795 651.2712 659.058 663.7138 671.6475 677.9175 685.7043 689.64999 697.4368 705.22366 713.30429 717.5584 725.56448 732.6594 736.3468 744.4274 752.3474">Learns about solution spaces for clients before deploying </tspan></text>
<text xml:space="preserve" transform="matrix(.75 0 0 .75 0 0)" font-size="14.6921" font-family="F1"><tspan y="538.4" x="375.52 383.13865 391.14469 395.5523 403.63298 408.4251 412.1125 420.0462 428.2531 435.7461">solutions </tspan></text>
<text xml:space="preserve" transform="matrix(.75 0 0 .75 0 0)" font-size="14.6921" font-family="F3"><tspan y="556.16" x="351.52">&#xf0b7;</tspan></text>
<text xml:space="preserve" transform="matrix(.75 0 0 .75 0 0)" font-size="14.6921" font-family="F4"><tspan y="556.16" x="358.24"> </tspan></text>
<text xml:space="preserve" transform="matrix(.75 0 0 .75 0 0)" font-size="14.6921" font-family="F1"><tspan y="556.16" x="375.52 386.9695 394.90324 398.5906 406.67127 411.4634 419.28294 422.9703 431.17723 438.79588 442.6158 450.69648 458.6302 466.24885 469.93623 474.72837 478.41575 485.76179 493.40168 497.51545 504.83283 509.0869 512.7743 520.5611 528.768 533.4695 537.2894 543.46017 551.33706 555.5912 563.52499 568.22647 571.9138 579.91989 588.1268 595.7455 603.8261 607.64608 615.63778 623.13076 627.0764 631.8685 639.80227 643.9161 651.9078 659.98849 663.5146 667.92227 675.7091 679.6548 687.58859 695.6692 699.48916 707.4952 715.5758 723.3626 731.44326">Maintains positive client relationships to build an open </tspan></text>
<text xml:space="preserve" transform="matrix(.75 0 0 .75 0 0)" font-size="14.6921" font-family="F1"><tspan y="573.76" x="375.52 382.83738 391.04429 398.8638 406.94447 415.15138 422.93818 427.3458 431.2914 439.22514 443.88099 447.99476 455.31214 463.09895 475.68193 488.2649 496.43595 504.64286 508.33024 515.52938 523.34896 528.14108 531.6672 539.6009 547.8078 551.7535 559.8341 567.6209 572.413 583.7764 591.56326 599.4401 607.52078 611.6346 616.33609 624.54299 632.3298 636.27548 644.35617 652.14297 660.2236 668.04318 674.21389 678.91537 691.4036 699.1904 707.39736 712.0988 716.21267 724.0322 732.11288 740.19357">channel of communication between the department and </tspan></text>
<text xml:space="preserve" transform="matrix(.75 0 0 .75 0 0)" font-size="14.6921" font-family="F1"><tspan y="591.36" x="375.52 379.20738 383.9995 391.61817 395.56379 402.88117 407.13526 410.82264 418.60945 426.81636 431.6085 435.5541 443.63478 451.27467 458.8933 466.5332">its client base </tspan></text>
<text fill="#404040" xml:space="preserve" transform="matrix(.75 0 0 .75 0 0)" font-size="14.6921" font-family="F1"><tspan y="608.96" x="327.52"> </tspan></text>
<text xml:space="preserve" transform="matrix(.75 0 0 .75 0 0)" font-size="14.6921" font-family="F2"><tspan y="629.28" x="327.52 331.48686 339.69377 344.3952 352.27214 358.54209 366.62275 374.55647 378.81056 382.75617 387.41203 395.34574 402.66313 406.3505 414.43116 422.5118 426.45744 430.4243 437.4977 441.31767 450.36393 458.36997 463.02583 467.81797 479.1814 486.8213 493.09129 500.87809 504.99186 514.0381 517.72549 525.64547 533.43228">Internal facing IT Software Side </tspan></text>
<text xml:space="preserve" transform="matrix(.75 0 0 .75 0 0)" font-size="14.6921" font-family="F3"><tspan y="647.04" x="351.52">&#xf0b7;</tspan></text>
<text xml:space="preserve" transform="matrix(.75 0 0 .75 0 0)" font-size="14.6921" font-family="F4"><tspan y="647.04" x="358.24"> </tspan></text>
<text xml:space="preserve" transform="matrix(.75 0 0 .75 0 0)" font-size="14.6921" font-family="F1"><tspan y="647.04" x="375.52 386.9695 394.90324 402.9839 410.9176 418.83757 426.47746 434.26426 438.0842 446.00416 453.88108 461.87278 469.6923 475.86296 480.6551 493.23808 501.115 509.3219 514.0234 517.96908 522.67056 526.3579 533.557 541.4908 549.2776 554.0697 561.6884 565.6341 570.4262 578.3599 582.3056 594.88858 598.5759 603.36807 606.89419 614.97488 622.79446 627.4959 635.2827 639.2284 647.048 655.12869 658.81607 666.74978 674.66976 678.78359 683.48507 687.1724 694.3715 702.14089 710.01779 714.8099 722.4286 726.37429 734.19387 742.2745 750.35519">Manages department tickets to mitigate aging tickets and </tspan></text>
<text xml:space="preserve" transform="matrix(.75 0 0 .75 0 0)" font-size="14.6921" font-family="F1"><tspan y="664.64" x="375.52 383.43995 387.12733 394.91413 401.0848 409.25584 417.24754 422.03968 425.72706 433.66078 441.86769 449.36067 453.30628 464.7661 468.4535 473.15495 481.36186 485.1818 494.22807 502.10499 508.27568 515.6217 519.3091 526.6264 534.4132 544.5508 552.5568 564.01669">disruptions with ServiceNow </tspan></text>
<text xml:space="preserve" transform="matrix(.75 0 0 .75 0 0)" font-size="14.6921" font-family="F3"><tspan y="682.4" x="351.52">&#xf0b7;</tspan></text>
<text xml:space="preserve" transform="matrix(.75 0 0 .75 0 0)" font-size="14.6921" font-family="F4"><tspan y="682.4" x="358.24"> </tspan></text>
<text xml:space="preserve" transform="matrix(.75 0 0 .75 0 0)" font-size="14.6921" font-family="F1"><tspan y="682.4" x="375.52 382.5934 388.76408 396.69779 404.01518 411.78446 419.27745 423.3912 430.7086 438.7892 445.05918 451.22984 459.10676 467.31367 472.0151 476.12889 479.81626 487.8969 495.24296 503.02976 511.23667 516.0288 523.9625 530.2325 537.32748 541.27316 545.5273 553.4042 560.75027 568.53707 572.7912 580.4099 584.3556 589.1477 597.0814 601.0271 609.1077 617.1138 621.9059 625.59329 630.2491 637.34408 641.28976 649.2097 657.0866 665.0783 672.8979 679.0686 683.7701 696.25839 704.04519 712.2521 717.0442 720.98989 729.1968 736.9836 744.91738 752.83737">Tracks current inventory levels to notify department head </tspan></text>
<text xml:space="preserve" transform="matrix(.75 0 0 .75 0 0)" font-size="14.6921" font-family="F1"><tspan y="700" x="375.52 383.4537 388.10957 392.22334 395.9107 403.99137 411.30876 419.3148 431.89778 435.58515 443.79206 451.57887 455.52449 463.73139 471.5509 477.7216 485.80226 496.96824 504.90196 511.0726 518.85946 522.97329 531.0539 538.8407 546.7176 554.7983 562.29129">of incoming hardware needs </tspan></text>
<text xml:space="preserve" transform="matrix(.75 0 0 .75 0 0)" font-size="14.6921" font-family="F5"><tspan y="717.6" x="399.52">o</tspan></text>
<text xml:space="preserve" transform="matrix(.75 0 0 .75 0 0)" font-size="14.6921" font-family="F4"><tspan y="717.6" x="408.32"> </tspan></text>
<text xml:space="preserve" transform="matrix(.75 0 0 .75 0 0)" font-size="14.6921" font-family="F1"><tspan y="717.6" x="423.52 432.60929 440.7803 446.95097 453.22093 461.00773 469.21464 474.00679 478.26087 485.35585 489.30146 497.3821 505.46275 509.15013 513.2639 521.3446 525.032 533.1126 541.1933 545.139 552.7789 556.8927 563.9661 571.7529 579.3928 591.97579 599.5945 606.6392 614.71987 622.35977 629.97848 637.85537 645.6422 649.75607 654.4575 662.46359 670.4696 674.58346 678.69729 683.39877 691.60568 699.42526 704.21737 708.163 719.5264 727.46017 735.54086 739.65469 747.73538">Currently building a Teams-based tool that would </tspan></text>
<text xml:space="preserve" transform="matrix(.75 0 0 .75 0 0)" font-size="14.6921" font-family="F1"><tspan y="735.2" x="423.52 431.7269 439.6606 447.6523 455.43913 460.09498 468.26603 472.5201 476.92774 484.0227 487.96833 495.78785 503.8685 508.66065 516.59439 529.1773 536.9969 541.789 549.5758 553.5215 558.3136 566.5205 574.3073 578.42117 586.20797 592.37869 600.3847 607.702 615.5789 623.19766 630.9845 634.9302 642.9362 647.3439 651.4577 659.5383 667.4721 673.6428 681.7235 692.8895 700.7091 706.8798 714.7567">hopefully automate the process of hardware </tspan></text>
<text xml:space="preserve" transform="matrix(.75 0 0 .75 0 0)" font-size="14.6921" font-family="F1"><tspan y="752.8" x="423.52 428.31214 434.48283 442.41654 449.73393 457.5032 461.19059 469.3975 477.1843 481.1299 485.92207 494.12898 500.39897 508.33268 516.5037 524.5844 532.66506 536.485 544.41879 552.4994 556.44509 560.265 568.34567 573.13778 580.92459 587.1945 594.5406 598.22799 606.0148 617.4746 621.4203 629.354 635.62399 639.56967 647.0626 654.99636 663.20327 670.5493 678.3361 684.50686 692.2937 699.9336 704.7257 708.4131 716.3468 724.5537 728.4994 733.2915 740.1968 748.2774 756.0642">tracking through an interview or conversation type </tspan></text>
<text xml:space="preserve" transform="matrix(.75 0 0 .75 0 0)" font-size="14.6921" font-family="F1"><tspan y="770.4" x="423.52 431.13865 438.2336 445.85227 450.6444 458.52134 471.1043 475.04994 479.89833 484.1524 487.83979 500.42277 504.2427 508.94416 516.73098 524.65097 528.5966 536.67727 542.84799 550.7817 558.70169 564.8724 572.74929 580.24227 588.0291 592.87759">system (limited progress) </tspan></text>
<text xml:space="preserve" transform="matrix(.75 0 0 .75 0 0)" font-size="14.6921" font-family="F3"><tspan y="788.16" x="351.52">&#xf0b7;</tspan></text>
<text xml:space="preserve" transform="matrix(.75 0 0 .75 0 0)" font-size="14.6921" font-family="F4"><tspan y="788.16" x="358.24"> </tspan></text>
<text xml:space="preserve" transform="matrix(.75 0 0 .75 0 0)" font-size="14.6921" font-family="F1"><tspan y="788.16" x="375.52 385.06986 392.94679 400.29283 408.07963 412.48725 420.42097 428.50163 436.12028 439.94023 447.55888 455.05186 461.2225 464.90989 472.90159 477.69374 485.33363 493.41429 497.3599 502.15205 510.08576 518.0195 522.2736 529.89236 534.00619 538.5607 546.76766 554.5872 559.2887 563.4025 571.48318 579.36007 583.6142 591.6948 595.6405 600.4326 608.2194 612.33328 620.15286 627.3519 634.66928 642.45608 646.8637 654.6505 660.8212 668.755 673.5471 681.3339 685.2796 690.0717 697.8585 705.7785 709.4659 717.4719 725.643 733.2617">Develops scripted tools that help to accelerate tedious </tspan></text>
<text xml:space="preserve" transform="matrix(.75 0 0 .75 0 0)" font-size="14.6921" font-family="F1"><tspan y="805.76" x="375.52 380.31214 388.13166 395.7503 403.5196 411.13825 414.9582 419.21229 423.03224 430.8015 438.58833 442.40827 446.8159 450.50328 457.82066 465.60746 473.81437 481.433 489.30995 493.12989 500.44728 508.4533 516.6602 524.0063 531.7931 537.8169 545.60379 549.29116 557.22488 565.3055 572.9242">tasks like license conversions </tspan></text>
<text fill="#404040" xml:space="preserve" transform="matrix(.75 0 0 .75 0 0)" font-size="14.6921" font-family="F1"><tspan y="823.36" x="327.52"> </tspan></text>
<text xml:space="preserve" transform="matrix(.75 0 0 .75 0 0)" font-size="14.6921" font-family="F2"><tspan y="843.68" x="327.52 331.48686 339.69377 344.3952 352.27214 358.54209 366.62275 374.55647 378.81056 382.75617 387.41203 395.34574 402.66313 406.3505 414.43116 422.5118 426.45744 430.4243 437.32957">Internal facing IT </tspan></text>
<text xml:space="preserve" transform="matrix(.75 0 0 .75 0 0)" font-size="14.6921" font-family="F3"><tspan y="861.44" x="351.52">&#xf0b7;</tspan></text>
<text xml:space="preserve" transform="matrix(.75 0 0 .75 0 0)" font-size="14.6921" font-family="F4"><tspan y="861.44" x="358.24"> </tspan></text>
<text xml:space="preserve" transform="matrix(.75 0 0 .75 0 0)" font-size="14.6921" font-family="F1"><tspan y="861.44" x="375.52 384.56626 392.44319 400.22999 408.1637 415.65669 419.6023 424.39445 432.40049 436.22044 448.8034 456.73713 460.4245 468.50517 473.2973 481.23103 484.9184 492.99906 496.94468 504.8784 512.95907 516.779 524.78506 531.055 538.84188 546.77566 554.85629 558.54367 565.8107 573.6876 581.7683 585.58828 593.40786 601.61477 609.5347 613.4804 621.3573 628.9972 636.78408 643.68936 647.80319 652.50466 660.43838 664.38406 672.00277 680.20968 688.02926 694.19998 701.98678">Seeks to maintain an organized and easy to share </tspan></text>
<text xml:space="preserve" transform="matrix(.75 0 0 .75 0 0)" font-size="14.6921" font-family="F1"><tspan y="879.04" x="375.52 386.88343 394.81715 401.08714 408.8564 416.64323 424.63493 432.2748 439.5922 447.2321">workspace </tspan></text>
<text xml:space="preserve" transform="matrix(.75 0 0 .75 0 0)" font-size="14.6921" font-family="F3"><tspan y="896.8" x="351.52">&#xf0b7;</tspan></text>
<text xml:space="preserve" transform="matrix(.75 0 0 .75 0 0)" font-size="14.6921" font-family="F4"><tspan y="896.8" x="358.24"> </tspan></text>
<text xml:space="preserve" transform="matrix(.75 0 0 .75 0 0)" font-size="14.6921" font-family="F1"><tspan y="896.8" x="375.52 385.06986 392.94679 400.93849 405.19258 413.1986 420.29359 427.91224 431.85786 436.11195 443.93147 451.92317 455.86878 463.50868 471.58934 479.66996 483.35734 491.438 504.02098 511.80778 520.0147 524.7162 528.83 532.35617 540.43679 544.38247 552.3162 556.2619 567.6253 575.4449 582.53988 586.48556 591.27767 599.3583 607.29208 611.8466 615.96047 619.6478 627.1408 631.0865 638.8733 646.80709 654.4258 661.52078 665.46646 670.25857 678.04537 681.991 694.4793 702.4131 706.10049 714.1811 718.9732 726.907 730.59439 738.675">Deploys lab equipment in a way that is easy to maintain </tspan></text>
<text xml:space="preserve" transform="matrix(.75 0 0 .75 0 0)" font-size="14.6921" font-family="F1"><tspan y="914.4" x="375.52 386.88343 394.96409 398.65147 403.05909 410.8459 414.7915 422.87217 430.65898 434.34635 442.55326 450.4732 454.41883 459.07469 467.2457 475.4526 482.77 487.47145 490.99757 499.0036 507.2105 515.0301 519.28427 523.3981 527.95266 535.73947 542.0094 545.9551 553.74197 558.4434 566.6145 574.6952 582.482 590.6889 595.24349 603.03036 606.976 614.7956 622.7293 630.81 634.7557 639.4115 647.2311 654.5484 662.6291 666.88327 671.67538 678.5806">while being functional for students and faculty </tspan></text>
<text xml:space="preserve" transform="matrix(.75 0 0 .75 0 0)" font-size="14.6921" font-family="F3"><tspan y="932.16" x="351.52">&#xf0b7;</tspan></text>
<text xml:space="preserve" transform="matrix(.75 0 0 .75 0 0)" font-size="14.6921" font-family="F4"><tspan y="932.16" x="358.24"> </tspan></text>
<text xml:space="preserve" transform="matrix(.75 0 0 .75 0 0)" font-size="14.6921" font-family="F1"><tspan y="932.16" x="375.52 382.5934 388.76408 396.7701 404.94114 412.93284 417.18693 425.06385 432.6825 440.8894 448.82313 456.82917 461.6213 469.1143 473.0599 481.2668 489.08634 495.3563 503.27626 514.7361 522.55569 528.7264 536.3663 540.4801 544.1675 551.7862 559.4049 567.576 575.2159 583.00277 586.9484 594.56716 602.6478 609.96517 618.0458 622.1596 629.7995 637.4182 641.3639 649.5708 657.3904 663.4142 671.4949 675.44058 683.52127 689.69198 693.2181 700.56417 708.35098">Troubleshoots hardware issues such as hard drive </tspan></text>
<text xml:space="preserve" transform="matrix(.75 0 0 .75 0 0)" font-size="14.6921" font-family="F1"><tspan y="949.76" x="375.52 380.17585 387.99537 391.68275 395.93684 404.10789 410.27854 418.15547 425.7741 429.88789 437.67469 445.4942 453.11286 460.98979 468.77659 472.89036 480.82408 489.03099 492.9766 497.76875 505.8494 513.7263 517.54629 525.3331 533.11996 540.90676 548.22409 552.044 556.5986 560.28598 567.6033 571.54898 579.75588 587.57546 593.8454 601.7654 613.1288 620.7687 627.03866 634.82546 638.9393 647.01998 654.6387 662.4255 670.21237">failures based on the specific hardware used </tspan></text>
<text xml:space="preserve" transform="matrix(.75 0 0 .75 0 0)" font-size="14.6921" font-family="F3"><tspan y="967.52" x="351.52">&#xf0b7;</tspan></text>
<text xml:space="preserve" transform="matrix(.75 0 0 .75 0 0)" font-size="14.6921" font-family="F4"><tspan y="967.52" x="358.24"> </tspan></text>
<text xml:space="preserve" transform="matrix(.75 0 0 .75 0 0)" font-size="14.6921" font-family="F1"><tspan y="967.52" x="375.52 384.56626 392.44319 397.23533 404.85398 408.96775 417.04838 424.83518 428.94895 436.76847 444.84913 452.76908 456.7147 464.63465 472.51158 480.29838 484.706 492.6397 499.73469 507.35334 511.17329 518.96017 525.8654 533.6523 538.20687 546.08377 558.6667 566.2854 570.39926 581.76266 585.45 590.1515 598.2321 602.1778 614.6173 618.3047 626.3853 634.466 642.3997 653.7631 661.2561 664.5848 668.53048 676.9526 680.63998 688.7206 696.8013 704.39846 707.7271 711.84097 719.6605 727.59426 735.6749">Sets up and deploys systems with Windows, Linux, and </tspan></text>
<text xml:space="preserve" transform="matrix(.75 0 0 .75 0 0)" font-size="14.6921" font-family="F1"><tspan y="985.12" x="375.52 386.9695 394.90324 402.2206 411.62358 420.58576 424.53138 432.02436 439.95808 446.12876 454.2094 462.14314 468.41313 476.23265 481.02479 488.66468 492.77845 496.46583 509.0488 516.68869 524.60867 532.39547 540.01419 543.95986 555.4197 559.10708 563.80856 572.01547 575.9611 580.75326 588.7593 596.5461 600.95376 608.4467 612.3924 616.80007 620.3262 628.0955 635.8823 639.99618 648.9583 658.0476 667.00979 678.4592 682.4049 690.2245 698.3051 706.2251 710.1708 722.80599 726.49337 734.574 743.72067 752.24209">MacOS corporate images with tools like SCCM and WinPE </tspan></text>
<path transform="matrix(.75,0,0,.75,0,0)" d="M 316.64 48 L 319.52 48 L 319.52 988.16 L 316.64 988.16 Z " fill="#336699"/>
<path transform="matrix(.75,0,0,.75,0,0)" d="M 316.64 988.16 L 768 988.16 L 768 989.44 L 316.64 989.44 Z " fill="#336699"/>
</g>
</svg>
