<?xml version="1.0" encoding="UTF-8" standalone="no"?>
<!DOCTYPE svg PUBLIC "-//W3C//DTD SVG 1.1//EN" "http://www.w3.org/Graphics/SVG/1.1/DTD/svg11.dtd">
<svg xmlns="http://www.w3.org/2000/svg" xmlns:xlink="http://www.w3.org/1999/xlink" version="1.1" width="612pt" height="792pt" viewBox="0 0 612 792">
<g enable-background="new">
<text fill="#404040" xml:space="preserve" transform="matrix(.75 0 0 .75 0 0)" font-size="14.6921" font-family="F1"><tspan y="1005.76" x="371.04 380.1867 388.00624 395.92619 403.8031">Page </tspan></text>
<text fill="#404040" xml:space="preserve" transform="matrix(.75 0 0 .75 0 0)" font-size="14.6921" font-family="F2"><tspan y="1005.76" x="407.84">4</tspan></text>
<text fill="#404040" xml:space="preserve" transform="matrix(.75 0 0 .75 0 0)" font-size="14.6921" font-family="F1"><tspan y="1005.76" x="416.16 420.10563 428.11167 432.6662"> of </tspan></text>
<text fill="#404040" xml:space="preserve" transform="matrix(.75 0 0 .75 0 0)" font-size="14.6921" font-family="F2"><tspan y="1005.76" x="436.64">4</tspan></text>
<text fill="#404040" xml:space="preserve" transform="matrix(.75 0 0 .75 0 0)" font-size="14.6921" font-family="F1"><tspan y="1005.76" x="444.96"> </tspan></text>
<text xml:space="preserve" transform="matrix(.75 0 0 .75 0 0)" font-size="14.6921" font-family="F3"><tspan y="62.72" x="351.52">&#xf0b7;</tspan></text>
<text xml:space="preserve" transform="matrix(.75 0 0 .75 0 0)" font-size="14.6921" font-family="F4"><tspan y="62.72" x="358.24"> </tspan></text>
<text xml:space="preserve" transform="matrix(.75 0 0 .75 0 0)" font-size="14.6921" font-family="F1"><tspan y="62.72" x="375.52 385.06986 392.94679 400.93849 409.01914 417.0998 425.01976 432.89668 440.68348 444.79725 452.58406 458.75474 465.0247 473.03074 481.23765 489.02445 496.95817 505.12919 512.74789 516.69357 524.6135 532.5473 537.10189 545.03567 548.9813 553.77346 561.70718 565.821 573.6078 577.86196 581.38809 593.971 597.6584 605.8653 613.6849 618.477 626.2638 630.3776 638.1644 645.984 653.7709 657.8847 665.202 673.13577 681.34268 685.8972 689.5846 697.5046 705.1233 709.069 717.00277 725.0834 732.87026">Debugged erroneous data to eliminate bad configs and </tspan></text>
<text xml:space="preserve" transform="matrix(.75 0 0 .75 0 0)" font-size="14.6921" font-family="F1"><tspan y="80.32" x="375.52 383.5117 391.3312 399.25117 403.36494 408.06639 415.85319 423.47184 428.26399 432.08393 440.16459 447.9841 452.68556 460.32545">bad test data </tspan></text>
<text xml:space="preserve" transform="matrix(.75 0 0 .75 0 0)" font-size="14.6921" font-family="F3"><tspan y="98.08" x="351.52">&#xf0b7;</tspan></text>
<text xml:space="preserve" transform="matrix(.75 0 0 .75 0 0)" font-size="14.6921" font-family="F4"><tspan y="98.08" x="358.24"> </tspan></text>
<text xml:space="preserve" transform="matrix(.75 0 0 .75 0 0)" font-size="14.6921" font-family="F1"><tspan y="98.08" x="375.52 383.73408 391.6678 399.83885 407.9195 416.00016 419.94578 431.3092 439.12873 446.2237 453.84236 457.6623 462.45445 470.38816 474.50193 479.05647 487.2275 493.49748 498.1989 506.40583 514.1926 520.4626 524.40829 532.342 540.3337 545.03518 548.72256 561.3055 565.1254 572.3925 580.0324 584.14627 588.8477 596.7246 604.3433 609.13546 612.8228 621.0297 628.8166 632.76229 640.10836 643.7957 651.6153 655.43527 663.369 671.4497 676.2418 684.17556 696.7585 704.57809 709.3702 713.05758 720.9913 729.1982">Found ways to further optimize testing via automation </tspan></text>
<text xml:space="preserve" transform="matrix(.75 0 0 .75 0 0)" font-size="14.6921" font-family="F1"><tspan y="115.68" x="375.52 386.88343 390.5708 395.27226 403.47917 407.42478 415.3585 423.1453 431.06526 434.8852 439.58665 443.27403 451.28007 459.36073 467.29444 471.4082 475.35383 480.14598 488.152 496.15806 500.27183 508.05863 512.0043 516.7964 524.5832 528.697 534.7208 542.5076 550.5883 558.669 565.9863 573.8632 577.8089 586.0158 594.1869 606.6752 614.49478 622.5754 626.6892 630.3766 638.4572 643.2493 651.03616 657.3061 661.9619 669.7487 676.0187 683.8055 692.0124 699.3297 707.2066">with additional tools to reduce human interference </tspan></text>
<text xml:space="preserve" transform="matrix(.75 0 0 .75 0 0)" font-size="14.6921" font-family="F3"><tspan y="133.44" x="351.52">&#xf0b7;</tspan></text>
<text xml:space="preserve" transform="matrix(.75 0 0 .75 0 0)" font-size="14.6921" font-family="F4"><tspan y="133.44" x="358.24"> </tspan></text>
<text xml:space="preserve" transform="matrix(.75 0 0 .75 0 0)" font-size="14.6921" font-family="F1"><tspan y="133.44" x="375.52 385.0971 392.8839 400.22996 403.91734 411.79426 423.15769 430.9445 439.02516 442.97077 450.28816 458.07496 466.1556 473.9424 478.05619 482.75764 490.69136 494.63697 499.1915 502.87889 511.0858 519.00576 523.11959 531.0533 538.98709 543.7792 547.893 559.2564 567.33706 574.432 578.3777 583.1698 590.9566 598.74349 603.44497 610.9379 615.05178 622.87136 629.04208 636.82888 640.9427 648.9344 656.7212 662.99118 667.5457 675.55178 681.8217 694.40469 697.9308 706.1377 714.0577 718.00338 722.7955 731.0024 738.7892">Reviewed code to find out why tests are performing the </tspan></text>
<text xml:space="preserve" transform="matrix(.75 0 0 .75 0 0)" font-size="14.6921" font-family="F1"><tspan y="151.04" x="375.52 386.88343 394.70295 401.7979 405.74354 410.44499 418.6519 426.4387 433.53367 437.47929 445.55995 453.34675 459.51744 464.17329 472.17933 478.4493 491.0323 494.9779 499.77006 507.7761 511.59605 518.9421 526.87588 531.13 534.6561 542.7368 550.5564 555.2579 563.13479 567.08047 573.3504 581.1372 588.9241 596.85787 601.112 605.9041 613.5228">way they perform to validate results </tspan></text>
<text xml:space="preserve" transform="matrix(.75 0 0 .75 0 0)" font-size="14.6921" font-family="F3"><tspan y="168.8" x="351.52">&#xf0b7;</tspan></text>
<text xml:space="preserve" transform="matrix(.75 0 0 .75 0 0)" font-size="14.6921" font-family="F4"><tspan y="168.8" x="358.24"> </tspan></text>
<text xml:space="preserve" transform="matrix(.75 0 0 .75 0 0)" font-size="14.6921" font-family="F1"><tspan y="168.8" x="375.52 385.06986 392.94679 400.29283 408.07963 412.48725 420.42097 428.50163 436.28843 444.20838 448.32215 455.96205 459.90766 467.9883 475.92204 487.28547 495.07228 501.34226 508.9609 517.16787 524.95468 529.2088 533.46298 537.2829 544.9016 552.3946 558.5653 562.2527 570.2444 575.0365 578.9822 583.7743 591.708 595.6537 603.5874 609.85739 617.6442 625.578 633.6586 637.346 644.6131 652.49 656.43569 669.0186 676.8054 684.5923 692.211 699.1163 703.06198 707.0004 714.7873 722.721 730.9279">Developed a powershell script to organize messy json </tspan></text>
<text xml:space="preserve" transform="matrix(.75 0 0 .75 0 0)" font-size="14.6921" font-family="F1"><tspan y="186.4" x="375.52 383.43995 391.37367 396.0751 404.00883 407.95445 411.6418 419.84873 424.55018 432.4839 436.4295 444.24903 448.06898 460.65196 468.658 474.92796 482.71476 486.82853 494.90919 503.08024 515.56857 523.3881 531.46878 535.4144 539.969 546.23898 549.92636 557.71316 565.92007 573.84 578.2477 585.34268 589.1626 593.8184 601.82449 608.0944 620.5827">data into a more human friendly form </tspan></text>
<text xml:space="preserve" transform="matrix(.75 0 0 .75 0 0)" font-size="14.6921" font-family="F3"><tspan y="204.16" x="351.52">&#xf0b7;</tspan></text>
<text xml:space="preserve" transform="matrix(.75 0 0 .75 0 0)" font-size="14.6921" font-family="F4"><tspan y="204.16" x="358.24"> </tspan></text>
<text xml:space="preserve" transform="matrix(.75 0 0 .75 0 0)" font-size="14.6921" font-family="F1"><tspan y="204.16" x="375.52 385.06986 392.94679 400.29283 408.07963 412.48725 420.42097 428.50163 436.28843 444.20838 448.32215 455.96205 459.90766 467.9883 475.92204 487.28547 495.07228 501.34226 508.9609 517.16787 524.95468 529.2088 533.46298 537.2829 544.9016 552.3946 558.5653 562.2527 570.2444 575.0365 578.9822 583.7743 591.708 595.6537 602.971 610.97708 619.0577 626.55068 634.33749 640.5082 645.3003 649.4141 657.2009 665.372 669.62619 677.26608 681.21176 688.63668 697.5988 707.08267 717.37 721.3157 729.23568 737.05526 741.84738 749.7811">Developed a powershell script to convert bulk JSON data </tspan></text>
<text xml:space="preserve" transform="matrix(.75 0 0 .75 0 0)" font-size="14.6921" font-family="F1"><tspan y="221.76" x="375.52 379.20738 387.28804 392.08018 400.0862 404.19999 411.81864 416.61079 424.4303 429.22245 437.15617 444.94297 448.88859 455.05924 462.93617 470.92787 478.86158 485.13157 489.9237 497.4167 501.53047 512.89389 516.42 521.2121 529.419 533.23898 537.3528 541.04019 545.8323 550.6244 555.03207 562.81887 566.7645 574.97146 583.1425 595.72549 603.54507 611.6257 615.57138 619.2587 627.33938 632.1315 640.00839 646.1791 654.11288 661.4302 666.2223 669.90969 677.8434 685.924">into status reports with little human interaction </tspan></text>
<text xml:space="preserve" transform="matrix(.75 0 0 .75 0 0)" font-size="14.6921" font-family="F3"><tspan y="239.52" x="351.52">&#xf0b7;</tspan></text>
<text xml:space="preserve" transform="matrix(.75 0 0 .75 0 0)" font-size="14.6921" font-family="F4"><tspan y="239.52" x="358.24"> </tspan></text>
<text xml:space="preserve" transform="matrix(.75 0 0 .75 0 0)" font-size="14.6921" font-family="F1"><tspan y="239.52" x="375.52 385.06986 392.94679 400.93849 405.19258 413.1986 420.29359 428.08039 436.16105 440.10667 444.8988 452.6856 460.30427 465.0057 468.95133 476.4443 484.2311 496.8141 504.89476 512.9754 517.7675 525.5543 531.72506 539.34378 543.2894 547.94528 555.9513 562.22128 566.16696 573.513 581.1529 585.56057 589.2479 597.0348 604.96859 609.67007 613.3574 621.36349 629.4441 633.5579 638.2594 646.1363 653.6293 658.4214 662.10879 670.3157 678.10256">Deployed test computers for validation testing </tspan></text>
<text xml:space="preserve" transform="matrix(.75 0 0 .75 0 0)" font-size="14.6921" font-family="F3"><tspan y="257.28" x="351.52">&#xf0b7;</tspan></text>
<text xml:space="preserve" transform="matrix(.75 0 0 .75 0 0)" font-size="14.6921" font-family="F4"><tspan y="257.28" x="358.24"> </tspan></text>
<text xml:space="preserve" transform="matrix(.75 0 0 .75 0 0)" font-size="14.6921" font-family="F1"><tspan y="257.28" x="375.52 384.60929 392.61534 400.69599 405.35185 409.0392 417.11988 425.20054 431.4705 439.2573 447.33796 451.1579 455.412 463.41804 470.7354 478.55494 482.80903 486.75465 494.96156 502.74836 507.5405 518.9039 526.8376 533.0083 540.77767 548.39639 552.34207 557.0435 565.04959 568.99526 576.87216 585.07907 592.8986 600.8903 605.1445 612.78439 616.73007 621.1377 628.9573 634.9811 643.06179 650.8486 654.79428 662.728 670.80868 678.72866 682.6743 687.33016 691.444 699.32089 706.918 710.6054 718.68606 722.9402 730.727 734.67269 738.9268 746.7464 754.827">Configured local networks to enable large and flexible lab </tspan></text>
<text xml:space="preserve" transform="matrix(.75 0 0 .75 0 0)" font-size="14.6921" font-family="F1"><tspan y="274.88" x="375.52 379.77409 387.7078 394.80278 402.73649 410.8171 415.60926 423.39607 427.34169 432.13383 440.21449 448.034 452.73545 456.68107 464.61479 470.78544 478.66236 482.60798 490.68864 498.47544 503.26759 511.34825 515.46206 520.0166 528.1877 536.3946 543.7119 548.504 552.1914 560.1251 568.33206 576.1516 580.40579 584.2257 592.1595 600.2401 608.3208 612.2665 620.2002 626.3709 634.2909 642.2247 650.3053 653.9927 661.25979 669.0466 676.83346">layouts that are both functional and organized </tspan></text>
<text fill="#404040" xml:space="preserve" transform="matrix(.75 0 0 .75 0 0)" font-size="14.6921" font-family="F1"><tspan y="292.48" x="327.52"> </tspan></text>
<text fill="#336699" xml:space="preserve" transform="matrix(.75 0 0 .75 0 0)" font-size="18.6845" font-family="F1"><tspan y="322.08" x="327.52 336.51557 346.53294 355.83869 366.11518 376.55226 381.2416 390.397 395.08638 405.03077 415.46784 420.48567 425.5305 430.949">Technician II </tspan></text>
<text xml:space="preserve" transform="matrix(.75 0 0 .75 0 0)" font-size="14.6921" font-family="F1"><tspan y="348.48" x="327.52 337.0971 344.8839 353.9732 361.97926 370.18617 377.97297 385.7598 390.46125 394.40687 399.0627 407.06877 413.3387 425.9217 433.7986 439.82237 444.22999 451.32496 455.1449 462.21833 470.00514 474.41276 482.19956 490.19126 494.30503 502.23875 510.3194 514.4332 518.4001 526.4807 531.2728 539.1497 545.32046 553.52737 561.3469 566.13906 569.8264 577.76016 585.96707 593.7866 598.0408 602.1546 610.2352 614.0552 623.75198 631.68569 639.3044 647.0912 654.43728 658.12466 662.3788 666.63296 674.5098 677.7421 681.6878 690.7771 700.18008">ReConext formerly Teleplan International &#x2013; Roseville, CA </tspan></text>
<text xml:space="preserve" transform="matrix(.75 0 0 .75 0 0)" font-size="14.6921" font-family="F1"><tspan y="366.08" x="327.52 336.56626 344.44319 352.43489 357.22703 365.01383 377.5968 385.67747 393.46427 399.73423 403.55418 411.34098 419.2747 424.27 432.35066 436.29627 441.0884 449.09446 453.04008 464.4896 472.3091 479.40409 483.22404 490.71699 498.82347 506.41343 514.5199">September 2018 to May 2020 </tspan></text>
<text xml:space="preserve" transform="matrix(.75 0 0 .75 0 0)" font-size="14.6921" font-family="F1"><tspan y="383.84" x="327.52"> </tspan></text>
<text xml:space="preserve" transform="matrix(.75 0 0 .75 0 0)" font-size="14.6921" font-family="F2"><tspan y="404" x="327.52 336.0414 339.7288 347.5483 351.2357 358.85435 366.78807 374.99497 378.94059 382.62797 390.83488 394.7805 401.8539 409.4938 413.7479 421.62483 429.61653 433.8706 441.80433 449.88499 453.8306 458.48646 466.4925 472.66319 476.6088 485.6981 489.2242 496.84288 504.16026 512.1663 516.112 523.4293 527.6835 531.37088 539.15768 547.36459 552.1567 559.64968">Liaison in Teleplan for Cisco clients </tspan></text>
<text xml:space="preserve" transform="matrix(.75 0 0 .75 0 0)" font-size="14.6921" font-family="F3"><tspan y="421.76" x="351.52">&#xf0b7;</tspan></text>
<text xml:space="preserve" transform="matrix(.75 0 0 .75 0 0)" font-size="14.6921" font-family="F4"><tspan y="421.76" x="358.24"> </tspan></text>
<text xml:space="preserve" transform="matrix(.75 0 0 .75 0 0)" font-size="14.6921" font-family="F1"><tspan y="421.76" x="375.52 384.92295 393.0036 400.7904 407.0604 414.8799 419.58137 427.45829 435.53895 439.48457 450.848 454.53538 459.23683 467.44374 471.38935 479.32307 487.25679 491.2024 499.0793 507.28623 515.2062 522.2509 530.18466 534.7392 541.78396 549.10128 557.1819 565.11569 568.80307 576.88369 583.9284 591.2457 599.4168 607.0355 611.82766 619.76138 632.3443 640.1311 646.40109 650.34677 658.42739 664.5981 668.28549 676.2915 682.56149 686.24887 690.9503 697.8556 701.8013 714.5834 718.27078 726.3514 734.13827 741.9251 749.7119 754.504">Operated with an end-of-chain-customer priority mindset </tspan></text>
<text xml:space="preserve" transform="matrix(.75 0 0 .75 0 0)" font-size="14.6921" font-family="F1"><tspan y="439.36" x="375.52 386.88343 394.96409 402.841 411.0479 414.99354 427.5765 435.39604 443.32975 447.01713 455.09779 462.88459 466.99836 474.78517 482.71888 490.03627 498.2073 510.79029 518.6672 526.8741 531.42868 539.3624 544.0639 547.88388 555.81759 563.8982 568.012 575.8316 583.91226 591.9929 595.81289 603.80459 609.9753 617.9813 625.29867 633.17556 640.6685 648.28726 652.2329 660.1529 668.0298 675.3471 679.0345 686.6532 690.1793 698.18539 706.3923 714.011">when making documentation and process decisions </tspan></text>
<text xml:space="preserve" transform="matrix(.75 0 0 .75 0 0)" font-size="14.6921" font-family="F3"><tspan y="457.12" x="351.52">&#xf0b7;</tspan></text>
<text xml:space="preserve" transform="matrix(.75 0 0 .75 0 0)" font-size="14.6921" font-family="F4"><tspan y="457.12" x="358.24"> </tspan></text>
<text xml:space="preserve" transform="matrix(.75 0 0 .75 0 0)" font-size="14.6921" font-family="F1"><tspan y="457.12" x="375.52 385.06986 393.0759 400.39329 408.5643 421.14729 429.0242 437.2311 441.93257 449.80949 457.72944 461.8432 469.92387 477.80079 489.1642 492.98417 500.97587 507.1465 515.1526 523.2333 531.31399 538.51309 543.3052 550.9239 555.0377 566.4011 569.92727 574.71939 582.9263 586.87197 591.66409 599.871 607.6578 611.4777 618.9707 627.0514 634.6701 639.4622 647.39596 659.9789 667.7657 674.03567 677.9813 681.6687 689.8756 693.69558 706.2785 709.9659 718.1728 726.0928 730.03848 734.83059 742.7643">Documented new products with the customer in mind to </tspan></text>
<text xml:space="preserve" transform="matrix(.75 0 0 .75 0 0)" font-size="14.6921" font-family="F1"><tspan y="474.72" x="375.52 382.83738 390.7711 395.47254 402.78993 410.99684 414.94245 423.0231 430.95683 435.74897 443.6259 451.70655 456.4987 460.18608 468.00559 472.25968 476.2053 484.28596 488.1059 495.30506 503.07435 510.11909 518.19979 526.19149 533.68447 537.6301 541.3175 549.39816 553.3438 561.5507 569.3703 577.5772 585.4972 589.90487 593.5922 601.67288 609.4597">catch potential hick-ups in handling </tspan></text>
<text xml:space="preserve" transform="matrix(.75 0 0 .75 0 0)" font-size="14.6921" font-family="F3"><tspan y="492.48" x="351.52">&#xf0b7;</tspan></text>
<text xml:space="preserve" transform="matrix(.75 0 0 .75 0 0)" font-size="14.6921" font-family="F4"><tspan y="492.48" x="358.24"> </tspan></text>
<text xml:space="preserve" transform="matrix(.75 0 0 .75 0 0)" font-size="14.6921" font-family="F1"><tspan y="492.48" x="375.52 385.0971 392.8839 400.67073 408.45753 416.27705 422.54704 429.8644 438.07133 445.85813 453.77809 457.59803 462.39018 470.2671 477.58448 485.79139 493.87205 497.55943 504.8768 512.81057 516.9244 520.87008 528.95077 536.73757 544.0549 552.22598 564.8089 572.6858 580.8927 585.5942 593.52798 598.32009 602.00747 609.94119 618.1481 622.09378 628.3637 636.1505 644.0705 651.8901 658.0608 665.9808 669.8007 677.88137 685.6682 689.78207 697.71578 705.50259 716.9624">Researched technical documentation regarding new </tspan></text>
<text xml:space="preserve" transform="matrix(.75 0 0 .75 0 0)" font-size="14.6921" font-family="F1"><tspan y="510.08" x="375.52 383.5117 389.68235 397.6884 405.76905 413.8497 421.16709 425.86854 433.48719 437.60096 445.42048 453.3542 461.43486 465.38047 469.06785 477.1485 484.46589 488.8735 496.80723 504.88789 512.6747 516.62039 524.701 530.8717 538.8054 546.12277 553.90957 561.6964 569.3151 573.1351 580.4524 588.38619 595.73226 603.51907 611.3386 616.0401 623.6588 627.6045 639.06436 642.7517 647.4532 655.6601 659.3475 667.4281">products and include process caveats within </tspan></text>
<text xml:space="preserve" transform="matrix(.75 0 0 .75 0 0)" font-size="14.6921" font-family="F1"><tspan y="527.68" x="375.52 383.43995 391.44599 398.76338 406.93443 419.5174 427.39433 435.60124 440.30268 448.1222 452.82365 456.51103 464.44474 472.65165 476.59727 481.2531 489.25917 495.42985 499.37547 507.2954 511.70304 519.6368 527.6285 535.2684 539.676 543.6217 548.4138 556.2006 564.1344 576.6227 584.11569">documentation for global teams </tspan></text>
<text xml:space="preserve" transform="matrix(.75 0 0 .75 0 0)" font-size="14.6921" font-family="F3"><tspan y="545.44" x="351.52">&#xf0b7;</tspan></text>
<text xml:space="preserve" transform="matrix(.75 0 0 .75 0 0)" font-size="14.6921" font-family="F4"><tspan y="545.44" x="358.24"> </tspan></text>
<text xml:space="preserve" transform="matrix(.75 0 0 .75 0 0)" font-size="14.6921" font-family="F1"><tspan y="545.44" x="375.52 385.06986 392.94679 400.29283 408.07963 412.48725 420.42097 428.50163 436.28843 444.20838 448.32215 456.14167 464.07539 472.15605 476.10166 482.2723 490.14924 494.80509 498.49247 506.57313 514.45 522.37 526.4838 531.0384 538.9721 546.9058 551.16 558.94686 562.8925 566.5799 574.5136 578.62747 587.7741 594.6794 599.4715 607.6784 615.6121 623.81906 627.1477 631.0934 640.5772 648.3968 653.1889 660.5062 668.71316 672.0418 675.86178 683.68136 691.88827 699.6751">Developed and refined tools in Python, Batch, and </tspan></text>
<text xml:space="preserve" transform="matrix(.75 0 0 .75 0 0)" font-size="14.6921" font-family="F1"><tspan y="563.04" x="375.52 384.6667 392.6004 403.96385 411.75065 418.0206 425.63926 433.84617 441.63298 446.0406 450.29469 454.2403 459.03245 466.96617 470.91178 478.7313 485.93046 493.24784 501.12477 505.37886 513.25576 519.5257 527.3453 531.89987 539.77676 543.7224 548.5145 556.72146 564.50827 568.4539 576.5346 584.4683 591.9613 599.8951 612.478 620.3549 628.43557 633.22769 641.16146 645.8629 649.68289 657.6166 665.6972 669.81106 677.80276 683.97348 691.90719 699.2245 707.0113 714.63 722.4169 725.50228">Powershell to accelerate the documentation process. </tspan></text>
<text xml:space="preserve" transform="matrix(.75 0 0 .75 0 0)" font-size="14.6921" font-family="F1"><tspan y="580.64" x="375.52 380.50584 389.5521 397.4858 404.83186 412.61866 420.40547 424.35108 432.2848 440.36546 444.47923 452.29875 459.64479 467.43159 473.70158 481.34147 489.42213 497.20893 501.15455 509.16059 513.71517 517.6608 525.59457 529.4145 537.3345 545.15408 552.249 559.86776 563.8134 571.8051 579.5919 585.8619 589.80758 597.97866 606.18557 609.8729 614.5744 619.42288">(Saved an average of 5 days per unit) </tspan></text>
<text xml:space="preserve" transform="matrix(.75 0 0 .75 0 0)" font-size="14.6921" font-family="F5"><tspan y="598.4" x="399.52">o</tspan></text>
<text xml:space="preserve" transform="matrix(.75 0 0 .75 0 0)" font-size="14.6921" font-family="F4"><tspan y="598.4" x="408.32"> </tspan></text>
<text xml:space="preserve" transform="matrix(.75 0 0 .75 0 0)" font-size="14.6921" font-family="F1"><tspan y="598.4" x="423.52 427.48686 435.69377 443.01115 447.26524 455.43626 463.5169 471.3037 479.0905 483.20429 490.82295 498.60975 511.19273 519.06967 523.0153 526.83529 539.17666 547.1104 555.0304 562.9073 566.72726 579.3102 587.12979 595.2104 598.89779 606.88949 614.97018 619.3778 627.1974 631.89889 635.58627 643.5923 651.526">Included some image manipulation </tspan></text>
<text xml:space="preserve" transform="matrix(.75 0 0 .75 0 0)" font-size="14.6921" font-family="F5"><tspan y="616" x="399.52">o</tspan></text>
<text xml:space="preserve" transform="matrix(.75 0 0 .75 0 0)" font-size="14.6921" font-family="F4"><tspan y="616" x="408.32"> </tspan></text>
<text xml:space="preserve" transform="matrix(.75 0 0 .75 0 0)" font-size="14.6921" font-family="F1"><tspan y="616" x="423.52 427.48686 435.69377 443.01115 447.26524 455.43626 463.5169 471.3037 479.0905 483.20429 490.82295 498.60975 511.19273 519.06967 523.0153 527.67117 531.3585 535.7662 543.40609 547.35177 559.9347 567.86849 575.9491 583.7687 591.68869 599.47549 612.0584 619.9353 628.1422 632.6968">Included some file management </tspan></text>
<text xml:space="preserve" transform="matrix(.75 0 0 .75 0 0)" font-size="14.6921" font-family="F2"><tspan y="636.16" x="327.52 337.03257 345.20359 349.99574 358.00178 370.58476 378.40428 383.1057 386.7931 394.7268 402.93373 406.87934 414.75627 422.8369 430.91758 434.60496 442.6856 450.56254 458.34934 464.6193 468.30668 476.38734 484.30729">Automation engineering </tspan></text>
<text xml:space="preserve" transform="matrix(.75 0 0 .75 0 0)" font-size="14.6921" font-family="F3"><tspan y="653.92" x="351.52">&#xf0b7;</tspan></text>
<text xml:space="preserve" transform="matrix(.75 0 0 .75 0 0)" font-size="14.6921" font-family="F4"><tspan y="653.92" x="358.24"> </tspan></text>
<text xml:space="preserve" transform="matrix(.75 0 0 .75 0 0)" font-size="14.6921" font-family="F1"><tspan y="653.92" x="375.52 384.92295 393.12986 401.12156 409.05528 416.98899 423.15965 431.2403 439.0271 446.94706 451.06083 459.05253 465.8109 469.92469 477.91639 484.08708 491.87388 499.2199 502.9073 510.91334 519.0844 526.7031 530.6488 538.4356 546.51626 554.5969 558.2843 566.3649 574.2418 582.0286 588.2986 592.24429 596.9001 604.9061 611.07687 615.1907 623.01028 631.09097 635.88308 643.8891 656.47207 664.2916 668.9931 672.6805 680.6142 688.8211">Onboarded by previous engineer for automation </tspan></text>
<text xml:space="preserve" transform="matrix(.75 0 0 .75 0 0)" font-size="14.6921" font-family="F1"><tspan y="671.52" x="375.52 388.10298 396.03669 399.72407 407.80473 412.59687 420.38368 428.59059 436.4101 444.617 451.9344 459.7212 463.6668 471.74748 477.91813 485.92417 494.00483 500.0286 507.8481 520.4311 533.01406 536.7014 544.78207 552.702 556.81588 564.63546 572.71609 580.63607 584.5817 592.5017 600.3786 607.7247 615.36459 619.7722 627.70596 635.69766 648.2806 656.1575 664.2381 669.0302 673.14407 677.6986 685.70468 691.72848">maintenance programming and development for </tspan></text>
<text xml:space="preserve" transform="matrix(.75 0 0 .75 0 0)" font-size="14.6921" font-family="F1"><tspan y="689.12" x="375.52 383.43995 391.31687 399.39753 407.21705 413.38774 418.17988 430.76286 438.63978 446.72044 451.51258 455.4582 463.2777 471.35838 476.1505 484.15657 496.73954 504.55906 509.2605 512.9479 520.8816 529.0885 532.90847 540.90017 547.07089 555.0769 559.19076 566.97756 574.29489 578.99636">department automation project </tspan></text>
<text xml:space="preserve" transform="matrix(.75 0 0 .75 0 0)" font-size="14.6921" font-family="F3"><tspan y="706.88" x="351.52">&#xf0b7;</tspan></text>
<text xml:space="preserve" transform="matrix(.75 0 0 .75 0 0)" font-size="14.6921" font-family="F4"><tspan y="706.88" x="358.24"> </tspan></text>
<text xml:space="preserve" transform="matrix(.75 0 0 .75 0 0)" font-size="14.6921" font-family="F1"><tspan y="706.88" x="375.52 385.03257 389.8247 394.61686 402.49378 415.07676 423.1574 427.85887 435.64567 443.5656 447.51124 452.30339 460.2371 464.1827 472.26338 478.43406 486.25358 490.90943 495.61088 499.5565 507.376 515.45669 519.5705 527.2104 534.70339 539.4955 547.2823 555.4892 563.1079 566.7953 574.80136 583.00827 586.9539 594.88766 599.54348 603.6573 608.35879 616.5657 624.3525 628.29818 636.23196 644.3126 649.10476 657.03848 669.6214 677.441 682.2331 685.9205 693.7073 701.9142 705.85989 713.9405 720.1112 728.0449 732.15878 739.94558 747.2629 752.055">Attempted to draft an extension of the automation project </tspan></text>
<text xml:space="preserve" transform="matrix(.75 0 0 .75 0 0)" font-size="14.6921" font-family="F1"><tspan y="724.48" x="375.52 380.31214 388.51905 396.33857 401.04 405.15379 416.5172 424.45094 432.5316 436.78569 444.70564 448.65126 456.52818 464.73509 472.5546 480.3414 484.5955 492.4724 496.41804 509.001 517.0071 523.27706 531.15396 534.9739 539.6297 543.88388 551.76077 559.3579 563.0453 571.1259 574.8133 579.06747 582.59359 587.3857 594.48068 598.42636 602.9809 610.98696 617.2569 621.2026 625.8584 633.678 641.17098 645.9631 649.90878 657.9894 665.6293 672.9466 680.8235 688.9042 692.7241 700.04147 708.1221 716.05587 724.1365 732.21719 740.00399 747.6227">that would enable more flexibility for fast paced changes </tspan></text>
<text xml:space="preserve" transform="matrix(.75 0 0 .75 0 0)" font-size="14.6921" font-family="F1"><tspan y="742.08" x="375.52 383.13865 387.54627 395.36579 400.06724 407.85404 415.774 419.7196 424.51176 432.44548 436.39109 444.39714 451.7145 459.0319 467.2029 473.37358 477.31919 488.68263 492.37 497.07145 505.27836 508.96574 517.0464 521.1602 525.8617 533.9423 541.7291 545.6748 553.7555 561.5423 569.6229 577.4425 583.6132 588.40536 600.9883 608.8652 617.0721 621.77359 625.00588">slated to occur within the department. </tspan></text>
<text fill="#404040" xml:space="preserve" transform="matrix(.75 0 0 .75 0 0)" font-size="14.6921" font-family="F1"><tspan y="759.68" x="327.52"> </tspan></text>
<path transform="matrix(.75,0,0,.75,0,0)" d="M 316.64 48 L 319.52 48 L 319.52 767.52 L 316.64 767.52 Z " fill="#336699" fill-rule="evenodd"/>
<path transform="matrix(.75,0,0,.75,0,0)" d="M 319.52 766.24 L 768 766.24 L 768 767.52 L 319.52 767.52 Z " fill="#336699" fill-rule="evenodd"/>
<path transform="matrix(.75,0,0,.75,0,0)" d="M 316.64 767.52 L 319.52 767.52 L 319.52 925.92 L 316.64 925.92 Z " fill="#336699"/>
<text fill="#404040" xml:space="preserve" transform="matrix(.75 0 0 .75 0 0)" font-size="14.6921" font-family="F1"><tspan y="940.48" x="48"> </tspan></text>
</g>
</svg>
