<?xml version="1.0" encoding="UTF-8" standalone="no"?>
<!DOCTYPE svg PUBLIC "-//W3C//DTD SVG 1.1//EN" "http://www.w3.org/Graphics/SVG/1.1/DTD/svg11.dtd">
<svg xmlns="http://www.w3.org/2000/svg" xmlns:xlink="http://www.w3.org/1999/xlink" version="1.1" width="612pt" height="792pt" viewBox="0 0 612 792">
<g enable-background="new">
<text fill="#404040" xml:space="preserve" transform="matrix(.75 0 0 .75 0 0)" font-size="14.6921" font-family="F1"><tspan y="1005.76" x="371.36 380.50669 388.3262 396.24617 404.12309">Page </tspan></text>
<text fill="#404040" xml:space="preserve" transform="matrix(.75 0 0 .75 0 0)" font-size="14.6921" font-family="F2"><tspan y="1005.76" x="408.16">3</tspan></text>
<text fill="#404040" xml:space="preserve" transform="matrix(.75 0 0 .75 0 0)" font-size="14.6921" font-family="F1"><tspan y="1005.76" x="415.84 419.7856 427.79167 432.4475"> of </tspan></text>
<text fill="#404040" xml:space="preserve" transform="matrix(.75 0 0 .75 0 0)" font-size="14.6921" font-family="F2"><tspan y="1005.76" x="436.48">4</tspan></text>
<text fill="#404040" xml:space="preserve" transform="matrix(.75 0 0 .75 0 0)" font-size="14.6921" font-family="F1"><tspan y="1005.76" x="444.64"> </tspan></text>
<text xml:space="preserve" transform="matrix(.75 0 0 .75 0 0)" font-size="14.6921" font-family="F3"><tspan y="62.72" x="351.52">&#xf0b7;</tspan></text>
<text xml:space="preserve" transform="matrix(.75 0 0 .75 0 0)" font-size="14.6921" font-family="F4"><tspan y="62.72" x="358.24"> </tspan></text>
<text xml:space="preserve" transform="matrix(.75 0 0 .75 0 0)" font-size="14.6921" font-family="F1"><tspan y="62.72" x="375.52 383.73408 387.42146 395.5021 403.42207 411.20887 415.15449 422.974 430.9077 438.98838 442.934 450.7208 455.42225 463.5029 471.42286 475.11024 482.89704 490.5157 494.4613 502.07997 510.01368 514.2678 522.4389 527.1404 530.9603 538.74716 546.82778 554.6146 558.5603 563.3524 571.28616 575.39999 583.48068 591.68759 596.2421 604.0617 616.55 620.23739 624.645 628.3324 636.152 642.1758 646.12149 654.2021 660.3728 668.37887 676.4595 680.7136 688.3535 700.8418 708.4605 712.57437 720.56607 728.35287 733.00869 740.9424 747.21237 754.99917">Finds and studies solutions to unfamiliar problems before </tspan></text>
<text xml:space="preserve" transform="matrix(.75 0 0 .75 0 0)" font-size="14.6921" font-family="F1"><tspan y="80.32" x="375.52 383.3395 388.13166 392.9238 400.7106 413.29359 421.37425 426.16639 429.85377 437.93443 445.85438 449.8 454.59214 462.59819 466.41813 474.03678 481.9137 486.70585 491.498 495.9056 503.6924 507.63804 515.6441 523.5778 527.69168 535.33157 539.2772 547.0641 554.9978 559.25198 567.42306 572.21517 575.9025 583.90859 591.8423 595.9561 600.6576 608.66366 612.6093 620.4862 628.6931 636.3118 644.4829 650.6536 658.5305 662.35049 667.1426 675.3495 683.16909 687.87057">attempting to settle on a solution to ensure that </tspan></text>
<text xml:space="preserve" transform="matrix(.75 0 0 .75 0 0)" font-size="14.6921" font-family="F1"><tspan y="97.92" x="375.52 383.43995 387.12733 394.91413 401.0848 409.25584 417.24754 422.03968 425.72706 433.66078 441.86769 449.36067 453.30628 461.24 467.41069 475.19749 479.1431 491.72608 495.41346 503.4941 507.1815 519.76449 523.2906 530.7835 538.5703 546.3572">disruptions are minimized </tspan></text>
<text fill="#404040" xml:space="preserve" transform="matrix(.75 0 0 .75 0 0)" font-size="14.6921" font-family="F1"><tspan y="115.52" x="327.52"> </tspan></text>
<text fill="#336699" xml:space="preserve" transform="matrix(.75 0 0 .75 0 0)" font-size="18.6845" font-family="F1"><tspan y="145.12" x="327.52 338.4862 348.4306 353.8407 358.53007 368.60218 378.54658 384.5256 389.21498 399.39656 409.83363 414.6916 423.68717 433.70454 443.01029 453.44737 463.72386 468.4132 477.71897 482.40834 492.35273 502.7898 507.64778 514.7183 519.73617 531.36837 536.7785 546.72286 552.70187 558.62289 568.80447 576.7782 592.78048 597.7983 609.9779 619.9953 630.2718 635.68197 640.16629 649.32168 659.41128 665.39028 670.07968 680.2612 690.6983 695.5563 706.3933 716.4107 726.35507 736.4271 741.2851 748.35568">Validation Technician / Platform Replication Lead / </tspan></text>
<text fill="#336699" xml:space="preserve" transform="matrix(.75 0 0 .75 0 0)" font-size="18.6845" font-family="F1"><tspan y="167.52" x="327.52 339.6996 349.71696 365.7192 375.9008 381.99516 392.0125 397.03034 408.4279 418.51753 428.04664 438.064 446.03776 455.7537 465.8258 475.84318 480.70115 491.53816 501.5555 511.4999 521.4027">Remote Coverage Lead </tspan></text>
<text xml:space="preserve" transform="matrix(.75 0 0 .75 0 0)" font-size="14.6921" font-family="F1"><tspan y="193.92" x="327.52 331.48686 339.69377 344.3952 352.27214 356.67976 360.62538 368.70603 372.8198 380.90046 388.9065 393.16059 400.9474 408.7342 421.31718 424.64585 428.59147 437.68077 447.0837">Intel &#x2013; Folsom, CA </tspan></text>
<text xml:space="preserve" transform="matrix(.75 0 0 .75 0 0)" font-size="14.6921" font-family="F1"><tspan y="211.52" x="327.52 336.92295 344.24034 349.03248 357.0385 365.11918 372.90599 379.17594 383.12156 390.6145 398.84208 406.33503 414.5626 418.5082 423.30036 431.08717 435.03279 444.72959 452.6633 460.74397 468.82463 476.61143 481.16596 484.9859 492.7727 500.70643 508.2964 513.1818">October 2020 to August 2021 </tspan></text>
<text xml:space="preserve" transform="matrix(.75 0 0 .75 0 0)" font-size="14.6921" font-family="F1"><tspan y="229.12" x="327.52"> </tspan></text>
<text xml:space="preserve" transform="matrix(.75 0 0 .75 0 0)" font-size="14.6921" font-family="F1"><tspan y="246.72" x="327.52 332.50584 341.59513 349.52885 357.73576 362.5279 368.69859 376.6323 383.94969 388.74183 396.52864 404.60929 408.42924 413.22138 421.1551 425.26887 429.23573 437.31639 442.10853 449.98545 454.23954 458.3533 463.05476 471.26167 477.43235 485.36607 493.4467 501.52735 509.608 513.55368 523.0375 530.8243 538.75808 546.0754 554.0091 562.216 566.1617 576.13339 579.82077 583.9346 588.1887 592.1344 601.18069 605.9728 613.79238 618.4482 623.00277 626.8227 634.9033 642.6902 646.63589 656.0388 662.20956 670.2156 678.38668 686.4673 691.31576">(Contracted to Intel through Beacon Hill Staffing Group) </tspan></text>
<text xml:space="preserve" transform="matrix(.75 0 0 .75 0 0)" font-size="14.6921" font-family="F2"><tspan y="267.04" x="327.52 331.83866 340.98536 347.15605 355.16209 359.10054 366.97746 374.29484 379.08699 382.90693 390.69374 398.68544 403.0041 406.9497 415.9119 420.166 428.0997 432.80116 437.457 445.46305 451.6337 464.12199 468.23576 477.81288 485.45277 493.44447 497.69856 501.38594 508.7033 516.6371 521.33859 525.02597 533.032 541.2389 545.05886 553.58029 561.36709 569.00698 577.08767 581.0333 588.8529 597.0598 604.8467 608.79238 618.48916 626.27597 638.8589 646.7926 651.4941 659.371 663.31668 672.40597 680.412 687.75808 695.54489 701.8148 709.7486 717.6686 725.3085">[Project 2b] Platform Replication Lead and Remote Coverage </tspan></text>
<text xml:space="preserve" transform="matrix(.75 0 0 .75 0 0)" font-size="14.6921" font-family="F2"><tspan y="284.64" x="327.52 336.0414 343.82823 351.64775 359.43455">Lead </tspan></text>
<text xml:space="preserve" transform="matrix(.75 0 0 .75 0 0)" font-size="14.6921" font-family="F3"><tspan y="302.4" x="351.52">&#xf0b7;</tspan></text>
<text xml:space="preserve" transform="matrix(.75 0 0 .75 0 0)" font-size="14.6921" font-family="F4"><tspan y="302.4" x="358.24"> </tspan></text>
<text xml:space="preserve" transform="matrix(.75 0 0 .75 0 0)" font-size="14.6921" font-family="F1"><tspan y="302.4" x="375.52 384.92295 393.09397 396.78135 401.03544 405.82759 409.94136 417.76087 421.70649 426.49864 434.13853 442.07225 454.6552 458.47517 465.79255 473.9636 478.21769 483.00984 491.18089 497.45085 505.23765 509.0576 516.37496 524.25186 532.45877 537.1602 545.0371 551.30709 559.0939 567.17459 571.12026 578.9398 585.11056 593.1166 601.28768 609.49459 617.41458 621.3602 629.14706 636.7442 644.8248 648.93869 656.8724 663.14236 670.9619 675.754 679.4414 687.44747 695.5281 698.7604">Built a team culture centered around exploration, </tspan></text>
<text xml:space="preserve" transform="matrix(.75 0 0 .75 0 0)" font-size="14.6921" font-family="F1"><tspan y="320" x="375.52 383.43995 391.44599 398.76338 406.93443 419.5174 427.39433 435.60124 440.30268 448.1222 452.82365 456.51103 464.44474 472.65165 475.98033 479.92594 487.85966 495.79338 503.87403 507.81965 512.61178 518.8817 526.8154 534.8961 542.8878 547.14199 554.9288 562.71566 570.79629 578.8023 586.736 591.52816 595.3481 603.4287 611.2156">documentation, and troubleshooting </tspan></text>
<text xml:space="preserve" transform="matrix(.75 0 0 .75 0 0)" font-size="14.6921" font-family="F3"><tspan y="337.76" x="351.52">&#xf0b7;</tspan></text>
<text xml:space="preserve" transform="matrix(.75 0 0 .75 0 0)" font-size="14.6921" font-family="F4"><tspan y="337.76" x="358.24"> </tspan></text>
<text xml:space="preserve" transform="matrix(.75 0 0 .75 0 0)" font-size="14.6921" font-family="F1"><tspan y="337.76" x="375.52 386.9695 394.84645 403.05335 407.7548 415.76084 422.0308 429.8176 437.89826 441.84388 446.63603 454.42283 461.7402 469.9471 478.15403 481.8414 489.15879 492.84617 500.66569 508.5994 516.2181 520.3319 528.2656 536.34628 540.29196 548.37258 556.24948 567.61288 571.55856 576.35067 584.3567 592.36276 596.47659 604.2634 608.2091 616.0287 623.9624 632.0431 635.9888 639.5149 647.4349 655.31179 663.13137 670.75009 674.69577 679.3972 687.40328 691.34896 695.9035 703.90957 711.52828 716.3204 724.19729 730.368">Mentored technicians on new tools and ideas to foster </tspan></text>
<text xml:space="preserve" transform="matrix(.75 0 0 .75 0 0)" font-size="14.6921" font-family="F1"><tspan y="355.36" x="375.52 380.31214 388.09895 396.03266 408.61564 412.43559 420.51625 426.68693 434.62065 446.08049 450.78193 458.86259">team growth </tspan></text>
<text xml:space="preserve" transform="matrix(.75 0 0 .75 0 0)" font-size="14.6921" font-family="F3"><tspan y="373.12" x="351.52">&#xf0b7;</tspan></text>
<text xml:space="preserve" transform="matrix(.75 0 0 .75 0 0)" font-size="14.6921" font-family="F4"><tspan y="373.12" x="358.24"> </tspan></text>
<text xml:space="preserve" transform="matrix(.75 0 0 .75 0 0)" font-size="14.6921" font-family="F1"><tspan y="373.12" x="375.52 384.92295 392.85667 397.11076 404.93028 413.13719 420.45457 428.24137 436.16133 440.10694 451.47038 459.40409 465.67405 473.31394 477.72157 485.65528 493.4748 501.2616 509.0484 512.86837 520.6879 528.00527 534.02908 542.0351 549.82199 557.4407 561.2606 569.0802 573.0259 577.818 585.6949 593.3348 605.9177 610.03158 617.9653 622.6211 626.5668 634.7943 638.74 646.8206 654.6074 662.54116 670.62179 674.8759 682.7528 686.57278 691.27426 699.20797 703.1536 715.7366 723.7426 730.0126 737.88949">Balanced workloads across a team of 4 people to more </tspan></text>
<text xml:space="preserve" transform="matrix(.75 0 0 .75 0 0)" font-size="14.6921" font-family="F1"><tspan y="390.72" x="375.52 383.3068 387.96266 392.6185 400.4053 407.7227 412.51484 416.33479 423.68083 431.46763 435.7217 442.81669 446.7623 454.07969 462.08573 474.574 482.65467 486.90876 494.69557 499.4877 507.36463 511.31025 522.7701 530.7038 536.8745 544.64389 548.58956 553.24539 561.2514 567.4221 571.53598 578.7351 586.5547 592.7254 596.4128 604.3465 612.5176 620.30447 624.1244 636.70736 640.3947 648.47537 652.1627 656.27658 664.26828 670.43899 678.3727 682.4865 690.1264 697.3255 702.1176 709.6106">effectively complete work for various mini projects </tspan></text>
<text xml:space="preserve" transform="matrix(.75 0 0 .75 0 0)" font-size="14.6921" font-family="F3"><tspan y="408.48" x="351.52">&#xf0b7;</tspan></text>
<text xml:space="preserve" transform="matrix(.75 0 0 .75 0 0)" font-size="14.6921" font-family="F4"><tspan y="408.48" x="358.24"> </tspan></text>
<text xml:space="preserve" transform="matrix(.75 0 0 .75 0 0)" font-size="14.6921" font-family="F1"><tspan y="408.48" x="375.52 384.92295 393.09397 396.78135 401.03544 405.82759 409.94136 417.76087 425.84153 429.78715 433.6071 441.68775 446.3436 454.2773 460.54728 473.13026 480.94978 485.6512 489.3386 497.2723 505.47923 509.42485 513.1122 521.3191 525.87368 532.1436 539.9632 547.5819 552.374 558.644 566.81509 574.1324 578.9245 587.0956 593.2663 601.1432 605.08889 609.881 618.0879 625.9075 630.46206 634.57589 645.9393 653.873 661.9537 666.2078 674.1278 678.0735 685.9504 694.031 701.8506 709.8423 714.09646 721.88327 725.9971 730.69857 738.90548 746.69229">Built an information infrastructure that would enable the </tspan></text>
<text xml:space="preserve" transform="matrix(.75 0 0 .75 0 0)" font-size="14.6921" font-family="F1"><tspan y="426.08" x="375.52 380.31214 388.09895 396.03266 408.61564 412.56126 420.49497 428.42869 436.50935 440.45497 444.14234 448.69688 456.48368 460.4293 468.421 476.2405 481.03266 487.20335 495.20939 503.29005 510.9087 514.8544 522.8604 531.0673 534.88729 539.44186 547.6129 552.405 560.5761 566.84609 574.6329 578.57858 583.37069 591.30447 598.92318 606.56307 614.18179">team and its patrons on future tasks </tspan></text>
<text xml:space="preserve" transform="matrix(.75 0 0 .75 0 0)" font-size="14.6921" font-family="F3"><tspan y="443.84" x="351.52">&#xf0b7;</tspan></text>
<text xml:space="preserve" transform="matrix(.75 0 0 .75 0 0)" font-size="14.6921" font-family="F4"><tspan y="443.84" x="358.24"> </tspan></text>
<text xml:space="preserve" transform="matrix(.75 0 0 .75 0 0)" font-size="14.6921" font-family="F1"><tspan y="443.84" x="375.52 379.48686 387.5675 395.3543 403.56123 408.26268 411.95005 416.6059 420.29328 428.08009 436.16075 440.10636 448.31327 456.13279 462.30345 470.3841 481.55009 489.3696 495.54026 503.41719 507.3628 515.5697 523.3565 531.2334 539.02029 546.8071 550.7528 558.5724 566.653 574.573 578.5187 586.5993 592.77 600.70376 608.1967 616.2774 622.54739 630.18728 638.26797 642.2136 650.29428 658.228 664.39877 672.47946 683.64547 691.465 697.48886 705.3657 709.3114 714.1035 722.10958 726.05526 734.13589 742.21658 745.90396 750.1581 758.07809">Identified hardware needs and procured hardware to build </tspan></text>
<text xml:space="preserve" transform="matrix(.75 0 0 .75 0 0)" font-size="14.6921" font-family="F1"><tspan y="461.44" x="375.52 380.31214 388.51905 396.30586 400.25148 405.0436 412.92054 420.74006 433.32304 437.26866 445.43968 453.43138 457.2513 461.90718 469.9132 476.1832 480.1288 487.4462 495.61723 501.88719 508.05784 515.93478 524.0154 528.8075 532.7532 540.57278 548.6534 556.7341 560.67977 565.3356 573.41629 578.2084 586.37948 592.6494 600.4362 604.55007 612.54177 618.71249 626.49929 630.6131 638.3999 645.7172 650.50936 658.0023">the team up for current and future projects </tspan></text>
<text xml:space="preserve" transform="matrix(.75 0 0 .75 0 0)" font-size="14.6921" font-family="F3"><tspan y="479.2" x="351.52">&#xf0b7;</tspan></text>
<text xml:space="preserve" transform="matrix(.75 0 0 .75 0 0)" font-size="14.6921" font-family="F4"><tspan y="479.2" x="358.24"> </tspan></text>
<text xml:space="preserve" transform="matrix(.75 0 0 .75 0 0)" font-size="14.6921" font-family="F1"><tspan y="479.2" x="375.52 384.9229 392.79985 400.8805 408.75743 415.02738 422.8469 427.63905 435.42585 443.5065 447.45213 458.81556 466.60237 474.47929 482.24858 486.6562 493.75117 497.42417 505.21098 509.9124 517.8462 522.54769 530.71878 538.21176 542.1574 548.42739 556.30429 564.29598 572.2297 578.49966 583.29177 590.91049 595.0243 602.958 611.1649 615.1106 619.9027 627.98336 635.8602 639.8059 648.0128 655.9466 668.52957 676.61019 684.397 690.66696 694.4869 702.4929 707.14877 711.0944 714.7818 722.56869 730.1874 738.26809 746.0549 753.6736">Generated weekly status reports on the number of issues </tspan></text>
<text xml:space="preserve" transform="matrix(.75 0 0 .75 0 0)" font-size="14.6921" font-family="F1"><tspan y="496.8" x="375.52 380.31214 388.24586 396.4169 403.73429 411.9412 419.728 427.80867 431.75428 439.83494 447.47483 455.09349 462.9704 470.7572 474.70283 482.70887 490.91578 494.8614 503.90766 513.4575 521.97897 529.0237 533.27786 536.80398 544.5733 552.4502 556.3959 564.31588 572.13546 576.8369 584.7707 592.7624 600.4023 608.021 615.8979 619.84359 627.92428 636.00497 643.88186 650.05258 653.7399 661.3798 669.1667 673.11239 677.7682 685.7019 691.97189 695.7918 700.5839 708.79086 716.57766">touched based on SQL-like database queries for the </tspan></text>
<text xml:space="preserve" transform="matrix(.75 0 0 .75 0 0)" font-size="14.6921" font-family="F1"><tspan y="514.4" x="375.52 382.83738 390.8434 403.4264 411.50706 419.32658 427.40724 434.5022 436.99986 444.78666 448.73228 452.41966 460.5003 465.29246 473.16938 479.34007 487.54698 495.3665 499.48027 503.59403 508.29548 511.98286 519.18197 527.1157 534.7556 539.4571 543.1445 551.3514 559.27139 563.3852 575.8735 583.69308 591.7737 599.59329 607.67398 615.46078 628.0437 635.9206 644.0012 648.7027 652.6484 660.43527 667.3405 675.1274 679.82888 687.61569 700.1986">company&#x2019;s internal ticketing management system </tspan></text>
<text xml:space="preserve" transform="matrix(.75 0 0 .75 0 0)" font-size="14.6921" font-family="F2"><tspan y="534.72" x="327.52 331.83866 340.98536 347.15605 355.16209 359.10054 366.97746 374.29484 379.08699 382.90693 390.69374 398.51325 402.8319 406.77754 415.73973 419.9938 427.92753 432.62898 437.28483 445.29087 451.46153 463.9498 468.06358 477.6407 485.28059 493.27229 497.52638 501.21376 508.53114 516.4649 521.1664 524.85379 532.8598 541.0667 544.88668 552.70626 560.78689 568.86758 572.81326 582.4549 590.2417 598.3223 606.2561 614.3368 618.2825 625.92239 633.5411 637.6549 645.4417 650.09756 654.0432 665.64999 673.46957 679.64028 686.9576 695.1645 698.98446 706.4774 714.70498 722.19796 727.0833">[Project 2a] Platform Replication and Debug as of March 2021 </tspan></text>
<text xml:space="preserve" transform="matrix(.75 0 0 .75 0 0)" font-size="14.6921" font-family="F3"><tspan y="552.48" x="351.52">&#xf0b7;</tspan></text>
<text xml:space="preserve" transform="matrix(.75 0 0 .75 0 0)" font-size="14.6921" font-family="F4"><tspan y="552.48" x="358.24"> </tspan></text>
<text xml:space="preserve" transform="matrix(.75 0 0 .75 0 0)" font-size="14.6921" font-family="F1"><tspan y="552.48" x="375.52 382.5934 388.76408 392.45146 400.27098 408.35163 416.13844 424.05839 428.17216 436.16386 442.3345 450.1213 458.20198 462.45606 470.33299 482.82127 490.4399 494.38554 505.84538 509.53276 514.23428 522.3149 526.26058 534.08016 537.9001 545.2174 553.22348 565.8064 573.887 577.5744 585.655 593.5888 598.2903 602.1102 610.04397 618.25088 622.19656 630.13027 634.6848 638.6305 643.2863 646.9737 651.22787 656.01998 663.89688 670.06759 677.6863 681.63198 689.45156 697.38528 705.46597">Triaged problems with a combination of filters and </tspan></text>
<text xml:space="preserve" transform="matrix(.75 0 0 .75 0 0)" font-size="14.6921" font-family="F1"><tspan y="570.08" x="375.52 382.83738 390.7711 395.47254 403.34947 411.2694 419.27546 425.54545 429.07157 436.3387 444.27244 448.97389 452.66127 460.6673 468.8742 472.81983 477.61198 485.39878 489.51255 494.06709 502.07313 509.3905 517.4712 525.0899 529.0356 536.9693 545.0499 548.9956 556.4886 562.6593 566.3467 571.1388 574.8262 582.1435 590.0773 594.1911 598.1368 606.2174 612.3881 620.39419 628.18099 632.5886 640.3754 652.9584 660.45138 664.5652 675.9286 684.0092 687.6966 691.95077 699.73757">categorization to focus on critical problems while </tspan></text>
<text xml:space="preserve" transform="matrix(.75 0 0 .75 0 0)" font-size="14.6921" font-family="F1"><tspan y="587.68" x="375.52 381.69065 389.56758 397.64823 405.72886 413.04624 416.7336 424.94053 432.86048 436.68043 444.76109 450.93174 458.93778 467.01844 471.27253 479.05934 491.5476 495.66139 502.97877 510.91249 519.08358 527.29049 531.84506">reducing problem count </tspan></text>
<text xml:space="preserve" transform="matrix(.75 0 0 .75 0 0)" font-size="14.6921" font-family="F3"><tspan y="605.44" x="351.52">&#xf0b7;</tspan></text>
<text xml:space="preserve" transform="matrix(.75 0 0 .75 0 0)" font-size="14.6921" font-family="F4"><tspan y="605.44" x="358.24"> </tspan></text>
<text xml:space="preserve" transform="matrix(.75 0 0 .75 0 0)" font-size="14.6921" font-family="F1"><tspan y="605.44" x="375.52 384.9229 392.79985 400.8805 408.75743 415.02738 422.8469 427.63905 435.42585 443.5065 447.45213 455.37208 463.54313 471.42005 477.59074 481.2781 489.15504 496.77369 500.7193 505.37516 513.3812 519.6512 523.59689 528.2527 531.94009 537.96389 545.75076 550.4522 554.56607 562.059 566.7605 574.6943 582.61428 590.25418 594.368 599.06948 605.3394 609.0268 616.8464 624.76638 632.55319 636.49887 644.3184 652.5253 660.4453 664.391 667.9171 675.9978 683.7846 691.9915 696.693 700.2191 704.87496 708.5623 715.87966 723.8134 728.5149 732.2023 740.2083 748.4152">Generated queries for first stage triage and identification </tspan></text>
<text xml:space="preserve" transform="matrix(.75 0 0 .75 0 0)" font-size="14.6921" font-family="F1"><tspan y="623.04" x="375.52 383.4537 388.10957 392.22334 400.21504 406.3857 414.31944 422.4001 426.65419 434.5311 447.01939 454.63804 458.58366 462.4036 470.48426 474.42988 480.69987 488.48667 496.56733 504.50105 510.77104 515.5632 519.25057 527.18429 535.10427">of problems in reporting </tspan></text>
<text xml:space="preserve" transform="matrix(.75 0 0 .75 0 0)" font-size="14.6921" font-family="F3"><tspan y="640.8" x="351.52">&#xf0b7;</tspan></text>
<text xml:space="preserve" transform="matrix(.75 0 0 .75 0 0)" font-size="14.6921" font-family="F4"><tspan y="640.8" x="358.24"> </tspan></text>
<text xml:space="preserve" transform="matrix(.75 0 0 .75 0 0)" font-size="14.6921" font-family="F1"><tspan y="640.8" x="375.52 384.6667 392.4535 398.72349 403.278 411.28407 417.55406 430.13703 438.01396 445.9339 449.87953 457.96018 462.07395 470.00767 474.7091 479.36497 487.371 493.64097 506.22395 510.04389 518.1245 524.2952 527.9826 536.06326 544.1439 551.18869 559.26937 567.35 571.29568 576.08779 583.8746 587.9884 594.1591 602.036 610.0277 614.28189 617.96926 625.16836 632.9879 637.78 645.56686 649.68069 657.50027 665.5809 673.50088 677.44656 681.1339 688.7526 696.68637 700.9405 708.7601 713.5522 721.339 725.4528 730.1543 738.0312 745.5242 750.3163">Performed platform bring-up to replicate and isolate test </tspan></text>
<text xml:space="preserve" transform="matrix(.75 0 0 .75 0 0)" font-size="14.6921" font-family="F1"><tspan y="658.4" x="375.52 382.83738 390.7711 398.38975 406.17655 409.9965 417.31388 425.31993 433.52684 441.44679 445.13417 449.9263 453.61369 461.61973 469.82664 477.3196">case conditions </tspan></text>
<text xml:space="preserve" transform="matrix(.75 0 0 .75 0 0)" font-size="14.6921" font-family="F3"><tspan y="676.16" x="351.52">&#xf0b7;</tspan></text>
<text xml:space="preserve" transform="matrix(.75 0 0 .75 0 0)" font-size="14.6921" font-family="F4"><tspan y="676.16" x="358.24"> </tspan></text>
<text xml:space="preserve" transform="matrix(.75 0 0 .75 0 0)" font-size="14.6921" font-family="F1"><tspan y="676.16" x="375.52 385.06986 392.94679 400.93849 409.01914 417.0998 425.01976 432.89668 440.68348 444.79725 452.4159 460.3496 465.00547 469.7976 480.9636 488.8973 495.06797 502.9449 506.8905 518.35037 522.0377 526.7392 534.9461 538.76608 543.55819 551.4919 559.4979 563.9056 571.5243 575.34426 579.5984 583.28579 591.21957 598.85946 602.8051 614.26498 617.95236 626.03298 635.5828 645.06668 654.4696 657.7983 661.9121 673.2755 676.80166 685.00857 693.9707 703.52059 713.07046 716.30276 720.41659 728.20339 735.54946 743.33627 751.54318 756.33529">Debugged software with tools like winDBG, winSDK, event </tspan></text>
<text xml:space="preserve" transform="matrix(.75 0 0 .75 0 0)" font-size="14.6921" font-family="F1"><tspan y="693.76" x="375.52 379.77409 387.78013 395.70008 403.31874 406.6474 410.59303 418.52674 426.46046 434.5411 438.48674 446.42045 451.2126 459.4195 467.2063 473.4763 477.29624 484.9149 492.92094 497.57679 502.36894 513.82876 521.6483 527.81906 535.4589 539.57278 544.27426 552.2803 560.2863 564.54049 572.1592">logs, and other software tools </tspan></text>
<text xml:space="preserve" transform="matrix(.75 0 0 .75 0 0)" font-size="14.6921" font-family="F3"><tspan y="711.52" x="351.52">&#xf0b7;</tspan></text>
<text xml:space="preserve" transform="matrix(.75 0 0 .75 0 0)" font-size="14.6921" font-family="F4"><tspan y="711.52" x="358.24"> </tspan></text>
<text xml:space="preserve" transform="matrix(.75 0 0 .75 0 0)" font-size="14.6921" font-family="F1"><tspan y="711.52" x="375.52 385.03257 393.23948 401.059 405.31309 412.40806 419.6752 427.462 435.38197 439.2019 446.5193 454.52534 462.606 470.3928 474.21275 482.21879 486.87464 490.82026 495.6124 503.8193 507.50669 513.67739 521.75808 528.8028 536.5896 544.4092 550.67916 555.3806 562.4756 566.42129 574.2081 582.14187 586.79769 591.5898 602.9532 610.77279 616.9435 624.8204 628.76608 636.75778 644.39767 652.1845 659.8244 667.7444 671.8582 679.79196 687.99887 691.9445 696.646 704.7266 712.5134">Analyzed code of third-party software based on the </tspan></text>
<text xml:space="preserve" transform="matrix(.75 0 0 .75 0 0)" font-size="14.6921" font-family="F1"><tspan y="729.12" x="375.52 381.69065 389.56758 397.18623 405.35728 409.7649 414.46635 422.085 426.0306 434.0223 440.19297 448.199 456.27967 464.2134 471.5308 479.4077 487.32768 491.44145 495.99598 502.26597 510.05278 522.63577 526.7496 534.6833 542.50289 548.7728 556.6928 568.15267 575.9722 582.14297 590.01986 593.8398 601.75979 609.63668 617.62838 625.79946 633.5863 641.667 645.3544 653.435 661.22189 665.3357 673.1553 681.2359 689.1559 692.9758 700.76266 708.1087 715.8955 724.1024 728.89456">results produced from hardware debugging and event </tspan></text>
<text xml:space="preserve" transform="matrix(.75 0 0 .75 0 0)" font-size="14.6921" font-family="F1"><tspan y="746.72" x="375.52 379.77409 387.78013 395.70008 403.19306">logs </tspan></text>
<text xml:space="preserve" transform="matrix(.75 0 0 .75 0 0)" font-size="14.6921" font-family="F3"><tspan y="764.48" x="351.52">&#xf0b7;</tspan></text>
<text xml:space="preserve" transform="matrix(.75 0 0 .75 0 0)" font-size="14.6921" font-family="F4"><tspan y="764.48" x="358.24"> </tspan></text>
<text xml:space="preserve" transform="matrix(.75 0 0 .75 0 0)" font-size="14.6921" font-family="F1"><tspan y="764.48" x="375.52 384.60929 390.87925 398.66606 406.59977 411.3012 419.17814 427.09809 430.91804 438.9987 446.7855 451.57765 459.51136 463.19874 467.45283 475.0927 483.17338 486.99333 494.91328 502.9193 510.2367 518.3174 530.9003 538.68716 546.89407 551.68618 559.50576 564.29788 567.9852 575.91897 584.12588 588.07156 596.0776 600.7334 604.6791 610.94906 618.73587 626.81649 631.0706 634.758 641.9571 649.7767 654.5688 658.25619 666.1899 674.3968 678.34249 686.16207 693.36117 698.15328 701.6794 709.02548 712.7128 717.50497 721.1923 728.9791 736.766 740.7117 745.5038 753.4375">Created detailed documentation of replication activities to </tspan></text>
<text xml:space="preserve" transform="matrix(.75 0 0 .75 0 0)" font-size="14.6921" font-family="F1"><tspan y="782.08" x="375.52 379.20738 386.82603 394.83207 399.08616 407.01988 411.812 419.59883 423.54444 427.07057 434.85737 442.476 450.64707 458.28697 465.9056 470.01939 474.72084 482.65455 486.60017 491.3923 499.5992 507.38603 511.0734 517.2441 521.3579 528.67526 536.46206 542.732 550.5188">isolate issues to their core </tspan></text>
<text xml:space="preserve" transform="matrix(.75 0 0 .75 0 0)" font-size="14.6921" font-family="F3"><tspan y="799.84" x="351.52">&#xf0b7;</tspan></text>
<text xml:space="preserve" transform="matrix(.75 0 0 .75 0 0)" font-size="14.6921" font-family="F4"><tspan y="799.84" x="358.24"> </tspan></text>
<text xml:space="preserve" transform="matrix(.75 0 0 .75 0 0)" font-size="14.6921" font-family="F1"><tspan y="799.84" x="375.52 385.0971 392.8839 397.29154 405.11106 412.20603 419.99284 427.91279 431.8584 435.67835 443.759 448.41487 456.34858 462.61857 475.10685 482.92637 487.7185 491.40589 499.3396 507.5465 511.49214 516.28427 524.2903 528.23599 531.7621 539.969 547.889 551.57638 558.9224 562.6098 570.6905 578.7712 586.59078 590.8449 594.7906 602.7823 610.716 614.4034 622.6103 627.16488 634.9517 638.8974 646.8311 651.48696 655.3069 662.6242 670.63027 678.83718 683.6293 691.26919 698.5865 703.3786 707.49246 712.1939 720.19998">Relayed information to individual points of contact to </tspan></text>
<text xml:space="preserve" transform="matrix(.75 0 0 .75 0 0)" font-size="14.6921" font-family="F1"><tspan y="817.44" x="375.52 383.3068 391.5137 399.13236 407.30339 413.57334 421.36015 425.30577 430.0979 438.3048 446.12434 450.91648 454.8621 461.13206 468.91886 473.32649 481.11329 488.45933 496.39305 504.4737 509.26585 513.08578 520.8726 528.8643 536.5042 543.82156 547.5089 555.3285 559.58267 563.27 570.763 575.5551 583.342 587.1619 594.9815 601.1522 609.0291 612.9748 616.6622 624.8691 632.21517 640.14889 644.5565 651.9026 659.5425 667.46249 671.2824">ensure that relevant specialists are involved  </tspan></text>
<text xml:space="preserve" transform="matrix(.75 0 0 .75 0 0)" font-size="14.6921" font-family="F3"><tspan y="835.36" x="351.52">&#xf0b7;</tspan></text>
<text xml:space="preserve" transform="matrix(.75 0 0 .75 0 0)" font-size="14.6921" font-family="F4"><tspan y="835.36" x="358.24"> </tspan></text>
<text xml:space="preserve" transform="matrix(.75 0 0 .75 0 0)" font-size="14.6921" font-family="F1"><tspan y="835.36" x="375.52 385.06986 392.94679 400.29283 408.07963 412.48725 420.42097 428.50163 436.28843 444.20838 448.32215 456.25587 464.33653 472.12333 480.20399 487.24873 494.86738 502.8011 510.97215 517.1428 524.46017 532.33706 536.157 544.09078 552.1714 560.2521 564.19778 572.18948 578.36019 586.3662 594.44686 600.61758 604.30496 612.09176 616.88388 624.8176 630.98837 638.0833 642.029 646.8211 654.82717 662.61398 667.0216 674.5146 678.46029 683.2524 691.2584 695.07839 702.95529 711.0359 719.2428 727.0624 735.2693 742.5866 750.3734">Developed open-source and proprietary tools to enhance </tspan></text>
<text xml:space="preserve" transform="matrix(.75 0 0 .75 0 0)" font-size="14.6921" font-family="F1"><tspan y="852.96" x="375.52 383.5117 387.76579 395.6995 400.40095 405.0568 413.06285 419.3328 431.82109 435.7667 443.7584 449.92906 453.749 461.82966 469.9103 476.81559 484.9866 492.9783 496.79826 501.5904 505.27778 517.8607 525.7376 529.55758 537.37716 545.45779 553.37777 557.3234 562.11557 569.99246 577.812 590.3003 594.246 602.3266 610.1134 616.38339 621.0392 628.9729 635.24288 647.8258 655.7596 663.8402 671.15756 678.94436">platform bring-up time and team performance </tspan></text>
<text xml:space="preserve" transform="matrix(.75 0 0 .75 0 0)" font-size="14.6921" font-family="F5"><tspan y="870.56" x="399.52">o</tspan></text>
<text xml:space="preserve" transform="matrix(.75 0 0 .75 0 0)" font-size="14.6921" font-family="F4"><tspan y="870.56" x="408.32"> </tspan></text>
<text xml:space="preserve" transform="matrix(.75 0 0 .75 0 0)" font-size="14.6921" font-family="F1"><tspan y="870.56" x="423.52 432.3008 439.89796 447.71748 460.20576 468.2864 472.5405 480.41743 483.64967 487.59529 495.60133 503.59303 511.37983 519.58676 523.5324 531.1511 539.15719 547.32827 553.5982 560.9155 568.5554 572.66928 580.30917 587.9063 592.6984 598.9684 606.78799 614.1053 618.8974 622.5848 630.6654 638.5854 642.53109 650.70217 655.49429 659.0204 663.27456 667.0945 671.79598 675.48336 683.27017 691.057 694.87698 702.1943 710.2003 718.1203 725.9071 733.8271">Example: open source extracting utilities coded </tspan></text>
<text xml:space="preserve" transform="matrix(.75 0 0 .75 0 0)" font-size="14.6921" font-family="F1"><tspan y="888.16" x="423.52 434.88343 438.5708 443.27226 451.47917 455.42478 463.3585 467.3041 474.6215 482.5552 495.13819 503.12989 506.81727 514.8979 522.83169 527.53317 531.2205 539.22659 547.3072 551.421 559.35476 563.9093 567.855 575.8467 582.94168 587.6431 595.85006 603.78378 611.99069 617.5504 625.5421 633.4758 644.93569 652.7225 658.8932 666.68008 674.7607 682.6376 686.8917 691.2994 696.7354 704.555 712.6356 720.7163">with a combination of python/powershell/and </tspan></text>
<text xml:space="preserve" transform="matrix(.75 0 0 .75 0 0)" font-size="14.6921" font-family="F1"><tspan y="905.76" x="423.52 431.5117 439.3312 444.12336 451.44075 459.5214">batch </tspan></text>
<text xml:space="preserve" transform="matrix(.75 0 0 .75 0 0)" font-size="14.6921" font-family="F1"><tspan y="923.36" x="327.52"> </tspan></text>
<text xml:space="preserve" transform="matrix(.75 0 0 .75 0 0)" font-size="14.6921" font-family="F2"><tspan y="943.52" x="327.52 331.83866 340.98536 347.15605 355.16209 359.10054 366.97746 374.29484 379.08699 382.90693 387.90223 392.2209 396.04084 405.73765 413.81828 418.6104 426.54414 439.32627 446.96617 451.6676 459.54454 467.62519 471.5708 478.64424 486.28413 493.90278 498.69493 502.64054 511.26353 519.08309 523.3372 527.0246 534.81149 542.63107 547.42318 551.11056 559.04428 567.25119 571.19686 579.0164 586.63516 590.5808 598.5145 603.17037 607.116 616.59988 623.79898 628.59109 636.5971 644.3839 652.2608 658.4315 662.54537 670.1353 678.24179 685.8317 693.76547">[Project 1] Automated Test Validation as of October 2020 </tspan></text>
<text xml:space="preserve" transform="matrix(.75 0 0 .75 0 0)" font-size="14.6921" font-family="F3"><tspan y="961.28" x="351.52">&#xf0b7;</tspan></text>
<text xml:space="preserve" transform="matrix(.75 0 0 .75 0 0)" font-size="14.6921" font-family="F4"><tspan y="961.28" x="358.24"> </tspan></text>
<text xml:space="preserve" transform="matrix(.75 0 0 .75 0 0)" font-size="14.6921" font-family="F1"><tspan y="961.28" x="375.52 385.0971 392.91664 401.12355 405.06916 412.6878 420.69386 425.3497 430.14186 441.50529 449.3248 455.49546 463.28227 467.22789 472.02003 479.80683 487.59364 492.14817 499.7668 503.88059 511.8143 520.02127 523.9669 531.1661 538.80599 545.0759 548.7633 556.697 564.8681 572.4868 576.60067 584.6813 592.61508 598.78579 606.86648 618.0325 625.85208 632.02279 639.89968 643.84536 651.92599 658.0967 666.1027 670.0412 677.9181 685.2354 689.9369 697.4299">Ran software tests on various hardware projects </tspan></text>
<clipPath id="cp1">
<path transform="matrix(.75,0,0,.75,0,0)" d="M 351.52 964.32 L 358.24 964.32 L 358.24 982.08 L 351.52 982.08 Z " fill-rule="evenodd"/>
</clipPath>
<g clip-path="url(#cp1)">
<text xml:space="preserve" transform="matrix(.75 0 0 .75 0 0)" font-size="14.6921" font-family="F3"><tspan y="979.04" x="351.52">&#xf0b7;</tspan></text>
</g>
<clipPath id="cp2">
<path transform="matrix(.75,0,0,.75,0,0)" d="M 358.24 965.76 L 375.52 965.76 L 375.52 982.08 L 358.24 982.08 Z " fill-rule="evenodd"/>
</clipPath>
<g clip-path="url(#cp2)">
<text xml:space="preserve" transform="matrix(.75 0 0 .75 0 0)" font-size="14.6921" font-family="F4"><tspan y="979.04" x="358.24"> </tspan></text>
</g>
<text xml:space="preserve" transform="matrix(.75 0 0 .75 0 0)" font-size="14.6921" font-family="F1"><tspan y="979.04" x="375.52 384.14299 391.9625 396.21659 399.90397 407.8239 415.64344 420.34489 428.2218 436.0086 440.12239 446.29307 454.07987 461.86668 469.9473 474.35493 478.90946 486.69627 490.64189 495.1964 501.4664 509.40013 521.9831 525.9288 530.7209 538.3608 546.14767 550.8491 558.636 562.58169 570.5154 578.596 582.5417 590.7486 598.5682 604.7389 612.8196 624.183 632.00259 638.1733 645.8132">Validated results from tests on hardware </tspan></text>
<path transform="matrix(.75,0,0,.75,0,0)" d="M 316.64 48 L 319.52 48 L 319.52 982.24 L 316.64 982.24 Z " fill="#336699"/>
<path transform="matrix(.75,0,0,.75,0,0)" d="M 316.64 982.24 L 768 982.24 L 768 983.52 L 316.64 983.52 Z " fill="#336699"/>
</g>
</svg>
