<?xml version="1.0" encoding="UTF-8" standalone="no"?>
<!DOCTYPE svg PUBLIC "-//W3C//DTD SVG 1.1//EN" "http://www.w3.org/Graphics/SVG/1.1/DTD/svg11.dtd">
<svg xmlns="http://www.w3.org/2000/svg" xmlns:xlink="http://www.w3.org/1999/xlink" version="1.1" width="612pt" height="792pt" viewBox="0 0 612 792">
<g enable-background="new">
<text xml:space="preserve" transform="matrix(.75 0 0 .75 0 0)" font-size="14.6921" font-family="F2"><tspan y="109.92" x="96 103.63989 107.01162 113.92724 120.84286 128.15305 133.89933 138.8206 142.1421 150.07584 157.71573 163.29874 170.60892 175.73107 182.48944 189.39473 194.24314 197.61486 205.54859 213.18848 216.42075 226.9233 233.96088 239.70716 242.93943 247.78783 255.50691 262.5445 267.4658 270.7873 282.52378 289.56135 297.20124 303.9596 307.19184 314.9396 319.42329 322.74479 327.66609 335.30598 342.61616 345.93766 353.57756 356.94929 363.8649 370.78053 378.0907 383.21287 386.53437 392.28065 399.92054 406.13313 412.1569 419.46708 425.21336 430.95964 438.2698 444.01609 447.24833 457.7509 465.06108 470.0564 477.36659 480.68809 485.60939 493.24928 500.55946 503.88096 511.60005 516.72219 524.47 532.1891 539.9082 545.93197 550.8532 554.17477 561.92257 566.4062 569.7277 575.3107 587.21139 594.24899 597.62069 600.9924 604.3139 609.1623 616.4725 623.3778 635.11428 640.86056 644.18209 651.9012 659.5411 662.9128 666.2845 673.9244 677.2961 685.0152 691.9308 695.1631 702.8822 710.5221">biggest observation was that many of the bigger successes were the product of small teams building up </tspan></text>
<text xml:space="preserve" transform="matrix(.75 0 0 .75 0 0)" font-size="14.6921" font-family="F2"><tspan y="129.28" x="96 100.92129 108.85502 112.08728 119.80637 123.1781 130.09372 136.85208 144.34505 149.34037 152.57263 157.49391 164.8041 171.70938 183.60997 189.35625 192.67775 199.71533 207.35523 215.07431 218.30658 225.61676 232.25261 239.56279 247.20269 252.05109 259.69099 266.72856 270.10029 273.47203 280.12223 283.44374 288.2921 296.0399 299.27214 311.17274 318.4829 325.39854 332.4361 335.80784 339.0401 343.9614 351.68049 357.42677 360.659 368.40678 372.89045 376.12269 381.86897 389.8027 396.0153 399.24757 406.55775 411.25923 418.01759 421.7265 425.048 428.3695 437.52339 445.16328 455.66584 458.98735 464.12959 471.76948 478.67475 483.52314 486.84465 491.9668 499.45979 502.8315 509.58988 514.5111 522.0041 527.5871 530.9086 535.757 543.5048 546.82638 551.7476 559.46676 562.83847 568.5847 571.817 578.0296 581.4013 588.4389 594.1852 599.93148 603.253 613.75558 620.6609 626.40719 629.7287 634.64999 642.3691 649.4067 654.25509 657.5766 662.49789 670.217 677.52719">to bigger teams and eventually to megaliths of society.  How that relates to this class was that the </tspan></text>
<text xml:space="preserve" transform="matrix(.75 0 0 .75 0 0)" font-size="14.6921" font-family="F2"><tspan y="148.64" x="96 103.63989 108.76205 116.69578 122.908359 130.21854 135.96482 141.54782 144.86933 152.80306 157.06377 160.38527 168.10436 175.74425 186.2468 189.5683 194.48958 202.12947 209.87726 215.7541 223.06429 226.29656 232.04283 239.68273 246.00034 252.21292 259.41206 265.15834 270.9046 275.31224 282.95213 286.32386 289.64537 294.56666 302.05964 308.9649 320.7014 326.44767 329.6799 340.18247 347.49266 352.48799 359.79817 363.11967 370.83876 378.55784 381.92958 385.3013 390.2226 393.5441 401.184 408.90309 412.22459 417.07298 424.82075 428.14225 435.86134 443.1715 446.40376 452.28059 459.92048 466.13307 473.77296 477.09446 484.01008 489.13224 496.4424 503.47999 508.32838 511.64988 517.3961 525.036 531.35366 537.3774 544.68759 550.5644 556.31069 563.62088 569.20388 572.43618 582.9387 589.9763 595.7226 599.0441 606.0817 610.9301 614.25167 619.1729 626.892 634.2022 637.4345 644.7447 652.3846 660.1037 663.42526 671.35897 675.6196 678.94119 683.8624 691.58157 698.8917">process of how those successful teams were built up to be such great successes was at the end of the </tspan></text>
<text xml:space="preserve" transform="matrix(.75 0 0 .75 0 0)" font-size="14.6921" font-family="F2"><tspan y="167.84" x="96 103.63989 110.67747 117.43584 120.75734 127.794918 131.11641 138.8355 143.83081 151.5786 159.21849 166.93758 173.25519 178.10359 181.33586 189.26959 193.67723 196.99874 201.92002 209.5599 216.87009 220.19159 227.83148 232.95363 239.99121 247.6311 255.35019 258.87629 262.19779 268.51539 276.15528 287.89176 299.62825 307.26814 314.9872 318.35896 323.28025 330.0386 333.5647 336.8862 343.92378 351.56367 359.20356 362.52507 368.84266 376.48255 384.4163 387.78804 393.8118 401.12199 406.86827 410.1005 417.84828 422.2559 425.5774 430.4987 438.21778 445.52796 448.84947 452.2212 459.94029 467.58018 470.9519 477.71028 481.082 488.7219 496.3618 503.39936 506.7711 512.51736 515.74966 526.2522 533.8921 541.6399 544.9614 555.464 562.7742 567.7695 575.07968 578.4012 583.2496 590.9687 598.2789 601.6004 608.2793 615.5895 622.34786 625.6694 633.30929 636.68099 643.71859 650.3687 657.5679 662.69 668.4363 671.6686 682.17117 685.54287 690.4641 698.1832 701.55496 709.1948">day a product of the brand, community, and choices of the individuals who were the key players within </tspan></text>
<text xml:space="preserve" transform="matrix(.75 0 0 .75 0 0)" font-size="14.6921" font-family="F2"><tspan y="187.2" x="96 101.74628 109.38617 115.70377 123.343669 126.66517 134.59889 139.59421 146.50983 153.54741 161.1873 164.55902 170.28894 177.32653 182.2478 185.48006 193.41379 201.05368 206.79996 210.50885 213.83036 217.15186 220.85358 225.77486 229.00713 239.50968 246.54726 252.29354 255.5258 262.5634 266.971 271.8923 279.38529 284.3806 287.70213 292.69746 300.19044 307.0957 314.8148 318.18653 325.82643 332.74205 336.06355 340.98484 348.70393 353.82609 361.57386 369.29295 376.20857 383.84846 387.16996 392.09126 399.73115 407.04133 410.36283 413.5951 420.90528 426.65156 432.39784 440.33158 447.97148 453.55445 456.87596 461.35963 466.48179 474.12168 486.02229 489.25453 497.0023 504.64219 509.76435 513.0859 516.3182 523.62838 529.5052 535.25149 542.99929 550.49227 553.8138 557.3399 564.9798 568.30136 574.3251 582.2588 593.86557 605.7662 613.40609 621.04598 624.41769 629.26608 636.0244 639.34597 644.2672 651.9071 658.9447 663.7931 667.1146 670.4863 675.4076 678.7291 683.7244 691.0346 698.0722 701.4439 704.8156 711.574">such organizations.  It was after reading through the lessons from our lesson in community that it really </tspan></text>
<text xml:space="preserve" transform="matrix(.75 0 0 .75 0 0)" font-size="14.6921" font-family="F2"><tspan y="206.56" x="96 103.63989 110.67747 121.18002 128.89911 136.20929 143.92838 147.24988 154.88977 162.60886 170.35665 178.07573 181.308 193.20859 200.40772 203.63999 208.56127 216.28035 223.31793 228.23921 231.47148 236.39276 244.11185 251.42203 257.005 264.498 267.73023 273.60707 281.24696 287.45954 293.4833 300.7935 306.67033 312.4166 319.72679 325.30976 328.63127 339.13383 346.6268 351.62214 358.9323 362.2538 367.24916 374.55934 381.5969 384.96864 388.34037 394.07029 401.38047 409.02037 412.34187 419.98176 427.29194 433.60954 440.5148 448.2339 453.98017 461.29035 464.52259 469.44389 477.16297 484.47315 491.12336 494.3556 504.787 512.09719 517.2193 524.5295 527.851 535.5701 543.28927 546.66098 550.03268 554.9539 558.27548 565.76846 572.5268 575.8483 583.4882 590.7984 598.5462 606.2653 609.637 616.8362 620.1577 630.6603 638.3794 646.0193 649.3408 657.05996 664.09756 671.7374 675.05899 680.9358 685.7842 690.7795 698.7132 706.3531 713.2687">dawned upon me that these successes were realized because they were built by people who had strong </tspan></text>
<text xml:space="preserve" transform="matrix(.75 0 0 .75 0 0)" font-size="14.6921" font-family="F2"><tspan y="225.92" x="96 103.037578 110.67747 118.31736 121.63886 129.35796 132.72968 139.48805 146.79824 151.92038 157.66666 164.86579 168.18729 175.90637 183.65416 190.69174 195.81389 203.53298 209.11598 212.43749 220.15657 227.46675 230.83847 238.47837 241.85009 249.56917 256.4848 259.71705 264.63835 272.57209 275.80433 282.0169 287.13908 294.17665 298.58427 303.50556 306.7378 311.6591 319.37818 326.68836 330.00987 336.32746 343.82044 351.5682 355.09434 361.1181 368.42829 374.17457 377.49607 382.34446 390.09223 393.41374 396.78547 404.09565 411.1332 418.7731 422.0946 427.0159 434.94966 438.1819 443.03028 450.74937 458.05955 461.38105 467.12733 474.8751 478.24684 485.88673 490.808 494.04029 501.78807 509.50715 515.2534 518.4857 530.38638 537.42398 545.06387 552.374 555.9001">and diverse boards helping to craft the choices to lead to the solutions made. </tspan></text>
<text xml:space="preserve" transform="matrix(.75 0 0 .75 0 0)" font-size="14.6921" font-family="F2"><tspan y="255.84" x="96 105.268657 113.01644 116.38817 124.10726 131.02288 134.34438 138.75202 146.68575 151.53414 162.03668 169.23581 174.35796 181.99785 185.66371 188.89598 193.74439 201.49217 204.81368 211.13129 218.87908 226.37204 231.29332 234.66504 242.38413 250.02402 257.22315 260.54466 263.91639 271.63548 274.95698 279.87828 287.59736 290.9691 296.71537 300.03688 307.07444 312.1966 319.50679 326.41206 330.07789 333.39939 337.1011 340.33335 350.8359 354.20765 357.57939 360.9511 364.2726 371.9125 379.2227 386.71568 394.35557 397.5878 402.4362 410.18397 413.50547 419.71806 427.46583 435.1057 440.852 444.22373 451.86363 459.1738 464.29597 467.5282 474.28657 481.59675 486.59208 493.35044 496.58268 502.4595 509.65864 514.65396 518.02566 525.95938 533.59927 539.3455 542.5778 549.3362 552.5685 563.07107 570.71096 578.45877 581.69107 585.06277 589.984 593.30557 596.67727 602.5541 605.7864 610.70767 618.42678 625.46438 630.31277 633.6343 637.336 640.65756 648.2974 655.6076 663.1006 670.59359 673.9151 677.2868 684.9267 688.2482 699.9847 706.74307">Going forward, to continue in this area, I will need to consider very seriously who it is that I need in my </tspan></text>
<text xml:space="preserve" transform="matrix(.75 0 0 .75 0 0)" font-size="14.6921" font-family="F2"><tspan y="275.2" x="96 103.63989 111.57362 118.6112 123.606517 131.3256 134.99147 138.31298 145.35056 153.06964 160.70954 164.03104 168.95232 176.6714 183.98159 191.62148 194.85375 200.73059 208.04077 215.2399 221.91878 225.24028 230.16156 237.80146 245.54924 251.29552 258.49467 261.81617 269.53526 276.84544 284.77919 292.41908 295.7908 302.98994 306.31144 314.0592 321.7783 326.62669 329.94819 336.98576 344.62565 352.34474 355.66624 359.03797 366.34815 373.3857 378.50788 386.14778 389.46928 393.95295 398.94828 406.69606 418.43254 421.66477 426.58607 434.30516 441.61534 453.51594 457.04206">board, and then seek those people out and learn from them. </tspan></text>
<text fill="#2f5496" xml:space="preserve" transform="matrix(.75 0 0 .75 0 0)" font-size="21.2397" font-family="F1"><tspan y="316.8" x="96 105.61387 114.978839 126.01353 132.99318 144.02787 154.52327 162.73706 167.6222 175.98117 186.38863 191.19037 198.17003 209.20471 219.70012 224.50186 235.12172 246.1564 253.13607 260.45796 270.95335 282.2104 289.4319 299.92729 310.96199 321.45738 332.71443 339.9359 344.62358 354.62117 359.3088 364.11058 382.0523 386.93745 397.97215 409.2292 417.30027 427.79566 434.7753 439.57707 454.65727 459.11759 466.33909 477.17134 481.97309 493.01774 503.42518 510.74708 519.243 530.31918 541.15139 551.34646 556.0341 560.8359 571.03097 582.0656 593.1003 597.773 608.55886 615.88076 627.13778 633.48477 643.98019 652.194 660.4078 665.2929 676.3691 687.2013 697.39639 702.08407">Synthesize the Entrepreneurial Mindset with Personal and Professional </tspan></text>
<text fill="#2f5496" xml:space="preserve" transform="matrix(.75 0 0 .75 0 0)" font-size="21.2397" font-family="F1"><tspan y="344.96" x="96 109.32667 120.40284 130.40044 135.0881 143.30188">Goals </tspan></text>
<text xml:space="preserve" transform="matrix(.75 0 0 .75 0 0)" font-size="14.6921" font-family="F2"><tspan y="366.72" x="96 102.75062 106.122348 111.11766 116.99451 121.8429 125.164409 132.36353 140.00342 147.64331 150.96482 155.44849 163.38222 168.2306 175.42974 187.33032 195.07811 200.82439 205.67279 209.33866 212.66016 216.03188 220.51555 223.83705 227.53878 230.77104 241.27359 248.31118 255.80416 260.72544 264.04695 268.89533 276.82908 280.15058 287.79048 294.82804 301.46388 308.77406 312.09556 319.13313 322.36537 333.97215 341.90589 347.02806 354.33824 357.65974 360.892 372.62849 380.34757 387.38514 393.4089 398.3302 402.81388 410.53297 413.9047 417.13694 424.77684 429.899 437.20918 442.95545 450.26564 457.9847 464.3023 471.50144 474.73368 485.23625 488.76237 493.61076 501.32984 504.56208 516.1688 522.9272 526.2487 533.5589 541.278 546.1993 551.1946 558.50479 566.2239 571.346 578.54519 586.18508 593.49526 601.21438 606.3365 609.7082 616.7458 620.1175 623.3498 635.2504 638.62216 646.262 653.9019 659.77877 666.9779 671.8263 675.4921 678.81369 682.6336 685.95516 693.59506 700.7942 708.1044 715.8235">First and foremost, if I want to have a more impactful presence with my entrepreneurial mindset, I need </tspan></text>
<text xml:space="preserve" transform="matrix(.75 0 0 .75 0 0)" font-size="14.6921" font-family="F2"><tspan y="386.08" x="96 100.92129 108.85502 112.08728 117.082599 124.39278 131.5919 138.35028 145.38787 148.75959 156.39948 163.43706 168.35834 175.55747 178.87897 189.38152 197.1006 204.13819 208.98659 212.30809 215.67981 220.60109 223.92259 227.29431 233.17116 236.2565 241.17778 248.89687 255.80216 260.72346 264.04496 267.4167 273.29353 276.37886 288.27946 295.0378 298.27006 305.90995 316.4125 324.0524 327.3739 335.093 342.40318 347.52534 353.1083 361.04206 368.68196 375.7195 379.09126 382.41276 390.05265 395.1748 402.21238 409.85227 417.49217 421.20109 424.43333 427.75483 435.1009 442.74079 450.38069 456.12696 459.44847 463.93214 470.9697 476.09187 479.7577 483.0792 486.6053 489.9268 497.64588 504.68345 511.4418 518.75198 526.39187 529.91799 534.83926 538.16079 545.8799 552.9175 560.6366 563.9581 570.9957 574.228 580.2518 588.1855 595.8254 602.03799 607.1601 614.4703 619.31869 626.62887 629.86117 636.6195 639.8518 645.72866 649.10037 656.84817 664.3411 667.66268 675.5964 680.00399 683.23629 693.73886 701.45797 708.49557 713.4168">to reevaluate what it is that is my own personal brand.  Thus far, I haven&#x2019;t had a concrete vision of what </tspan></text>
<text xml:space="preserve" transform="matrix(.75 0 0 .75 0 0)" font-size="14.6921" font-family="F2"><tspan y="405.28" x="96 107.900608 114.36513 117.68663 125.40572 132.71591 137.83806 143.42107 151.3548 158.99469 166.03227 169.40399 172.7255 180.36539 185.48754 192.52512 200.16501 207.8841 211.2056 214.57732 220.3236 223.6451 230.68268 238.40177 246.04166 249.27393 259.7765 267.49559 274.53315 279.45445 282.77595 286.14768 291.06898 294.39048 297.62275 303.49958 306.7318 311.6531 319.3722 326.40977 331.25816 334.57966 338.28138 341.60289 352.10545 359.143 366.636 371.55729 374.87879 379.80009 387.54786 390.86936 398.58845 405.78758 409.0198 414.14198 421.45216 433.18864 440.4988 452.3994 459.8924 467.20259 472.32475 479.63493 487.2748 490.5963 498.3154 505.07377 508.59989 511.9214 515.2429 525.0867 532.72659 538.93917 546.1383 549.45986 553.2798 556.5121 562.8297 569.73507 577.37496 580.6965 585.1801 588.5518 595.4674 603.1073 608.22946 615.5396 618.86117 623.7824 631.5015 638.5391 643.4604 646.6927 654.4405 662.1596 667.0809 670.7467">my personal brand is and what it is that I want to be remembered by.  Once I can figure that out, </tspan></text>
<text xml:space="preserve" transform="matrix(.75 0 0 .75 0 0)" font-size="14.6921" font-family="F2"><tspan y="424.64" x="96 103.63989 111.358989 114.73071 118.10244 125.74233 129.11406 136.75395 143.66957 146.99108 154.73886 162.45795 167.37923 170.70073 177.73831 181.05982 187.2724 195.02019 206.75664 218.49309 226.21218 233.85207 237.22379 242.07219 248.72237 251.95464 262.45719 265.82893 269.20066 272.5724 275.8939 281.91767 289.8514 301.4582 308.76838 312.08988 319.58287 326.48814 332.2344 335.60615 342.91633 348.03849 351.7474 354.97966 358.30116 361.82725 366.74855 370.27464 377.91453 384.9521 390.69837 394.0701 400.28269 407.32026 410.692 413.77735 420.5357 423.8572 427.22895 434.53913 441.5767 449.29579 455.04206 458.36357 461.7353 469.22828 474.14958 482.0833 485.31556 490.16395 497.88304 505.1932 508.42546 518.928 526.6471 534.3949 537.6272 544.9374 548.2589 551.78506 559.4249 566.7351 573.7727 577.005 584.7528 589.23648 592.558 600.2771 607.917 618.41958 621.7411 626.8833 634.3763 641.68649 645.008 651.2206 658.9684 666.6083 672.9259 680.2361 687.876 692.72439 698.47067 701.70297 709.45077 713.9344">building out a community will come easier.  It basically leads into the whole idea of how the concepts of </tspan></text>
<text xml:space="preserve" transform="matrix(.75 0 0 .75 0 0)" font-size="14.6921" font-family="F2"><tspan y="444" x="96 102.21258 109.85247 117.7862 121.15793 127.37051 134.6807 138.2068 141.5283 149.46204 157.10193 164.5949 172.34268 177.46483 182.38611 190.1052 197.82428 201.196 206.11728 212.76746 216.29357 219.61507 226.65265 232.97026 237.89154 241.1238 248.87158 256.51148 260.1773 263.4988 270.1777 277.8176 285.56538 296.06794 299.43968 306.74986 314.38975 321.30537 328.61555 332.14164 335.46315 345.9657 353.45869 360.49626 363.72853 368.5769 376.296 379.96183 383.28334 391.0024 396.12458 403.16215 410.80204 418.295 421.96086 425.28236 432.31993 440.039 447.6789 451.0004 457.318 464.9579 476.69438 488.43086 496.14994 503.78984 507.16157 512.0828 518.733 521.9653 529.00289 534.125 541.4352 544.7567 548.28286 555.9227 560.7711 568.0813 573.2034 577.9049 588.4075 591.7792 599.4983 606.8085 614.5276 618.23648 621.558 624.8795 628.58126 633.0649 636.3864 640.08816 643.32046 655.0569 662.0945 668.70596 676.0161 679.33767 686.37527">choice, opportunity, action, knowledge, wealth, brand, and community are intertwined.  If I make a </tspan></text>
<text xml:space="preserve" transform="matrix(.75 0 0 .75 0 0)" font-size="14.6921" font-family="F2"><tspan y="463.36" x="96 102.21258 109.85247 117.7862 121.15793 127.37051 134.56964 137.89115 141.26287 148.90276 152.22426 162.7268 170.44589 177.48348 182.33188 185.65338 192.33226 195.70398 203.34387 211.06296 214.29523 222.04302 226.52669 229.84819 237.56728 242.68943 249.727 257.22 264.8599 268.1814 272.00135 275.32286 285.8254 292.86299 300.50288 305.42417 308.6564 313.5777 321.51145 324.83296 332.32594 339.6361 342.9576 348.83445 356.03358 363.34376 370.98365 374.30516 381.50428 387.25056 390.77665 394.00889 397.7106 401.0321 407.3497 414.25498 421.89488 425.21638 432.93547 440.57536 443.94709 447.31883 454.9587 458.2802 463.2015 471.13526 481.63783 488.67539 493.79756 501.43745 507.02043 510.34193 515.2632 522.9823 530.0199 534.94119 538.4673 541.6996 549.3395 556.64968 563.68728 567.05899 570.29129 575.28659 582.59677 589.5123 596.5499 601.67208 609.31198 612.68368 619.99386 625.87069 631.61697 634.70236 642.63607 647.04367 650.3652 658.00509 665.75289 676.25546 679.48776 691.38839 699.02828 705.3459 712.9858">choice in what kind of brand I want to be seen as, I can build towards that ideal regardless of how much </tspan></text>
<text xml:space="preserve" transform="matrix(.75 0 0 .75 0 0)" font-size="14.6921" font-family="F2"><tspan y="482.56" x="96 99.70171 103.02322 114.92382 121.68218 128.44055 131.76206 137.6389 142.4873 150.1272 161.86365 169.50354 172.87526 180.18544 183.41771 193.92026 201.63935 205.01107 208.38278 215.69297 219.01447 225.93009 233.12921 238.05049 242.97177 246.34349 253.98339 260.74177 264.06327 268.98457 276.70365 284.01383 289.136 296.62898 300.1551">I may stumble while getting there. </tspan></text>
<text fill="#2f5496" xml:space="preserve" transform="matrix(.75 0 0 .75 0 0)" font-size="21.2397" font-family="F1"><tspan y="524.32" x="96 108.89109 119.38648 136.37825 147.2105 158.46755 166.68134 173.661 180.98288 191.17795 198.15761 208.65302 213.45476 224.8213 232.14319 236.83086 243.81052 248.49819 257.53129 267.72636 272.414 277.21577 287.483 298.5177 303.20536 314.24006 323.7979 328.25825 339.5153 349.4714 354.14414 364.3392 375.3739 386.4086 391.08134 402.12599 409.44789 420.70494 431.73963 436.42729 446.92268 463.7236 470.2262 479.99647 491.07264 495.76029 505.1045 509.79216 520.82687 530.78298 535.5847 545.355 554.7199 559.4076 564.2927 568.75308 577.24899">Demonstrate Critical Thinking and Problem-Solving Skills </tspan></text>
<text xml:space="preserve" transform="matrix(.75 0 0 .75 0 0)" font-size="14.6921" font-family="F2"><tspan y="546.08" x="96 103.15953 110.79942 118.29239 121.52465 129.01763 136.65752 141.5788 146.57411 153.8843 161.52419 166.64633 173.95652 181.6756 188.98578 196.70487 201.82701 205.19873 212.23632 215.60803 218.69338 230.59397 233.96569 241.60558 249.24547 254.82848 262.32148 267.16987 270.49137 273.8631 279.73994 282.97218 286.20445 291.12574 297.00257 304.31275 307.68449 312.0921 315.4136 322.31889 325.64039 333.35948 338.48164 346.12153 352.43913 359.7493 365.49559 371.24186 374.4741 382.22187 386.70555 389.93778 396.25538 401.2507 404.62245 409.54374 412.776 419.0936 426.13117 429.5029 432.73515 437.65644 445.37553 448.74726 456.38716 463.06605 466.43778 474.15687 481.07249 484.39399 491.43156 499.07145 506.71134 510.03285 517.75198 522.8741 530.8078 538.4477 541.8194 549.01858 560.6253 563.94686 569.6931 577.4409 580.8126 587.571 590.8033 598.5224 605.438 609.14688 612.37918 615.61148 622.77096 630.49008 637.80026 641.12179 648.8409 653.8362 661.584 667.9016 675.2118 680.7948 686.5411 689.8626 697.7963 702.057">The entrepreneurial mindset is itself a process of critical thinking and problem solving.  The process of </tspan></text>
<text xml:space="preserve" transform="matrix(.75 0 0 .75 0 0)" font-size="14.6921" font-family="F2"><tspan y="565.28" x="96 107.900608 114.93818 121.54962 124.92135 132.56125 139.47687 142.79837 149.83596 153.06822 159.2808 166.9207 174.85443 178.22615 184.24993 191.5601 194.8816 199.80289 207.52198 214.42726 219.34854 222.67005 229.70763 233.07935 236.45107 243.36669 251.00658 256.58958 259.91108 270.41365 273.93977 278.78816 286.50724 289.82875 294.75004 302.38993 309.7001 313.0216 320.6615 324.03324 330.94886 337.86448 345.17466 350.2968 353.61833 361.2582 368.5684 373.56373 379.31 387.24375 394.88365 401.9212 405.29295 408.37828 420.11476 423.48649 429.23277 434.97904 438.35078 446.09855 453.81764 457.13914 464.1767 471.8166 479.53569 482.7679 489.40376 492.77549 498.52177 501.8935 509.64128 517.36038 520.59268 528.34048 532.8241 536.1456 543.05099 546.3725 554.0916 561.4018 566.5239 572.2702 579.9101 587.55 590.8715 598.5114 601.8831 608.20077 613.04916 620.08676 625.008 632.501 638.084 641.4055 646.3268 654.0459 661.0835 666.00479 669.3263 676.3639 683.8569">making a choice that aligns with the bigger personal mission and vision of a person dictates that an </tspan></text>
<text xml:space="preserve" transform="matrix(.75 0 0 .75 0 0)" font-size="14.6921" font-family="F2"><tspan y="584.64" x="96 99.37173 107.01162 114.65151 118.02324 124.78161 128.15334 135.79323 143.43312 150.4707 153.84243 157.16393 163.48154 171.22933 178.94841 184.69469 188.0664 195.7063 203.01648 208.13863 213.8849 217.11717 222.03845 229.75754 237.06772 240.38922 243.62148 255.35793 262.99784 266.36958 269.7413 275.9539 282.99147 287.91276 291.2845 299.03227 306.75135 312.49763 315.72987 323.47764 327.9613 331.19355 338.50373 345.5413 351.8589 359.49879 362.82029 370.31327 378.247 383.1683 390.4785 398.19758 403.11888 406.4906 413.52818 416.76045 420.08195 426.29454 433.93443 441.86817 445.10044 451.31303 458.6232 461.9447 468.98228 474.72856 477.9608 482.80918 490.52827 497.83845 504.48866 507.7209 519.45736 526.49496 533.1738 540.373 543.6945 548.6158 556.3349 563.6451 567.0168 572.1389 575.3712 581.5838 589.2237 597.1574 600.5291 606.7417 614.0519 619.6349 622.9564 629.169 636.9168 644.5567 650.303 656.6206 659.8529 667.7866 675.4265 681.1728 684.4051 691.16348 694.8723 698.1046 701.3369 708.4964 716.1363">individual considers the implications of each potential choice as they make their choices consciously.  To </tspan></text>
<text xml:space="preserve" transform="matrix(.75 0 0 .75 0 0)" font-size="14.6921" font-family="F2"><tspan y="604" x="96 103.74779 110.38362 117.6938 122.815959 128.83972 136.77346 148.3802 155.69039 159.01189 166.21102 173.8509 180.50109 183.73336 190.05097 197.69086 204.72844 208.10016 211.47188 218.78206 226.42195 233.33757 240.64775 246.23076 249.55226 256.45756 259.82929 267.57707 275.29615 282.21177 285.53327 290.45457 298.17366 305.48384 308.71607 319.21864 326.2562 332.9064 336.13865 340.98704 348.7348 352.0563 356.9776 364.6967 372.00688 375.32838 382.08674 385.45848 391.20475 394.2901 402.22386 409.86375 413.52958 416.7618 423.79939 431.43928 434.76078 438.1325 445.7724 453.4915 456.86323 463.62159 466.85386 474.57295 482.21284 489.2504 492.62214 495.94364 507.84425 515.48416 521.2304 526.0788 529.4003 536.7105 543.0737 550.3839 555.50607 561.7186 565.09036 570.8366 578.03579 581.3573 588.9972 594.1193 601.8671 609.58627 612.95797 620.1571 632.05776 635.3793 640.9623 648.7101 652.0818 658.84017 662.21188 669.85177 676.76736 680.08889 685.6719 692.35079 695.7225 699.0942 702.4659 708.21218">overcome any challenges along the way to the vision, an individual must exercise problem solving skills </tspan></text>
<text xml:space="preserve" transform="matrix(.75 0 0 .75 0 0)" font-size="14.6921" font-family="F2"><tspan y="623.36" x="96 103.037578 110.67747 118.31736 121.63886 128.31775 136.03684 143.97057 154.47312 157.70537 165.01555 172.65544 179.57106 186.88124 190.20275 197.11837 204.15595 209.07723 216.79631 223.99544 229.11759 232.4893 240.1292 247.04482 250.36632 255.21472 262.9625 266.284 271.40617 278.6053 290.5059 297.54347 300.9152 308.55509 311.8766 318.91416 322.2859 325.65763 332.57325 340.21315 347.52333 355.1632 358.39546 368.898 372.26976 377.19105 384.91014 388.14237 393.06367 400.70356 408.01374 411.38548 416.3808 419.7023 426.46067 429.8324 435.57868 438.81095 446.55873 454.2778 457.5993 464.63688 472.27677 479.99586 483.2281 494.96458 498.3363 504.08259 509.82887 513.20059 521.1343 528.7742 532.48306 535.5684 538.88998 546.23599 553.87588 557.24758 562.99386 566.22616 576.5106 583.5482 589.2945 592.616 597.73818 605.04837 612.76748 620.07766 626.983 631.90426 639.3972 647.0371 650.35867 653.73037 661.37026 664.6918 672.6255 675.9972 679.3689 683.7765 688.26016 693.84317">and knowledge gathering to remain aligned with their vision and mission.  This was repeated in Cliffs </tspan></text>
<text xml:space="preserve" transform="matrix(.75 0 0 .75 0 0)" font-size="14.6921" font-family="F2"><tspan y="642.56" x="96 101.74628 106.667568 114.601299 119.59661 122.96834 130.16747 136.04431 139.27658 146.31417 154.03325 161.78104 169.42093 174.26934 177.59084 185.30992 193.05771 203.56026 206.88176 214.52165 221.72078 225.04228 232.79007 239.54845 246.85863 251.85395 257.87773 264.91529 276.8159 284.015 287.33653 293.5491 301.189 308.22657 311.5983 314.97004 322.2802 329.9993 336.91493 344.2251 349.97138 353.2036 360.24119 363.47346 371.4072 379.0471 385.9627 389.2842 394.2055 401.6985 409.00868 412.33018 419.97007 427.00764 431.92893 439.56883 442.89033 450.82408 455.2317 458.5532 466.27229 469.644 475.227 478.5485 481.92024 485.29197 489.77565 497.08583 500.61195">stories about how he overcame challenges along the path of his life. </tspan></text>
<text fill="#2f5496" xml:space="preserve" transform="matrix(.75 0 0 .75 0 0)" font-size="21.2397" font-family="F1"><tspan y="684.32" x="96 108.89109 119.38648 128.94435 139.43976 144.12743 155.2036 166.23828 170.91101 182.27756 193.5346 198.22228 202.90995 212.90755 223.94223 235.0184 242.2399 252.64736 259.627 264.31468 275.39085 286.22309 291.32063 300.93449 310.29945 314.9871 319.67475 324.3624 332.43348 337.23524 344.45674 355.5329 360.20564 371.67509 382.17048 390.38426 401.41896 412.676 423.7107 434.7454 439.54716 446.5268 457.60298 462.40473 473.7713 484.806 495.00108 499.68873 504.14906 514.9813 526.016 535.9721 546.4675 554.68136 559.4831 569.67819 580.7128 591.7475 596.4202 607.20608 614.52798 624.723 633.7561 640.7357 645.4234 654.4565 664.9519">Develop Collaboration Skills to Respond to Challenges and Practice </tspan></text>
<text fill="#2f5496" xml:space="preserve" transform="matrix(.75 0 0 .75 0 0)" font-size="21.2397" font-family="F1"><tspan y="712.48" x="96 106.38132 117.41601 124.39565 131.71753 142.21294 153.24762 160.5695 171.06491 182.32196 192.72942 203.7641 211.08599 219.58188 230.61656 235.07689 246.33394">Entrepreneurship </tspan></text>
<text xml:space="preserve" transform="matrix(.75 0 0 .75 0 0)" font-size="14.6921" font-family="F2"><tspan y="734.24" x="96 103.15953 110.79942 118.29239 121.52465 129.24375 132.61547 139.53108 146.28945 153.78241 159.52869 164.37709 167.6986 170.93085 178.24103 184.11788 189.70088 197.44867 205.16776 208.48926 213.41054 221.12963 228.1672 233.01561 236.33712 241.45926 248.76944 254.35245 262.2862 269.9261 276.96366 281.81205 289.30503 296.94493 300.17716 310.67973 314.05146 318.97276 326.61265 329.84489 341.74549 348.9446 352.17686 356.66053 364.59428 369.5896 372.82185 377.74314 385.46223 388.83396 394.58024 397.90174 404.9393 409.93464 417.13377 424.17134 427.49284 437.9954 445.03297 450.9098 453.99513 458.9164 466.6355 473.94569 477.17793 485.11167 492.75157 500.06175 503.29399 511.04176 515.5254 518.8469 525.0595 532.6994 544.30618 556.2068 563.8467 571.4866 574.8583 579.70669 586.465 589.78659 596.82418 604.46408 612.10397 615.4255 620.34677 628.06588 635.265 638.58657 644.4634 652.1033 659.74319 664.2412 667.6129 674.9231 680.7999 686.38296 694.13076 701.84988 705.1714 712.9192 717.3268">The biggest lesson that resonated with me for this area was the one of community and the sub-lesson of </tspan></text>
<text xml:space="preserve" transform="matrix(.75 0 0 .75 0 0)" font-size="14.6921" font-family="F2"><tspan y="753.44" x="96 103.63989 110.95007 116.07223 121.94907 129.69686 137.33675 144.37433 147.74605 151.06755 158.70745 166.45523 173.49282 178.61496 186.25485 192.00113 195.71002 199.03153 202.35303 211.31522 219.24895 229.68035 233.00185 236.37357 241.22197 244.54347 249.83263 257.03178 260.26405 267.3016 272.2229 279.71589 285.46217 288.78367 293.63206 301.37983 304.61207 310.82466 318.57243 321.94416 325.3159 332.35346 339.84645 347.78019 352.90235 359.9399 364.7883 368.02058 375.76835 383.48744 386.80894 390.18067 396.0575 399.14283 404.06413 411.7832 418.68849 423.60978 426.93128 430.303 435.2243 438.5458 444.8634 448.09568 455.84346 461.72029 469.03047 472.26274 478.91294 482.23445 487.22978 494.53996 497.91169 504.94926 509.87055 517.0697 522.94656 526.17886 531.0272 538.775 542.30117 547.14956 554.6425 562.1355 565.3678 573.0869 578.0822 585.83 592.14767 599.4578 605.04086 610.7871 614.0194 621.7672 626.25088 629.5724 637.2915 645.0106 648.3823 651.754 659.3939 662.7656 670.4055 677.3211 680.64266 688.39047 696.10958 701.0308 704.35238 711.2577">personal boards.  How it relates to collaboration is that it closely relates to the process of building out a </tspan></text>
<text xml:space="preserve" transform="matrix(.75 0 0 .75 0 0)" font-size="14.6921" font-family="F2"><tspan y="772.8" x="96 103.63989 110.95007 116.07223 121.94907 129.69686 137.33675 144.37433 147.74605 151.06755 158.70745 166.45523 173.49282 178.61496 186.25485 189.57636 197.29544 203.94562 207.17789 213.05474 220.69463 227.73221 232.85436 236.22608 243.86597 250.78159 254.01386 257.24613 264.88603 272.1962 279.39533 285.1416 288.37385 295.4114 303.1305 310.7704 314.0919 321.58488 329.22477 336.14039 343.04566 349.96128 353.333 360.9729 367.88853 371.21003 374.58177 382.22166 385.54316 392.58073 395.90223 400.89756 408.39054 414.60313 417.68849 425.40757 430.52973 438.2775 444.5951 451.63267 456.55397 459.9257 467.56559 474.4812 477.8027 485.4426 490.43794 498.37168 504.58427 511.89445 517.4774 523.2237 526.5452 534.47897 538.7396 542.06118 549.37136 555.73458 561.94717 569.58706 576.4924 584.13229 591.04788 594.41958 602.05947 608.97506 612.20736 617.1286 624.8477 632.78146 640.4213 647.3369 654.9768 659.8981 665.64437 669.3532 672.67477 675.9963 679.698 684.61929 688.2851 694.0314 697.2637 702.18496 709.8248 717.3178">personal board by sharing ideas and engaging in a reciprocating process of exchanging thoughts.  It&#x2019;s the </tspan></text>
<text xml:space="preserve" transform="matrix(.75 0 0 .75 0 0)" font-size="14.6921" font-family="F2"><tspan y="792.16" x="96 103.63989 108.76205 116.69578 122.908359 130.21854 135.96482 141.54782 144.86933 152.80306 157.06377 160.38527 165.30655 170.4287 178.14778 183.89406 188.81534 192.18706 199.82695 206.74257 210.06407 214.98535 222.62525 229.93543 233.25693 240.89682 247.9344 252.7828 260.4227 265.54487 272.85505 276.17655 284.1103 288.5179 291.75016 298.78773 306.4276 314.36137 319.28266 326.77565 334.08583 339.20799 342.52949 345.9012 353.6203 361.2602 364.63194 371.3903 374.76203 382.40193 390.0418 397.07939 400.4511 403.7726 407.14436 414.63734 417.95884 423.83567 431.47557 438.51313 443.63529 447.00703 454.6469 461.56254 464.88404 469.80534 477.5244 484.8346 488.1561 495.87519 503.51509 508.63725 516.2771 523.7701 531.41 534.6423 542.3901 546.8737 550.19528 557.23287 564.87277 568.1943 571.4266 579.1457 586.4559 593.49349 596.815 604.7487 609.744 612.9763 617.8976 625.09677 630.843 637.45449 640.9805 644.30209 647.6236 656.12466 659.49636 664.4176 672.0575 679.8053 687.5244 694.44 702.0799">process of trusting the nature of another individual in sharing the burden of an idea or task.  Although </tspan></text>
<text xml:space="preserve" transform="matrix(.75 0 0 .75 0 0)" font-size="14.6921" font-family="F2"><tspan y="811.52" x="96 106.502559 109.87428 114.79557 122.51466 125.83617 130.95832 138.2685 144.14534 151.6383 158.94849 165.16107 170.08235 173.31462 178.2359 185.98369 189.30519 194.22647 201.86637 205.23809 210.98436 214.30587 220.62348 223.9952 230.90048 236.64676 242.39304 246.0589 249.3804 254.2288 261.8687 269.1789 274.30107 281.61125 284.93275 295.4353 302.47288 308.21916 315.85905 319.52488 324.44618 327.76768 334.67295 337.99446 348.497 356.2161 364.14985 367.2352 374.72819 377.96043 381.1927 389.12644 393.97483 397.20707 405.1408 409.54844 412.78068 418.99327 426.74104 430.11277 433.4845 440.52207 448.16197 456.0957 460.9441 467.98167 472.90296 476.2747 484.20845 491.70143 495.02293 501.93855 509.6863 513.058 520.7771 527.6927 530.7781 538.7118 546.3517 549.6732 557.60696 565.0999 570.0212 575.6042 578.9759 586.6158 593.92599 597.2475 605.1812 609.66488 612.89718 617.8184 625.4583 632.7685 636.09 641.96688 649.60678 656.64437 661.63967 668.9498 676.5897">with respect to this class, there wasn&#x2019;t a whole lot of collaboration going on outside of the shared </tspan></text>
<text xml:space="preserve" transform="matrix(.75 0 0 .75 0 0)" font-size="14.6921" font-family="F2"><tspan y="830.72" x="96 103.63989 107.01162 112.7579 119.0755 126.71539 132.46167 138.20795 141.57967 149.32746 157.04654 160.36804 167.40563 175.04552 182.7646 186.0861 192.29869 200.04648 203.4182 206.78992 213.6952 221.41429 229.16208 234.1574 241.19498 246.11626 249.48798 257.23576 264.87565 268.19715 276.1309 283.77079 287.0923 294.73219 299.85435 307.7881 311.16728 318.47746 324.69004 329.53843 332.77067 336.1424 343.86149 351.17167 358.20924 363.9555 367.277 374.9961 382.636 387.48439 390.80589 398.44578 404.3226 411.9625 419.00007 422.3718 425.74354 432.39375 435.71525 443.43434 451.1821 456.0305 459.352 462.72373 470.36363 473.68513 478.97428 486.28446 492.03074 499.5237 507.27149 514.9906 520.7369 527.93606 531.25759 536.17886 543.92666 547.24819 553.5658 561.2057 568.2433 571.615 574.9867 582.18588 589.82577 596.74136 604.0515 609.7978 613.50668">discussion and collaboration on project ideas but usually not in response to challenges. </tspan></text>
<text fill="#2f5496" xml:space="preserve" transform="matrix(.75 0 0 .75 0 0)" font-size="21.2397" font-family="F1"><tspan y="872.48" x="96 106.38132 115.72554 125.92059 130.60826 141.64295 151.64055 158.62021 169.11562 173.91736 183.88385 194.96002 205.9947 213.2162 218.31374 232.11954 246.96038 258.2174 262.89015 272.02323 282.43067 292.62574 299.84724 310.88194 315.56959 326.60429 336.5604 341.36216 352.43833 358.78535 363.5871 373.96846 385.00315 391.9828 399.3047 409.80009 421.26954 428.49104 438.98643 450.02113 460.5165 471.77357 478.99507 487.20884 498.46589 502.9262 513.9609 518.76266 529.8073 537.0288 541.7165 552.75119 561.78427 566.6694 577.70407 582.3917 592.88717 601.10098">Evaluate Your Own Learning of Entrepreneurship Principles </tspan></text>
<text xml:space="preserve" transform="matrix(.75 0 0 .75 0 0)" font-size="14.6921" font-family="F2"><tspan y="894.24" x="96 99.70171 103.02322 107.944499 115.58439 118.956119 126.67521 133.3541 136.6756 140.37732 144.04319 150.67903 157.98921 161.31072 168.3483 173.1967 176.5182 179.88993 187.2001 194.23769 199.8207 204.74198 208.06348 215.78256 223.7163 231.35619 238.99608 242.3678 249.67798 257.17097 260.49247 272.22895 278.9873 282.3088 288.05509 294.07887 302.0126 309.6525 316.96269 320.19493 327.9427 332.42637 335.6586 342.3375 350.05659 357.69648 368.19905 371.72517 379.03535 386.67524 393.59086 400.90104 404.22254 407.59428 415.23417 418.4664 425.77659 433.49568 438.41697 443.53913 450.8493 458.5684 463.69056 471.00074 478.64064 486.1336 493.7735 498.89567 504.64195 512.2818 515.6535 523.2934 526.6149 533.6525 541.37167 549.01156 552.33309 560.0522 566.9575 573.7159 580.91506 584.14736 591.18496 594.5065 606.2429 613.9907 619.11288 626.42306 629.74459 640.17599 647.48617 650.85787 654.22958 658.6372 663.75936 671.50717 679.22628 686.9454 694.58529 701.89547 709.61459">I think I&#x2019;ve at least doubled my scope of knowledge in entrepreneurship and have a more well-rounded </tspan></text>
<text xml:space="preserve" transform="matrix(.75 0 0 .75 0 0)" font-size="14.6921" font-family="F2"><tspan y="913.44" x="96 102.75837 106.1301 113.44028 123.871669 127.19317 134.94097 139.3486 142.6701 153.17266 160.89174 167.92932 172.77773 176.01 182.3276 189.9675 201.86809 209.36106 217.10884 224.82793 232.1381 239.8572 244.77848 250.36148 253.68299 258.53138 266.17127 273.48146 278.6036 286.0966 289.4181 296.45567 301.57783 308.77696 312.09846 316.94685 324.6946 328.0161 332.9374 340.6565 347.85563 351.17713 358.6701 366.31 371.2313 376.22663 383.5368 391.1767 396.29887 403.60905 411.32814 418.52726 426.16716 431.2893 434.66105 441.6986 445.07035 448.39186 460.29246 463.66419 471.30409 478.94398 484.69026 492.00044 496.92173 500.63066 503.86289 507.1844 514.2366 522.1703 525.4918 530.61398 537.8131 544.8507 548.2224 551.4547 558.2131 561.4454 567.65798 572.7801 579.43026 585.1765 590.0249 597.0625 600.4342 603.8059 607.1776 612.90756 620.2177 623.53927 628.4605 636.1796 643.3788 646.7003 650.072 657.3822 664.4198 669.54196 677.26107 680.63278 688.27267 695.18826 700.9345">view of what components there are to the entrepreneurial mindset.  To really crystallize the learnings </tspan></text>
<text xml:space="preserve" transform="matrix(.75 0 0 .75 0 0)" font-size="14.6921" font-family="F2"><tspan y="932.8" x="96 100.40763 105.529788 113.46352 125.070278 128.39177 133.31305 141.03214 144.40386 150.15013 153.3824 159.59499 167.34278 175.06186 180.184 185.76702 193.0772 196.3987 201.54094 209.0339 216.7817 224.50078 231.4164 239.05629 242.72216 246.04366 249.74538 253.41124 256.6435 260.01524 263.24748 270.96656 278.27674 285.5869 293.306 296.6275 301.4759 309.22367 312.4559 319.94889 326.31214 333.95204 337.32377 345.07154 350.06687 357.37705 360.69856 368.33845 376.0862 386.58879 389.821 394.7423 402.4614 409.77159 413.09309 416.32536 423.81834 430.7236 435.84577 443.56486 446.93659 454.57649 461.4921 467.23838 470.55989 475.68205 482.99223 486.36396 493.40153 498.2499 505.5601 508.8816 513.73 521.4778 524.7993 529.28298 537.0021 541.92337 549.64248 554.7646 561.96377 565.2853 572.77828 580.08847 586.40609 589.7778 595.52407 598.89578 606.64358 614.3627 619.9457 623.2672 630.9863 637.7447 640.977 644.3487 652.0678 655.583 662.78219 668.99478 673.916 677.2877 684.9276 691.8432 695.16476 700.086 707.8051 715.0043">from this course though, I&#x2019;ll need to explore how the learnings relate to future decisions by injecting the </tspan></text>
<text xml:space="preserve" transform="matrix(.75 0 0 .75 0 0)" font-size="14.6921" font-family="F2"><tspan y="952.16" x="96 100.92129 108.56118 116.49491 124.1348 131.05042 138.6903 143.61159 146.93309 154.65218 159.77433 167.41422 173.73183 181.042 186.78829 192.37129 195.6928 203.62653 207.88724 211.20874 218.92783 226.56772 237.07027 240.39177 243.91786 248.76627 252.08777 258.99305 262.36479 265.7365 269.058 272.42976 280.14884 285.07014 292.3803 297.50248 303.71507 311.46284 319.10273 326.7426 334.0528 340.3704 345.2917 350.87467 354.19618 359.11747 366.83656 374.7703 382.4102 389.3258 396.9657 400.67463 403.99613 407.22837 414.81834 421.7236 427.46989 432.39118 435.71269 442.03028 449.67018 457.6039 460.68928 467.00688 474.31706 480.06333 483.29557 495.19618 501.95454 508.7129 512.0344 519.75357 526.6589 533.41726 540.7274 544.04898 550.8073 558.5551 563.4764 568.32479 575.63497 583.27487 586.50717 598.4078 605.60696 608.92849 613.77688 621.52468 624.8462 629.76748 637.4866 644.6857 648.00729 655.7264 663.6601 667.0318 674.6717 679.5201">thought process of how it all interconnects though.  Past choices may have gotten me to the point </tspan></text>
</g>
</svg>
